M48
; DRILL file {KiCad 7.0.5-7.0.5~ubuntu20.04.1} date Fri 23 Jun 2023 07:32:12 AM CEST
; FORMAT={-:-/ absolute / inch / decimal}
; #@! TF.CreationDate,2023-06-23T07:32:12+02:00
; #@! TF.GenerationSoftware,Kicad,Pcbnew,7.0.5-7.0.5~ubuntu20.04.1
; #@! TF.FileFunction,Plated,1,2,PTH
FMAT,2
INCH
; #@! TA.AperFunction,Plated,PTH,ViaDrill
T1C0.0157
; #@! TA.AperFunction,Plated,PTH,ViaDrill
T2C0.0197
; #@! TA.AperFunction,Plated,PTH,ComponentDrill
T3C0.0295
; #@! TA.AperFunction,Plated,PTH,ComponentDrill
T4C0.0394
; #@! TA.AperFunction,Plated,PTH,ComponentDrill
T5C0.0472
%
G90
G05
T1
X0.0413Y1.4488
X0.0433Y0.4622
X0.1278Y1.8628
X0.174Y1.8628
X0.202Y1.9031
X0.2075Y2.0791
X0.2077Y2.1152
X0.2398Y0.6301
X0.2831Y0.6301
X0.2992Y2.3396
X0.2996Y1.5988
X0.2996Y1.5545
X0.3126Y1.7185
X0.3264Y0.6301
X0.3337Y1.8337
X0.3368Y1.9689
X0.3406Y0.3638
X0.3492Y1.7177
X0.3711Y2.3396
X0.3717Y0.6301
X0.3797Y0.3634
X0.3799Y1.8337
X0.3831Y1.9689
X0.4291Y1.8337
X0.4323Y1.9689
X0.4429Y2.3396
X0.4668Y1.1233
X0.5399Y1.122
X0.5524Y1.5626
X0.6071Y2.0594
X0.6087Y1.6091
X0.6122Y0.6211
X0.6122Y0.5758
X0.6122Y0.5356
X0.6122Y0.497
X0.6122Y0.4585
X0.613Y1.9526
X0.6386Y1.7287
X0.6644Y0.6211
X0.6644Y0.5758
X0.6644Y0.5356
X0.6644Y0.497
X0.6644Y0.4585
X0.748Y1.8409
X0.7807Y1.6106
X0.7953Y1.5492
X0.8055Y1.8488
X0.8094Y1.6819
X0.8457Y1.7823
X0.8504Y1.702
X0.8591Y1.5276
X0.8657Y1.398
X0.9079Y1.3984
X0.9222Y1.7378
X0.9321Y2.061
X0.9583Y1.8425
X0.9646Y2.1713
X0.9921Y1.5661
X0.998Y1.3587
X0.9988Y1.3118
X1.0057Y1.6386
X1.0261Y1.5819
X1.0299Y0.7299
X1.0305Y0.7697
X1.0469Y1.8413
X1.0634Y1.8898
X1.0689Y0.5226
X1.0709Y0.7697
X1.0866Y1.6921
X1.0921Y1.3587
X1.0933Y1.3118
X1.1205Y1.8898
T2
X0.1139Y0.3642
X0.1447Y0.3642
X0.1754Y0.3642
X0.2062Y0.3642
X0.2369Y0.3642
X0.2677Y0.3642
X0.2992Y0.3642
T3
X0.3425Y2.1634
X0.4213Y2.1634
X0.7598Y2.1634
X0.8209Y0.2874
X0.8386Y2.1634
X0.8996Y0.2874
X1.0079Y1.1988
X1.0866Y1.1988
T4
X0.1073Y1.7667
X0.1073Y1.6667
X0.1073Y1.5667
X0.2073Y1.7667
X0.2073Y1.6667
X0.2073Y1.5667
X0.3051Y0.2195
X0.3051Y0.1195
T5
X0.3016Y0.875
X0.4984Y0.875
T0
M30
