%TF.GenerationSoftware,KiCad,Pcbnew,7.0.5-7.0.5~ubuntu20.04.1*%
%TF.CreationDate,2023-06-23T07:32:12+02:00*%
%TF.ProjectId,ModuleV440,4d6f6475-6c65-4563-9434-302e6b696361,rev?*%
%TF.SameCoordinates,Original*%
%TF.FileFunction,Soldermask,Top*%
%TF.FilePolarity,Negative*%
%FSLAX46Y46*%
G04 Gerber Fmt 4.6, Leading zero omitted, Abs format (unit mm)*
G04 Created by KiCad (PCBNEW 7.0.5-7.0.5~ubuntu20.04.1) date 2023-06-23 07:32:12*
%MOMM*%
%LPD*%
G01*
G04 APERTURE LIST*
G04 Aperture macros list*
%AMRoundRect*
0 Rectangle with rounded corners*
0 $1 Rounding radius*
0 $2 $3 $4 $5 $6 $7 $8 $9 X,Y pos of 4 corners*
0 Add a 4 corners polygon primitive as box body*
4,1,4,$2,$3,$4,$5,$6,$7,$8,$9,$2,$3,0*
0 Add four circle primitives for the rounded corners*
1,1,$1+$1,$2,$3*
1,1,$1+$1,$4,$5*
1,1,$1+$1,$6,$7*
1,1,$1+$1,$8,$9*
0 Add four rect primitives between the rounded corners*
20,1,$1+$1,$2,$3,$4,$5,0*
20,1,$1+$1,$4,$5,$6,$7,0*
20,1,$1+$1,$6,$7,$8,$9,0*
20,1,$1+$1,$8,$9,$2,$3,0*%
G04 Aperture macros list end*
%ADD10RoundRect,0.350000X0.150000X-0.662500X0.150000X0.662500X-0.150000X0.662500X-0.150000X-0.662500X0*%
%ADD11RoundRect,0.450000X0.350000X0.625000X-0.350000X0.625000X-0.350000X-0.625000X0.350000X-0.625000X0*%
%ADD12O,1.600000X2.150000*%
%ADD13C,3.600000*%
%ADD14RoundRect,0.450000X0.262500X0.450000X-0.262500X0.450000X-0.262500X-0.450000X0.262500X-0.450000X0*%
%ADD15RoundRect,0.450000X-0.350000X-0.625000X0.350000X-0.625000X0.350000X0.625000X-0.350000X0.625000X0*%
%ADD16RoundRect,0.200000X0.400000X-0.450000X0.400000X0.450000X-0.400000X0.450000X-0.400000X-0.450000X0*%
%ADD17RoundRect,0.443750X-0.243750X-0.456250X0.243750X-0.456250X0.243750X0.456250X-0.243750X0.456250X0*%
%ADD18RoundRect,0.350000X-0.825000X-0.150000X0.825000X-0.150000X0.825000X0.150000X-0.825000X0.150000X0*%
%ADD19RoundRect,0.450000X-0.262500X-0.450000X0.262500X-0.450000X0.262500X0.450000X-0.262500X0.450000X0*%
%ADD20RoundRect,0.450000X-0.250000X-0.475000X0.250000X-0.475000X0.250000X0.475000X-0.250000X0.475000X0*%
%ADD21RoundRect,0.450000X0.250000X0.475000X-0.250000X0.475000X-0.250000X-0.475000X0.250000X-0.475000X0*%
%ADD22RoundRect,0.450000X-1.450000X0.312500X-1.450000X-0.312500X1.450000X-0.312500X1.450000X0.312500X0*%
%ADD23RoundRect,0.450000X0.450000X-0.262500X0.450000X0.262500X-0.450000X0.262500X-0.450000X-0.262500X0*%
%ADD24RoundRect,0.200000X1.250000X1.150000X-1.250000X1.150000X-1.250000X-1.150000X1.250000X-1.150000X0*%
%ADD25RoundRect,0.200000X-0.850000X-0.850000X0.850000X-0.850000X0.850000X0.850000X-0.850000X0.850000X0*%
%ADD26O,2.100000X2.100000*%
%ADD27RoundRect,0.200000X-1.000000X-1.200000X1.000000X-1.200000X1.000000X1.200000X-1.000000X1.200000X0*%
%ADD28C,2.800000*%
G04 APERTURE END LIST*
D10*
%TO.C,U1*%
X14390000Y53762500D03*
X15660000Y53762500D03*
X15660000Y60137500D03*
X14390000Y60137500D03*
%TD*%
D11*
%TO.C,RX1*%
X10700000Y54950000D03*
D12*
X8700000Y54950000D03*
%TD*%
D13*
%TO.C,REF\u002A\u002A*%
X2750000Y58600000D03*
%TD*%
%TO.C,REF\u002A\u002A*%
X27250000Y58600000D03*
%TD*%
D14*
%TO.C,R16*%
X3662500Y53650000D03*
X1837500Y53650000D03*
%TD*%
%TO.C,R19*%
X13712500Y28500000D03*
X11887500Y28500000D03*
%TD*%
D15*
%TO.C,EXTTEMP1*%
X25600000Y30450000D03*
D12*
X27600000Y30450000D03*
%TD*%
D11*
%TO.C,TX1*%
X21300000Y54950000D03*
D12*
X19300000Y54950000D03*
%TD*%
D16*
%TO.C,Q1*%
X2225000Y13550000D03*
X4125000Y13550000D03*
X3175000Y15550000D03*
%TD*%
D17*
%TO.C,D4*%
X1837500Y49450000D03*
X3712500Y49450000D03*
%TD*%
%TO.C,D3*%
X10262500Y13035000D03*
X12137500Y13035000D03*
%TD*%
D18*
%TO.C,ATTINY841*%
X18475000Y45410000D03*
X18475000Y44140000D03*
X18475000Y42870000D03*
X18475000Y41600000D03*
X18475000Y40330000D03*
X18475000Y39060000D03*
X18475000Y37790000D03*
X23425000Y37790000D03*
X23425000Y39060000D03*
X23425000Y40330000D03*
X23425000Y41600000D03*
X23425000Y42870000D03*
X23425000Y44140000D03*
X23425000Y45410000D03*
%TD*%
D19*
%TO.C,R21*%
X27012500Y36275000D03*
X28837500Y36275000D03*
%TD*%
%TO.C,R17*%
X6637500Y13080000D03*
X8462500Y13080000D03*
%TD*%
D14*
%TO.C,R18*%
X3662500Y51625000D03*
X1837500Y51625000D03*
%TD*%
D19*
%TO.C,R5*%
X11412500Y51500000D03*
X13237500Y51500000D03*
%TD*%
%TO.C,R20*%
X27012500Y38675000D03*
X28837500Y38675000D03*
%TD*%
D16*
%TO.C,D1*%
X26510000Y51410000D03*
X28410000Y51410000D03*
X27460000Y53410000D03*
%TD*%
D20*
%TO.C,C4*%
X21775000Y50775000D03*
X23675000Y50775000D03*
%TD*%
D21*
%TO.C,C5*%
X13295000Y48110000D03*
X11395000Y48110000D03*
%TD*%
D20*
%TO.C,C1*%
X21760000Y48540000D03*
X23660000Y48540000D03*
%TD*%
D19*
%TO.C,R14*%
X27012500Y41075000D03*
X28837500Y41075000D03*
%TD*%
%TO.C,R4*%
X10662500Y38325000D03*
X12487500Y38325000D03*
%TD*%
%TO.C,R2*%
X26507500Y49460000D03*
X28332500Y49460000D03*
%TD*%
%TO.C,R3*%
X10662500Y40725000D03*
X12487500Y40725000D03*
%TD*%
%TO.C,R1*%
X10637500Y43210000D03*
X12462500Y43210000D03*
%TD*%
D22*
%TO.C,F1*%
X27650000Y5787500D03*
X27650000Y1512500D03*
%TD*%
D19*
%TO.C,R15*%
X2287500Y11450000D03*
X4112500Y11450000D03*
%TD*%
D20*
%TO.C,C2*%
X26995000Y44500000D03*
X28895000Y44500000D03*
%TD*%
D23*
%TO.C,R23*%
X3870000Y3367500D03*
X3870000Y5192500D03*
%TD*%
D24*
%TO.C,D2*%
X24700000Y11950000D03*
X20400000Y11950000D03*
%TD*%
D25*
%TO.C,REMOTE1*%
X7750000Y5575000D03*
D26*
X7750000Y3035000D03*
%TD*%
D15*
%TO.C,POWER1*%
X20850000Y7300000D03*
D12*
X22850000Y7300000D03*
%TD*%
D13*
%TO.C,REF\u002A\u002A*%
X14840000Y3700000D03*
%TD*%
D25*
%TO.C,J2*%
X2725000Y44875000D03*
D26*
X5265000Y44875000D03*
X2725000Y42335000D03*
X5265000Y42335000D03*
X2725000Y39795000D03*
X5265000Y39795000D03*
%TD*%
D27*
%TO.C,Y1*%
X15570000Y49595000D03*
X19270000Y49595000D03*
%TD*%
D28*
%TO.C,R30*%
X12660000Y22225000D03*
X7660000Y22225000D03*
%TD*%
M02*
