%TF.GenerationSoftware,KiCad,Pcbnew,7.0.5-7.0.5~ubuntu20.04.1*%
%TF.CreationDate,2023-06-23T07:32:12+02:00*%
%TF.ProjectId,ModuleV440,4d6f6475-6c65-4563-9434-302e6b696361,rev?*%
%TF.SameCoordinates,Original*%
%TF.FileFunction,Legend,Bot*%
%TF.FilePolarity,Positive*%
%FSLAX46Y46*%
G04 Gerber Fmt 4.6, Leading zero omitted, Abs format (unit mm)*
G04 Created by KiCad (PCBNEW 7.0.5-7.0.5~ubuntu20.04.1) date 2023-06-23 07:32:12*
%MOMM*%
%LPD*%
G01*
G04 APERTURE LIST*
G04 Aperture macros list*
%AMRoundRect*
0 Rectangle with rounded corners*
0 $1 Rounding radius*
0 $2 $3 $4 $5 $6 $7 $8 $9 X,Y pos of 4 corners*
0 Add a 4 corners polygon primitive as box body*
4,1,4,$2,$3,$4,$5,$6,$7,$8,$9,$2,$3,0*
0 Add four circle primitives for the rounded corners*
1,1,$1+$1,$2,$3*
1,1,$1+$1,$4,$5*
1,1,$1+$1,$6,$7*
1,1,$1+$1,$8,$9*
0 Add four rect primitives between the rounded corners*
20,1,$1+$1,$2,$3,$4,$5,0*
20,1,$1+$1,$4,$5,$6,$7,0*
20,1,$1+$1,$6,$7,$8,$9,0*
20,1,$1+$1,$8,$9,$2,$3,0*%
G04 Aperture macros list end*
%ADD10C,0.200000*%
%ADD11C,0.300000*%
%ADD12C,0.150000*%
%ADD13C,0.250000*%
%ADD14RoundRect,0.450000X0.350000X0.625000X-0.350000X0.625000X-0.350000X-0.625000X0.350000X-0.625000X0*%
%ADD15O,1.600000X2.150000*%
%ADD16C,3.600000*%
%ADD17RoundRect,0.450000X-0.350000X-0.625000X0.350000X-0.625000X0.350000X0.625000X-0.350000X0.625000X0*%
%ADD18RoundRect,0.200000X-0.850000X-0.850000X0.850000X-0.850000X0.850000X0.850000X-0.850000X0.850000X0*%
%ADD19O,2.100000X2.100000*%
%ADD20C,2.800000*%
G04 APERTURE END LIST*
D10*
X22694742Y53535713D02*
X23666171Y53535713D01*
X23666171Y53535713D02*
X23780457Y53592856D01*
X23780457Y53592856D02*
X23837600Y53649999D01*
X23837600Y53649999D02*
X23894742Y53764285D01*
X23894742Y53764285D02*
X23894742Y53935713D01*
X23894742Y53935713D02*
X23837600Y54049999D01*
X23437600Y53535713D02*
X23494742Y53649999D01*
X23494742Y53649999D02*
X23494742Y53878571D01*
X23494742Y53878571D02*
X23437600Y53992856D01*
X23437600Y53992856D02*
X23380457Y54049999D01*
X23380457Y54049999D02*
X23266171Y54107142D01*
X23266171Y54107142D02*
X22923314Y54107142D01*
X22923314Y54107142D02*
X22809028Y54049999D01*
X22809028Y54049999D02*
X22751885Y53992856D01*
X22751885Y53992856D02*
X22694742Y53878571D01*
X22694742Y53878571D02*
X22694742Y53649999D01*
X22694742Y53649999D02*
X22751885Y53535713D01*
X23494742Y52964285D02*
X22694742Y52964285D01*
X22294742Y52964285D02*
X22351885Y53021428D01*
X22351885Y53021428D02*
X22409028Y52964285D01*
X22409028Y52964285D02*
X22351885Y52907142D01*
X22351885Y52907142D02*
X22294742Y52964285D01*
X22294742Y52964285D02*
X22409028Y52964285D01*
X22694742Y52564285D02*
X22694742Y52107142D01*
X22294742Y52392856D02*
X23323314Y52392856D01*
X23323314Y52392856D02*
X23437600Y52335713D01*
X23437600Y52335713D02*
X23494742Y52221428D01*
X23494742Y52221428D02*
X23494742Y52107142D01*
X23494742Y51707142D02*
X22294742Y51707142D01*
X23494742Y51192856D02*
X22866171Y51192856D01*
X22866171Y51192856D02*
X22751885Y51249999D01*
X22751885Y51249999D02*
X22694742Y51364285D01*
X22694742Y51364285D02*
X22694742Y51535714D01*
X22694742Y51535714D02*
X22751885Y51649999D01*
X22751885Y51649999D02*
X22809028Y51707142D01*
X22694742Y50107142D02*
X23494742Y50107142D01*
X22694742Y50621428D02*
X23323314Y50621428D01*
X23323314Y50621428D02*
X23437600Y50564285D01*
X23437600Y50564285D02*
X23494742Y50450000D01*
X23494742Y50450000D02*
X23494742Y50278571D01*
X23494742Y50278571D02*
X23437600Y50164285D01*
X23437600Y50164285D02*
X23380457Y50107142D01*
X23494742Y49535714D02*
X22294742Y49535714D01*
X22751885Y49535714D02*
X22694742Y49421428D01*
X22694742Y49421428D02*
X22694742Y49192857D01*
X22694742Y49192857D02*
X22751885Y49078571D01*
X22751885Y49078571D02*
X22809028Y49021428D01*
X22809028Y49021428D02*
X22923314Y48964286D01*
X22923314Y48964286D02*
X23266171Y48964286D01*
X23266171Y48964286D02*
X23380457Y49021428D01*
X23380457Y49021428D02*
X23437600Y49078571D01*
X23437600Y49078571D02*
X23494742Y49192857D01*
X23494742Y49192857D02*
X23494742Y49421428D01*
X23494742Y49421428D02*
X23437600Y49535714D01*
X23380457Y48450000D02*
X23437600Y48392857D01*
X23437600Y48392857D02*
X23494742Y48450000D01*
X23494742Y48450000D02*
X23437600Y48507143D01*
X23437600Y48507143D02*
X23380457Y48450000D01*
X23380457Y48450000D02*
X23494742Y48450000D01*
X23437600Y47364285D02*
X23494742Y47478571D01*
X23494742Y47478571D02*
X23494742Y47707143D01*
X23494742Y47707143D02*
X23437600Y47821428D01*
X23437600Y47821428D02*
X23380457Y47878571D01*
X23380457Y47878571D02*
X23266171Y47935714D01*
X23266171Y47935714D02*
X22923314Y47935714D01*
X22923314Y47935714D02*
X22809028Y47878571D01*
X22809028Y47878571D02*
X22751885Y47821428D01*
X22751885Y47821428D02*
X22694742Y47707143D01*
X22694742Y47707143D02*
X22694742Y47478571D01*
X22694742Y47478571D02*
X22751885Y47364285D01*
X23494742Y46678572D02*
X23437600Y46792857D01*
X23437600Y46792857D02*
X23380457Y46850000D01*
X23380457Y46850000D02*
X23266171Y46907143D01*
X23266171Y46907143D02*
X22923314Y46907143D01*
X22923314Y46907143D02*
X22809028Y46850000D01*
X22809028Y46850000D02*
X22751885Y46792857D01*
X22751885Y46792857D02*
X22694742Y46678572D01*
X22694742Y46678572D02*
X22694742Y46507143D01*
X22694742Y46507143D02*
X22751885Y46392857D01*
X22751885Y46392857D02*
X22809028Y46335714D01*
X22809028Y46335714D02*
X22923314Y46278572D01*
X22923314Y46278572D02*
X23266171Y46278572D01*
X23266171Y46278572D02*
X23380457Y46335714D01*
X23380457Y46335714D02*
X23437600Y46392857D01*
X23437600Y46392857D02*
X23494742Y46507143D01*
X23494742Y46507143D02*
X23494742Y46678572D01*
X23494742Y45764286D02*
X22694742Y45764286D01*
X22809028Y45764286D02*
X22751885Y45707143D01*
X22751885Y45707143D02*
X22694742Y45592858D01*
X22694742Y45592858D02*
X22694742Y45421429D01*
X22694742Y45421429D02*
X22751885Y45307143D01*
X22751885Y45307143D02*
X22866171Y45250000D01*
X22866171Y45250000D02*
X23494742Y45250000D01*
X22866171Y45250000D02*
X22751885Y45192858D01*
X22751885Y45192858D02*
X22694742Y45078572D01*
X22694742Y45078572D02*
X22694742Y44907143D01*
X22694742Y44907143D02*
X22751885Y44792858D01*
X22751885Y44792858D02*
X22866171Y44735715D01*
X22866171Y44735715D02*
X23494742Y44735715D01*
X22237600Y43307143D02*
X23780457Y44335715D01*
X23437600Y42964286D02*
X23494742Y42850000D01*
X23494742Y42850000D02*
X23494742Y42621429D01*
X23494742Y42621429D02*
X23437600Y42507143D01*
X23437600Y42507143D02*
X23323314Y42450000D01*
X23323314Y42450000D02*
X23266171Y42450000D01*
X23266171Y42450000D02*
X23151885Y42507143D01*
X23151885Y42507143D02*
X23094742Y42621429D01*
X23094742Y42621429D02*
X23094742Y42792857D01*
X23094742Y42792857D02*
X23037600Y42907143D01*
X23037600Y42907143D02*
X22923314Y42964286D01*
X22923314Y42964286D02*
X22866171Y42964286D01*
X22866171Y42964286D02*
X22751885Y42907143D01*
X22751885Y42907143D02*
X22694742Y42792857D01*
X22694742Y42792857D02*
X22694742Y42621429D01*
X22694742Y42621429D02*
X22751885Y42507143D01*
X22694742Y42107143D02*
X22694742Y41650000D01*
X22294742Y41935714D02*
X23323314Y41935714D01*
X23323314Y41935714D02*
X23437600Y41878571D01*
X23437600Y41878571D02*
X23494742Y41764286D01*
X23494742Y41764286D02*
X23494742Y41650000D01*
X22694742Y40735714D02*
X23494742Y40735714D01*
X22694742Y41250000D02*
X23323314Y41250000D01*
X23323314Y41250000D02*
X23437600Y41192857D01*
X23437600Y41192857D02*
X23494742Y41078572D01*
X23494742Y41078572D02*
X23494742Y40907143D01*
X23494742Y40907143D02*
X23437600Y40792857D01*
X23437600Y40792857D02*
X23380457Y40735714D01*
X23494742Y39650000D02*
X22866171Y39650000D01*
X22866171Y39650000D02*
X22751885Y39707143D01*
X22751885Y39707143D02*
X22694742Y39821429D01*
X22694742Y39821429D02*
X22694742Y40050000D01*
X22694742Y40050000D02*
X22751885Y40164286D01*
X23437600Y39650000D02*
X23494742Y39764286D01*
X23494742Y39764286D02*
X23494742Y40050000D01*
X23494742Y40050000D02*
X23437600Y40164286D01*
X23437600Y40164286D02*
X23323314Y40221429D01*
X23323314Y40221429D02*
X23209028Y40221429D01*
X23209028Y40221429D02*
X23094742Y40164286D01*
X23094742Y40164286D02*
X23037600Y40050000D01*
X23037600Y40050000D02*
X23037600Y39764286D01*
X23037600Y39764286D02*
X22980457Y39650000D01*
X23494742Y39078572D02*
X22694742Y39078572D01*
X22923314Y39078572D02*
X22809028Y39021429D01*
X22809028Y39021429D02*
X22751885Y38964286D01*
X22751885Y38964286D02*
X22694742Y38850001D01*
X22694742Y38850001D02*
X22694742Y38735715D01*
X22694742Y38507144D02*
X22694742Y38050001D01*
X22294742Y38335715D02*
X23323314Y38335715D01*
X23323314Y38335715D02*
X23437600Y38278572D01*
X23437600Y38278572D02*
X23494742Y38164287D01*
X23494742Y38164287D02*
X23494742Y38050001D01*
X22694742Y37650001D02*
X23894742Y37650001D01*
X22751885Y37650001D02*
X22694742Y37535715D01*
X22694742Y37535715D02*
X22694742Y37307144D01*
X22694742Y37307144D02*
X22751885Y37192858D01*
X22751885Y37192858D02*
X22809028Y37135715D01*
X22809028Y37135715D02*
X22923314Y37078573D01*
X22923314Y37078573D02*
X23266171Y37078573D01*
X23266171Y37078573D02*
X23380457Y37135715D01*
X23380457Y37135715D02*
X23437600Y37192858D01*
X23437600Y37192858D02*
X23494742Y37307144D01*
X23494742Y37307144D02*
X23494742Y37535715D01*
X23494742Y37535715D02*
X23437600Y37650001D01*
X23494742Y36564287D02*
X22694742Y36564287D01*
X22294742Y36564287D02*
X22351885Y36621430D01*
X22351885Y36621430D02*
X22409028Y36564287D01*
X22409028Y36564287D02*
X22351885Y36507144D01*
X22351885Y36507144D02*
X22294742Y36564287D01*
X22294742Y36564287D02*
X22409028Y36564287D01*
X22694742Y36164287D02*
X22694742Y35707144D01*
X22294742Y35992858D02*
X23323314Y35992858D01*
X23323314Y35992858D02*
X23437600Y35935715D01*
X23437600Y35935715D02*
X23494742Y35821430D01*
X23494742Y35821430D02*
X23494742Y35707144D01*
X22694742Y35478573D02*
X22694742Y35021430D01*
X22294742Y35307144D02*
X23323314Y35307144D01*
X23323314Y35307144D02*
X23437600Y35250001D01*
X23437600Y35250001D02*
X23494742Y35135716D01*
X23494742Y35135716D02*
X23494742Y35021430D01*
X23494742Y34107144D02*
X22866171Y34107144D01*
X22866171Y34107144D02*
X22751885Y34164287D01*
X22751885Y34164287D02*
X22694742Y34278573D01*
X22694742Y34278573D02*
X22694742Y34507144D01*
X22694742Y34507144D02*
X22751885Y34621430D01*
X23437600Y34107144D02*
X23494742Y34221430D01*
X23494742Y34221430D02*
X23494742Y34507144D01*
X23494742Y34507144D02*
X23437600Y34621430D01*
X23437600Y34621430D02*
X23323314Y34678573D01*
X23323314Y34678573D02*
X23209028Y34678573D01*
X23209028Y34678573D02*
X23094742Y34621430D01*
X23094742Y34621430D02*
X23037600Y34507144D01*
X23037600Y34507144D02*
X23037600Y34221430D01*
X23037600Y34221430D02*
X22980457Y34107144D01*
X22694742Y33650002D02*
X23494742Y33421430D01*
X23494742Y33421430D02*
X22923314Y33192859D01*
X22923314Y33192859D02*
X23494742Y32964288D01*
X23494742Y32964288D02*
X22694742Y32735716D01*
X23494742Y31764287D02*
X22866171Y31764287D01*
X22866171Y31764287D02*
X22751885Y31821430D01*
X22751885Y31821430D02*
X22694742Y31935716D01*
X22694742Y31935716D02*
X22694742Y32164287D01*
X22694742Y32164287D02*
X22751885Y32278573D01*
X23437600Y31764287D02*
X23494742Y31878573D01*
X23494742Y31878573D02*
X23494742Y32164287D01*
X23494742Y32164287D02*
X23437600Y32278573D01*
X23437600Y32278573D02*
X23323314Y32335716D01*
X23323314Y32335716D02*
X23209028Y32335716D01*
X23209028Y32335716D02*
X23094742Y32278573D01*
X23094742Y32278573D02*
X23037600Y32164287D01*
X23037600Y32164287D02*
X23037600Y31878573D01*
X23037600Y31878573D02*
X22980457Y31764287D01*
X22694742Y31307145D02*
X23494742Y31021431D01*
X22694742Y30735716D02*
X23494742Y31021431D01*
X23494742Y31021431D02*
X23780457Y31135716D01*
X23780457Y31135716D02*
X23837600Y31192859D01*
X23837600Y31192859D02*
X23894742Y31307145D01*
X22237600Y29421430D02*
X23780457Y30450002D01*
X23494742Y28507144D02*
X22294742Y28507144D01*
X23437600Y28507144D02*
X23494742Y28621430D01*
X23494742Y28621430D02*
X23494742Y28850002D01*
X23494742Y28850002D02*
X23437600Y28964287D01*
X23437600Y28964287D02*
X23380457Y29021430D01*
X23380457Y29021430D02*
X23266171Y29078573D01*
X23266171Y29078573D02*
X22923314Y29078573D01*
X22923314Y29078573D02*
X22809028Y29021430D01*
X22809028Y29021430D02*
X22751885Y28964287D01*
X22751885Y28964287D02*
X22694742Y28850002D01*
X22694742Y28850002D02*
X22694742Y28621430D01*
X22694742Y28621430D02*
X22751885Y28507144D01*
X23494742Y27935716D02*
X22694742Y27935716D01*
X22294742Y27935716D02*
X22351885Y27992859D01*
X22351885Y27992859D02*
X22409028Y27935716D01*
X22409028Y27935716D02*
X22351885Y27878573D01*
X22351885Y27878573D02*
X22294742Y27935716D01*
X22294742Y27935716D02*
X22409028Y27935716D01*
X22694742Y27478573D02*
X23494742Y27192859D01*
X22694742Y26907144D02*
X23494742Y27192859D01*
X23494742Y27192859D02*
X23780457Y27307144D01*
X23780457Y27307144D02*
X23837600Y27364287D01*
X23837600Y27364287D02*
X23894742Y27478573D01*
X22866171Y26050001D02*
X22923314Y25878573D01*
X22923314Y25878573D02*
X22980457Y25821430D01*
X22980457Y25821430D02*
X23094742Y25764287D01*
X23094742Y25764287D02*
X23266171Y25764287D01*
X23266171Y25764287D02*
X23380457Y25821430D01*
X23380457Y25821430D02*
X23437600Y25878573D01*
X23437600Y25878573D02*
X23494742Y25992858D01*
X23494742Y25992858D02*
X23494742Y26450001D01*
X23494742Y26450001D02*
X22294742Y26450001D01*
X22294742Y26450001D02*
X22294742Y26050001D01*
X22294742Y26050001D02*
X22351885Y25935715D01*
X22351885Y25935715D02*
X22409028Y25878573D01*
X22409028Y25878573D02*
X22523314Y25821430D01*
X22523314Y25821430D02*
X22637600Y25821430D01*
X22637600Y25821430D02*
X22751885Y25878573D01*
X22751885Y25878573D02*
X22809028Y25935715D01*
X22809028Y25935715D02*
X22866171Y26050001D01*
X22866171Y26050001D02*
X22866171Y26450001D01*
X23494742Y25250001D02*
X22294742Y25250001D01*
X22294742Y25250001D02*
X23151885Y24850001D01*
X23151885Y24850001D02*
X22294742Y24450001D01*
X22294742Y24450001D02*
X23494742Y24450001D01*
X23437600Y23935715D02*
X23494742Y23764286D01*
X23494742Y23764286D02*
X23494742Y23478572D01*
X23494742Y23478572D02*
X23437600Y23364286D01*
X23437600Y23364286D02*
X23380457Y23307144D01*
X23380457Y23307144D02*
X23266171Y23250001D01*
X23266171Y23250001D02*
X23151885Y23250001D01*
X23151885Y23250001D02*
X23037600Y23307144D01*
X23037600Y23307144D02*
X22980457Y23364286D01*
X22980457Y23364286D02*
X22923314Y23478572D01*
X22923314Y23478572D02*
X22866171Y23707144D01*
X22866171Y23707144D02*
X22809028Y23821429D01*
X22809028Y23821429D02*
X22751885Y23878572D01*
X22751885Y23878572D02*
X22637600Y23935715D01*
X22637600Y23935715D02*
X22523314Y23935715D01*
X22523314Y23935715D02*
X22409028Y23878572D01*
X22409028Y23878572D02*
X22351885Y23821429D01*
X22351885Y23821429D02*
X22294742Y23707144D01*
X22294742Y23707144D02*
X22294742Y23421429D01*
X22294742Y23421429D02*
X22351885Y23250001D01*
X22694742Y22850001D02*
X23494742Y22564287D01*
X23494742Y22564287D02*
X22694742Y22278572D01*
X22694742Y21307143D02*
X23494742Y21307143D01*
X22237600Y21592858D02*
X23094742Y21878572D01*
X23094742Y21878572D02*
X23094742Y21135715D01*
X22310146Y60726472D02*
X22167289Y60726472D01*
X22167289Y60726472D02*
X22024432Y60655043D01*
X22024432Y60655043D02*
X21953004Y60583615D01*
X21953004Y60583615D02*
X21881575Y60440758D01*
X21881575Y60440758D02*
X21810146Y60155043D01*
X21810146Y60155043D02*
X21810146Y59797900D01*
X21810146Y59797900D02*
X21881575Y59512186D01*
X21881575Y59512186D02*
X21953004Y59369329D01*
X21953004Y59369329D02*
X22024432Y59297900D01*
X22024432Y59297900D02*
X22167289Y59226472D01*
X22167289Y59226472D02*
X22310146Y59226472D01*
X22310146Y59226472D02*
X22453004Y59297900D01*
X22453004Y59297900D02*
X22524432Y59369329D01*
X22524432Y59369329D02*
X22595861Y59512186D01*
X22595861Y59512186D02*
X22667289Y59797900D01*
X22667289Y59797900D02*
X22667289Y60155043D01*
X22667289Y60155043D02*
X22595861Y60440758D01*
X22595861Y60440758D02*
X22524432Y60583615D01*
X22524432Y60583615D02*
X22453004Y60655043D01*
X22453004Y60655043D02*
X22310146Y60726472D01*
X21095861Y59226472D02*
X20810147Y59226472D01*
X20810147Y59226472D02*
X20667290Y59297900D01*
X20667290Y59297900D02*
X20595861Y59369329D01*
X20595861Y59369329D02*
X20453004Y59583615D01*
X20453004Y59583615D02*
X20381575Y59869329D01*
X20381575Y59869329D02*
X20381575Y60440758D01*
X20381575Y60440758D02*
X20453004Y60583615D01*
X20453004Y60583615D02*
X20524433Y60655043D01*
X20524433Y60655043D02*
X20667290Y60726472D01*
X20667290Y60726472D02*
X20953004Y60726472D01*
X20953004Y60726472D02*
X21095861Y60655043D01*
X21095861Y60655043D02*
X21167290Y60583615D01*
X21167290Y60583615D02*
X21238718Y60440758D01*
X21238718Y60440758D02*
X21238718Y60083615D01*
X21238718Y60083615D02*
X21167290Y59940758D01*
X21167290Y59940758D02*
X21095861Y59869329D01*
X21095861Y59869329D02*
X20953004Y59797900D01*
X20953004Y59797900D02*
X20667290Y59797900D01*
X20667290Y59797900D02*
X20524433Y59869329D01*
X20524433Y59869329D02*
X20453004Y59940758D01*
X20453004Y59940758D02*
X20381575Y60083615D01*
X18595862Y59226472D02*
X18595862Y60726472D01*
X18595862Y60726472D02*
X18095862Y59655043D01*
X18095862Y59655043D02*
X17595862Y60726472D01*
X17595862Y60726472D02*
X17595862Y59226472D01*
X16238719Y59226472D02*
X16238719Y60012186D01*
X16238719Y60012186D02*
X16310147Y60155043D01*
X16310147Y60155043D02*
X16453004Y60226472D01*
X16453004Y60226472D02*
X16738719Y60226472D01*
X16738719Y60226472D02*
X16881576Y60155043D01*
X16238719Y59297900D02*
X16381576Y59226472D01*
X16381576Y59226472D02*
X16738719Y59226472D01*
X16738719Y59226472D02*
X16881576Y59297900D01*
X16881576Y59297900D02*
X16953004Y59440758D01*
X16953004Y59440758D02*
X16953004Y59583615D01*
X16953004Y59583615D02*
X16881576Y59726472D01*
X16881576Y59726472D02*
X16738719Y59797900D01*
X16738719Y59797900D02*
X16381576Y59797900D01*
X16381576Y59797900D02*
X16238719Y59869329D01*
X15667290Y60226472D02*
X15310147Y59226472D01*
X14953004Y60226472D02*
X15310147Y59226472D01*
X15310147Y59226472D02*
X15453004Y58869329D01*
X15453004Y58869329D02*
X15524433Y58797900D01*
X15524433Y58797900D02*
X15667290Y58726472D01*
X13310147Y60583615D02*
X13238719Y60655043D01*
X13238719Y60655043D02*
X13095862Y60726472D01*
X13095862Y60726472D02*
X12738719Y60726472D01*
X12738719Y60726472D02*
X12595862Y60655043D01*
X12595862Y60655043D02*
X12524433Y60583615D01*
X12524433Y60583615D02*
X12453004Y60440758D01*
X12453004Y60440758D02*
X12453004Y60297900D01*
X12453004Y60297900D02*
X12524433Y60083615D01*
X12524433Y60083615D02*
X13381576Y59226472D01*
X13381576Y59226472D02*
X12453004Y59226472D01*
X11524433Y60726472D02*
X11381576Y60726472D01*
X11381576Y60726472D02*
X11238719Y60655043D01*
X11238719Y60655043D02*
X11167291Y60583615D01*
X11167291Y60583615D02*
X11095862Y60440758D01*
X11095862Y60440758D02*
X11024433Y60155043D01*
X11024433Y60155043D02*
X11024433Y59797900D01*
X11024433Y59797900D02*
X11095862Y59512186D01*
X11095862Y59512186D02*
X11167291Y59369329D01*
X11167291Y59369329D02*
X11238719Y59297900D01*
X11238719Y59297900D02*
X11381576Y59226472D01*
X11381576Y59226472D02*
X11524433Y59226472D01*
X11524433Y59226472D02*
X11667291Y59297900D01*
X11667291Y59297900D02*
X11738719Y59369329D01*
X11738719Y59369329D02*
X11810148Y59512186D01*
X11810148Y59512186D02*
X11881576Y59797900D01*
X11881576Y59797900D02*
X11881576Y60155043D01*
X11881576Y60155043D02*
X11810148Y60440758D01*
X11810148Y60440758D02*
X11738719Y60583615D01*
X11738719Y60583615D02*
X11667291Y60655043D01*
X11667291Y60655043D02*
X11524433Y60726472D01*
X10453005Y60583615D02*
X10381577Y60655043D01*
X10381577Y60655043D02*
X10238720Y60726472D01*
X10238720Y60726472D02*
X9881577Y60726472D01*
X9881577Y60726472D02*
X9738720Y60655043D01*
X9738720Y60655043D02*
X9667291Y60583615D01*
X9667291Y60583615D02*
X9595862Y60440758D01*
X9595862Y60440758D02*
X9595862Y60297900D01*
X9595862Y60297900D02*
X9667291Y60083615D01*
X9667291Y60083615D02*
X10524434Y59226472D01*
X10524434Y59226472D02*
X9595862Y59226472D01*
X8167291Y59226472D02*
X9024434Y59226472D01*
X8595863Y59226472D02*
X8595863Y60726472D01*
X8595863Y60726472D02*
X8738720Y60512186D01*
X8738720Y60512186D02*
X8881577Y60369329D01*
X8881577Y60369329D02*
X9024434Y60297900D01*
D11*
X10124999Y56496672D02*
X10624999Y57210958D01*
X10982142Y56496672D02*
X10982142Y57996672D01*
X10982142Y57996672D02*
X10410713Y57996672D01*
X10410713Y57996672D02*
X10267856Y57925243D01*
X10267856Y57925243D02*
X10196427Y57853815D01*
X10196427Y57853815D02*
X10124999Y57710958D01*
X10124999Y57710958D02*
X10124999Y57496672D01*
X10124999Y57496672D02*
X10196427Y57353815D01*
X10196427Y57353815D02*
X10267856Y57282386D01*
X10267856Y57282386D02*
X10410713Y57210958D01*
X10410713Y57210958D02*
X10982142Y57210958D01*
X9624999Y57996672D02*
X8624999Y56496672D01*
X8624999Y57996672D02*
X9624999Y56496672D01*
X21617856Y58096672D02*
X20760714Y58096672D01*
X21189285Y56596672D02*
X21189285Y58096672D01*
X20403571Y58096672D02*
X19403571Y56596672D01*
X19403571Y58096672D02*
X20403571Y56596672D01*
X25064286Y1121672D02*
X25064286Y2621672D01*
X25064286Y2621672D02*
X24492857Y2621672D01*
X24492857Y2621672D02*
X24350000Y2550243D01*
X24350000Y2550243D02*
X24278571Y2478815D01*
X24278571Y2478815D02*
X24207143Y2335958D01*
X24207143Y2335958D02*
X24207143Y2121672D01*
X24207143Y2121672D02*
X24278571Y1978815D01*
X24278571Y1978815D02*
X24350000Y1907386D01*
X24350000Y1907386D02*
X24492857Y1835958D01*
X24492857Y1835958D02*
X25064286Y1835958D01*
X23278571Y2621672D02*
X22992857Y2621672D01*
X22992857Y2621672D02*
X22850000Y2550243D01*
X22850000Y2550243D02*
X22707143Y2407386D01*
X22707143Y2407386D02*
X22635714Y2121672D01*
X22635714Y2121672D02*
X22635714Y1621672D01*
X22635714Y1621672D02*
X22707143Y1335958D01*
X22707143Y1335958D02*
X22850000Y1193100D01*
X22850000Y1193100D02*
X22992857Y1121672D01*
X22992857Y1121672D02*
X23278571Y1121672D01*
X23278571Y1121672D02*
X23421429Y1193100D01*
X23421429Y1193100D02*
X23564286Y1335958D01*
X23564286Y1335958D02*
X23635714Y1621672D01*
X23635714Y1621672D02*
X23635714Y2121672D01*
X23635714Y2121672D02*
X23564286Y2407386D01*
X23564286Y2407386D02*
X23421429Y2550243D01*
X23421429Y2550243D02*
X23278571Y2621672D01*
X22135714Y2621672D02*
X21778571Y1121672D01*
X21778571Y1121672D02*
X21492857Y2193100D01*
X21492857Y2193100D02*
X21207142Y1121672D01*
X21207142Y1121672D02*
X20850000Y2621672D01*
X20278571Y1907386D02*
X19778571Y1907386D01*
X19564285Y1121672D02*
X20278571Y1121672D01*
X20278571Y1121672D02*
X20278571Y2621672D01*
X20278571Y2621672D02*
X19564285Y2621672D01*
X18064285Y1121672D02*
X18564285Y1835958D01*
X18921428Y1121672D02*
X18921428Y2621672D01*
X18921428Y2621672D02*
X18349999Y2621672D01*
X18349999Y2621672D02*
X18207142Y2550243D01*
X18207142Y2550243D02*
X18135713Y2478815D01*
X18135713Y2478815D02*
X18064285Y2335958D01*
X18064285Y2335958D02*
X18064285Y2121672D01*
X18064285Y2121672D02*
X18135713Y1978815D01*
X18135713Y1978815D02*
X18207142Y1907386D01*
X18207142Y1907386D02*
X18349999Y1835958D01*
X18349999Y1835958D02*
X18921428Y1835958D01*
D12*
X19842856Y32260181D02*
X19842856Y33260181D01*
X19842856Y33260181D02*
X19604761Y33260181D01*
X19604761Y33260181D02*
X19461904Y33212562D01*
X19461904Y33212562D02*
X19366666Y33117324D01*
X19366666Y33117324D02*
X19319047Y33022086D01*
X19319047Y33022086D02*
X19271428Y32831610D01*
X19271428Y32831610D02*
X19271428Y32688753D01*
X19271428Y32688753D02*
X19319047Y32498277D01*
X19319047Y32498277D02*
X19366666Y32403039D01*
X19366666Y32403039D02*
X19461904Y32307800D01*
X19461904Y32307800D02*
X19604761Y32260181D01*
X19604761Y32260181D02*
X19842856Y32260181D01*
X18652380Y33260181D02*
X18461904Y33260181D01*
X18461904Y33260181D02*
X18366666Y33212562D01*
X18366666Y33212562D02*
X18271428Y33117324D01*
X18271428Y33117324D02*
X18223809Y32926848D01*
X18223809Y32926848D02*
X18223809Y32593515D01*
X18223809Y32593515D02*
X18271428Y32403039D01*
X18271428Y32403039D02*
X18366666Y32307800D01*
X18366666Y32307800D02*
X18461904Y32260181D01*
X18461904Y32260181D02*
X18652380Y32260181D01*
X18652380Y32260181D02*
X18747618Y32307800D01*
X18747618Y32307800D02*
X18842856Y32403039D01*
X18842856Y32403039D02*
X18890475Y32593515D01*
X18890475Y32593515D02*
X18890475Y32926848D01*
X18890475Y32926848D02*
X18842856Y33117324D01*
X18842856Y33117324D02*
X18747618Y33212562D01*
X18747618Y33212562D02*
X18652380Y33260181D01*
X17033332Y32260181D02*
X17033332Y33260181D01*
X17033332Y33260181D02*
X16461904Y32260181D01*
X16461904Y32260181D02*
X16461904Y33260181D01*
X15795237Y33260181D02*
X15604761Y33260181D01*
X15604761Y33260181D02*
X15509523Y33212562D01*
X15509523Y33212562D02*
X15414285Y33117324D01*
X15414285Y33117324D02*
X15366666Y32926848D01*
X15366666Y32926848D02*
X15366666Y32593515D01*
X15366666Y32593515D02*
X15414285Y32403039D01*
X15414285Y32403039D02*
X15509523Y32307800D01*
X15509523Y32307800D02*
X15604761Y32260181D01*
X15604761Y32260181D02*
X15795237Y32260181D01*
X15795237Y32260181D02*
X15890475Y32307800D01*
X15890475Y32307800D02*
X15985713Y32403039D01*
X15985713Y32403039D02*
X16033332Y32593515D01*
X16033332Y32593515D02*
X16033332Y32926848D01*
X16033332Y32926848D02*
X15985713Y33117324D01*
X15985713Y33117324D02*
X15890475Y33212562D01*
X15890475Y33212562D02*
X15795237Y33260181D01*
X15080951Y33260181D02*
X14509523Y33260181D01*
X14795237Y32260181D02*
X14795237Y33260181D01*
X13461903Y32307800D02*
X13319046Y32260181D01*
X13319046Y32260181D02*
X13080951Y32260181D01*
X13080951Y32260181D02*
X12985713Y32307800D01*
X12985713Y32307800D02*
X12938094Y32355420D01*
X12938094Y32355420D02*
X12890475Y32450658D01*
X12890475Y32450658D02*
X12890475Y32545896D01*
X12890475Y32545896D02*
X12938094Y32641134D01*
X12938094Y32641134D02*
X12985713Y32688753D01*
X12985713Y32688753D02*
X13080951Y32736372D01*
X13080951Y32736372D02*
X13271427Y32783991D01*
X13271427Y32783991D02*
X13366665Y32831610D01*
X13366665Y32831610D02*
X13414284Y32879229D01*
X13414284Y32879229D02*
X13461903Y32974467D01*
X13461903Y32974467D02*
X13461903Y33069705D01*
X13461903Y33069705D02*
X13414284Y33164943D01*
X13414284Y33164943D02*
X13366665Y33212562D01*
X13366665Y33212562D02*
X13271427Y33260181D01*
X13271427Y33260181D02*
X13033332Y33260181D01*
X13033332Y33260181D02*
X12890475Y33212562D01*
X12461903Y32260181D02*
X12461903Y33260181D01*
X12461903Y32783991D02*
X11890475Y32783991D01*
X11890475Y32260181D02*
X11890475Y33260181D01*
X11223808Y33260181D02*
X11033332Y33260181D01*
X11033332Y33260181D02*
X10938094Y33212562D01*
X10938094Y33212562D02*
X10842856Y33117324D01*
X10842856Y33117324D02*
X10795237Y32926848D01*
X10795237Y32926848D02*
X10795237Y32593515D01*
X10795237Y32593515D02*
X10842856Y32403039D01*
X10842856Y32403039D02*
X10938094Y32307800D01*
X10938094Y32307800D02*
X11033332Y32260181D01*
X11033332Y32260181D02*
X11223808Y32260181D01*
X11223808Y32260181D02*
X11319046Y32307800D01*
X11319046Y32307800D02*
X11414284Y32403039D01*
X11414284Y32403039D02*
X11461903Y32593515D01*
X11461903Y32593515D02*
X11461903Y32926848D01*
X11461903Y32926848D02*
X11414284Y33117324D01*
X11414284Y33117324D02*
X11319046Y33212562D01*
X11319046Y33212562D02*
X11223808Y33260181D01*
X9795237Y32260181D02*
X10128570Y32736372D01*
X10366665Y32260181D02*
X10366665Y33260181D01*
X10366665Y33260181D02*
X9985713Y33260181D01*
X9985713Y33260181D02*
X9890475Y33212562D01*
X9890475Y33212562D02*
X9842856Y33164943D01*
X9842856Y33164943D02*
X9795237Y33069705D01*
X9795237Y33069705D02*
X9795237Y32926848D01*
X9795237Y32926848D02*
X9842856Y32831610D01*
X9842856Y32831610D02*
X9890475Y32783991D01*
X9890475Y32783991D02*
X9985713Y32736372D01*
X9985713Y32736372D02*
X10366665Y32736372D01*
X9509522Y33260181D02*
X8938094Y33260181D01*
X9223808Y32260181D02*
X9223808Y33260181D01*
X7271427Y32355420D02*
X7319046Y32307800D01*
X7319046Y32307800D02*
X7461903Y32260181D01*
X7461903Y32260181D02*
X7557141Y32260181D01*
X7557141Y32260181D02*
X7699998Y32307800D01*
X7699998Y32307800D02*
X7795236Y32403039D01*
X7795236Y32403039D02*
X7842855Y32498277D01*
X7842855Y32498277D02*
X7890474Y32688753D01*
X7890474Y32688753D02*
X7890474Y32831610D01*
X7890474Y32831610D02*
X7842855Y33022086D01*
X7842855Y33022086D02*
X7795236Y33117324D01*
X7795236Y33117324D02*
X7699998Y33212562D01*
X7699998Y33212562D02*
X7557141Y33260181D01*
X7557141Y33260181D02*
X7461903Y33260181D01*
X7461903Y33260181D02*
X7319046Y33212562D01*
X7319046Y33212562D02*
X7271427Y33164943D01*
X6842855Y32260181D02*
X6842855Y33260181D01*
X5795237Y32260181D02*
X6128570Y32736372D01*
X6366665Y32260181D02*
X6366665Y33260181D01*
X6366665Y33260181D02*
X5985713Y33260181D01*
X5985713Y33260181D02*
X5890475Y33212562D01*
X5890475Y33212562D02*
X5842856Y33164943D01*
X5842856Y33164943D02*
X5795237Y33069705D01*
X5795237Y33069705D02*
X5795237Y32926848D01*
X5795237Y32926848D02*
X5842856Y32831610D01*
X5842856Y32831610D02*
X5890475Y32783991D01*
X5890475Y32783991D02*
X5985713Y32736372D01*
X5985713Y32736372D02*
X6366665Y32736372D01*
X4795237Y32355420D02*
X4842856Y32307800D01*
X4842856Y32307800D02*
X4985713Y32260181D01*
X4985713Y32260181D02*
X5080951Y32260181D01*
X5080951Y32260181D02*
X5223808Y32307800D01*
X5223808Y32307800D02*
X5319046Y32403039D01*
X5319046Y32403039D02*
X5366665Y32498277D01*
X5366665Y32498277D02*
X5414284Y32688753D01*
X5414284Y32688753D02*
X5414284Y32831610D01*
X5414284Y32831610D02*
X5366665Y33022086D01*
X5366665Y33022086D02*
X5319046Y33117324D01*
X5319046Y33117324D02*
X5223808Y33212562D01*
X5223808Y33212562D02*
X5080951Y33260181D01*
X5080951Y33260181D02*
X4985713Y33260181D01*
X4985713Y33260181D02*
X4842856Y33212562D01*
X4842856Y33212562D02*
X4795237Y33164943D01*
X4366665Y33260181D02*
X4366665Y32450658D01*
X4366665Y32450658D02*
X4319046Y32355420D01*
X4319046Y32355420D02*
X4271427Y32307800D01*
X4271427Y32307800D02*
X4176189Y32260181D01*
X4176189Y32260181D02*
X3985713Y32260181D01*
X3985713Y32260181D02*
X3890475Y32307800D01*
X3890475Y32307800D02*
X3842856Y32355420D01*
X3842856Y32355420D02*
X3795237Y32450658D01*
X3795237Y32450658D02*
X3795237Y33260181D01*
X3319046Y32260181D02*
X3319046Y33260181D01*
X2985713Y33260181D02*
X2414285Y33260181D01*
X2699999Y32260181D02*
X2699999Y33260181D01*
X21223809Y30650181D02*
X21223809Y31650181D01*
X21223809Y31650181D02*
X20985714Y31650181D01*
X20985714Y31650181D02*
X20842857Y31602562D01*
X20842857Y31602562D02*
X20747619Y31507324D01*
X20747619Y31507324D02*
X20700000Y31412086D01*
X20700000Y31412086D02*
X20652381Y31221610D01*
X20652381Y31221610D02*
X20652381Y31078753D01*
X20652381Y31078753D02*
X20700000Y30888277D01*
X20700000Y30888277D02*
X20747619Y30793039D01*
X20747619Y30793039D02*
X20842857Y30697800D01*
X20842857Y30697800D02*
X20985714Y30650181D01*
X20985714Y30650181D02*
X21223809Y30650181D01*
X20033333Y31650181D02*
X19842857Y31650181D01*
X19842857Y31650181D02*
X19747619Y31602562D01*
X19747619Y31602562D02*
X19652381Y31507324D01*
X19652381Y31507324D02*
X19604762Y31316848D01*
X19604762Y31316848D02*
X19604762Y30983515D01*
X19604762Y30983515D02*
X19652381Y30793039D01*
X19652381Y30793039D02*
X19747619Y30697800D01*
X19747619Y30697800D02*
X19842857Y30650181D01*
X19842857Y30650181D02*
X20033333Y30650181D01*
X20033333Y30650181D02*
X20128571Y30697800D01*
X20128571Y30697800D02*
X20223809Y30793039D01*
X20223809Y30793039D02*
X20271428Y30983515D01*
X20271428Y30983515D02*
X20271428Y31316848D01*
X20271428Y31316848D02*
X20223809Y31507324D01*
X20223809Y31507324D02*
X20128571Y31602562D01*
X20128571Y31602562D02*
X20033333Y31650181D01*
X18414285Y30650181D02*
X18414285Y31650181D01*
X18414285Y31650181D02*
X17842857Y30650181D01*
X17842857Y30650181D02*
X17842857Y31650181D01*
X17176190Y31650181D02*
X16985714Y31650181D01*
X16985714Y31650181D02*
X16890476Y31602562D01*
X16890476Y31602562D02*
X16795238Y31507324D01*
X16795238Y31507324D02*
X16747619Y31316848D01*
X16747619Y31316848D02*
X16747619Y30983515D01*
X16747619Y30983515D02*
X16795238Y30793039D01*
X16795238Y30793039D02*
X16890476Y30697800D01*
X16890476Y30697800D02*
X16985714Y30650181D01*
X16985714Y30650181D02*
X17176190Y30650181D01*
X17176190Y30650181D02*
X17271428Y30697800D01*
X17271428Y30697800D02*
X17366666Y30793039D01*
X17366666Y30793039D02*
X17414285Y30983515D01*
X17414285Y30983515D02*
X17414285Y31316848D01*
X17414285Y31316848D02*
X17366666Y31507324D01*
X17366666Y31507324D02*
X17271428Y31602562D01*
X17271428Y31602562D02*
X17176190Y31650181D01*
X16461904Y31650181D02*
X15890476Y31650181D01*
X16176190Y30650181D02*
X16176190Y31650181D01*
X14223809Y30650181D02*
X14557142Y31126372D01*
X14795237Y30650181D02*
X14795237Y31650181D01*
X14795237Y31650181D02*
X14414285Y31650181D01*
X14414285Y31650181D02*
X14319047Y31602562D01*
X14319047Y31602562D02*
X14271428Y31554943D01*
X14271428Y31554943D02*
X14223809Y31459705D01*
X14223809Y31459705D02*
X14223809Y31316848D01*
X14223809Y31316848D02*
X14271428Y31221610D01*
X14271428Y31221610D02*
X14319047Y31173991D01*
X14319047Y31173991D02*
X14414285Y31126372D01*
X14414285Y31126372D02*
X14795237Y31126372D01*
X13795237Y31173991D02*
X13461904Y31173991D01*
X13319047Y30650181D02*
X13795237Y30650181D01*
X13795237Y30650181D02*
X13795237Y31650181D01*
X13795237Y31650181D02*
X13319047Y31650181D01*
X13033332Y31650181D02*
X12699999Y30650181D01*
X12699999Y30650181D02*
X12366666Y31650181D01*
X12033332Y31173991D02*
X11699999Y31173991D01*
X11557142Y30650181D02*
X12033332Y30650181D01*
X12033332Y30650181D02*
X12033332Y31650181D01*
X12033332Y31650181D02*
X11557142Y31650181D01*
X10557142Y30650181D02*
X10890475Y31126372D01*
X11128570Y30650181D02*
X11128570Y31650181D01*
X11128570Y31650181D02*
X10747618Y31650181D01*
X10747618Y31650181D02*
X10652380Y31602562D01*
X10652380Y31602562D02*
X10604761Y31554943D01*
X10604761Y31554943D02*
X10557142Y31459705D01*
X10557142Y31459705D02*
X10557142Y31316848D01*
X10557142Y31316848D02*
X10604761Y31221610D01*
X10604761Y31221610D02*
X10652380Y31173991D01*
X10652380Y31173991D02*
X10747618Y31126372D01*
X10747618Y31126372D02*
X11128570Y31126372D01*
X10176189Y30697800D02*
X10033332Y30650181D01*
X10033332Y30650181D02*
X9795237Y30650181D01*
X9795237Y30650181D02*
X9699999Y30697800D01*
X9699999Y30697800D02*
X9652380Y30745420D01*
X9652380Y30745420D02*
X9604761Y30840658D01*
X9604761Y30840658D02*
X9604761Y30935896D01*
X9604761Y30935896D02*
X9652380Y31031134D01*
X9652380Y31031134D02*
X9699999Y31078753D01*
X9699999Y31078753D02*
X9795237Y31126372D01*
X9795237Y31126372D02*
X9985713Y31173991D01*
X9985713Y31173991D02*
X10080951Y31221610D01*
X10080951Y31221610D02*
X10128570Y31269229D01*
X10128570Y31269229D02*
X10176189Y31364467D01*
X10176189Y31364467D02*
X10176189Y31459705D01*
X10176189Y31459705D02*
X10128570Y31554943D01*
X10128570Y31554943D02*
X10080951Y31602562D01*
X10080951Y31602562D02*
X9985713Y31650181D01*
X9985713Y31650181D02*
X9747618Y31650181D01*
X9747618Y31650181D02*
X9604761Y31602562D01*
X9176189Y31173991D02*
X8842856Y31173991D01*
X8699999Y30650181D02*
X9176189Y30650181D01*
X9176189Y30650181D02*
X9176189Y31650181D01*
X9176189Y31650181D02*
X8699999Y31650181D01*
X7509522Y30650181D02*
X7509522Y31650181D01*
X7509522Y31650181D02*
X7128570Y31650181D01*
X7128570Y31650181D02*
X7033332Y31602562D01*
X7033332Y31602562D02*
X6985713Y31554943D01*
X6985713Y31554943D02*
X6938094Y31459705D01*
X6938094Y31459705D02*
X6938094Y31316848D01*
X6938094Y31316848D02*
X6985713Y31221610D01*
X6985713Y31221610D02*
X7033332Y31173991D01*
X7033332Y31173991D02*
X7128570Y31126372D01*
X7128570Y31126372D02*
X7509522Y31126372D01*
X6319046Y31650181D02*
X6128570Y31650181D01*
X6128570Y31650181D02*
X6033332Y31602562D01*
X6033332Y31602562D02*
X5938094Y31507324D01*
X5938094Y31507324D02*
X5890475Y31316848D01*
X5890475Y31316848D02*
X5890475Y30983515D01*
X5890475Y30983515D02*
X5938094Y30793039D01*
X5938094Y30793039D02*
X6033332Y30697800D01*
X6033332Y30697800D02*
X6128570Y30650181D01*
X6128570Y30650181D02*
X6319046Y30650181D01*
X6319046Y30650181D02*
X6414284Y30697800D01*
X6414284Y30697800D02*
X6509522Y30793039D01*
X6509522Y30793039D02*
X6557141Y30983515D01*
X6557141Y30983515D02*
X6557141Y31316848D01*
X6557141Y31316848D02*
X6509522Y31507324D01*
X6509522Y31507324D02*
X6414284Y31602562D01*
X6414284Y31602562D02*
X6319046Y31650181D01*
X4985713Y30650181D02*
X5461903Y30650181D01*
X5461903Y30650181D02*
X5461903Y31650181D01*
X4699998Y30935896D02*
X4223808Y30935896D01*
X4795236Y30650181D02*
X4461903Y31650181D01*
X4461903Y31650181D02*
X4128570Y30650181D01*
X3223808Y30650181D02*
X3557141Y31126372D01*
X3795236Y30650181D02*
X3795236Y31650181D01*
X3795236Y31650181D02*
X3414284Y31650181D01*
X3414284Y31650181D02*
X3319046Y31602562D01*
X3319046Y31602562D02*
X3271427Y31554943D01*
X3271427Y31554943D02*
X3223808Y31459705D01*
X3223808Y31459705D02*
X3223808Y31316848D01*
X3223808Y31316848D02*
X3271427Y31221610D01*
X3271427Y31221610D02*
X3319046Y31173991D01*
X3319046Y31173991D02*
X3414284Y31126372D01*
X3414284Y31126372D02*
X3795236Y31126372D01*
X2795236Y30650181D02*
X2795236Y31650181D01*
X2461903Y31650181D02*
X1890475Y31650181D01*
X2176189Y30650181D02*
X2176189Y31650181D01*
X1366665Y31126372D02*
X1366665Y30650181D01*
X1699998Y31650181D02*
X1366665Y31126372D01*
X1366665Y31126372D02*
X1033332Y31650181D01*
X21414286Y29040181D02*
X21414286Y30040181D01*
X21414286Y30040181D02*
X21176191Y30040181D01*
X21176191Y30040181D02*
X21033334Y29992562D01*
X21033334Y29992562D02*
X20938096Y29897324D01*
X20938096Y29897324D02*
X20890477Y29802086D01*
X20890477Y29802086D02*
X20842858Y29611610D01*
X20842858Y29611610D02*
X20842858Y29468753D01*
X20842858Y29468753D02*
X20890477Y29278277D01*
X20890477Y29278277D02*
X20938096Y29183039D01*
X20938096Y29183039D02*
X21033334Y29087800D01*
X21033334Y29087800D02*
X21176191Y29040181D01*
X21176191Y29040181D02*
X21414286Y29040181D01*
X20223810Y30040181D02*
X20033334Y30040181D01*
X20033334Y30040181D02*
X19938096Y29992562D01*
X19938096Y29992562D02*
X19842858Y29897324D01*
X19842858Y29897324D02*
X19795239Y29706848D01*
X19795239Y29706848D02*
X19795239Y29373515D01*
X19795239Y29373515D02*
X19842858Y29183039D01*
X19842858Y29183039D02*
X19938096Y29087800D01*
X19938096Y29087800D02*
X20033334Y29040181D01*
X20033334Y29040181D02*
X20223810Y29040181D01*
X20223810Y29040181D02*
X20319048Y29087800D01*
X20319048Y29087800D02*
X20414286Y29183039D01*
X20414286Y29183039D02*
X20461905Y29373515D01*
X20461905Y29373515D02*
X20461905Y29706848D01*
X20461905Y29706848D02*
X20414286Y29897324D01*
X20414286Y29897324D02*
X20319048Y29992562D01*
X20319048Y29992562D02*
X20223810Y30040181D01*
X18604762Y29040181D02*
X18604762Y30040181D01*
X18604762Y30040181D02*
X18033334Y29040181D01*
X18033334Y29040181D02*
X18033334Y30040181D01*
X17366667Y30040181D02*
X17176191Y30040181D01*
X17176191Y30040181D02*
X17080953Y29992562D01*
X17080953Y29992562D02*
X16985715Y29897324D01*
X16985715Y29897324D02*
X16938096Y29706848D01*
X16938096Y29706848D02*
X16938096Y29373515D01*
X16938096Y29373515D02*
X16985715Y29183039D01*
X16985715Y29183039D02*
X17080953Y29087800D01*
X17080953Y29087800D02*
X17176191Y29040181D01*
X17176191Y29040181D02*
X17366667Y29040181D01*
X17366667Y29040181D02*
X17461905Y29087800D01*
X17461905Y29087800D02*
X17557143Y29183039D01*
X17557143Y29183039D02*
X17604762Y29373515D01*
X17604762Y29373515D02*
X17604762Y29706848D01*
X17604762Y29706848D02*
X17557143Y29897324D01*
X17557143Y29897324D02*
X17461905Y29992562D01*
X17461905Y29992562D02*
X17366667Y30040181D01*
X16652381Y30040181D02*
X16080953Y30040181D01*
X16366667Y29040181D02*
X16366667Y30040181D01*
X14414286Y29135420D02*
X14461905Y29087800D01*
X14461905Y29087800D02*
X14604762Y29040181D01*
X14604762Y29040181D02*
X14700000Y29040181D01*
X14700000Y29040181D02*
X14842857Y29087800D01*
X14842857Y29087800D02*
X14938095Y29183039D01*
X14938095Y29183039D02*
X14985714Y29278277D01*
X14985714Y29278277D02*
X15033333Y29468753D01*
X15033333Y29468753D02*
X15033333Y29611610D01*
X15033333Y29611610D02*
X14985714Y29802086D01*
X14985714Y29802086D02*
X14938095Y29897324D01*
X14938095Y29897324D02*
X14842857Y29992562D01*
X14842857Y29992562D02*
X14700000Y30040181D01*
X14700000Y30040181D02*
X14604762Y30040181D01*
X14604762Y30040181D02*
X14461905Y29992562D01*
X14461905Y29992562D02*
X14414286Y29944943D01*
X13795238Y30040181D02*
X13604762Y30040181D01*
X13604762Y30040181D02*
X13509524Y29992562D01*
X13509524Y29992562D02*
X13414286Y29897324D01*
X13414286Y29897324D02*
X13366667Y29706848D01*
X13366667Y29706848D02*
X13366667Y29373515D01*
X13366667Y29373515D02*
X13414286Y29183039D01*
X13414286Y29183039D02*
X13509524Y29087800D01*
X13509524Y29087800D02*
X13604762Y29040181D01*
X13604762Y29040181D02*
X13795238Y29040181D01*
X13795238Y29040181D02*
X13890476Y29087800D01*
X13890476Y29087800D02*
X13985714Y29183039D01*
X13985714Y29183039D02*
X14033333Y29373515D01*
X14033333Y29373515D02*
X14033333Y29706848D01*
X14033333Y29706848D02*
X13985714Y29897324D01*
X13985714Y29897324D02*
X13890476Y29992562D01*
X13890476Y29992562D02*
X13795238Y30040181D01*
X12938095Y29040181D02*
X12938095Y30040181D01*
X12938095Y30040181D02*
X12366667Y29040181D01*
X12366667Y29040181D02*
X12366667Y30040181D01*
X11890476Y29040181D02*
X11890476Y30040181D01*
X11890476Y30040181D02*
X11319048Y29040181D01*
X11319048Y29040181D02*
X11319048Y30040181D01*
X10842857Y29563991D02*
X10509524Y29563991D01*
X10366667Y29040181D02*
X10842857Y29040181D01*
X10842857Y29040181D02*
X10842857Y30040181D01*
X10842857Y30040181D02*
X10366667Y30040181D01*
X9366667Y29135420D02*
X9414286Y29087800D01*
X9414286Y29087800D02*
X9557143Y29040181D01*
X9557143Y29040181D02*
X9652381Y29040181D01*
X9652381Y29040181D02*
X9795238Y29087800D01*
X9795238Y29087800D02*
X9890476Y29183039D01*
X9890476Y29183039D02*
X9938095Y29278277D01*
X9938095Y29278277D02*
X9985714Y29468753D01*
X9985714Y29468753D02*
X9985714Y29611610D01*
X9985714Y29611610D02*
X9938095Y29802086D01*
X9938095Y29802086D02*
X9890476Y29897324D01*
X9890476Y29897324D02*
X9795238Y29992562D01*
X9795238Y29992562D02*
X9652381Y30040181D01*
X9652381Y30040181D02*
X9557143Y30040181D01*
X9557143Y30040181D02*
X9414286Y29992562D01*
X9414286Y29992562D02*
X9366667Y29944943D01*
X9080952Y30040181D02*
X8509524Y30040181D01*
X8795238Y29040181D02*
X8795238Y30040181D01*
X6842857Y29040181D02*
X7176190Y29516372D01*
X7414285Y29040181D02*
X7414285Y30040181D01*
X7414285Y30040181D02*
X7033333Y30040181D01*
X7033333Y30040181D02*
X6938095Y29992562D01*
X6938095Y29992562D02*
X6890476Y29944943D01*
X6890476Y29944943D02*
X6842857Y29849705D01*
X6842857Y29849705D02*
X6842857Y29706848D01*
X6842857Y29706848D02*
X6890476Y29611610D01*
X6890476Y29611610D02*
X6938095Y29563991D01*
X6938095Y29563991D02*
X7033333Y29516372D01*
X7033333Y29516372D02*
X7414285Y29516372D01*
X6509523Y30040181D02*
X5842857Y29040181D01*
X5842857Y30040181D02*
X6509523Y29040181D01*
X4842856Y29706848D02*
X4461904Y29706848D01*
X4699999Y30040181D02*
X4699999Y29183039D01*
X4699999Y29183039D02*
X4652380Y29087800D01*
X4652380Y29087800D02*
X4557142Y29040181D01*
X4557142Y29040181D02*
X4461904Y29040181D01*
X3985713Y29040181D02*
X4080951Y29087800D01*
X4080951Y29087800D02*
X4128570Y29135420D01*
X4128570Y29135420D02*
X4176189Y29230658D01*
X4176189Y29230658D02*
X4176189Y29516372D01*
X4176189Y29516372D02*
X4128570Y29611610D01*
X4128570Y29611610D02*
X4080951Y29659229D01*
X4080951Y29659229D02*
X3985713Y29706848D01*
X3985713Y29706848D02*
X3842856Y29706848D01*
X3842856Y29706848D02*
X3747618Y29659229D01*
X3747618Y29659229D02*
X3699999Y29611610D01*
X3699999Y29611610D02*
X3652380Y29516372D01*
X3652380Y29516372D02*
X3652380Y29230658D01*
X3652380Y29230658D02*
X3699999Y29135420D01*
X3699999Y29135420D02*
X3747618Y29087800D01*
X3747618Y29087800D02*
X3842856Y29040181D01*
X3842856Y29040181D02*
X3985713Y29040181D01*
X1890475Y29040181D02*
X2223808Y29516372D01*
X2461903Y29040181D02*
X2461903Y30040181D01*
X2461903Y30040181D02*
X2080951Y30040181D01*
X2080951Y30040181D02*
X1985713Y29992562D01*
X1985713Y29992562D02*
X1938094Y29944943D01*
X1938094Y29944943D02*
X1890475Y29849705D01*
X1890475Y29849705D02*
X1890475Y29706848D01*
X1890475Y29706848D02*
X1938094Y29611610D01*
X1938094Y29611610D02*
X1985713Y29563991D01*
X1985713Y29563991D02*
X2080951Y29516372D01*
X2080951Y29516372D02*
X2461903Y29516372D01*
X1557141Y30040181D02*
X890475Y29040181D01*
X890475Y30040181D02*
X1557141Y29040181D01*
X21176191Y27430181D02*
X21176191Y28430181D01*
X21176191Y28430181D02*
X20938096Y28430181D01*
X20938096Y28430181D02*
X20795239Y28382562D01*
X20795239Y28382562D02*
X20700001Y28287324D01*
X20700001Y28287324D02*
X20652382Y28192086D01*
X20652382Y28192086D02*
X20604763Y28001610D01*
X20604763Y28001610D02*
X20604763Y27858753D01*
X20604763Y27858753D02*
X20652382Y27668277D01*
X20652382Y27668277D02*
X20700001Y27573039D01*
X20700001Y27573039D02*
X20795239Y27477800D01*
X20795239Y27477800D02*
X20938096Y27430181D01*
X20938096Y27430181D02*
X21176191Y27430181D01*
X19985715Y28430181D02*
X19795239Y28430181D01*
X19795239Y28430181D02*
X19700001Y28382562D01*
X19700001Y28382562D02*
X19604763Y28287324D01*
X19604763Y28287324D02*
X19557144Y28096848D01*
X19557144Y28096848D02*
X19557144Y27763515D01*
X19557144Y27763515D02*
X19604763Y27573039D01*
X19604763Y27573039D02*
X19700001Y27477800D01*
X19700001Y27477800D02*
X19795239Y27430181D01*
X19795239Y27430181D02*
X19985715Y27430181D01*
X19985715Y27430181D02*
X20080953Y27477800D01*
X20080953Y27477800D02*
X20176191Y27573039D01*
X20176191Y27573039D02*
X20223810Y27763515D01*
X20223810Y27763515D02*
X20223810Y28096848D01*
X20223810Y28096848D02*
X20176191Y28287324D01*
X20176191Y28287324D02*
X20080953Y28382562D01*
X20080953Y28382562D02*
X19985715Y28430181D01*
X18366667Y27430181D02*
X18366667Y28430181D01*
X18366667Y28430181D02*
X17795239Y27430181D01*
X17795239Y27430181D02*
X17795239Y28430181D01*
X17128572Y28430181D02*
X16938096Y28430181D01*
X16938096Y28430181D02*
X16842858Y28382562D01*
X16842858Y28382562D02*
X16747620Y28287324D01*
X16747620Y28287324D02*
X16700001Y28096848D01*
X16700001Y28096848D02*
X16700001Y27763515D01*
X16700001Y27763515D02*
X16747620Y27573039D01*
X16747620Y27573039D02*
X16842858Y27477800D01*
X16842858Y27477800D02*
X16938096Y27430181D01*
X16938096Y27430181D02*
X17128572Y27430181D01*
X17128572Y27430181D02*
X17223810Y27477800D01*
X17223810Y27477800D02*
X17319048Y27573039D01*
X17319048Y27573039D02*
X17366667Y27763515D01*
X17366667Y27763515D02*
X17366667Y28096848D01*
X17366667Y28096848D02*
X17319048Y28287324D01*
X17319048Y28287324D02*
X17223810Y28382562D01*
X17223810Y28382562D02*
X17128572Y28430181D01*
X16414286Y28430181D02*
X15842858Y28430181D01*
X16128572Y27430181D02*
X16128572Y28430181D01*
X14176191Y27525420D02*
X14223810Y27477800D01*
X14223810Y27477800D02*
X14366667Y27430181D01*
X14366667Y27430181D02*
X14461905Y27430181D01*
X14461905Y27430181D02*
X14604762Y27477800D01*
X14604762Y27477800D02*
X14700000Y27573039D01*
X14700000Y27573039D02*
X14747619Y27668277D01*
X14747619Y27668277D02*
X14795238Y27858753D01*
X14795238Y27858753D02*
X14795238Y28001610D01*
X14795238Y28001610D02*
X14747619Y28192086D01*
X14747619Y28192086D02*
X14700000Y28287324D01*
X14700000Y28287324D02*
X14604762Y28382562D01*
X14604762Y28382562D02*
X14461905Y28430181D01*
X14461905Y28430181D02*
X14366667Y28430181D01*
X14366667Y28430181D02*
X14223810Y28382562D01*
X14223810Y28382562D02*
X14176191Y28334943D01*
X13557143Y28430181D02*
X13366667Y28430181D01*
X13366667Y28430181D02*
X13271429Y28382562D01*
X13271429Y28382562D02*
X13176191Y28287324D01*
X13176191Y28287324D02*
X13128572Y28096848D01*
X13128572Y28096848D02*
X13128572Y27763515D01*
X13128572Y27763515D02*
X13176191Y27573039D01*
X13176191Y27573039D02*
X13271429Y27477800D01*
X13271429Y27477800D02*
X13366667Y27430181D01*
X13366667Y27430181D02*
X13557143Y27430181D01*
X13557143Y27430181D02*
X13652381Y27477800D01*
X13652381Y27477800D02*
X13747619Y27573039D01*
X13747619Y27573039D02*
X13795238Y27763515D01*
X13795238Y27763515D02*
X13795238Y28096848D01*
X13795238Y28096848D02*
X13747619Y28287324D01*
X13747619Y28287324D02*
X13652381Y28382562D01*
X13652381Y28382562D02*
X13557143Y28430181D01*
X12700000Y27430181D02*
X12700000Y28430181D01*
X12700000Y28430181D02*
X12128572Y27430181D01*
X12128572Y27430181D02*
X12128572Y28430181D01*
X11652381Y27430181D02*
X11652381Y28430181D01*
X11652381Y28430181D02*
X11080953Y27430181D01*
X11080953Y27430181D02*
X11080953Y28430181D01*
X10604762Y27953991D02*
X10271429Y27953991D01*
X10128572Y27430181D02*
X10604762Y27430181D01*
X10604762Y27430181D02*
X10604762Y28430181D01*
X10604762Y28430181D02*
X10128572Y28430181D01*
X9128572Y27525420D02*
X9176191Y27477800D01*
X9176191Y27477800D02*
X9319048Y27430181D01*
X9319048Y27430181D02*
X9414286Y27430181D01*
X9414286Y27430181D02*
X9557143Y27477800D01*
X9557143Y27477800D02*
X9652381Y27573039D01*
X9652381Y27573039D02*
X9700000Y27668277D01*
X9700000Y27668277D02*
X9747619Y27858753D01*
X9747619Y27858753D02*
X9747619Y28001610D01*
X9747619Y28001610D02*
X9700000Y28192086D01*
X9700000Y28192086D02*
X9652381Y28287324D01*
X9652381Y28287324D02*
X9557143Y28382562D01*
X9557143Y28382562D02*
X9414286Y28430181D01*
X9414286Y28430181D02*
X9319048Y28430181D01*
X9319048Y28430181D02*
X9176191Y28382562D01*
X9176191Y28382562D02*
X9128572Y28334943D01*
X8842857Y28430181D02*
X8271429Y28430181D01*
X8557143Y27430181D02*
X8557143Y28430181D01*
X7319047Y28430181D02*
X6747619Y28430181D01*
X7033333Y27430181D02*
X7033333Y28430181D01*
X6509523Y28430181D02*
X5842857Y27430181D01*
X5842857Y28430181D02*
X6509523Y27430181D01*
X4842856Y28096848D02*
X4461904Y28096848D01*
X4699999Y28430181D02*
X4699999Y27573039D01*
X4699999Y27573039D02*
X4652380Y27477800D01*
X4652380Y27477800D02*
X4557142Y27430181D01*
X4557142Y27430181D02*
X4461904Y27430181D01*
X3985713Y27430181D02*
X4080951Y27477800D01*
X4080951Y27477800D02*
X4128570Y27525420D01*
X4128570Y27525420D02*
X4176189Y27620658D01*
X4176189Y27620658D02*
X4176189Y27906372D01*
X4176189Y27906372D02*
X4128570Y28001610D01*
X4128570Y28001610D02*
X4080951Y28049229D01*
X4080951Y28049229D02*
X3985713Y28096848D01*
X3985713Y28096848D02*
X3842856Y28096848D01*
X3842856Y28096848D02*
X3747618Y28049229D01*
X3747618Y28049229D02*
X3699999Y28001610D01*
X3699999Y28001610D02*
X3652380Y27906372D01*
X3652380Y27906372D02*
X3652380Y27620658D01*
X3652380Y27620658D02*
X3699999Y27525420D01*
X3699999Y27525420D02*
X3747618Y27477800D01*
X3747618Y27477800D02*
X3842856Y27430181D01*
X3842856Y27430181D02*
X3985713Y27430181D01*
X2604760Y28430181D02*
X2033332Y28430181D01*
X2319046Y27430181D02*
X2319046Y28430181D01*
X1795236Y28430181D02*
X1128570Y27430181D01*
X1128570Y28430181D02*
X1795236Y27430181D01*
D13*
X5804948Y7250381D02*
X5804948Y8250381D01*
X5804948Y8250381D02*
X5566853Y8250381D01*
X5566853Y8250381D02*
X5423996Y8202762D01*
X5423996Y8202762D02*
X5328758Y8107524D01*
X5328758Y8107524D02*
X5281139Y8012286D01*
X5281139Y8012286D02*
X5233520Y7821810D01*
X5233520Y7821810D02*
X5233520Y7678953D01*
X5233520Y7678953D02*
X5281139Y7488477D01*
X5281139Y7488477D02*
X5328758Y7393239D01*
X5328758Y7393239D02*
X5423996Y7298000D01*
X5423996Y7298000D02*
X5566853Y7250381D01*
X5566853Y7250381D02*
X5804948Y7250381D01*
X4804948Y7250381D02*
X4804948Y8250381D01*
X4138282Y7726572D02*
X4138282Y7250381D01*
X4471615Y8250381D02*
X4138282Y7726572D01*
X4138282Y7726572D02*
X3804949Y8250381D01*
X3138282Y7774191D02*
X2995425Y7726572D01*
X2995425Y7726572D02*
X2947806Y7678953D01*
X2947806Y7678953D02*
X2900187Y7583715D01*
X2900187Y7583715D02*
X2900187Y7440858D01*
X2900187Y7440858D02*
X2947806Y7345620D01*
X2947806Y7345620D02*
X2995425Y7298000D01*
X2995425Y7298000D02*
X3090663Y7250381D01*
X3090663Y7250381D02*
X3471615Y7250381D01*
X3471615Y7250381D02*
X3471615Y8250381D01*
X3471615Y8250381D02*
X3138282Y8250381D01*
X3138282Y8250381D02*
X3043044Y8202762D01*
X3043044Y8202762D02*
X2995425Y8155143D01*
X2995425Y8155143D02*
X2947806Y8059905D01*
X2947806Y8059905D02*
X2947806Y7964667D01*
X2947806Y7964667D02*
X2995425Y7869429D01*
X2995425Y7869429D02*
X3043044Y7821810D01*
X3043044Y7821810D02*
X3138282Y7774191D01*
X3138282Y7774191D02*
X3471615Y7774191D01*
X2471615Y7250381D02*
X2471615Y8250381D01*
X2471615Y8250381D02*
X2138282Y7536096D01*
X2138282Y7536096D02*
X1804949Y8250381D01*
X1804949Y8250381D02*
X1804949Y7250381D01*
X1376377Y7298000D02*
X1233520Y7250381D01*
X1233520Y7250381D02*
X995425Y7250381D01*
X995425Y7250381D02*
X900187Y7298000D01*
X900187Y7298000D02*
X852568Y7345620D01*
X852568Y7345620D02*
X804949Y7440858D01*
X804949Y7440858D02*
X804949Y7536096D01*
X804949Y7536096D02*
X852568Y7631334D01*
X852568Y7631334D02*
X900187Y7678953D01*
X900187Y7678953D02*
X995425Y7726572D01*
X995425Y7726572D02*
X1185901Y7774191D01*
X1185901Y7774191D02*
X1281139Y7821810D01*
X1281139Y7821810D02*
X1328758Y7869429D01*
X1328758Y7869429D02*
X1376377Y7964667D01*
X1376377Y7964667D02*
X1376377Y8059905D01*
X1376377Y8059905D02*
X1328758Y8155143D01*
X1328758Y8155143D02*
X1281139Y8202762D01*
X1281139Y8202762D02*
X1185901Y8250381D01*
X1185901Y8250381D02*
X947806Y8250381D01*
X947806Y8250381D02*
X804949Y8202762D01*
%LPC*%
D14*
%TO.C,RX1*%
X10700000Y54950000D03*
D15*
X8700000Y54950000D03*
%TD*%
D16*
%TO.C,REF\u002A\u002A*%
X2750000Y58600000D03*
%TD*%
%TO.C,REF\u002A\u002A*%
X27250000Y58600000D03*
%TD*%
D17*
%TO.C,EXTTEMP1*%
X25600000Y30450000D03*
D15*
X27600000Y30450000D03*
%TD*%
D14*
%TO.C,TX1*%
X21300000Y54950000D03*
D15*
X19300000Y54950000D03*
%TD*%
D18*
%TO.C,REMOTE1*%
X7750000Y5575000D03*
D19*
X7750000Y3035000D03*
%TD*%
D17*
%TO.C,POWER1*%
X20850000Y7300000D03*
D15*
X22850000Y7300000D03*
%TD*%
D16*
%TO.C,REF\u002A\u002A*%
X14840000Y3700000D03*
%TD*%
D18*
%TO.C,J2*%
X2725000Y44875000D03*
D19*
X5265000Y44875000D03*
X2725000Y42335000D03*
X5265000Y42335000D03*
X2725000Y39795000D03*
X5265000Y39795000D03*
%TD*%
D20*
%TO.C,R30*%
X12660000Y22225000D03*
X7660000Y22225000D03*
%TD*%
%LPD*%
M02*
