%TF.GenerationSoftware,KiCad,Pcbnew,7.0.5-7.0.5~ubuntu20.04.1*%
%TF.CreationDate,2023-06-23T07:32:12+02:00*%
%TF.ProjectId,ModuleV440,4d6f6475-6c65-4563-9434-302e6b696361,rev?*%
%TF.SameCoordinates,Original*%
%TF.FileFunction,Copper,L1,Top*%
%TF.FilePolarity,Positive*%
%FSLAX46Y46*%
G04 Gerber Fmt 4.6, Leading zero omitted, Abs format (unit mm)*
G04 Created by KiCad (PCBNEW 7.0.5-7.0.5~ubuntu20.04.1) date 2023-06-23 07:32:12*
%MOMM*%
%LPD*%
G01*
G04 APERTURE LIST*
G04 Aperture macros list*
%AMRoundRect*
0 Rectangle with rounded corners*
0 $1 Rounding radius*
0 $2 $3 $4 $5 $6 $7 $8 $9 X,Y pos of 4 corners*
0 Add a 4 corners polygon primitive as box body*
4,1,4,$2,$3,$4,$5,$6,$7,$8,$9,$2,$3,0*
0 Add four circle primitives for the rounded corners*
1,1,$1+$1,$2,$3*
1,1,$1+$1,$4,$5*
1,1,$1+$1,$6,$7*
1,1,$1+$1,$8,$9*
0 Add four rect primitives between the rounded corners*
20,1,$1+$1,$2,$3,$4,$5,0*
20,1,$1+$1,$4,$5,$6,$7,0*
20,1,$1+$1,$6,$7,$8,$9,0*
20,1,$1+$1,$8,$9,$2,$3,0*%
G04 Aperture macros list end*
%TA.AperFunction,SMDPad,CuDef*%
%ADD10RoundRect,0.150000X0.150000X-0.662500X0.150000X0.662500X-0.150000X0.662500X-0.150000X-0.662500X0*%
%TD*%
%TA.AperFunction,ComponentPad*%
%ADD11RoundRect,0.250000X0.350000X0.625000X-0.350000X0.625000X-0.350000X-0.625000X0.350000X-0.625000X0*%
%TD*%
%TA.AperFunction,ComponentPad*%
%ADD12O,1.200000X1.750000*%
%TD*%
%TA.AperFunction,SMDPad,CuDef*%
%ADD13RoundRect,0.250000X0.262500X0.450000X-0.262500X0.450000X-0.262500X-0.450000X0.262500X-0.450000X0*%
%TD*%
%TA.AperFunction,ComponentPad*%
%ADD14RoundRect,0.250000X-0.350000X-0.625000X0.350000X-0.625000X0.350000X0.625000X-0.350000X0.625000X0*%
%TD*%
%TA.AperFunction,SMDPad,CuDef*%
%ADD15R,0.800000X0.900000*%
%TD*%
%TA.AperFunction,SMDPad,CuDef*%
%ADD16RoundRect,0.243750X-0.243750X-0.456250X0.243750X-0.456250X0.243750X0.456250X-0.243750X0.456250X0*%
%TD*%
%TA.AperFunction,SMDPad,CuDef*%
%ADD17RoundRect,0.150000X-0.825000X-0.150000X0.825000X-0.150000X0.825000X0.150000X-0.825000X0.150000X0*%
%TD*%
%TA.AperFunction,SMDPad,CuDef*%
%ADD18RoundRect,0.250000X-0.262500X-0.450000X0.262500X-0.450000X0.262500X0.450000X-0.262500X0.450000X0*%
%TD*%
%TA.AperFunction,SMDPad,CuDef*%
%ADD19RoundRect,0.250000X-0.250000X-0.475000X0.250000X-0.475000X0.250000X0.475000X-0.250000X0.475000X0*%
%TD*%
%TA.AperFunction,SMDPad,CuDef*%
%ADD20RoundRect,0.250000X0.250000X0.475000X-0.250000X0.475000X-0.250000X-0.475000X0.250000X-0.475000X0*%
%TD*%
%TA.AperFunction,SMDPad,CuDef*%
%ADD21RoundRect,0.250000X-1.450000X0.312500X-1.450000X-0.312500X1.450000X-0.312500X1.450000X0.312500X0*%
%TD*%
%TA.AperFunction,SMDPad,CuDef*%
%ADD22RoundRect,0.250000X0.450000X-0.262500X0.450000X0.262500X-0.450000X0.262500X-0.450000X-0.262500X0*%
%TD*%
%TA.AperFunction,SMDPad,CuDef*%
%ADD23R,2.500000X2.300000*%
%TD*%
%TA.AperFunction,ComponentPad*%
%ADD24R,1.700000X1.700000*%
%TD*%
%TA.AperFunction,ComponentPad*%
%ADD25O,1.700000X1.700000*%
%TD*%
%TA.AperFunction,SMDPad,CuDef*%
%ADD26R,2.000000X2.400000*%
%TD*%
%TA.AperFunction,ComponentPad*%
%ADD27C,2.400000*%
%TD*%
%TA.AperFunction,ViaPad*%
%ADD28C,1.000000*%
%TD*%
%TA.AperFunction,ViaPad*%
%ADD29C,0.800000*%
%TD*%
%TA.AperFunction,Conductor*%
%ADD30C,0.500000*%
%TD*%
%TA.AperFunction,Conductor*%
%ADD31C,0.300000*%
%TD*%
%TA.AperFunction,Conductor*%
%ADD32C,1.500000*%
%TD*%
%TA.AperFunction,Conductor*%
%ADD33C,0.250000*%
%TD*%
%TA.AperFunction,Conductor*%
%ADD34C,1.250000*%
%TD*%
%TA.AperFunction,Conductor*%
%ADD35C,1.000000*%
%TD*%
G04 APERTURE END LIST*
D10*
%TO.P,U1,1*%
%TO.N,Net-(R5-Pad1)*%
X14390000Y53762500D03*
%TO.P,U1,2*%
%TO.N,GND*%
X15660000Y53762500D03*
%TO.P,U1,3*%
%TO.N,Net-(TX1-Pin_1)*%
X15660000Y60137500D03*
%TO.P,U1,4*%
%TO.N,Net-(TX1-Pin_2)*%
X14390000Y60137500D03*
%TD*%
D11*
%TO.P,RX1,1,Pin_1*%
%TO.N,RXD0*%
X10700000Y54950000D03*
D12*
%TO.P,RX1,2,Pin_2*%
%TO.N,VCC*%
X8700000Y54950000D03*
%TD*%
D13*
%TO.P,R16,1*%
%TO.N,GND*%
X3662500Y53650000D03*
%TO.P,R16,2*%
%TO.N,RXD0*%
X1837500Y53650000D03*
%TD*%
%TO.P,R19,1*%
%TO.N,VREF*%
X13712500Y28500000D03*
%TO.P,R19,2*%
%TO.N,SCK*%
X11887500Y28500000D03*
%TD*%
D14*
%TO.P,EXTTEMP1,1,Pin_1*%
%TO.N,MISO*%
X25600000Y30450000D03*
D12*
%TO.P,EXTTEMP1,2,Pin_2*%
%TO.N,VREF*%
X27600000Y30450000D03*
%TD*%
D11*
%TO.P,TX1,1,Pin_1*%
%TO.N,Net-(TX1-Pin_1)*%
X21300000Y54950000D03*
D12*
%TO.P,TX1,2,Pin_2*%
%TO.N,Net-(TX1-Pin_2)*%
X19300000Y54950000D03*
%TD*%
D15*
%TO.P,Q1,1,G*%
%TO.N,Net-(Q1-G)*%
X2225000Y13550000D03*
%TO.P,Q1,2,S*%
%TO.N,GND*%
X4125000Y13550000D03*
%TO.P,Q1,3,D*%
%TO.N,Net-(Q1-D)*%
X3175000Y15550000D03*
%TD*%
D16*
%TO.P,D4,1,K*%
%TO.N,Net-(D4-K)*%
X1837500Y49450000D03*
%TO.P,D4,2,A*%
%TO.N,Net-(ATTINY841-PA6)*%
X3712500Y49450000D03*
%TD*%
%TO.P,D3,1,K*%
%TO.N,Net-(D3-K)*%
X10262500Y13035000D03*
%TO.P,D3,2,A*%
%TO.N,VCC*%
X12137500Y13035000D03*
%TD*%
D17*
%TO.P,ATTINY841,1,VCC*%
%TO.N,VCC*%
X18475000Y45410000D03*
%TO.P,ATTINY841,2,XTAL1/PB0*%
%TO.N,Net-(ATTINY841-XTAL1{slash}PB0)*%
X18475000Y44140000D03*
%TO.P,ATTINY841,3,XTAL2/PB1*%
%TO.N,Net-(ATTINY841-XTAL2{slash}PB1)*%
X18475000Y42870000D03*
%TO.P,ATTINY841,4,~{RESET}/PB3*%
%TO.N,Net-(ATTINY841-~{RESET}{slash}PB3)*%
X18475000Y41600000D03*
%TO.P,ATTINY841,5,PB2*%
%TO.N,DUMP_LOAD_ENABLE*%
X18475000Y40330000D03*
%TO.P,ATTINY841,6,PA7*%
%TO.N,ENABLE*%
X18475000Y39060000D03*
%TO.P,ATTINY841,7,PA6*%
%TO.N,Net-(ATTINY841-PA6)*%
X18475000Y37790000D03*
%TO.P,ATTINY841,8,PA5*%
%TO.N,MISO*%
X23425000Y37790000D03*
%TO.P,ATTINY841,9,PA4*%
%TO.N,SCK*%
X23425000Y39060000D03*
%TO.P,ATTINY841,10,PA3*%
%TO.N,Net-(ATTINY841-PA3)*%
X23425000Y40330000D03*
%TO.P,ATTINY841,11,PA2*%
%TO.N,RXD0*%
X23425000Y41600000D03*
%TO.P,ATTINY841,12,PA1*%
%TO.N,TXD0*%
X23425000Y42870000D03*
%TO.P,ATTINY841,13,AREF/PA0*%
%TO.N,VREF*%
X23425000Y44140000D03*
%TO.P,ATTINY841,14,GND*%
%TO.N,GND*%
X23425000Y45410000D03*
%TD*%
D18*
%TO.P,R21,1*%
%TO.N,MISO*%
X27012500Y36275000D03*
%TO.P,R21,2*%
%TO.N,GND*%
X28837500Y36275000D03*
%TD*%
%TO.P,R17,1*%
%TO.N,Net-(Q1-D)*%
X6637500Y13080000D03*
%TO.P,R17,2*%
%TO.N,Net-(D3-K)*%
X8462500Y13080000D03*
%TD*%
D13*
%TO.P,R18,1*%
%TO.N,GND*%
X3662500Y51625000D03*
%TO.P,R18,2*%
%TO.N,Net-(D4-K)*%
X1837500Y51625000D03*
%TD*%
D18*
%TO.P,R5,1*%
%TO.N,Net-(R5-Pad1)*%
X11412500Y51500000D03*
%TO.P,R5,2*%
%TO.N,TXD0*%
X13237500Y51500000D03*
%TD*%
%TO.P,R20,1*%
%TO.N,SCK*%
X27012500Y38675000D03*
%TO.P,R20,2*%
%TO.N,GND*%
X28837500Y38675000D03*
%TD*%
D15*
%TO.P,D1,1,FB*%
%TO.N,VREF*%
X26510000Y51410000D03*
%TO.P,D1,2,K*%
X28410000Y51410000D03*
%TO.P,D1,3,A*%
%TO.N,GND*%
X27460000Y53410000D03*
%TD*%
D19*
%TO.P,C4,1*%
%TO.N,Net-(ATTINY841-XTAL1{slash}PB0)*%
X21775000Y50775000D03*
%TO.P,C4,2*%
%TO.N,GND*%
X23675000Y50775000D03*
%TD*%
D20*
%TO.P,C5,1*%
%TO.N,Net-(ATTINY841-XTAL2{slash}PB1)*%
X13295000Y48110000D03*
%TO.P,C5,2*%
%TO.N,GND*%
X11395000Y48110000D03*
%TD*%
D19*
%TO.P,C1,1*%
%TO.N,VCC*%
X21760000Y48540000D03*
%TO.P,C1,2*%
%TO.N,GND*%
X23660000Y48540000D03*
%TD*%
D18*
%TO.P,R14,1*%
%TO.N,Net-(Q1-G)*%
X27012500Y41075000D03*
%TO.P,R14,2*%
%TO.N,DUMP_LOAD_ENABLE*%
X28837500Y41075000D03*
%TD*%
%TO.P,R4,1*%
%TO.N,Net-(ATTINY841-PA3)*%
X10662500Y38325000D03*
%TO.P,R4,2*%
%TO.N,GND*%
X12487500Y38325000D03*
%TD*%
%TO.P,R2,1*%
%TO.N,ENABLE*%
X26507500Y49460000D03*
%TO.P,R2,2*%
%TO.N,VREF*%
X28332500Y49460000D03*
%TD*%
%TO.P,R3,1*%
%TO.N,ENABLE*%
X10662500Y40725000D03*
%TO.P,R3,2*%
%TO.N,Net-(ATTINY841-PA3)*%
X12487500Y40725000D03*
%TD*%
%TO.P,R1,1*%
%TO.N,VCC*%
X10637500Y43210000D03*
%TO.P,R1,2*%
%TO.N,Net-(ATTINY841-~{RESET}{slash}PB3)*%
X12462500Y43210000D03*
%TD*%
D21*
%TO.P,F1,1*%
%TO.N,VCC*%
X27650000Y5787500D03*
%TO.P,F1,2*%
%TO.N,Net-(POWER1-Pin_2)*%
X27650000Y1512500D03*
%TD*%
D18*
%TO.P,R15,1*%
%TO.N,Net-(Q1-G)*%
X2287500Y11450000D03*
%TO.P,R15,2*%
%TO.N,GND*%
X4112500Y11450000D03*
%TD*%
D19*
%TO.P,C2,1*%
%TO.N,VCC*%
X26995000Y44500000D03*
%TO.P,C2,2*%
%TO.N,GND*%
X28895000Y44500000D03*
%TD*%
D22*
%TO.P,R23,1*%
%TO.N,VREF*%
X3870000Y3367500D03*
%TO.P,R23,2*%
%TO.N,MISO*%
X3870000Y5192500D03*
%TD*%
D23*
%TO.P,D2,1,A1*%
%TO.N,VCC*%
X24700000Y11950000D03*
%TO.P,D2,2,A2*%
%TO.N,GND*%
X20400000Y11950000D03*
%TD*%
D24*
%TO.P,REMOTE1,1,Pin_1*%
%TO.N,MISO*%
X7750000Y5575000D03*
D25*
%TO.P,REMOTE1,2,Pin_2*%
%TO.N,VREF*%
X7750000Y3035000D03*
%TD*%
D14*
%TO.P,POWER1,1,Pin_1*%
%TO.N,GND*%
X20850000Y7300000D03*
D12*
%TO.P,POWER1,2,Pin_2*%
%TO.N,Net-(POWER1-Pin_2)*%
X22850000Y7300000D03*
%TD*%
D24*
%TO.P,J2,1,MISO*%
%TO.N,MISO*%
X2725000Y44875000D03*
D25*
%TO.P,J2,2,VCC*%
%TO.N,VCC*%
X5265000Y44875000D03*
%TO.P,J2,3,SCK*%
%TO.N,SCK*%
X2725000Y42335000D03*
%TO.P,J2,4,MOSI*%
%TO.N,Net-(ATTINY841-PA6)*%
X5265000Y42335000D03*
%TO.P,J2,5,~{RST}*%
%TO.N,Net-(ATTINY841-~{RESET}{slash}PB3)*%
X2725000Y39795000D03*
%TO.P,J2,6,GND*%
%TO.N,GND*%
X5265000Y39795000D03*
%TD*%
D26*
%TO.P,Y1,1,1*%
%TO.N,Net-(ATTINY841-XTAL2{slash}PB1)*%
X15570000Y49595000D03*
%TO.P,Y1,2,2*%
%TO.N,Net-(ATTINY841-XTAL1{slash}PB0)*%
X19270000Y49595000D03*
%TD*%
D27*
%TO.P,R30,1*%
%TO.N,VCC*%
X12660000Y22225000D03*
%TO.P,R30,2*%
%TO.N,Net-(Q1-D)*%
X7660000Y22225000D03*
%TD*%
D28*
%TO.N,*%
X2893333Y9250000D03*
X3674444Y9250000D03*
X4455555Y9250000D03*
X5236666Y9250000D03*
X6017777Y9250000D03*
X6800000Y9250000D03*
X7600000Y9250000D03*
D29*
%TO.N,GND*%
X11250000Y59425000D03*
X9730000Y50010000D03*
X10980000Y50010000D03*
X5275000Y53725000D03*
X8555000Y50010000D03*
X21990000Y35510000D03*
X25370000Y33320000D03*
X27740000Y34510000D03*
X26175000Y19550000D03*
X26160000Y18540000D03*
X27200000Y19550000D03*
X15550000Y11645000D03*
X15550000Y12625000D03*
X6090000Y16005000D03*
X7190000Y16005000D03*
X8290000Y16005000D03*
X9440000Y16005000D03*
X15550000Y13605000D03*
X16875000Y12625000D03*
X16875000Y11645000D03*
X16875000Y13605000D03*
X9650000Y46575000D03*
X10900000Y46575000D03*
X8475000Y46575000D03*
X7610000Y39485000D03*
X7610000Y40610000D03*
X23675000Y52350000D03*
X9425000Y59425000D03*
X7600000Y59425000D03*
X5270000Y52810000D03*
X3245000Y47315000D03*
X4420000Y47315000D03*
X14030000Y39690000D03*
X8870000Y43630000D03*
X7940000Y43650000D03*
X23060000Y35520000D03*
X1050000Y36800000D03*
X15550000Y14625000D03*
X16875000Y14625000D03*
X15550000Y15775000D03*
X16875000Y15775000D03*
X25350000Y34510000D03*
X27770000Y33320000D03*
X28460000Y48000000D03*
X27010000Y48000000D03*
X24500000Y55150000D03*
X21480000Y45270000D03*
X27600000Y42980000D03*
%TO.N,VCC*%
X26590000Y46770000D03*
X20460000Y46960000D03*
X27150000Y13275000D03*
X18999988Y46760000D03*
X24340000Y46800000D03*
%TO.N,RXD0*%
X20560000Y42720000D03*
%TO.N,ENABLE*%
X25200000Y39780000D03*
X20200000Y39350010D03*
%TO.N,TXD0*%
X21600000Y43230000D03*
X15420000Y52310000D03*
%TO.N,Net-(ATTINY841-PA6)*%
X15460000Y40870000D03*
X5130000Y48340000D03*
%TO.N,DUMP_LOAD_ENABLE*%
X25545250Y41620141D03*
X19830000Y40910000D03*
%TO.N,Net-(ATTINY841-XTAL2{slash}PB1)*%
X15570000Y49595000D03*
X16220000Y43910000D03*
%TO.N,Net-(Q1-G)*%
X26062139Y40179047D03*
X1100000Y11740000D03*
%TO.N,VREF*%
X13712500Y28500014D03*
X23425000Y44140000D03*
X9644988Y9230000D03*
%TO.N,SCK*%
X21820000Y38800000D03*
X11855766Y28531734D03*
%TO.N,MISO*%
X8650000Y9240000D03*
%TD*%
D30*
%TO.N,GND*%
X4112500Y13537500D02*
X4125000Y13550000D01*
D31*
X3662500Y53650000D02*
X3662500Y51625000D01*
D30*
X4112500Y11450000D02*
X4112500Y13537500D01*
D31*
X15650000Y53785000D02*
X15665000Y53800000D01*
%TO.N,VCC*%
X10637500Y44777500D02*
X10740000Y44880000D01*
D30*
X18475000Y45410000D02*
X18455000Y45390000D01*
X5265000Y44875000D02*
X5740000Y45350000D01*
D32*
X15632612Y17574990D02*
X12700000Y20507602D01*
D31*
X17550000Y10450000D02*
X18300000Y9700000D01*
D32*
X26450000Y11950000D02*
X24700000Y11950000D01*
D31*
X15200000Y10450000D02*
X17550000Y10450000D01*
X12615000Y13035000D02*
X15200000Y10450000D01*
D30*
X24700000Y11950000D02*
X25825000Y11950000D01*
D32*
X27650000Y10750000D02*
X26450000Y11950000D01*
D30*
X18455000Y45390000D02*
X17210000Y45390000D01*
X8700000Y53600000D02*
X8700000Y54950000D01*
D31*
X10637500Y43210000D02*
X10637500Y44777500D01*
X26995000Y44500000D02*
X26995000Y46365000D01*
D30*
X21760000Y48540000D02*
X20460000Y47240000D01*
X7600000Y47210000D02*
X7600000Y52500000D01*
X16700000Y44880000D02*
X10740000Y44880000D01*
D32*
X24725000Y13800000D02*
X24725000Y11975000D01*
D30*
X18475000Y45410000D02*
X18475000Y46235012D01*
X10740000Y44880000D02*
X5270000Y44880000D01*
X20460000Y47240000D02*
X20460000Y46960000D01*
D32*
X21024990Y17574990D02*
X21024990Y17500010D01*
D31*
X23850000Y9700000D02*
X24700000Y10550000D01*
D30*
X25825000Y11950000D02*
X27150000Y13275000D01*
D31*
X18300000Y9700000D02*
X23850000Y9700000D01*
D30*
X21760000Y48540000D02*
X23500000Y46800000D01*
D32*
X12700000Y20507602D02*
X12700000Y22225000D01*
D30*
X5270000Y44880000D02*
X5265000Y44875000D01*
D32*
X21024990Y17574990D02*
X15632612Y17574990D01*
D30*
X5265000Y44875000D02*
X7600000Y47210000D01*
D31*
X12137500Y13035000D02*
X12615000Y13035000D01*
D30*
X18475000Y46235012D02*
X18999988Y46760000D01*
D31*
X24700000Y10550000D02*
X24700000Y11950000D01*
D32*
X27650000Y5787500D02*
X27650000Y10750000D01*
D30*
X18250000Y45410000D02*
X18475000Y45410000D01*
D31*
X26995000Y46365000D02*
X26590000Y46770000D01*
D30*
X7600000Y52500000D02*
X8700000Y53600000D01*
D32*
X21024990Y17500010D02*
X24725000Y13800000D01*
X24725000Y11975000D02*
X24700000Y11950000D01*
D30*
X17210000Y45390000D02*
X16700000Y44880000D01*
X23500000Y46800000D02*
X24340000Y46800000D01*
D31*
X6467081Y44875000D02*
X5265000Y44875000D01*
%TO.N,RXD0*%
X10150000Y56650000D02*
X6300000Y56650000D01*
X4450000Y54800000D02*
X2287500Y54800000D01*
X10700000Y56100000D02*
X10150000Y56650000D01*
X6300000Y56650000D02*
X4450000Y54800000D01*
X21680000Y41600000D02*
X20560000Y42720000D01*
X2287500Y54800000D02*
X1837500Y54350000D01*
X1837500Y54350000D02*
X1837500Y53650000D01*
X10700000Y54950000D02*
X10700000Y56100000D01*
X23650000Y41600000D02*
X21680000Y41600000D01*
%TO.N,ENABLE*%
X9695000Y36880000D02*
X19730000Y36880000D01*
X25730000Y49195000D02*
X25730000Y43016002D01*
X9475000Y37100000D02*
X9695000Y36880000D01*
X24800001Y42086003D02*
X24800001Y40179999D01*
X19909990Y39060000D02*
X20200000Y39350010D01*
X10150000Y40725000D02*
X9475000Y40050000D01*
X10662500Y40725000D02*
X10150000Y40725000D01*
X20200000Y37350000D02*
X20200000Y39350010D01*
X19730000Y36880000D02*
X20200000Y37350000D01*
X26507500Y49460000D02*
X25995000Y49460000D01*
X18475000Y39060000D02*
X19909990Y39060000D01*
X9475000Y40050000D02*
X9475000Y37100000D01*
X10825000Y40725000D02*
X10275000Y40725000D01*
X24800001Y40179999D02*
X25200000Y39780000D01*
X25730000Y43016002D02*
X24800001Y42086003D01*
X25995000Y49460000D02*
X25730000Y49195000D01*
%TO.N,Net-(R5-Pad1)*%
X14385000Y53800000D02*
X13225000Y53800000D01*
X11412500Y51987500D02*
X11412500Y51500000D01*
X13225000Y53800000D02*
X11412500Y51987500D01*
%TO.N,TXD0*%
X23425000Y42870000D02*
X21960000Y42870000D01*
X14420000Y52290000D02*
X15400000Y52290000D01*
X21960000Y42870000D02*
X21600000Y43230000D01*
X23650000Y42870000D02*
X23444315Y42870000D01*
X13630000Y51500000D02*
X14420000Y52290000D01*
X13237500Y51500000D02*
X13630000Y51500000D01*
X15400000Y52290000D02*
X15420000Y52310000D01*
%TO.N,Net-(ATTINY841-PA3)*%
X11887500Y39425000D02*
X12487500Y40025000D01*
D33*
X20210988Y40330000D02*
X19560988Y39680000D01*
X12607501Y41545001D02*
X12487500Y41425000D01*
D31*
X10662500Y38325000D02*
X10662500Y39025000D01*
D33*
X12487500Y41425000D02*
X12487500Y40725000D01*
D31*
X11062500Y39425000D02*
X11887500Y39425000D01*
X10662500Y39025000D02*
X11062500Y39425000D01*
D33*
X19560988Y39680000D02*
X17529002Y39680000D01*
X16135001Y41194001D02*
X15784001Y41545001D01*
D31*
X12487500Y40025000D02*
X12487500Y40725000D01*
D33*
X17529002Y39680000D02*
X16135001Y41074001D01*
X15784001Y41545001D02*
X12607501Y41545001D01*
X23650000Y40330000D02*
X20210988Y40330000D01*
X16135001Y41074001D02*
X16135001Y41194001D01*
D31*
%TO.N,Net-(ATTINY841-PA6)*%
X18250000Y37790000D02*
X17974315Y37790000D01*
X3712500Y49450000D02*
X4822500Y48340000D01*
X15460000Y40304315D02*
X15460000Y40870000D01*
X17974315Y37790000D02*
X15460000Y40304315D01*
X4822500Y48340000D02*
X5130000Y48340000D01*
D33*
%TO.N,DUMP_LOAD_ENABLE*%
X19250000Y40330000D02*
X19830000Y40910000D01*
X28837500Y41075000D02*
X28837500Y41775000D01*
X28392500Y42220000D02*
X26145109Y42220000D01*
X28837500Y41775000D02*
X28392500Y42220000D01*
X26145109Y42220000D02*
X25545250Y41620141D01*
X18250000Y40330000D02*
X19250000Y40330000D01*
D31*
%TO.N,Net-(ATTINY841-~{RESET}{slash}PB3)*%
X9010000Y41340000D02*
X9630000Y41960000D01*
X9630000Y41960000D02*
X12150000Y41960000D01*
X17010000Y41760000D02*
X18090000Y41760000D01*
X12150000Y41960000D02*
X12462500Y42272500D01*
X3200000Y36950000D02*
X8580000Y36950000D01*
X2725000Y37425000D02*
X3200000Y36950000D01*
X8580000Y36950000D02*
X9010000Y37380000D01*
X12462500Y43210000D02*
X15560000Y43210000D01*
X9010000Y37380000D02*
X9010000Y41340000D01*
X18090000Y41760000D02*
X18250000Y41600000D01*
X2725000Y39795000D02*
X2725000Y37425000D01*
X12462500Y42272500D02*
X12462500Y43210000D01*
X15560000Y43210000D02*
X17010000Y41760000D01*
%TO.N,Net-(ATTINY841-XTAL2{slash}PB1)*%
X13295000Y48110000D02*
X14085000Y48110000D01*
X14100000Y48095000D02*
X14270000Y48095000D01*
X14270000Y48095000D02*
X15570000Y49395000D01*
X15570000Y49395000D02*
X15570000Y49595000D01*
X14085000Y48110000D02*
X14100000Y48095000D01*
X17260000Y42870000D02*
X16220000Y43910000D01*
X18475000Y42870000D02*
X17260000Y42870000D01*
%TO.N,Net-(ATTINY841-XTAL1{slash}PB0)*%
X19699998Y47665002D02*
X19699998Y46623998D01*
X19450000Y44140000D02*
X18475000Y44140000D01*
X19270000Y49595000D02*
X19270000Y48095000D01*
X20745000Y49595000D02*
X19270000Y49595000D01*
X19270000Y48095000D02*
X19699998Y47665002D01*
X19779998Y46543998D02*
X19779998Y44469998D01*
X21775000Y50625000D02*
X20745000Y49595000D01*
X19699998Y46623998D02*
X19779998Y46543998D01*
X21775000Y50775000D02*
X21775000Y50625000D01*
X19779998Y44469998D02*
X19450000Y44140000D01*
D30*
%TO.N,Net-(D3-K)*%
X8462500Y13080000D02*
X10217500Y13080000D01*
X10217500Y13080000D02*
X10262500Y13035000D01*
D31*
%TO.N,Net-(D4-K)*%
X1837500Y51625000D02*
X1837500Y49450000D01*
D34*
%TO.N,Net-(POWER1-Pin_2)*%
X26237500Y1512500D02*
X22900000Y4850000D01*
X22900000Y4850000D02*
X22900000Y7250000D01*
X27650000Y1512500D02*
X26237500Y1512500D01*
X22900000Y7250000D02*
X22850000Y7300000D01*
D31*
%TO.N,Net-(Q1-G)*%
X1997500Y11740000D02*
X2287500Y11450000D01*
X27012500Y41075000D02*
X27012500Y40375000D01*
D30*
X2287500Y13487500D02*
X2225000Y13550000D01*
X2287500Y11450000D02*
X2287500Y13487500D01*
D31*
X27012500Y40375000D02*
X26816547Y40179047D01*
X1100000Y11740000D02*
X1997500Y11740000D01*
X26816547Y40179047D02*
X26062139Y40179047D01*
D30*
%TO.N,Net-(Q1-D)*%
X6637500Y13262500D02*
X4350000Y15550000D01*
X4350000Y15550000D02*
X3175000Y15550000D01*
D35*
X7700000Y22225000D02*
X3175000Y17700000D01*
X3175000Y17700000D02*
X3175000Y15550000D01*
D30*
X6637500Y13080000D02*
X6637500Y13262500D01*
D31*
%TO.N,Net-(TX1-Pin_2)*%
X14385000Y58740000D02*
X14385000Y60100000D01*
X14725000Y58400000D02*
X14385000Y58740000D01*
X19300000Y54950000D02*
X15850000Y58400000D01*
X15850000Y58400000D02*
X14725000Y58400000D01*
%TO.N,VREF*%
X25250000Y50850000D02*
X25810000Y51410000D01*
X23425000Y44140000D02*
X24850000Y44140000D01*
X23650000Y44140000D02*
X23083588Y44140000D01*
X28410000Y49537500D02*
X28332500Y49460000D01*
D30*
X4737500Y2500000D02*
X7215000Y2500000D01*
D31*
X25250000Y44540000D02*
X25250000Y50850000D01*
X26510000Y51410000D02*
X28410000Y51410000D01*
X28410000Y51410000D02*
X28410000Y49537500D01*
X25810000Y51410000D02*
X26510000Y51410000D01*
D30*
X7215000Y2500000D02*
X7750000Y3035000D01*
D31*
X24850000Y44140000D02*
X25250000Y44540000D01*
D30*
X3870000Y3367500D02*
X4737500Y2500000D01*
D31*
%TO.N,SCK*%
X24215657Y39060000D02*
X23649984Y39060000D01*
X23649984Y39060000D02*
X25365000Y39060000D01*
X23649984Y39060000D02*
X23389984Y38800000D01*
X23389984Y38800000D02*
X21820000Y38800000D01*
X25365000Y39060000D02*
X25750000Y38675000D01*
X25750000Y38675000D02*
X27012500Y38675000D01*
%TO.N,MISO*%
X24060000Y37790000D02*
X25575000Y36275000D01*
D30*
X4527500Y5850000D02*
X7475000Y5850000D01*
X3870000Y5192500D02*
X4527500Y5850000D01*
D31*
X21720000Y37790000D02*
X24060000Y37790000D01*
D30*
X7475000Y5850000D02*
X7750000Y5575000D01*
D31*
X25575000Y36275000D02*
X27012500Y36275000D01*
X25600000Y30450000D02*
X25450000Y30450000D01*
X26300000Y31150000D02*
X25600000Y30450000D01*
X1050000Y44350000D02*
X1050000Y38375000D01*
X26300000Y35562500D02*
X26300000Y31150000D01*
X2725000Y44875000D02*
X1575000Y44875000D01*
X2995000Y36430000D02*
X20360000Y36430000D01*
X1050000Y38375000D02*
X2995000Y36430000D01*
X1575000Y44875000D02*
X1050000Y44350000D01*
X20360000Y36430000D02*
X21720000Y37790000D01*
X27012500Y36275000D02*
X26300000Y35562500D01*
%TO.N,Net-(TX1-Pin_1)*%
X21300000Y55200000D02*
X16400000Y60100000D01*
X21300000Y54950000D02*
X21300000Y55200000D01*
X16400000Y60100000D02*
X15665000Y60100000D01*
%TD*%
%TA.AperFunction,Conductor*%
%TO.N,GND*%
G36*
X4943250Y13879998D02*
G01*
X4964224Y13863095D01*
X5579595Y13247724D01*
X5613621Y13185412D01*
X5616500Y13158629D01*
X5616500Y12579456D01*
X5627112Y12475575D01*
X5682885Y12307262D01*
X5775970Y12156348D01*
X5775975Y12156342D01*
X5901341Y12030976D01*
X5901347Y12030971D01*
X5901348Y12030970D01*
X6052262Y11937885D01*
X6220574Y11882113D01*
X6324455Y11871500D01*
X6950544Y11871501D01*
X7054426Y11882113D01*
X7222738Y11937885D01*
X7373652Y12030970D01*
X7397108Y12054426D01*
X7460905Y12118222D01*
X7523217Y12152248D01*
X7594032Y12147183D01*
X7639095Y12118222D01*
X7726341Y12030976D01*
X7726347Y12030971D01*
X7726348Y12030970D01*
X7877262Y11937885D01*
X8045574Y11882113D01*
X8149455Y11871500D01*
X8775544Y11871501D01*
X8879426Y11882113D01*
X9047738Y11937885D01*
X9198652Y12030970D01*
X9222108Y12054426D01*
X9261575Y12093892D01*
X9323887Y12127918D01*
X9394702Y12122853D01*
X9439765Y12093892D01*
X9548995Y11984662D01*
X9549001Y11984657D01*
X9549002Y11984656D01*
X9698671Y11892339D01*
X9865596Y11837026D01*
X9968625Y11826500D01*
X10556374Y11826501D01*
X10659404Y11837026D01*
X10826329Y11892339D01*
X10975998Y11984656D01*
X11100344Y12109002D01*
X11100348Y12109010D01*
X11101162Y12110037D01*
X11101908Y12110566D01*
X11105534Y12114191D01*
X11106153Y12113572D01*
X11159102Y12151067D01*
X11230027Y12154259D01*
X11291418Y12118599D01*
X11298838Y12110037D01*
X11299661Y12108996D01*
X11423995Y11984662D01*
X11424001Y11984657D01*
X11424002Y11984656D01*
X11573671Y11892339D01*
X11740596Y11837026D01*
X11843625Y11826500D01*
X12431374Y11826501D01*
X12534404Y11837026D01*
X12701329Y11892339D01*
X12701336Y11892344D01*
X12706659Y11894825D01*
X12776850Y11905491D01*
X12841664Y11876515D01*
X12849011Y11869729D01*
X14673125Y10045615D01*
X14683338Y10032869D01*
X14683531Y10033028D01*
X14688583Y10026921D01*
X14740978Y9977719D01*
X14742367Y9976373D01*
X14763667Y9955073D01*
X14763675Y9955067D01*
X14769517Y9950535D01*
X14774033Y9946678D01*
X14809867Y9913028D01*
X14828669Y9902692D01*
X14845175Y9891849D01*
X14862132Y9878696D01*
X14907254Y9859171D01*
X14912580Y9856561D01*
X14955659Y9832877D01*
X14955663Y9832876D01*
X14976432Y9827544D01*
X14995134Y9821141D01*
X15014824Y9812620D01*
X15063395Y9804928D01*
X15069189Y9803729D01*
X15116812Y9791500D01*
X15138259Y9791500D01*
X15157967Y9789950D01*
X15179152Y9786594D01*
X15216880Y9790161D01*
X15228094Y9791220D01*
X15234027Y9791500D01*
X17225050Y9791500D01*
X17293171Y9771498D01*
X17314145Y9754595D01*
X17773125Y9295615D01*
X17783338Y9282869D01*
X17783531Y9283028D01*
X17788583Y9276921D01*
X17788584Y9276920D01*
X17810514Y9256326D01*
X17840978Y9227719D01*
X17842367Y9226373D01*
X17863667Y9205073D01*
X17863675Y9205067D01*
X17869517Y9200535D01*
X17874033Y9196678D01*
X17909867Y9163028D01*
X17928669Y9152692D01*
X17945175Y9141849D01*
X17962132Y9128696D01*
X18007269Y9109163D01*
X18012569Y9106567D01*
X18055663Y9082876D01*
X18069950Y9079208D01*
X18076429Y9077544D01*
X18095132Y9071141D01*
X18099886Y9069084D01*
X18114823Y9062620D01*
X18163399Y9054927D01*
X18169191Y9053727D01*
X18171294Y9053187D01*
X18216811Y9041500D01*
X18216812Y9041500D01*
X18238258Y9041500D01*
X18257967Y9039949D01*
X18262507Y9039231D01*
X18279152Y9036594D01*
X18316880Y9040161D01*
X18328094Y9041220D01*
X18334027Y9041500D01*
X21551549Y9041500D01*
X21619670Y9021498D01*
X21666163Y8967842D01*
X21677545Y8916355D01*
X21677937Y8858444D01*
X21678736Y8740235D01*
X21659195Y8671981D01*
X21605855Y8625127D01*
X21535650Y8614548D01*
X21513107Y8619779D01*
X21354324Y8672394D01*
X21354318Y8672395D01*
X21250516Y8683000D01*
X21200000Y8683000D01*
X21200000Y7445465D01*
X21198163Y7452719D01*
X21129711Y7557492D01*
X21030948Y7634363D01*
X20912576Y7675000D01*
X20818927Y7675000D01*
X20726554Y7659586D01*
X20616486Y7600019D01*
X20531722Y7507941D01*
X20481449Y7393330D01*
X20471114Y7268605D01*
X20501837Y7147281D01*
X20570289Y7042508D01*
X20669052Y6965637D01*
X20787424Y6925000D01*
X20881073Y6925000D01*
X20973446Y6940414D01*
X21083514Y6999981D01*
X21168278Y7092059D01*
X21200000Y7164378D01*
X21200000Y5917000D01*
X21250517Y5917000D01*
X21250516Y5917001D01*
X21354318Y5927606D01*
X21354321Y5927607D01*
X21529491Y5985651D01*
X21530245Y5983375D01*
X21589074Y5992327D01*
X21653895Y5963365D01*
X21692768Y5903956D01*
X21698164Y5868318D01*
X21700321Y5549475D01*
X21700323Y5549476D01*
X21729232Y5520800D01*
X21763510Y5458626D01*
X21766500Y5431342D01*
X21766500Y4955161D01*
X21764755Y4934264D01*
X21764244Y4931231D01*
X21766482Y4837273D01*
X21766500Y4835774D01*
X21766500Y4795997D01*
X21767571Y4784785D01*
X21767838Y4780298D01*
X21769397Y4714818D01*
X21769397Y4714817D01*
X21777252Y4678707D01*
X21778407Y4671300D01*
X21781920Y4634510D01*
X21781920Y4634507D01*
X21800372Y4571668D01*
X21801484Y4567310D01*
X21815409Y4503297D01*
X21829956Y4469327D01*
X21832493Y4462271D01*
X21842905Y4426811D01*
X21842907Y4426807D01*
X21842908Y4426804D01*
X21861586Y4390573D01*
X21872923Y4368583D01*
X21874840Y4364515D01*
X21900625Y4304302D01*
X21900628Y4304297D01*
X21921343Y4273688D01*
X21925165Y4267248D01*
X21942102Y4234396D01*
X21942104Y4234393D01*
X21942105Y4234392D01*
X21982586Y4182917D01*
X21985239Y4179284D01*
X22021960Y4125029D01*
X22048092Y4098897D01*
X22053064Y4093296D01*
X22075916Y4064237D01*
X22125430Y4021333D01*
X22128707Y4018282D01*
X23771516Y2375473D01*
X25361630Y785359D01*
X25375171Y769352D01*
X25376959Y766841D01*
X25445021Y701944D01*
X25446051Y700938D01*
X25474176Y672813D01*
X25482864Y665640D01*
X25486206Y662675D01*
X25533630Y617456D01*
X25564726Y597471D01*
X25570768Y593060D01*
X25599275Y569523D01*
X25656778Y538124D01*
X25660629Y535838D01*
X25696144Y513015D01*
X25715738Y500422D01*
X25744058Y489085D01*
X25750040Y486690D01*
X25756821Y483496D01*
X25789268Y465778D01*
X25803336Y461281D01*
X25851676Y445828D01*
X25855910Y444306D01*
X25916695Y419971D01*
X25916697Y419971D01*
X25916704Y419968D01*
X25953002Y412973D01*
X25960240Y411126D01*
X25995462Y399866D01*
X26060524Y392087D01*
X26064918Y391402D01*
X26129264Y379000D01*
X26166217Y379000D01*
X26173703Y378554D01*
X26175858Y378297D01*
X26210403Y374166D01*
X26262174Y377869D01*
X26275747Y378839D01*
X26280243Y379000D01*
X27703994Y379000D01*
X27703996Y379000D01*
X27865492Y394421D01*
X28008449Y436398D01*
X28043946Y441501D01*
X29022035Y441501D01*
X29090156Y421499D01*
X29136649Y367843D01*
X29146753Y297569D01*
X29117259Y232989D01*
X29070252Y199092D01*
X28949356Y149016D01*
X28930553Y142906D01*
X28732483Y95354D01*
X28712955Y92261D01*
X28502464Y75694D01*
X28497518Y75500D01*
X12777482Y75500D01*
X12772536Y75694D01*
X12562044Y92261D01*
X12542516Y95354D01*
X12344446Y142906D01*
X12325642Y149016D01*
X12137454Y226966D01*
X12119837Y235942D01*
X11946150Y342377D01*
X11930155Y353999D01*
X11901071Y378839D01*
X11775264Y486288D01*
X11761285Y500267D01*
X11715882Y553427D01*
X11628997Y655158D01*
X11617376Y671151D01*
X11599148Y700896D01*
X11510941Y844838D01*
X11501965Y862455D01*
X11454837Y976231D01*
X11424014Y1050644D01*
X11417905Y1069447D01*
X11370353Y1267517D01*
X11367260Y1287045D01*
X11350694Y1497538D01*
X11350500Y1502483D01*
X11350500Y3786103D01*
X11935673Y3786103D01*
X11940779Y3613888D01*
X11945875Y3441988D01*
X11945875Y3441987D01*
X11996701Y3101515D01*
X11996702Y3101508D01*
X12087448Y2769416D01*
X12087449Y2769414D01*
X12216826Y2450404D01*
X12216828Y2450401D01*
X12383034Y2148921D01*
X12383036Y2148917D01*
X12383038Y2148915D01*
X12583725Y1869221D01*
X12583726Y1869220D01*
X12583730Y1869215D01*
X12816099Y1615209D01*
X13076880Y1390469D01*
X13362410Y1198149D01*
X13668683Y1040950D01*
X13991399Y921078D01*
X14326027Y840217D01*
X14667870Y799500D01*
X14667876Y799500D01*
X14925980Y799500D01*
X14925990Y799500D01*
X15183655Y814791D01*
X15522486Y875687D01*
X15851736Y976231D01*
X16063349Y1069447D01*
X16166766Y1115002D01*
X16166772Y1115005D01*
X16166773Y1115006D01*
X16166783Y1115010D01*
X16463206Y1290076D01*
X16736842Y1498973D01*
X16983851Y1738767D01*
X17200764Y2006093D01*
X17384538Y2297198D01*
X17532592Y2607994D01*
X17642848Y2934120D01*
X17713758Y3270998D01*
X17744327Y3613897D01*
X17734125Y3958006D01*
X17724890Y4019866D01*
X17683298Y4298486D01*
X17683297Y4298493D01*
X17648235Y4426804D01*
X17592554Y4630577D01*
X17590959Y4634510D01*
X17463173Y4949597D01*
X17434646Y5001342D01*
X17296966Y5251079D01*
X17247101Y5320575D01*
X17096274Y5530780D01*
X17096273Y5530781D01*
X17096272Y5530782D01*
X17096270Y5530785D01*
X16863901Y5784791D01*
X16603120Y6009531D01*
X16317590Y6201851D01*
X16011317Y6359050D01*
X15785387Y6442971D01*
X15688599Y6478923D01*
X15353975Y6559783D01*
X15353969Y6559784D01*
X15183853Y6580046D01*
X15012130Y6600500D01*
X14754010Y6600500D01*
X14496345Y6585209D01*
X14496341Y6585209D01*
X14496336Y6585208D01*
X14157511Y6524313D01*
X13828268Y6423771D01*
X13828255Y6423766D01*
X13513233Y6284999D01*
X13513227Y6284996D01*
X13216793Y6109924D01*
X12943154Y5901024D01*
X12696151Y5661237D01*
X12479237Y5393910D01*
X12295462Y5102802D01*
X12295454Y5102788D01*
X12147410Y4792014D01*
X12147406Y4792002D01*
X12037150Y4465875D01*
X12037149Y4465870D01*
X11966241Y4129004D01*
X11966241Y4129000D01*
X11935673Y3786115D01*
X11935673Y3786110D01*
X11935673Y3786105D01*
X11935673Y3786103D01*
X11350500Y3786103D01*
X11350500Y6950000D01*
X19742000Y6950000D01*
X19742000Y6624484D01*
X19752605Y6520682D01*
X19752606Y6520679D01*
X19808342Y6352475D01*
X19901365Y6201661D01*
X19901370Y6201655D01*
X20026654Y6076371D01*
X20026660Y6076366D01*
X20177474Y5983343D01*
X20345678Y5927607D01*
X20345681Y5927606D01*
X20449483Y5917001D01*
X20449483Y5917000D01*
X20500000Y5917000D01*
X20500000Y6950000D01*
X19742000Y6950000D01*
X11350500Y6950000D01*
X11350500Y7650000D01*
X19742000Y7650000D01*
X20500000Y7650000D01*
X20500000Y8683000D01*
X20449483Y8683000D01*
X20345681Y8672395D01*
X20345678Y8672394D01*
X20177474Y8616658D01*
X20026660Y8523635D01*
X20026654Y8523630D01*
X19901370Y8398346D01*
X19901365Y8398340D01*
X19808342Y8247526D01*
X19752606Y8079322D01*
X19752605Y8079319D01*
X19742000Y7975517D01*
X19742000Y7650000D01*
X11350500Y7650000D01*
X11350500Y9534471D01*
X11352414Y9556352D01*
X11354122Y9566045D01*
X11354124Y9566048D01*
X11352414Y9575747D01*
X11351249Y9589060D01*
X11350500Y9593308D01*
X11350500Y9593312D01*
X11350498Y9593317D01*
X11349748Y9597572D01*
X11346290Y9610478D01*
X11344581Y9620171D01*
X11344581Y9620172D01*
X11344579Y9620173D01*
X11341062Y9626265D01*
X11336549Y9631645D01*
X11328016Y9636571D01*
X11310025Y9649169D01*
X11302479Y9655501D01*
X11295881Y9657903D01*
X11288952Y9659125D01*
X11279254Y9657414D01*
X11257375Y9655500D01*
X10521117Y9655500D01*
X10452996Y9675502D01*
X10411998Y9718500D01*
X10384030Y9766941D01*
X10384029Y9766942D01*
X10384028Y9766944D01*
X10359784Y9793870D01*
X10329068Y9857875D01*
X10327421Y9878211D01*
X10327421Y9878698D01*
X10327500Y10192500D01*
X10327498Y10192501D01*
X10327499Y10192501D01*
X7974498Y10195893D01*
X7938105Y10201318D01*
X7797694Y10243910D01*
X7600003Y10263380D01*
X7599997Y10263380D01*
X7402305Y10243910D01*
X7265439Y10202393D01*
X7228682Y10196968D01*
X7170677Y10197052D01*
X7134284Y10202477D01*
X6997694Y10243910D01*
X6800003Y10263380D01*
X6799997Y10263380D01*
X6602304Y10243910D01*
X6469222Y10203541D01*
X6432466Y10198116D01*
X6384715Y10198185D01*
X6348323Y10203610D01*
X6215478Y10243908D01*
X6215477Y10243909D01*
X6215471Y10243910D01*
X6017780Y10263380D01*
X6017774Y10263380D01*
X5820080Y10243910D01*
X5690699Y10204664D01*
X5653943Y10199239D01*
X5599877Y10199317D01*
X5563485Y10204742D01*
X5434361Y10243910D01*
X5236669Y10263380D01*
X5236663Y10263380D01*
X5038967Y10243909D01*
X5020669Y10238359D01*
X4949675Y10237728D01*
X4889611Y10275580D01*
X4859546Y10339897D01*
X4869025Y10410258D01*
X4895004Y10448031D01*
X4973634Y10526661D01*
X5066657Y10677475D01*
X5122393Y10845679D01*
X5122394Y10845682D01*
X5132999Y10949484D01*
X5133000Y10949484D01*
X5133000Y11100000D01*
X3888500Y11100000D01*
X3820379Y11120002D01*
X3773886Y11173658D01*
X3762500Y11226000D01*
X3762500Y11800000D01*
X4462500Y11800000D01*
X5133000Y11800000D01*
X5133000Y11950517D01*
X5122394Y12054319D01*
X5122393Y12054322D01*
X5066657Y12222526D01*
X4973634Y12373340D01*
X4973629Y12373346D01*
X4848345Y12498630D01*
X4842584Y12503185D01*
X4844314Y12505374D01*
X4805440Y12548619D01*
X4794057Y12618698D01*
X4822369Y12683805D01*
X4843573Y12703911D01*
X4887904Y12737097D01*
X4975444Y12854035D01*
X4975444Y12854036D01*
X5026494Y12990907D01*
X5032999Y13051403D01*
X5033000Y13051415D01*
X5033000Y13200000D01*
X4475000Y13200000D01*
X4475000Y12616691D01*
X4462500Y12574120D01*
X4462500Y11800000D01*
X3762500Y11800000D01*
X3762500Y12633309D01*
X3775000Y12675881D01*
X3775000Y13774000D01*
X3795002Y13842121D01*
X3848658Y13888614D01*
X3901000Y13900000D01*
X4875129Y13900000D01*
X4943250Y13879998D01*
G37*
%TD.AperFunction*%
%TA.AperFunction,Conductor*%
G36*
X285600Y55972064D02*
G01*
X292222Y55965901D01*
X337477Y55920646D01*
X337485Y55920639D01*
X337489Y55920635D01*
X360888Y55901687D01*
X630765Y55683144D01*
X630782Y55683132D01*
X809396Y55567140D01*
X947280Y55477597D01*
X1283535Y55306266D01*
X1342361Y55283685D01*
X1520771Y55215199D01*
X1577199Y55172113D01*
X1601375Y55105360D01*
X1585624Y55036132D01*
X1564711Y55008473D01*
X1433111Y54876873D01*
X1420364Y54866659D01*
X1420524Y54866466D01*
X1408313Y54856364D01*
X1407540Y54857298D01*
X1362859Y54828764D01*
X1252264Y54792116D01*
X1101347Y54699030D01*
X1101341Y54699025D01*
X975975Y54573659D01*
X975970Y54573653D01*
X882885Y54422738D01*
X827113Y54254428D01*
X827112Y54254421D01*
X816500Y54150554D01*
X816500Y53149456D01*
X827112Y53045575D01*
X882885Y52877262D01*
X975970Y52726348D01*
X980523Y52720590D01*
X979458Y52719749D01*
X1009745Y52664297D01*
X1004687Y52593480D01*
X979899Y52554903D01*
X980523Y52554410D01*
X975970Y52548653D01*
X882885Y52397738D01*
X827113Y52229428D01*
X827112Y52229421D01*
X816500Y52125554D01*
X816500Y51124456D01*
X827112Y51020575D01*
X882885Y50852262D01*
X975970Y50701348D01*
X975975Y50701342D01*
X1061392Y50615925D01*
X1095418Y50553613D01*
X1090353Y50482798D01*
X1061392Y50437735D01*
X999661Y50376005D01*
X999656Y50375999D01*
X907339Y50226330D01*
X852025Y50059400D01*
X841500Y49956384D01*
X841500Y48943626D01*
X852025Y48840601D01*
X852026Y48840596D01*
X885550Y48739426D01*
X907339Y48673671D01*
X999656Y48524002D01*
X999661Y48523996D01*
X1123995Y48399662D01*
X1124001Y48399657D01*
X1124002Y48399656D01*
X1273671Y48307339D01*
X1440596Y48252026D01*
X1543625Y48241500D01*
X2131374Y48241501D01*
X2234404Y48252026D01*
X2401329Y48307339D01*
X2550998Y48399656D01*
X2675344Y48524002D01*
X2675348Y48524010D01*
X2676162Y48525037D01*
X2676908Y48525566D01*
X2680534Y48529191D01*
X2681153Y48528572D01*
X2734102Y48566067D01*
X2805027Y48569259D01*
X2866418Y48533599D01*
X2873838Y48525037D01*
X2874661Y48523996D01*
X2998995Y48399662D01*
X2999001Y48399657D01*
X2999002Y48399656D01*
X3148671Y48307339D01*
X3315596Y48252026D01*
X3418625Y48241500D01*
X3937549Y48241501D01*
X4005670Y48221499D01*
X4026644Y48204596D01*
X4295625Y47935615D01*
X4305839Y47922868D01*
X4306032Y47923027D01*
X4311083Y47916921D01*
X4328396Y47900663D01*
X4351261Y47871814D01*
X4389114Y47806253D01*
X4390960Y47803056D01*
X4390961Y47803055D01*
X4390965Y47803049D01*
X4518744Y47661136D01*
X4518747Y47661134D01*
X4673248Y47548882D01*
X4847712Y47471206D01*
X5034513Y47431500D01*
X5225487Y47431500D01*
X5412288Y47471206D01*
X5586752Y47548882D01*
X5741253Y47661134D01*
X5754043Y47675339D01*
X5869034Y47803049D01*
X5869035Y47803051D01*
X5869040Y47803056D01*
X5964527Y47968444D01*
X6023542Y48150072D01*
X6043504Y48340000D01*
X6023542Y48529928D01*
X5964527Y48711556D01*
X5869040Y48876944D01*
X5869038Y48876946D01*
X5869034Y48876952D01*
X5741255Y49018865D01*
X5586752Y49131118D01*
X5412288Y49208794D01*
X5225487Y49248500D01*
X5034513Y49248500D01*
X5034511Y49248500D01*
X4945350Y49229549D01*
X4874559Y49234952D01*
X4830059Y49263701D01*
X4745404Y49348356D01*
X4711378Y49410668D01*
X4708499Y49437451D01*
X4708499Y49956375D01*
X4697974Y50059400D01*
X4697974Y50059404D01*
X4642661Y50226329D01*
X4550344Y50375998D01*
X4550343Y50375999D01*
X4550338Y50376005D01*
X4463254Y50463089D01*
X4429228Y50525401D01*
X4434293Y50596216D01*
X4463254Y50641279D01*
X4523629Y50701655D01*
X4523634Y50701661D01*
X4616657Y50852475D01*
X4672393Y51020679D01*
X4672394Y51020682D01*
X4682999Y51124484D01*
X4683000Y51124484D01*
X4683000Y51275000D01*
X3438500Y51275000D01*
X3370379Y51295002D01*
X3323886Y51348658D01*
X3312500Y51401000D01*
X3312500Y53300000D01*
X4012500Y53300000D01*
X4012500Y51975000D01*
X4683000Y51975000D01*
X4683000Y52125517D01*
X4672394Y52229319D01*
X4672393Y52229322D01*
X4616657Y52397526D01*
X4523635Y52548338D01*
X4523577Y52548396D01*
X4523548Y52548448D01*
X4519082Y52554097D01*
X4520046Y52554860D01*
X4489546Y52610705D01*
X4494604Y52681521D01*
X4519633Y52720468D01*
X4519082Y52720903D01*
X4523522Y52726519D01*
X4523577Y52726604D01*
X4523635Y52726663D01*
X4616657Y52877475D01*
X4672393Y53045679D01*
X4672394Y53045682D01*
X4682999Y53149484D01*
X4683000Y53149484D01*
X4683000Y53300000D01*
X4012500Y53300000D01*
X3312500Y53300000D01*
X3312500Y53874000D01*
X3332502Y53942121D01*
X3386158Y53988614D01*
X3438500Y54000000D01*
X4683000Y54000000D01*
X4683000Y54098387D01*
X4703002Y54166508D01*
X4756658Y54213001D01*
X4762620Y54215540D01*
X4769756Y54218365D01*
X4809537Y54247270D01*
X4814487Y54250520D01*
X4824175Y54256250D01*
X4856807Y54275547D01*
X4871977Y54290719D01*
X4887005Y54303553D01*
X4904357Y54316159D01*
X4935702Y54354050D01*
X4939670Y54358412D01*
X6535857Y55954598D01*
X6598167Y55988621D01*
X6624950Y55991500D01*
X7388223Y55991500D01*
X7456344Y55971498D01*
X7502837Y55917842D01*
X7514222Y55864954D01*
X7504104Y53528432D01*
X7483807Y53460399D01*
X7467200Y53439883D01*
X7109225Y53081908D01*
X7095376Y53069938D01*
X7075943Y53055470D01*
X7042007Y53015029D01*
X7038300Y53010983D01*
X7032421Y53005103D01*
X7032414Y53005095D01*
X7012430Y52979823D01*
X7011276Y52978406D01*
X6961964Y52919636D01*
X6957935Y52913509D01*
X6957880Y52913545D01*
X6953825Y52907180D01*
X6953882Y52907145D01*
X6950030Y52900901D01*
X6917609Y52831377D01*
X6916812Y52829730D01*
X6882393Y52761194D01*
X6879882Y52754293D01*
X6879820Y52754316D01*
X6877343Y52747190D01*
X6877404Y52747169D01*
X6875096Y52740205D01*
X6859574Y52665040D01*
X6859178Y52663253D01*
X6841500Y52588659D01*
X6840648Y52581366D01*
X6840581Y52581374D01*
X6839814Y52573874D01*
X6839881Y52573868D01*
X6839241Y52566557D01*
X6841473Y52489826D01*
X6841500Y52487994D01*
X6841500Y47576372D01*
X6821498Y47508251D01*
X6804595Y47487277D01*
X5571904Y46254587D01*
X5509592Y46220561D01*
X5462072Y46219400D01*
X5416577Y46226991D01*
X5377569Y46233500D01*
X5152431Y46233500D01*
X5022779Y46211865D01*
X4930369Y46196445D01*
X4930360Y46196443D01*
X4717428Y46123344D01*
X4717426Y46123342D01*
X4562021Y46039241D01*
X4519426Y46016190D01*
X4519424Y46016189D01*
X4341762Y45877909D01*
X4280754Y45811637D01*
X4219901Y45775067D01*
X4148936Y45777202D01*
X4090391Y45817364D01*
X4069999Y45852943D01*
X4043248Y45924662D01*
X4025889Y45971204D01*
X4025888Y45971206D01*
X4025887Y45971208D01*
X3938261Y46088262D01*
X3821207Y46175888D01*
X3821202Y46175890D01*
X3684204Y46226989D01*
X3684196Y46226991D01*
X3623649Y46233500D01*
X3623638Y46233500D01*
X1826362Y46233500D01*
X1826350Y46233500D01*
X1765803Y46226991D01*
X1765795Y46226989D01*
X1628797Y46175890D01*
X1628792Y46175888D01*
X1511738Y46088262D01*
X1424112Y45971208D01*
X1424110Y45971203D01*
X1373011Y45834205D01*
X1373009Y45834197D01*
X1366500Y45773650D01*
X1366500Y45588601D01*
X1346498Y45520480D01*
X1304635Y45480145D01*
X1292938Y45473228D01*
X1275191Y45464534D01*
X1255248Y45456638D01*
X1255245Y45456636D01*
X1215470Y45427738D01*
X1210508Y45424479D01*
X1168194Y45399454D01*
X1153022Y45384283D01*
X1137996Y45371450D01*
X1120644Y45358843D01*
X1120643Y45358842D01*
X1089299Y45320955D01*
X1085303Y45316564D01*
X645611Y44876873D01*
X632865Y44866660D01*
X633025Y44866467D01*
X626920Y44861417D01*
X577718Y44809023D01*
X576342Y44807603D01*
X555071Y44786332D01*
X550527Y44780475D01*
X546678Y44775969D01*
X513029Y44740135D01*
X513027Y44740133D01*
X502691Y44721333D01*
X491843Y44704820D01*
X478699Y44687874D01*
X478694Y44687865D01*
X459172Y44642753D01*
X456560Y44637423D01*
X432877Y44594340D01*
X432873Y44594330D01*
X427541Y44573564D01*
X421139Y44554864D01*
X412620Y44535180D01*
X412619Y44535176D01*
X404928Y44486616D01*
X403724Y44480803D01*
X391499Y44433190D01*
X391500Y44411742D01*
X389949Y44392033D01*
X386594Y44370850D01*
X386594Y44370848D01*
X391220Y44321906D01*
X391500Y44315973D01*
X391500Y38461611D01*
X389708Y38445380D01*
X389958Y38445356D01*
X389211Y38437464D01*
X391469Y38365642D01*
X391500Y38363663D01*
X391500Y38333570D01*
X392427Y38326224D01*
X392893Y38320310D01*
X394437Y38271171D01*
X394438Y38271168D01*
X400421Y38250571D01*
X404428Y38231220D01*
X407117Y38209940D01*
X407117Y38209938D01*
X425216Y38164222D01*
X427139Y38158606D01*
X440853Y38111403D01*
X440853Y38111402D01*
X451771Y38092942D01*
X460468Y38075189D01*
X468364Y38055245D01*
X468367Y38055240D01*
X481169Y38037621D01*
X497265Y38015468D01*
X500521Y38010510D01*
X502885Y38006512D01*
X525547Y37968193D01*
X540714Y37953026D01*
X553552Y37937995D01*
X566158Y37920644D01*
X604040Y37889305D01*
X608421Y37885319D01*
X1549146Y36944595D01*
X2463146Y36030595D01*
X2497171Y35968283D01*
X2492107Y35897468D01*
X2449560Y35840632D01*
X2383040Y35815821D01*
X2374051Y35815500D01*
X1825530Y35815500D01*
X1803650Y35817414D01*
X1793952Y35819125D01*
X1784254Y35817414D01*
X1770938Y35816250D01*
X1762453Y35814754D01*
X1749539Y35811294D01*
X1739827Y35809581D01*
X1733737Y35806066D01*
X1728354Y35801548D01*
X1723426Y35793013D01*
X1710835Y35775031D01*
X1704499Y35767481D01*
X1702097Y35760881D01*
X1700876Y35753952D01*
X1702586Y35744254D01*
X1704500Y35722376D01*
X1704500Y35185531D01*
X1702587Y35163657D01*
X1700876Y35153952D01*
X1702586Y35144254D01*
X1703750Y35130941D01*
X1705249Y35122441D01*
X1708707Y35109532D01*
X1710418Y35099830D01*
X1713935Y35093738D01*
X1718452Y35088355D01*
X1726982Y35083430D01*
X1744972Y35070833D01*
X1752518Y35064501D01*
X1752519Y35064501D01*
X1752520Y35064500D01*
X1752521Y35064500D01*
X1759123Y35062097D01*
X1766047Y35060876D01*
X1766047Y35060877D01*
X1766048Y35060876D01*
X1775746Y35062587D01*
X1797625Y35064500D01*
X14852520Y35064500D01*
X20635778Y35064500D01*
X20644657Y35063872D01*
X20668689Y35060457D01*
X20668692Y35060455D01*
X20675014Y35061789D01*
X20682460Y35062565D01*
X20682457Y35062586D01*
X20693307Y35064500D01*
X20693312Y35064500D01*
X20696617Y35065704D01*
X20705165Y35068148D01*
X20722468Y35071796D01*
X20722470Y35071800D01*
X20724113Y35072821D01*
X20727107Y35074279D01*
X20727845Y35074814D01*
X20730159Y35077206D01*
X20731640Y35078451D01*
X20731645Y35078452D01*
X20740488Y35093771D01*
X20745461Y35101131D01*
X20756374Y35115051D01*
X20756373Y35115054D01*
X20756977Y35116900D01*
X20758332Y35119937D01*
X20758552Y35120819D01*
X20758788Y35124142D01*
X20759124Y35126048D01*
X20756055Y35143450D01*
X20755131Y35152304D01*
X20754023Y35185531D01*
X20736940Y35698049D01*
X20738786Y35724131D01*
X20739122Y35726046D01*
X20739124Y35726048D01*
X20736052Y35743465D01*
X20735131Y35752301D01*
X20735015Y35755820D01*
X20735013Y35755825D01*
X20735013Y35755827D01*
X20732739Y35766615D01*
X20732759Y35766620D01*
X20730701Y35773814D01*
X20729581Y35780172D01*
X20729579Y35780173D01*
X20727756Y35790520D01*
X20735629Y35861079D01*
X20762743Y35901484D01*
X20766803Y35905545D01*
X20766807Y35905547D01*
X20781979Y35920721D01*
X20797005Y35933553D01*
X20814357Y35946159D01*
X20845703Y35984051D01*
X20849671Y35988413D01*
X21955854Y37094596D01*
X22018166Y37128621D01*
X22044949Y37131500D01*
X22131748Y37131500D01*
X22195887Y37113953D01*
X22336394Y37030857D01*
X22336397Y37030857D01*
X22336399Y37030855D01*
X22496169Y36984438D01*
X22533488Y36981501D01*
X22533489Y36981500D01*
X22533498Y36981500D01*
X23885050Y36981500D01*
X23953171Y36961498D01*
X23974145Y36944595D01*
X25048125Y35870615D01*
X25058338Y35857869D01*
X25058531Y35858028D01*
X25063583Y35851921D01*
X25063584Y35851920D01*
X25106846Y35811294D01*
X25115978Y35802719D01*
X25117367Y35801373D01*
X25138667Y35780073D01*
X25138675Y35780067D01*
X25144517Y35775535D01*
X25149033Y35771678D01*
X25153504Y35767480D01*
X25184867Y35738028D01*
X25203669Y35727692D01*
X25220175Y35716849D01*
X25237132Y35703696D01*
X25282254Y35684171D01*
X25287580Y35681561D01*
X25330659Y35657877D01*
X25330663Y35657876D01*
X25351432Y35652544D01*
X25370134Y35646141D01*
X25389824Y35637620D01*
X25438395Y35629928D01*
X25444189Y35628729D01*
X25491812Y35616500D01*
X25513259Y35616500D01*
X25532927Y35614955D01*
X25534753Y35614667D01*
X25535167Y35614601D01*
X25599331Y35584211D01*
X25636878Y35523956D01*
X25641499Y35490146D01*
X25641499Y31959500D01*
X25621497Y31891379D01*
X25567841Y31844886D01*
X25515499Y31833500D01*
X25199455Y31833500D01*
X25095574Y31822888D01*
X24927261Y31767115D01*
X24776347Y31674030D01*
X24776341Y31674025D01*
X24650975Y31548659D01*
X24650970Y31548653D01*
X24557885Y31397738D01*
X24502113Y31229428D01*
X24502112Y31229421D01*
X24491500Y31125554D01*
X24491500Y29774456D01*
X24502112Y29670575D01*
X24557885Y29502262D01*
X24650970Y29351348D01*
X24650975Y29351342D01*
X24776341Y29225976D01*
X24776347Y29225971D01*
X24776348Y29225970D01*
X24927262Y29132885D01*
X25095574Y29077113D01*
X25199455Y29066500D01*
X26000544Y29066501D01*
X26104426Y29077113D01*
X26272738Y29132885D01*
X26423652Y29225970D01*
X26549030Y29351348D01*
X26581105Y29403351D01*
X26633890Y29450829D01*
X26703965Y29462232D01*
X26769081Y29433940D01*
X26787387Y29415094D01*
X26794092Y29406568D01*
X26794095Y29406565D01*
X26794103Y29406557D01*
X26954077Y29267939D01*
X26954088Y29267931D01*
X27137412Y29162090D01*
X27137415Y29162089D01*
X27137418Y29162087D01*
X27337473Y29092847D01*
X27547016Y29062719D01*
X27696290Y29069830D01*
X27758463Y29072791D01*
X27758467Y29072792D01*
X27758474Y29072792D01*
X27964204Y29122702D01*
X28156771Y29210644D01*
X28329215Y29333441D01*
X28475303Y29486654D01*
X28589756Y29664746D01*
X28668436Y29861279D01*
X28708500Y30069151D01*
X28708500Y30777803D01*
X28693419Y30935739D01*
X28633777Y31138862D01*
X28633776Y31138863D01*
X28633776Y31138865D01*
X28536772Y31327024D01*
X28536771Y31327026D01*
X28405908Y31493432D01*
X28405905Y31493436D01*
X28245922Y31632062D01*
X28245911Y31632070D01*
X28062587Y31737911D01*
X28062580Y31737914D01*
X27862530Y31807152D01*
X27862529Y31807153D01*
X27862527Y31807153D01*
X27862525Y31807154D01*
X27862519Y31807155D01*
X27652985Y31837282D01*
X27441536Y31827210D01*
X27441523Y31827208D01*
X27235801Y31777300D01*
X27235795Y31777298D01*
X27136841Y31732107D01*
X27066567Y31722004D01*
X27001986Y31751497D01*
X26963603Y31811223D01*
X26958499Y31846715D01*
X26958499Y34940502D01*
X26978501Y35008622D01*
X27032157Y35055115D01*
X27084499Y35066501D01*
X27325544Y35066501D01*
X27429426Y35077113D01*
X27597738Y35132885D01*
X27748652Y35225970D01*
X27749053Y35226371D01*
X27836259Y35313576D01*
X27898571Y35347602D01*
X27969386Y35342537D01*
X28014449Y35313576D01*
X28101654Y35226371D01*
X28101660Y35226366D01*
X28252474Y35133343D01*
X28420681Y35077606D01*
X28487499Y35070781D01*
X28487500Y35070781D01*
X28487500Y38899000D01*
X28507502Y38967121D01*
X28561158Y39013614D01*
X28613500Y39025000D01*
X29061500Y39025000D01*
X29129621Y39004998D01*
X29176114Y38951342D01*
X29187500Y38899000D01*
X29187500Y35070781D01*
X29254318Y35077606D01*
X29422525Y35133343D01*
X29573339Y35226366D01*
X29573345Y35226371D01*
X29698629Y35351655D01*
X29698634Y35351662D01*
X29705736Y35363175D01*
X29758520Y35410655D01*
X29828594Y35422061D01*
X29893711Y35393771D01*
X29933196Y35334767D01*
X29938979Y35296978D01*
X29926705Y6648158D01*
X29906674Y6580046D01*
X29852998Y6533576D01*
X29782720Y6523502D01*
X29718152Y6553023D01*
X29701869Y6570061D01*
X29699024Y6573659D01*
X29573658Y6699025D01*
X29573652Y6699030D01*
X29573652Y6699031D01*
X29422738Y6792115D01*
X29338582Y6820002D01*
X29254427Y6847887D01*
X29254420Y6847888D01*
X29150553Y6858500D01*
X29150545Y6858500D01*
X29034500Y6858500D01*
X28966379Y6878502D01*
X28919886Y6932158D01*
X28908500Y6984500D01*
X28908500Y10675780D01*
X28908896Y10682839D01*
X28913269Y10721648D01*
X28910607Y10761123D01*
X28908643Y10790271D01*
X28908500Y10794509D01*
X28908500Y10806516D01*
X28908500Y10806522D01*
X28904761Y10848065D01*
X28904652Y10849451D01*
X28903059Y10873080D01*
X28898030Y10947668D01*
X28898029Y10947671D01*
X28898029Y10947675D01*
X28896980Y10951838D01*
X28893667Y10971336D01*
X28893281Y10975621D01*
X28893281Y10975622D01*
X28867085Y11070537D01*
X28866732Y11071877D01*
X28866586Y11072457D01*
X28842679Y11167337D01*
X28842678Y11167339D01*
X28842677Y11167344D01*
X28840899Y11171257D01*
X28834155Y11189857D01*
X28833014Y11193993D01*
X28790302Y11282684D01*
X28789719Y11283931D01*
X28748996Y11373587D01*
X28748993Y11373592D01*
X28746546Y11377124D01*
X28736590Y11394220D01*
X28734726Y11398090D01*
X28734725Y11398093D01*
X28676863Y11477733D01*
X28676069Y11478850D01*
X28619986Y11559802D01*
X28616943Y11562845D01*
X28604098Y11577885D01*
X28601574Y11581359D01*
X28601573Y11581360D01*
X28601571Y11581363D01*
X28530398Y11649412D01*
X28529430Y11650358D01*
X27761656Y12418132D01*
X27727630Y12480444D01*
X27732695Y12551259D01*
X27757115Y12591537D01*
X27889034Y12738049D01*
X27889035Y12738051D01*
X27889040Y12738056D01*
X27984527Y12903444D01*
X28043542Y13085072D01*
X28063504Y13275000D01*
X28043542Y13464928D01*
X27984527Y13646556D01*
X27889040Y13811944D01*
X27889038Y13811946D01*
X27889034Y13811952D01*
X27761255Y13953865D01*
X27606752Y14066118D01*
X27432288Y14143794D01*
X27245487Y14183500D01*
X27054513Y14183500D01*
X26867711Y14143794D01*
X26693247Y14066118D01*
X26538744Y13953865D01*
X26410965Y13811952D01*
X26410958Y13811942D01*
X26315473Y13646559D01*
X26312790Y13640530D01*
X26311667Y13641030D01*
X26275422Y13588025D01*
X26210024Y13560390D01*
X26151632Y13567514D01*
X26065466Y13599653D01*
X26008630Y13642200D01*
X25983820Y13708720D01*
X25983500Y13717680D01*
X25983500Y13725799D01*
X25983896Y13732841D01*
X25988269Y13771648D01*
X25985552Y13811952D01*
X25983643Y13840271D01*
X25983500Y13844509D01*
X25983500Y13856516D01*
X25983500Y13856522D01*
X25979761Y13898065D01*
X25979652Y13899451D01*
X25979564Y13900756D01*
X25973030Y13997668D01*
X25973029Y13997671D01*
X25973029Y13997675D01*
X25971980Y14001838D01*
X25968667Y14021336D01*
X25968281Y14025621D01*
X25961929Y14048638D01*
X25942085Y14120537D01*
X25941732Y14121877D01*
X25917677Y14217344D01*
X25915899Y14221257D01*
X25909155Y14239857D01*
X25908014Y14243993D01*
X25865302Y14332684D01*
X25864719Y14333931D01*
X25823996Y14423587D01*
X25823993Y14423592D01*
X25821546Y14427124D01*
X25811590Y14444220D01*
X25809726Y14448090D01*
X25809725Y14448093D01*
X25807693Y14450890D01*
X25751863Y14527733D01*
X25751069Y14528850D01*
X25694986Y14609802D01*
X25691943Y14612845D01*
X25679098Y14627885D01*
X25676574Y14631359D01*
X25676573Y14631360D01*
X25676571Y14631363D01*
X25605398Y14699412D01*
X25604430Y14700358D01*
X22150871Y18153917D01*
X22126444Y18188343D01*
X22109715Y18223083D01*
X22095510Y18242634D01*
X22090995Y18249819D01*
X22079548Y18271092D01*
X22079546Y18271096D01*
X22066102Y18287954D01*
X22027412Y18336471D01*
X22025699Y18338720D01*
X21976560Y18406354D01*
X21976559Y18406355D01*
X21959094Y18423054D01*
X21953369Y18429317D01*
X21938305Y18448207D01*
X21938299Y18448213D01*
X21875345Y18503214D01*
X21873258Y18505122D01*
X21812826Y18562901D01*
X21803367Y18569145D01*
X21792654Y18576216D01*
X21785908Y18581353D01*
X21767709Y18597253D01*
X21695930Y18640139D01*
X21693536Y18641643D01*
X21623764Y18687699D01*
X21623763Y18687700D01*
X21601551Y18697194D01*
X21593994Y18701044D01*
X21573246Y18713440D01*
X21573239Y18713444D01*
X21494950Y18742826D01*
X21492326Y18743879D01*
X21415473Y18776728D01*
X21415467Y18776730D01*
X21415460Y18776733D01*
X21405674Y18778967D01*
X21391895Y18782112D01*
X21383770Y18784552D01*
X21361148Y18793042D01*
X21278882Y18807971D01*
X21276113Y18808538D01*
X21194610Y18827140D01*
X21194608Y18827141D01*
X21194605Y18827141D01*
X21170460Y18828226D01*
X21162032Y18829176D01*
X21138258Y18833490D01*
X21138257Y18833490D01*
X21054653Y18833490D01*
X21051852Y18833553D01*
X20979239Y18836814D01*
X20968301Y18837305D01*
X20968298Y18837305D01*
X20944346Y18834061D01*
X20935881Y18833490D01*
X16206090Y18833490D01*
X16137969Y18853492D01*
X16116995Y18870395D01*
X14000783Y20986607D01*
X13966757Y21048919D01*
X13971822Y21119734D01*
X13991368Y21154262D01*
X13994628Y21158352D01*
X14075587Y21259869D01*
X14203622Y21481631D01*
X14297174Y21719999D01*
X14354155Y21969647D01*
X14373291Y22225000D01*
X14354155Y22480353D01*
X14297174Y22730001D01*
X14292013Y22743151D01*
X14203625Y22968363D01*
X14203623Y22968367D01*
X14075589Y23190128D01*
X14075587Y23190131D01*
X13915931Y23390334D01*
X13728219Y23564505D01*
X13516646Y23708754D01*
X13516643Y23708755D01*
X13516641Y23708757D01*
X13516640Y23708758D01*
X13285936Y23819858D01*
X13285929Y23819861D01*
X13041253Y23895333D01*
X13041245Y23895335D01*
X13041243Y23895335D01*
X12788034Y23933500D01*
X12531966Y23933500D01*
X12278757Y23895335D01*
X12278755Y23895335D01*
X12278746Y23895333D01*
X12034073Y23819862D01*
X12034060Y23819857D01*
X11803352Y23708753D01*
X11803345Y23708749D01*
X11591787Y23564510D01*
X11591782Y23564506D01*
X11404070Y23390335D01*
X11244410Y23190128D01*
X11116376Y22968367D01*
X11116374Y22968363D01*
X11022827Y22730006D01*
X11022826Y22730003D01*
X10965845Y22480357D01*
X10946709Y22225000D01*
X10965845Y21969644D01*
X11022826Y21719998D01*
X11022827Y21719995D01*
X11116374Y21481638D01*
X11116376Y21481634D01*
X11244410Y21259873D01*
X11244412Y21259870D01*
X11244413Y21259869D01*
X11404069Y21059666D01*
X11404072Y21059663D01*
X11404074Y21059661D01*
X11407279Y21056206D01*
X11405701Y21054743D01*
X11437516Y21001395D01*
X11441500Y20969962D01*
X11441500Y20581823D01*
X11441104Y20574765D01*
X11436731Y20535955D01*
X11441357Y20467333D01*
X11441500Y20463095D01*
X11441500Y20451073D01*
X11445234Y20409571D01*
X11445345Y20408166D01*
X11451968Y20309942D01*
X11451969Y20309935D01*
X11451970Y20309934D01*
X11453023Y20305753D01*
X11456331Y20286284D01*
X11456718Y20281980D01*
X11482899Y20187116D01*
X11483260Y20185750D01*
X11507322Y20090263D01*
X11509103Y20086342D01*
X11515841Y20067755D01*
X11516986Y20063609D01*
X11559703Y19974906D01*
X11560275Y19973684D01*
X11601006Y19884012D01*
X11603455Y19880478D01*
X11613405Y19863391D01*
X11615271Y19859515D01*
X11615274Y19859510D01*
X11673136Y19779871D01*
X11673954Y19778718D01*
X11730014Y19697800D01*
X11730018Y19697796D01*
X11730023Y19697790D01*
X11733055Y19694758D01*
X11745891Y19679731D01*
X11748426Y19676242D01*
X11748429Y19676238D01*
X11792945Y19633677D01*
X11819627Y19608167D01*
X11820565Y19607249D01*
X14690241Y16737573D01*
X14694943Y16732311D01*
X14719293Y16701777D01*
X14719296Y16701775D01*
X14719298Y16701772D01*
X14750236Y16674742D01*
X14771087Y16656525D01*
X14774185Y16653629D01*
X14782675Y16645138D01*
X14782678Y16645136D01*
X14782685Y16645129D01*
X14814723Y16618382D01*
X14815749Y16617506D01*
X14889894Y16552727D01*
X14893592Y16550518D01*
X14909708Y16539082D01*
X14913019Y16536318D01*
X14913023Y16536315D01*
X14913026Y16536314D01*
X14998672Y16487718D01*
X14999830Y16487044D01*
X15084362Y16436537D01*
X15088392Y16435025D01*
X15106301Y16426647D01*
X15110045Y16424522D01*
X15203032Y16391985D01*
X15204245Y16391545D01*
X15296451Y16356939D01*
X15300679Y16356172D01*
X15319809Y16351122D01*
X15323867Y16349702D01*
X15421131Y16334298D01*
X15422486Y16334068D01*
X15519345Y16316490D01*
X15523646Y16316490D01*
X15543355Y16314939D01*
X15545663Y16314574D01*
X15547612Y16314265D01*
X15646043Y16316475D01*
X15647443Y16316490D01*
X20376532Y16316490D01*
X20444653Y16296488D01*
X20465627Y16279585D01*
X23095557Y13649655D01*
X23129583Y13587343D01*
X23124518Y13516528D01*
X23090996Y13471747D01*
X23093110Y13469633D01*
X23086740Y13463264D01*
X22999112Y13346208D01*
X22999110Y13346203D01*
X22948011Y13209205D01*
X22948009Y13209197D01*
X22941500Y13148650D01*
X22941500Y10751351D01*
X22948009Y10690804D01*
X22948011Y10690796D01*
X22999110Y10553798D01*
X23003432Y10545882D01*
X23000358Y10544205D01*
X23019272Y10493461D01*
X23004165Y10424091D01*
X22953952Y10373899D01*
X22893591Y10358500D01*
X22205784Y10358500D01*
X22137663Y10378502D01*
X22091170Y10432158D01*
X22081066Y10502432D01*
X22098608Y10544768D01*
X22096125Y10546124D01*
X22100444Y10554036D01*
X22151494Y10690907D01*
X22157999Y10751403D01*
X22158000Y10751415D01*
X22158000Y11600000D01*
X18642000Y11600000D01*
X18642000Y10751403D01*
X18648505Y10690906D01*
X18688879Y10582659D01*
X18693943Y10511843D01*
X18659918Y10449531D01*
X18597606Y10415506D01*
X18526790Y10420572D01*
X18481727Y10449532D01*
X18076872Y10854388D01*
X18066664Y10867131D01*
X18066471Y10866970D01*
X18061417Y10873079D01*
X18009020Y10922283D01*
X18007630Y10923630D01*
X17986333Y10944927D01*
X17986331Y10944929D01*
X17986325Y10944934D01*
X17980482Y10949466D01*
X17975967Y10953322D01*
X17967306Y10961455D01*
X17940133Y10986972D01*
X17940130Y10986974D01*
X17940125Y10986977D01*
X17921338Y10997306D01*
X17904818Y11008157D01*
X17887867Y11021305D01*
X17842739Y11040834D01*
X17837421Y11043439D01*
X17805233Y11061134D01*
X17794338Y11067124D01*
X17794335Y11067125D01*
X17773568Y11072457D01*
X17754865Y11078860D01*
X17744703Y11083257D01*
X17735176Y11087380D01*
X17735174Y11087381D01*
X17735175Y11087381D01*
X17686619Y11095071D01*
X17680804Y11096275D01*
X17633188Y11108500D01*
X17611741Y11108500D01*
X17592032Y11110051D01*
X17570848Y11113406D01*
X17570847Y11113406D01*
X17521906Y11108780D01*
X17515973Y11108500D01*
X15524950Y11108500D01*
X15456829Y11128502D01*
X15435855Y11145405D01*
X14281260Y12300000D01*
X18642000Y12300000D01*
X20050000Y12300000D01*
X20050000Y13608000D01*
X20750000Y13608000D01*
X20750000Y12300000D01*
X22158000Y12300000D01*
X22158000Y13148586D01*
X22157999Y13148598D01*
X22151494Y13209094D01*
X22100444Y13345965D01*
X22100444Y13345966D01*
X22012904Y13462905D01*
X21895965Y13550445D01*
X21759093Y13601495D01*
X21698597Y13608000D01*
X20750000Y13608000D01*
X20050000Y13608000D01*
X19101402Y13608000D01*
X19040906Y13601495D01*
X18904035Y13550445D01*
X18904034Y13550445D01*
X18787095Y13462905D01*
X18699555Y13345966D01*
X18699555Y13345965D01*
X18648505Y13209094D01*
X18642000Y13148598D01*
X18642000Y12300000D01*
X14281260Y12300000D01*
X13170404Y13410856D01*
X13136378Y13473168D01*
X13133499Y13499951D01*
X13133499Y13541375D01*
X13128733Y13588025D01*
X13122974Y13644404D01*
X13067661Y13811329D01*
X12975344Y13960998D01*
X12975343Y13960999D01*
X12975338Y13961005D01*
X12851004Y14085339D01*
X12850998Y14085344D01*
X12701329Y14177661D01*
X12632332Y14200524D01*
X12534404Y14232974D01*
X12534401Y14232975D01*
X12534399Y14232975D01*
X12431383Y14243500D01*
X11843625Y14243500D01*
X11740600Y14232975D01*
X11740597Y14232975D01*
X11740596Y14232974D01*
X11657953Y14205589D01*
X11573670Y14177661D01*
X11424001Y14085344D01*
X11423995Y14085339D01*
X11299655Y13960999D01*
X11298832Y13959957D01*
X11298085Y13959429D01*
X11294466Y13955809D01*
X11293847Y13956428D01*
X11240889Y13918931D01*
X11169964Y13915744D01*
X11108575Y13951408D01*
X11101168Y13959957D01*
X11100344Y13960999D01*
X10976004Y14085339D01*
X10975998Y14085344D01*
X10826329Y14177661D01*
X10757332Y14200524D01*
X10659404Y14232974D01*
X10659401Y14232975D01*
X10659399Y14232975D01*
X10556383Y14243500D01*
X9968625Y14243500D01*
X9865600Y14232975D01*
X9865597Y14232975D01*
X9865596Y14232974D01*
X9782953Y14205589D01*
X9698670Y14177661D01*
X9549001Y14085344D01*
X9548995Y14085339D01*
X9484765Y14021108D01*
X9422453Y13987082D01*
X9351638Y13992147D01*
X9306575Y14021108D01*
X9198658Y14129025D01*
X9198652Y14129030D01*
X9174716Y14143794D01*
X9047738Y14222115D01*
X8963582Y14250002D01*
X8879427Y14277887D01*
X8879420Y14277888D01*
X8775553Y14288500D01*
X8149455Y14288500D01*
X8045574Y14277888D01*
X7877261Y14222115D01*
X7726347Y14129030D01*
X7726341Y14129025D01*
X7639095Y14041778D01*
X7576783Y14007752D01*
X7505968Y14012817D01*
X7460905Y14041778D01*
X7373658Y14129025D01*
X7373652Y14129030D01*
X7349716Y14143794D01*
X7222738Y14222115D01*
X7138582Y14250002D01*
X7054427Y14277887D01*
X7054420Y14277888D01*
X6950553Y14288500D01*
X6950545Y14288500D01*
X6736371Y14288500D01*
X6668250Y14308502D01*
X6647276Y14325405D01*
X4931908Y16040773D01*
X4919936Y16054625D01*
X4905469Y16074058D01*
X4905467Y16074060D01*
X4865024Y16107997D01*
X4860970Y16111711D01*
X4855104Y16117577D01*
X4855101Y16117580D01*
X4845555Y16125129D01*
X4829810Y16137579D01*
X4828392Y16138734D01*
X4769635Y16188036D01*
X4763506Y16192067D01*
X4763541Y16192122D01*
X4757187Y16196171D01*
X4757153Y16196114D01*
X4750906Y16199967D01*
X4681375Y16232391D01*
X4679742Y16233181D01*
X4611188Y16267609D01*
X4611186Y16267610D01*
X4611183Y16267611D01*
X4604289Y16270120D01*
X4604311Y16270183D01*
X4597189Y16272659D01*
X4597169Y16272596D01*
X4590210Y16274903D01*
X4515045Y16290424D01*
X4513258Y16290820D01*
X4438656Y16308500D01*
X4431367Y16309352D01*
X4431374Y16309420D01*
X4423877Y16310186D01*
X4423872Y16310119D01*
X4416558Y16310759D01*
X4339825Y16308527D01*
X4337993Y16308500D01*
X4309500Y16308500D01*
X4241379Y16328502D01*
X4194886Y16382158D01*
X4183500Y16434500D01*
X4183500Y17230077D01*
X4203502Y17298198D01*
X4220405Y17319172D01*
X5771628Y18870395D01*
X7387719Y20486487D01*
X7450029Y20520511D01*
X7495589Y20521983D01*
X7531966Y20516500D01*
X7531969Y20516500D01*
X7788030Y20516500D01*
X7788034Y20516500D01*
X8041243Y20554665D01*
X8106406Y20574765D01*
X8285929Y20630140D01*
X8285930Y20630141D01*
X8285935Y20630142D01*
X8516646Y20741246D01*
X8728219Y20885495D01*
X8915931Y21059666D01*
X9075587Y21259869D01*
X9203622Y21481631D01*
X9297174Y21719999D01*
X9354155Y21969647D01*
X9373291Y22225000D01*
X9354155Y22480353D01*
X9297174Y22730001D01*
X9292013Y22743151D01*
X9203625Y22968363D01*
X9203623Y22968367D01*
X9075589Y23190128D01*
X9075587Y23190131D01*
X8915931Y23390334D01*
X8728219Y23564505D01*
X8516646Y23708754D01*
X8516643Y23708755D01*
X8516641Y23708757D01*
X8516640Y23708758D01*
X8285936Y23819858D01*
X8285929Y23819861D01*
X8041253Y23895333D01*
X8041245Y23895335D01*
X8041243Y23895335D01*
X7788034Y23933500D01*
X7531966Y23933500D01*
X7278757Y23895335D01*
X7278755Y23895335D01*
X7278746Y23895333D01*
X7034073Y23819862D01*
X7034060Y23819857D01*
X6803352Y23708753D01*
X6803345Y23708749D01*
X6591787Y23564510D01*
X6591782Y23564506D01*
X6404070Y23390335D01*
X6244410Y23190128D01*
X6116376Y22968367D01*
X6116374Y22968363D01*
X6022827Y22730006D01*
X6022826Y22730003D01*
X5965845Y22480357D01*
X5946709Y22225000D01*
X5965190Y21978384D01*
X5950334Y21908959D01*
X5928637Y21879873D01*
X2499115Y18450350D01*
X2494532Y18446197D01*
X2458433Y18416570D01*
X2332405Y18263005D01*
X2283911Y18172278D01*
X2238760Y18087808D01*
X2238754Y18087793D01*
X2181091Y17897705D01*
X2181089Y17897693D01*
X2161620Y17700005D01*
X2161620Y17699998D01*
X2166196Y17653536D01*
X2166500Y17647357D01*
X2166500Y15500447D01*
X2181090Y15352306D01*
X2238759Y15162196D01*
X2251622Y15138131D01*
X2266500Y15078735D01*
X2266500Y15051351D01*
X2273009Y14990804D01*
X2273011Y14990796D01*
X2324110Y14853798D01*
X2324112Y14853793D01*
X2411738Y14736739D01*
X2413570Y14735368D01*
X2414942Y14733535D01*
X2418111Y14730366D01*
X2417655Y14729911D01*
X2456117Y14678533D01*
X2461182Y14607717D01*
X2427156Y14545405D01*
X2364844Y14511379D01*
X2338061Y14508500D01*
X1776350Y14508500D01*
X1715803Y14501991D01*
X1715795Y14501989D01*
X1578797Y14450890D01*
X1578792Y14450888D01*
X1461738Y14363262D01*
X1374112Y14246208D01*
X1374110Y14246203D01*
X1323011Y14109205D01*
X1323009Y14109197D01*
X1316500Y14048650D01*
X1316500Y13051351D01*
X1323009Y12990804D01*
X1323011Y12990796D01*
X1374110Y12853798D01*
X1374112Y12853794D01*
X1389689Y12832985D01*
X1414499Y12766464D01*
X1399407Y12697090D01*
X1349204Y12646889D01*
X1279830Y12631798D01*
X1262623Y12634230D01*
X1195487Y12648500D01*
X1004513Y12648500D01*
X817711Y12608794D01*
X643247Y12531118D01*
X488744Y12418865D01*
X360965Y12276952D01*
X360961Y12276945D01*
X330107Y12223505D01*
X278724Y12174512D01*
X209010Y12161077D01*
X143099Y12187464D01*
X101918Y12245296D01*
X94988Y12286454D01*
X88550Y27999456D01*
X10866500Y27999456D01*
X10877112Y27895575D01*
X10932885Y27727262D01*
X11025970Y27576348D01*
X11025975Y27576342D01*
X11151341Y27450976D01*
X11151346Y27450972D01*
X11151348Y27450970D01*
X11302262Y27357885D01*
X11470574Y27302113D01*
X11574455Y27291500D01*
X12200544Y27291501D01*
X12304426Y27302113D01*
X12472738Y27357885D01*
X12623652Y27450970D01*
X12710905Y27538224D01*
X12773215Y27572247D01*
X12844031Y27567183D01*
X12889094Y27538223D01*
X12976342Y27450976D01*
X12976348Y27450970D01*
X13127262Y27357885D01*
X13295574Y27302113D01*
X13399455Y27291500D01*
X14025544Y27291501D01*
X14129426Y27302113D01*
X14297738Y27357885D01*
X14448652Y27450970D01*
X14574030Y27576348D01*
X14667115Y27727262D01*
X14722887Y27895574D01*
X14733500Y27999455D01*
X14733499Y29000544D01*
X14722887Y29104426D01*
X14667115Y29272738D01*
X14574030Y29423652D01*
X14574029Y29423653D01*
X14574024Y29423659D01*
X14448658Y29549025D01*
X14448652Y29549030D01*
X14448652Y29549031D01*
X14297738Y29642115D01*
X14211850Y29670575D01*
X14129427Y29697887D01*
X14129420Y29697888D01*
X14025553Y29708500D01*
X13399455Y29708500D01*
X13295574Y29697888D01*
X13127261Y29642115D01*
X12976347Y29549030D01*
X12889094Y29461777D01*
X12826782Y29427752D01*
X12755966Y29432818D01*
X12710905Y29461777D01*
X12623652Y29549030D01*
X12472738Y29642115D01*
X12386850Y29670575D01*
X12304427Y29697887D01*
X12304420Y29697888D01*
X12200553Y29708500D01*
X11574455Y29708500D01*
X11470574Y29697888D01*
X11302261Y29642115D01*
X11151347Y29549030D01*
X11151341Y29549025D01*
X11025975Y29423659D01*
X11025970Y29423653D01*
X10932885Y29272738D01*
X10877113Y29104428D01*
X10877112Y29104421D01*
X10866500Y29000554D01*
X10866500Y27999456D01*
X88550Y27999456D01*
X77127Y55876757D01*
X97101Y55944883D01*
X150738Y55991398D01*
X221008Y56001531D01*
X285600Y55972064D01*
G37*
%TD.AperFunction*%
%TA.AperFunction,Conductor*%
G36*
X14496804Y40891499D02*
G01*
X14543297Y40837843D01*
X14553993Y40798671D01*
X14566457Y40680073D01*
X14581991Y40632266D01*
X14625473Y40498444D01*
X14625476Y40498439D01*
X14720958Y40333059D01*
X14720962Y40333054D01*
X14772286Y40276053D01*
X14803003Y40212045D01*
X14803628Y40205596D01*
X14804438Y40200483D01*
X14810421Y40179886D01*
X14814428Y40160535D01*
X14817117Y40139255D01*
X14817117Y40139253D01*
X14835216Y40093537D01*
X14837139Y40087921D01*
X14850853Y40040718D01*
X14850853Y40040717D01*
X14861771Y40022257D01*
X14870468Y40004504D01*
X14878364Y39984560D01*
X14878367Y39984555D01*
X14896352Y39959802D01*
X14907265Y39944783D01*
X14910521Y39939825D01*
X14935547Y39897508D01*
X14950714Y39882341D01*
X14963552Y39867310D01*
X14976158Y39849959D01*
X15014040Y39818620D01*
X15018421Y39814634D01*
X16007539Y38825517D01*
X16954595Y37878461D01*
X16988620Y37816149D01*
X16991500Y37789366D01*
X16991500Y37664500D01*
X16971498Y37596379D01*
X16917842Y37549886D01*
X16865500Y37538500D01*
X13611516Y37538500D01*
X13543395Y37558502D01*
X13496902Y37612158D01*
X13486798Y37682432D01*
X13491912Y37704135D01*
X13497393Y37720677D01*
X13497394Y37720682D01*
X13507999Y37824484D01*
X13508000Y37824484D01*
X13508000Y37975000D01*
X12263500Y37975000D01*
X12195379Y37995002D01*
X12148886Y38048658D01*
X12137500Y38101000D01*
X12137500Y38549000D01*
X12157502Y38617121D01*
X12211158Y38663614D01*
X12263500Y38675000D01*
X13508000Y38675000D01*
X13508000Y38825517D01*
X13497394Y38929319D01*
X13497393Y38929322D01*
X13441657Y39097526D01*
X13348634Y39248340D01*
X13348629Y39248346D01*
X13223345Y39373630D01*
X13223336Y39373637D01*
X13152279Y39417465D01*
X13104800Y39470250D01*
X13093397Y39540325D01*
X13121689Y39605441D01*
X13152277Y39631946D01*
X13223652Y39675970D01*
X13349030Y39801348D01*
X13442115Y39952262D01*
X13497887Y40120574D01*
X13508500Y40224455D01*
X13508499Y40785502D01*
X13528501Y40853622D01*
X13582157Y40900115D01*
X13634499Y40911501D01*
X14428683Y40911501D01*
X14496804Y40891499D01*
G37*
%TD.AperFunction*%
%TA.AperFunction,Conductor*%
G36*
X9622498Y44101498D02*
G01*
X9668991Y44047842D01*
X9679095Y43977568D01*
X9673983Y43955875D01*
X9646222Y43872094D01*
X9627113Y43814427D01*
X9627112Y43814421D01*
X9616500Y43710554D01*
X9616500Y42736410D01*
X9596498Y42668289D01*
X9542842Y42621796D01*
X9525651Y42615412D01*
X9505576Y42609580D01*
X9486224Y42605572D01*
X9464935Y42602882D01*
X9419223Y42584784D01*
X9413606Y42582861D01*
X9366400Y42569146D01*
X9347933Y42558225D01*
X9330184Y42549531D01*
X9310246Y42541637D01*
X9310242Y42541635D01*
X9270470Y42512739D01*
X9265510Y42509481D01*
X9223191Y42484452D01*
X9208029Y42469289D01*
X9193002Y42456455D01*
X9175646Y42443844D01*
X9175643Y42443842D01*
X9144299Y42405955D01*
X9140303Y42401564D01*
X8605608Y41866870D01*
X8592865Y41856660D01*
X8593025Y41856467D01*
X8586920Y41851417D01*
X8537718Y41799023D01*
X8536342Y41797603D01*
X8515071Y41776332D01*
X8510527Y41770475D01*
X8506678Y41765969D01*
X8473029Y41730135D01*
X8473027Y41730133D01*
X8462691Y41711333D01*
X8451843Y41694820D01*
X8438699Y41677874D01*
X8438694Y41677865D01*
X8419172Y41632753D01*
X8416560Y41627423D01*
X8392877Y41584340D01*
X8392873Y41584330D01*
X8387541Y41563564D01*
X8381139Y41544864D01*
X8372620Y41525180D01*
X8372619Y41525176D01*
X8364928Y41476616D01*
X8363724Y41470803D01*
X8351499Y41423190D01*
X8351500Y41401742D01*
X8349949Y41382033D01*
X8346594Y41360850D01*
X8346594Y41360848D01*
X8351220Y41311906D01*
X8351500Y41305973D01*
X8351500Y37734500D01*
X8331498Y37666379D01*
X8277842Y37619886D01*
X8225500Y37608500D01*
X3524950Y37608500D01*
X3456829Y37628502D01*
X3435852Y37645407D01*
X3420402Y37660858D01*
X3386379Y37723172D01*
X3383500Y37749951D01*
X3383500Y38531609D01*
X3403502Y38599730D01*
X3449530Y38642422D01*
X3470576Y38653811D01*
X3648240Y38792094D01*
X3800722Y38957732D01*
X3889816Y39094102D01*
X3943819Y39140190D01*
X4014167Y39149765D01*
X4078524Y39119788D01*
X4100782Y39094102D01*
X4189674Y38958042D01*
X4342097Y38792466D01*
X4519698Y38654233D01*
X4519699Y38654232D01*
X4717628Y38547118D01*
X4717630Y38547117D01*
X4914999Y38479362D01*
X4915000Y38479362D01*
X4915000Y39436682D01*
X4991900Y39370048D01*
X5122685Y39310320D01*
X5229237Y39295000D01*
X5300763Y39295000D01*
X5407315Y39310320D01*
X5538100Y39370048D01*
X5615000Y39436682D01*
X5615000Y38479362D01*
X5812369Y38547117D01*
X5812371Y38547118D01*
X6010300Y38654232D01*
X6010301Y38654233D01*
X6187902Y38792466D01*
X6340325Y38958042D01*
X6463419Y39146452D01*
X6553820Y39352544D01*
X6553823Y39352551D01*
X6577234Y39445000D01*
X5624600Y39445000D01*
X5646761Y39464202D01*
X5724493Y39585156D01*
X5765000Y39723111D01*
X5765000Y39866889D01*
X5724493Y40004844D01*
X5646761Y40125798D01*
X5624600Y40145000D01*
X6577234Y40145000D01*
X6577234Y40145001D01*
X6553823Y40237450D01*
X6553820Y40237457D01*
X6463419Y40443549D01*
X6340325Y40631959D01*
X6187902Y40797535D01*
X6010301Y40935768D01*
X6010300Y40935769D01*
X5976791Y40953903D01*
X5926401Y41003917D01*
X5911050Y41073234D01*
X5935612Y41139847D01*
X5976790Y41175528D01*
X6010576Y41193811D01*
X6188240Y41332094D01*
X6340722Y41497732D01*
X6463860Y41686209D01*
X6554296Y41892384D01*
X6609564Y42110632D01*
X6628156Y42335000D01*
X6609564Y42559368D01*
X6594541Y42618693D01*
X6554297Y42777613D01*
X6554296Y42777614D01*
X6554296Y42777616D01*
X6463860Y42983791D01*
X6456436Y42995155D01*
X6340724Y43172266D01*
X6340720Y43172271D01*
X6192861Y43332886D01*
X6188240Y43337906D01*
X6188239Y43337907D01*
X6188237Y43337909D01*
X6106382Y43401619D01*
X6010576Y43476189D01*
X6010569Y43476193D01*
X5977318Y43494188D01*
X5926928Y43544202D01*
X5911576Y43613519D01*
X5936137Y43680131D01*
X5977315Y43715812D01*
X6010576Y43733811D01*
X6188240Y43872094D01*
X6340722Y44037732D01*
X6358155Y44064417D01*
X6412158Y44110503D01*
X6463638Y44121500D01*
X9554377Y44121500D01*
X9622498Y44101498D01*
G37*
%TD.AperFunction*%
%TA.AperFunction,Conductor*%
G36*
X13602800Y61254498D02*
G01*
X13649293Y61200842D01*
X13659397Y61130568D01*
X13643133Y61084363D01*
X13636379Y61072942D01*
X13630855Y61063602D01*
X13584437Y60903830D01*
X13584437Y60903829D01*
X13581500Y60866512D01*
X13581500Y59408489D01*
X13584437Y59371172D01*
X13584437Y59371171D01*
X13630856Y59211397D01*
X13708953Y59079343D01*
X13726500Y59015203D01*
X13726500Y58826611D01*
X13724708Y58810380D01*
X13724958Y58810356D01*
X13724211Y58802464D01*
X13726469Y58730642D01*
X13726500Y58728663D01*
X13726500Y58698570D01*
X13727427Y58691224D01*
X13727893Y58685310D01*
X13729437Y58636171D01*
X13729438Y58636168D01*
X13735421Y58615571D01*
X13739428Y58596220D01*
X13742117Y58574940D01*
X13742117Y58574938D01*
X13760216Y58529222D01*
X13762139Y58523606D01*
X13775853Y58476403D01*
X13775853Y58476402D01*
X13786771Y58457942D01*
X13795468Y58440189D01*
X13803364Y58420245D01*
X13803367Y58420240D01*
X13821352Y58395487D01*
X13832265Y58380468D01*
X13835521Y58375510D01*
X13860547Y58333193D01*
X13875714Y58318026D01*
X13888552Y58302995D01*
X13901158Y58285644D01*
X13939039Y58254306D01*
X13943420Y58250320D01*
X14198124Y57995616D01*
X14198125Y57995615D01*
X14208338Y57982869D01*
X14208531Y57983028D01*
X14213583Y57976921D01*
X14265978Y57927719D01*
X14267367Y57926373D01*
X14288667Y57905073D01*
X14288675Y57905067D01*
X14294517Y57900535D01*
X14299033Y57896678D01*
X14334867Y57863028D01*
X14353669Y57852692D01*
X14370175Y57841849D01*
X14387132Y57828696D01*
X14432254Y57809171D01*
X14437580Y57806561D01*
X14480659Y57782877D01*
X14480663Y57782876D01*
X14501432Y57777544D01*
X14520134Y57771141D01*
X14539824Y57762620D01*
X14588395Y57754928D01*
X14594189Y57753729D01*
X14641812Y57741500D01*
X14663259Y57741500D01*
X14682967Y57739950D01*
X14704152Y57736594D01*
X14741880Y57740161D01*
X14753094Y57741220D01*
X14759027Y57741500D01*
X15525050Y57741500D01*
X15593171Y57721498D01*
X15614145Y57704595D01*
X18074026Y55244714D01*
X18108052Y55182402D01*
X18110930Y55155074D01*
X18103738Y53493811D01*
X18103738Y53493810D01*
X22523719Y53515499D01*
X22524782Y53760000D01*
X26552000Y53760000D01*
X27110000Y53760000D01*
X27110000Y54368000D01*
X27810000Y54368000D01*
X27810000Y53760000D01*
X28368000Y53760000D01*
X28368000Y53908586D01*
X28367999Y53908598D01*
X28361494Y53969094D01*
X28310444Y54105965D01*
X28310444Y54105966D01*
X28222904Y54222905D01*
X28105965Y54310445D01*
X27969093Y54361495D01*
X27908597Y54368000D01*
X27810000Y54368000D01*
X27110000Y54368000D01*
X27011402Y54368000D01*
X26950906Y54361495D01*
X26814035Y54310445D01*
X26814034Y54310445D01*
X26697095Y54222905D01*
X26609555Y54105966D01*
X26609555Y54105965D01*
X26558505Y53969094D01*
X26552000Y53908598D01*
X26552000Y53760000D01*
X22524782Y53760000D01*
X22536281Y56404501D01*
X22536280Y56404501D01*
X21085481Y56398491D01*
X21017278Y56418211D01*
X20995864Y56435395D01*
X18973317Y58457942D01*
X16926875Y60504385D01*
X16916664Y60517131D01*
X16916471Y60516970D01*
X16911417Y60523079D01*
X16859020Y60572283D01*
X16857630Y60573630D01*
X16836333Y60594927D01*
X16836331Y60594929D01*
X16836325Y60594934D01*
X16830482Y60599466D01*
X16825967Y60603322D01*
X16823339Y60605790D01*
X16790133Y60636972D01*
X16790130Y60636974D01*
X16790125Y60636977D01*
X16771338Y60647306D01*
X16754818Y60658157D01*
X16737867Y60671305D01*
X16692739Y60690834D01*
X16687421Y60693439D01*
X16660235Y60708384D01*
X16644338Y60717124D01*
X16644335Y60717125D01*
X16623568Y60722457D01*
X16604865Y60728860D01*
X16594703Y60733257D01*
X16585176Y60737380D01*
X16585174Y60737381D01*
X16585173Y60737381D01*
X16574783Y60739027D01*
X16510632Y60769442D01*
X16473108Y60829712D01*
X16468500Y60863475D01*
X16468500Y60866511D01*
X16468499Y60866512D01*
X16465562Y60903829D01*
X16465562Y60903830D01*
X16465562Y60903831D01*
X16419145Y61063601D01*
X16406867Y61084362D01*
X16389408Y61153175D01*
X16411924Y61220507D01*
X16467268Y61264977D01*
X16515321Y61274500D01*
X24528433Y61274500D01*
X24596554Y61254498D01*
X24643047Y61200842D01*
X24653151Y61130568D01*
X24623657Y61065988D01*
X24617528Y61059405D01*
X24570645Y61012523D01*
X24570631Y61012507D01*
X24333143Y60719235D01*
X24333131Y60719218D01*
X24127595Y60402718D01*
X24127591Y60402712D01*
X23956265Y60066464D01*
X23956261Y60066456D01*
X23821023Y59714150D01*
X23723346Y59349612D01*
X23664308Y58976863D01*
X23644559Y58600007D01*
X23644559Y58599994D01*
X23664308Y58223138D01*
X23723346Y57850389D01*
X23821023Y57485851D01*
X23956261Y57133545D01*
X23956265Y57133537D01*
X24127597Y56797280D01*
X24333131Y56480783D01*
X24333143Y56480766D01*
X24570631Y56187494D01*
X24570645Y56187478D01*
X24837477Y55920646D01*
X24837485Y55920639D01*
X24837489Y55920635D01*
X24860888Y55901687D01*
X25130765Y55683144D01*
X25130782Y55683132D01*
X25309396Y55567140D01*
X25447280Y55477597D01*
X25783535Y55306266D01*
X25783539Y55306265D01*
X25783544Y55306262D01*
X26135850Y55171024D01*
X26135855Y55171023D01*
X26135857Y55171022D01*
X26500387Y55073347D01*
X26873129Y55014310D01*
X26873131Y55014310D01*
X26873137Y55014309D01*
X27066871Y55004157D01*
X27155706Y54999501D01*
X27155707Y54999500D01*
X27155720Y54999500D01*
X27344293Y54999500D01*
X27344293Y54999501D01*
X27450610Y55005073D01*
X27626862Y55014309D01*
X27626866Y55014310D01*
X27626871Y55014310D01*
X27999613Y55073347D01*
X28364143Y55171022D01*
X28364146Y55171024D01*
X28364149Y55171024D01*
X28716455Y55306262D01*
X28716456Y55306263D01*
X28716465Y55306266D01*
X29052720Y55477597D01*
X29369225Y55683137D01*
X29662511Y55920635D01*
X29732713Y55990838D01*
X29795023Y56024861D01*
X29865839Y56019797D01*
X29922675Y55977251D01*
X29947486Y55910731D01*
X29947807Y55901687D01*
X29943373Y45552738D01*
X29923342Y45484626D01*
X29869666Y45438156D01*
X29799388Y45428082D01*
X29734820Y45457603D01*
X29728278Y45463697D01*
X29618345Y45573630D01*
X29618339Y45573635D01*
X29467525Y45666658D01*
X29299319Y45722395D01*
X29245001Y45727945D01*
X29245000Y45727944D01*
X29244999Y43272058D01*
X29245000Y43272058D01*
X29299318Y43277606D01*
X29467525Y43333343D01*
X29618339Y43426366D01*
X29727375Y43535402D01*
X29789687Y43569427D01*
X29860503Y43564363D01*
X29917339Y43521816D01*
X29942150Y43455296D01*
X29942471Y43446253D01*
X29941872Y42049178D01*
X29921841Y41981066D01*
X29868165Y41934596D01*
X29797887Y41924522D01*
X29733319Y41954043D01*
X29708632Y41983085D01*
X29699030Y41998652D01*
X29699026Y41998656D01*
X29699024Y41998659D01*
X29573658Y42124025D01*
X29573652Y42124030D01*
X29520512Y42156807D01*
X29422738Y42217115D01*
X29254492Y42272866D01*
X29205030Y42303374D01*
X28899742Y42608663D01*
X28889779Y42621098D01*
X28889553Y42620910D01*
X28884500Y42627018D01*
X28834126Y42674322D01*
X28832736Y42675669D01*
X28822490Y42685915D01*
X28812276Y42696130D01*
X28812272Y42696134D01*
X28806725Y42700437D01*
X28802217Y42704288D01*
X28767825Y42736583D01*
X28767819Y42736587D01*
X28750063Y42746349D01*
X28733547Y42757198D01*
X28717541Y42769614D01*
X28686789Y42782922D01*
X28674240Y42788352D01*
X28668908Y42790964D01*
X28627561Y42813695D01*
X28607936Y42818734D01*
X28589236Y42825136D01*
X28570645Y42833181D01*
X28570643Y42833182D01*
X28570642Y42833182D01*
X28524042Y42840563D01*
X28518229Y42841767D01*
X28472530Y42853500D01*
X28452276Y42853500D01*
X28432566Y42855051D01*
X28412557Y42858220D01*
X28412556Y42858220D01*
X28365583Y42853780D01*
X28359650Y42853500D01*
X26518497Y42853500D01*
X26450376Y42873502D01*
X26403883Y42927158D01*
X26395255Y42987166D01*
X26393157Y42987231D01*
X26393406Y42995155D01*
X26388780Y43044099D01*
X26388500Y43050031D01*
X26388500Y43169584D01*
X26408502Y43237705D01*
X26462158Y43284198D01*
X26532432Y43294302D01*
X26554123Y43289192D01*
X26590574Y43277113D01*
X26694455Y43266500D01*
X27295544Y43266501D01*
X27399426Y43277113D01*
X27567738Y43332885D01*
X27718652Y43425970D01*
X27844030Y43551348D01*
X27844037Y43551361D01*
X27846478Y43554446D01*
X27848709Y43556027D01*
X27849220Y43556537D01*
X27849307Y43556450D01*
X27904416Y43595479D01*
X27975340Y43598676D01*
X28036734Y43563020D01*
X28044161Y43554449D01*
X28046369Y43551656D01*
X28171654Y43426371D01*
X28171660Y43426366D01*
X28322474Y43333343D01*
X28490681Y43277606D01*
X28544999Y43272058D01*
X28545000Y44150000D01*
X28544999Y45727944D01*
X28544997Y45727945D01*
X28490680Y45722395D01*
X28322474Y45666658D01*
X28171660Y45573635D01*
X28171654Y45573630D01*
X28046370Y45448346D01*
X28044157Y45445546D01*
X28042149Y45444125D01*
X28041175Y45443150D01*
X28041008Y45443317D01*
X27986216Y45404518D01*
X27915291Y45401328D01*
X27853900Y45436989D01*
X27846483Y45445550D01*
X27844028Y45448655D01*
X27718658Y45574025D01*
X27718647Y45574034D01*
X27713350Y45577301D01*
X27665873Y45630087D01*
X27653499Y45684540D01*
X27653499Y45931206D01*
X27653499Y46278398D01*
X27655293Y46294618D01*
X27655042Y46294641D01*
X27655788Y46302535D01*
X27653531Y46374360D01*
X27653500Y46376339D01*
X27653500Y46406424D01*
X27653500Y46406432D01*
X27652571Y46413780D01*
X27652106Y46419684D01*
X27650562Y46468831D01*
X27644580Y46489419D01*
X27640570Y46508782D01*
X27637881Y46530068D01*
X27630959Y46547547D01*
X27619778Y46575786D01*
X27617860Y46581390D01*
X27604145Y46628601D01*
X27593228Y46647060D01*
X27584529Y46664818D01*
X27576637Y46684752D01*
X27576635Y46684755D01*
X27576635Y46684756D01*
X27547731Y46724538D01*
X27544479Y46729489D01*
X27519452Y46771807D01*
X27519451Y46771808D01*
X27515416Y46778631D01*
X27517756Y46780015D01*
X27497032Y46831571D01*
X27492000Y46879453D01*
X27483542Y46959928D01*
X27424527Y47141556D01*
X27329040Y47306944D01*
X27329038Y47306946D01*
X27329034Y47306952D01*
X27201255Y47448865D01*
X27046752Y47561118D01*
X26872288Y47638794D01*
X26685487Y47678500D01*
X26514500Y47678500D01*
X26446379Y47698502D01*
X26399886Y47752158D01*
X26388500Y47804500D01*
X26388500Y48125501D01*
X26408502Y48193622D01*
X26462158Y48240115D01*
X26514500Y48251501D01*
X26820544Y48251501D01*
X26924426Y48262113D01*
X27092738Y48317885D01*
X27243652Y48410970D01*
X27330905Y48498224D01*
X27393215Y48532247D01*
X27464031Y48527183D01*
X27509094Y48498223D01*
X27596342Y48410976D01*
X27596348Y48410970D01*
X27747262Y48317885D01*
X27915574Y48262113D01*
X28019455Y48251500D01*
X28645544Y48251501D01*
X28749426Y48262113D01*
X28917738Y48317885D01*
X29068652Y48410970D01*
X29194030Y48536348D01*
X29287115Y48687262D01*
X29342887Y48855574D01*
X29353500Y48959455D01*
X29353499Y49960544D01*
X29342887Y50064426D01*
X29287115Y50232738D01*
X29194030Y50383652D01*
X29194029Y50383653D01*
X29194024Y50383659D01*
X29166098Y50411585D01*
X29132072Y50473897D01*
X29137137Y50544712D01*
X29169419Y50587836D01*
X29166889Y50590366D01*
X29173259Y50596737D01*
X29173259Y50596739D01*
X29173261Y50596739D01*
X29251571Y50701348D01*
X29260887Y50713793D01*
X29260887Y50713794D01*
X29260889Y50713796D01*
X29311989Y50850799D01*
X29312147Y50852262D01*
X29318499Y50911351D01*
X29318500Y50911368D01*
X29318500Y51908633D01*
X29318499Y51908650D01*
X29311990Y51969197D01*
X29311988Y51969205D01*
X29271989Y52076444D01*
X29260889Y52106204D01*
X29260887Y52106207D01*
X29260887Y52106208D01*
X29173261Y52223262D01*
X29056207Y52310888D01*
X29056202Y52310890D01*
X28919204Y52361989D01*
X28919196Y52361991D01*
X28858649Y52368500D01*
X28858638Y52368500D01*
X28296105Y52368500D01*
X28227984Y52388502D01*
X28181491Y52442158D01*
X28171387Y52512432D01*
X28200881Y52577012D01*
X28220597Y52595369D01*
X28222904Y52597097D01*
X28310444Y52714035D01*
X28310444Y52714036D01*
X28361494Y52850907D01*
X28367999Y52911403D01*
X28368000Y52911415D01*
X28368000Y53060000D01*
X27810000Y53060000D01*
X27810000Y52408549D01*
X27789998Y52340428D01*
X27759510Y52307681D01*
X27646737Y52223260D01*
X27568683Y52118991D01*
X27511847Y52076444D01*
X27467815Y52068500D01*
X27452185Y52068500D01*
X27384064Y52088502D01*
X27351317Y52118991D01*
X27273262Y52223260D01*
X27273259Y52223262D01*
X27207168Y52272738D01*
X27160490Y52307681D01*
X27117944Y52364517D01*
X27110000Y52408549D01*
X27110000Y53060000D01*
X26552000Y53060000D01*
X26552000Y52911403D01*
X26558505Y52850907D01*
X26609555Y52714036D01*
X26609555Y52714035D01*
X26697095Y52597097D01*
X26699403Y52595369D01*
X26701132Y52593059D01*
X26703468Y52590723D01*
X26703132Y52590388D01*
X26741950Y52538533D01*
X26747016Y52467717D01*
X26712991Y52405405D01*
X26650679Y52371380D01*
X26623895Y52368500D01*
X26061350Y52368500D01*
X26000803Y52361991D01*
X26000795Y52361989D01*
X25863797Y52310890D01*
X25863792Y52310888D01*
X25746738Y52223262D01*
X25659113Y52106207D01*
X25659106Y52106195D01*
X25658505Y52104582D01*
X25657474Y52103207D01*
X25654793Y52098295D01*
X25654086Y52098681D01*
X25615951Y52047751D01*
X25575612Y52027633D01*
X25546403Y52019147D01*
X25546399Y52019145D01*
X25527937Y52008227D01*
X25510191Y51999534D01*
X25490248Y51991638D01*
X25490245Y51991636D01*
X25450470Y51962738D01*
X25445508Y51959479D01*
X25403194Y51934454D01*
X25388022Y51919283D01*
X25372996Y51906450D01*
X25355644Y51893843D01*
X25355643Y51893842D01*
X25324299Y51855955D01*
X25320303Y51851564D01*
X24866783Y51398045D01*
X24804471Y51364019D01*
X24733656Y51369084D01*
X24676820Y51411631D01*
X24658083Y51447508D01*
X24616657Y51572525D01*
X24523634Y51723340D01*
X24523629Y51723346D01*
X24398345Y51848630D01*
X24398339Y51848635D01*
X24247525Y51941658D01*
X24079321Y51997394D01*
X24079317Y51997395D01*
X24025000Y52002945D01*
X24024999Y52002944D01*
X24025000Y51125000D01*
X24025000Y49569192D01*
X24010000Y49518107D01*
X24010000Y48316000D01*
X23989998Y48247879D01*
X23936342Y48201386D01*
X23884000Y48190000D01*
X23436000Y48190000D01*
X23367879Y48210002D01*
X23321386Y48263658D01*
X23310000Y48316000D01*
X23310000Y49745809D01*
X23324999Y49796895D01*
X23325000Y52002944D01*
X23324998Y52002945D01*
X23270680Y51997395D01*
X23102474Y51941658D01*
X22951660Y51848635D01*
X22951654Y51848630D01*
X22826370Y51723346D01*
X22824157Y51720546D01*
X22822149Y51719125D01*
X22821175Y51718150D01*
X22821008Y51718317D01*
X22766216Y51679518D01*
X22695291Y51676328D01*
X22633900Y51711989D01*
X22626483Y51720550D01*
X22624028Y51723655D01*
X22498658Y51849025D01*
X22498652Y51849030D01*
X22426002Y51893841D01*
X22347738Y51942115D01*
X22198285Y51991638D01*
X22179427Y51997887D01*
X22179420Y51997888D01*
X22075553Y52008500D01*
X21474455Y52008500D01*
X21370574Y51997888D01*
X21202261Y51942115D01*
X21051347Y51849030D01*
X21051341Y51849025D01*
X20925975Y51723659D01*
X20925970Y51723653D01*
X20832885Y51572738D01*
X20777113Y51404428D01*
X20777112Y51404421D01*
X20766173Y51297353D01*
X20764680Y51297506D01*
X20742848Y51236068D01*
X20686681Y51192643D01*
X20615952Y51186477D01*
X20565308Y51209131D01*
X20516207Y51245887D01*
X20516202Y51245890D01*
X20379204Y51296989D01*
X20379196Y51296991D01*
X20318649Y51303500D01*
X20318638Y51303500D01*
X18221362Y51303500D01*
X18221350Y51303500D01*
X18160803Y51296991D01*
X18160795Y51296989D01*
X18023797Y51245890D01*
X18023792Y51245888D01*
X17906738Y51158262D01*
X17819112Y51041208D01*
X17819110Y51041203D01*
X17768011Y50904205D01*
X17768009Y50904197D01*
X17761500Y50843650D01*
X17761500Y48346351D01*
X17768009Y48285804D01*
X17768011Y48285796D01*
X17819110Y48148798D01*
X17819112Y48148793D01*
X17906738Y48031739D01*
X18023792Y47944113D01*
X18023794Y47944112D01*
X18023796Y47944111D01*
X18072951Y47925777D01*
X18160795Y47893012D01*
X18160803Y47893010D01*
X18221350Y47886501D01*
X18221355Y47886501D01*
X18221362Y47886500D01*
X18556400Y47886500D01*
X18624521Y47866498D01*
X18664856Y47824635D01*
X18671773Y47812938D01*
X18680468Y47795189D01*
X18688364Y47775245D01*
X18692186Y47768294D01*
X18689413Y47766771D01*
X18708333Y47713694D01*
X18692231Y47644547D01*
X18641301Y47595083D01*
X18633785Y47591433D01*
X18543235Y47551118D01*
X18388732Y47438865D01*
X18260953Y47296952D01*
X18260946Y47296942D01*
X18165464Y47131562D01*
X18165460Y47131555D01*
X18110600Y46962715D01*
X18079862Y46912557D01*
X17984225Y46816920D01*
X17970376Y46804950D01*
X17964183Y46800339D01*
X17950942Y46790481D01*
X17950405Y46789841D01*
X17917007Y46750041D01*
X17913300Y46745995D01*
X17907421Y46740115D01*
X17907414Y46740107D01*
X17887430Y46714835D01*
X17886276Y46713418D01*
X17836964Y46654648D01*
X17832935Y46648521D01*
X17832880Y46648557D01*
X17828825Y46642192D01*
X17828882Y46642157D01*
X17825030Y46635913D01*
X17792609Y46566389D01*
X17791812Y46564742D01*
X17757393Y46496206D01*
X17754882Y46489305D01*
X17754820Y46489328D01*
X17752343Y46482202D01*
X17752404Y46482181D01*
X17750096Y46475217D01*
X17734574Y46400052D01*
X17734178Y46398265D01*
X17714808Y46316529D01*
X17711856Y46317229D01*
X17689428Y46264508D01*
X17630727Y46224574D01*
X17592077Y46218500D01*
X17583489Y46218500D01*
X17546171Y46215563D01*
X17546170Y46215563D01*
X17386397Y46169145D01*
X17381159Y46166046D01*
X17317020Y46148500D01*
X17274441Y46148500D01*
X17256182Y46149830D01*
X17232212Y46153341D01*
X17232211Y46153341D01*
X17225773Y46152778D01*
X17179615Y46148740D01*
X17174122Y46148500D01*
X17165817Y46148500D01*
X17144897Y46146055D01*
X17133791Y46144757D01*
X17132004Y46144575D01*
X17113046Y46142916D01*
X17055574Y46137888D01*
X17048389Y46136404D01*
X17048376Y46136467D01*
X17041003Y46134832D01*
X17041018Y46134769D01*
X17033881Y46133078D01*
X16961773Y46106834D01*
X16960045Y46106233D01*
X16914702Y46091207D01*
X16887262Y46082114D01*
X16887260Y46082114D01*
X16887260Y46082113D01*
X16880612Y46079013D01*
X16880583Y46079074D01*
X16873792Y46075786D01*
X16873822Y46075727D01*
X16867269Y46072437D01*
X16803154Y46030268D01*
X16801609Y46029284D01*
X16736351Y45989032D01*
X16730588Y45984475D01*
X16730547Y45984527D01*
X16724704Y45979767D01*
X16724746Y45979717D01*
X16719128Y45975003D01*
X16666475Y45919196D01*
X16665199Y45917882D01*
X16422724Y45675405D01*
X16360412Y45641380D01*
X16333628Y45638500D01*
X7405371Y45638500D01*
X7337250Y45658502D01*
X7290757Y45712158D01*
X7280653Y45782432D01*
X7310147Y45847012D01*
X7316264Y45853584D01*
X8090784Y46628105D01*
X8104617Y46640059D01*
X8124058Y46654531D01*
X8158001Y46694985D01*
X8161700Y46699021D01*
X8167581Y46704900D01*
X8187629Y46730257D01*
X8188664Y46731528D01*
X8238032Y46790360D01*
X8238033Y46790364D01*
X8238036Y46790366D01*
X8242070Y46796498D01*
X8242127Y46796461D01*
X8246171Y46802809D01*
X8246112Y46802845D01*
X8249965Y46809093D01*
X8249967Y46809095D01*
X8282421Y46878696D01*
X8283167Y46880235D01*
X8317609Y46948812D01*
X8317610Y46948819D01*
X8320119Y46955709D01*
X8320184Y46955686D01*
X8322658Y46962803D01*
X8322594Y46962824D01*
X8324903Y46969793D01*
X8328650Y46987943D01*
X8340432Y47045006D01*
X8340805Y47046688D01*
X8358500Y47121344D01*
X8358500Y47121345D01*
X8359352Y47128632D01*
X8359419Y47128625D01*
X8360185Y47136123D01*
X8360119Y47136128D01*
X8360757Y47143435D01*
X8360759Y47143442D01*
X8358525Y47220199D01*
X8358499Y47221940D01*
X8358499Y47760000D01*
X10387000Y47760000D01*
X10387000Y47584484D01*
X10397605Y47480682D01*
X10397606Y47480679D01*
X10453342Y47312475D01*
X10546365Y47161661D01*
X10546370Y47161655D01*
X10671654Y47036371D01*
X10671660Y47036366D01*
X10822474Y46943343D01*
X10990681Y46887606D01*
X11045000Y46882058D01*
X11045000Y47760000D01*
X10387000Y47760000D01*
X8358499Y47760000D01*
X8358499Y48460000D01*
X10387000Y48460000D01*
X11045000Y48460000D01*
X11045000Y49337944D01*
X11044998Y49337945D01*
X10990680Y49332395D01*
X10822474Y49276658D01*
X10671660Y49183635D01*
X10671654Y49183630D01*
X10546370Y49058346D01*
X10546365Y49058340D01*
X10453342Y48907526D01*
X10397606Y48739322D01*
X10397605Y48739319D01*
X10387000Y48635517D01*
X10387000Y48460000D01*
X8358499Y48460000D01*
X8358499Y52133631D01*
X8378501Y52201751D01*
X8395399Y52222720D01*
X9190778Y53018099D01*
X9204617Y53030059D01*
X9224058Y53044531D01*
X9258001Y53084985D01*
X9261700Y53089021D01*
X9267581Y53094900D01*
X9287629Y53120257D01*
X9288664Y53121528D01*
X9338032Y53180360D01*
X9338033Y53180364D01*
X9338036Y53180366D01*
X9342070Y53186498D01*
X9342127Y53186461D01*
X9346171Y53192809D01*
X9346112Y53192845D01*
X9349965Y53199093D01*
X9349967Y53199095D01*
X9382421Y53268696D01*
X9383167Y53270235D01*
X9417609Y53338812D01*
X9417610Y53338819D01*
X9420119Y53345709D01*
X9420184Y53345686D01*
X9422658Y53352803D01*
X9422594Y53352824D01*
X9424900Y53359784D01*
X9424901Y53359791D01*
X9424903Y53359794D01*
X9425473Y53362556D01*
X9426389Y53364276D01*
X9427213Y53366762D01*
X9427637Y53366622D01*
X9458832Y53425224D01*
X9520778Y53459910D01*
X9547666Y53463076D01*
X11671686Y53483333D01*
X11739994Y53463982D01*
X11786996Y53410772D01*
X11797770Y53340598D01*
X11768894Y53275738D01*
X11761982Y53268244D01*
X11239143Y52745405D01*
X11176831Y52711379D01*
X11150050Y52708500D01*
X11099456Y52708500D01*
X10995574Y52697888D01*
X10827261Y52642115D01*
X10676347Y52549030D01*
X10676341Y52549025D01*
X10550975Y52423659D01*
X10550970Y52423653D01*
X10457885Y52272738D01*
X10402113Y52104428D01*
X10402112Y52104421D01*
X10391500Y52000554D01*
X10391500Y50999456D01*
X10402112Y50895575D01*
X10457885Y50727262D01*
X10550970Y50576348D01*
X10550975Y50576342D01*
X10676341Y50450976D01*
X10676347Y50450971D01*
X10676348Y50450970D01*
X10827262Y50357885D01*
X10995574Y50302113D01*
X11099455Y50291500D01*
X11725544Y50291501D01*
X11829426Y50302113D01*
X11997738Y50357885D01*
X12148652Y50450970D01*
X12180480Y50482798D01*
X12235905Y50538222D01*
X12298217Y50572248D01*
X12369032Y50567183D01*
X12414095Y50538222D01*
X12501341Y50450976D01*
X12501347Y50450971D01*
X12501348Y50450970D01*
X12652262Y50357885D01*
X12820574Y50302113D01*
X12924455Y50291500D01*
X13550544Y50291501D01*
X13654426Y50302113D01*
X13822738Y50357885D01*
X13869355Y50386639D01*
X13937831Y50405376D01*
X14005570Y50384118D01*
X14051062Y50329611D01*
X14061500Y50279398D01*
X14061500Y49383360D01*
X14041498Y49315239D01*
X13987842Y49268746D01*
X13917568Y49258642D01*
X13874499Y49274253D01*
X13874388Y49274014D01*
X13871705Y49275265D01*
X13869360Y49276115D01*
X13867740Y49277114D01*
X13867739Y49277115D01*
X13867738Y49277115D01*
X13782838Y49305248D01*
X13699427Y49332887D01*
X13699420Y49332888D01*
X13595553Y49343500D01*
X12994455Y49343500D01*
X12890574Y49332888D01*
X12722261Y49277115D01*
X12571347Y49184030D01*
X12571341Y49184025D01*
X12445971Y49058655D01*
X12443511Y49055543D01*
X12441281Y49053965D01*
X12440780Y49053463D01*
X12440694Y49053549D01*
X12385568Y49014517D01*
X12314643Y49011329D01*
X12253254Y49046992D01*
X12245837Y49055554D01*
X12243632Y49058343D01*
X12118345Y49183630D01*
X12118339Y49183635D01*
X11967525Y49276658D01*
X11799321Y49332394D01*
X11799317Y49332395D01*
X11745000Y49337945D01*
X11744999Y49337944D01*
X11745000Y48460000D01*
X11744999Y46882058D01*
X11799324Y46887606D01*
X11799329Y46887607D01*
X11967521Y46943341D01*
X12118339Y47036366D01*
X12118345Y47036371D01*
X12243624Y47161650D01*
X12245832Y47164442D01*
X12247837Y47165863D01*
X12248825Y47166850D01*
X12248993Y47166682D01*
X12303768Y47205478D01*
X12374693Y47208677D01*
X12436088Y47173024D01*
X12443515Y47164453D01*
X12445974Y47161343D01*
X12571341Y47035976D01*
X12571347Y47035971D01*
X12571348Y47035970D01*
X12722262Y46942885D01*
X12890574Y46887113D01*
X12994455Y46876500D01*
X13595544Y46876501D01*
X13699426Y46887113D01*
X13867738Y46942885D01*
X14018652Y47035970D01*
X14144030Y47161348D01*
X14221224Y47286499D01*
X14237114Y47312260D01*
X14237115Y47312262D01*
X14250578Y47352895D01*
X14290990Y47411264D01*
X14356546Y47438522D01*
X14366214Y47439199D01*
X14373831Y47439438D01*
X14394421Y47445421D01*
X14413776Y47449429D01*
X14435064Y47452118D01*
X14480796Y47470225D01*
X14486380Y47472137D01*
X14533600Y47485855D01*
X14552050Y47496768D01*
X14569813Y47505470D01*
X14589756Y47513365D01*
X14629537Y47542270D01*
X14634487Y47545520D01*
X14644175Y47551250D01*
X14676807Y47570547D01*
X14691977Y47585719D01*
X14707005Y47598553D01*
X14724357Y47611159D01*
X14755697Y47649045D01*
X14759676Y47653418D01*
X14955855Y47849596D01*
X15018168Y47883621D01*
X15044951Y47886500D01*
X16618632Y47886500D01*
X16618638Y47886500D01*
X16618645Y47886501D01*
X16618649Y47886501D01*
X16679196Y47893010D01*
X16679199Y47893011D01*
X16679201Y47893011D01*
X16816204Y47944111D01*
X16848703Y47968439D01*
X16933261Y48031739D01*
X17020887Y48148793D01*
X17020887Y48148794D01*
X17020889Y48148796D01*
X17071989Y48285799D01*
X17075439Y48317885D01*
X17078499Y48346351D01*
X17078500Y48346368D01*
X17078500Y50843633D01*
X17078499Y50843650D01*
X17071990Y50904197D01*
X17071988Y50904205D01*
X17036460Y50999456D01*
X17020889Y51041204D01*
X17020888Y51041206D01*
X17020887Y51041208D01*
X16933261Y51158262D01*
X16816207Y51245888D01*
X16816202Y51245890D01*
X16679204Y51296989D01*
X16679196Y51296991D01*
X16618649Y51303500D01*
X16618638Y51303500D01*
X15968092Y51303500D01*
X15899971Y51323502D01*
X15853478Y51377158D01*
X15843374Y51447432D01*
X15872868Y51512012D01*
X15894031Y51531436D01*
X15950878Y51572738D01*
X16031253Y51631134D01*
X16104055Y51711989D01*
X16159034Y51773049D01*
X16159035Y51773051D01*
X16159040Y51773056D01*
X16254527Y51938444D01*
X16313542Y52120072D01*
X16333504Y52310000D01*
X16313542Y52499928D01*
X16294961Y52557114D01*
X16292933Y52628081D01*
X16325702Y52685150D01*
X16334053Y52693501D01*
X16418681Y52836599D01*
X16465065Y52996251D01*
X16468000Y53033544D01*
X16468000Y53462500D01*
X15486000Y53462500D01*
X15417879Y53482502D01*
X15371386Y53536158D01*
X15360000Y53588500D01*
X15360000Y55066629D01*
X15959999Y55066629D01*
X15960000Y54062500D01*
X16467999Y54062500D01*
X16467999Y54491457D01*
X16465065Y54528751D01*
X16418681Y54688401D01*
X16334051Y54831502D01*
X16334050Y54831504D01*
X16216503Y54949051D01*
X16216501Y54949052D01*
X16073401Y55033682D01*
X15959999Y55066629D01*
X15360000Y55066629D01*
X15246598Y55033682D01*
X15103499Y54949054D01*
X15102639Y54948386D01*
X15101840Y54948073D01*
X15096679Y54945020D01*
X15096186Y54945853D01*
X15036554Y54922438D01*
X14966931Y54936337D01*
X14948184Y54948385D01*
X14946803Y54949456D01*
X14803605Y55034144D01*
X14643829Y55080563D01*
X14606511Y55083500D01*
X14606502Y55083500D01*
X14173498Y55083500D01*
X14173489Y55083500D01*
X14136171Y55080563D01*
X14136170Y55080563D01*
X13976394Y55034144D01*
X13833196Y54949456D01*
X13833189Y54949451D01*
X13715549Y54831811D01*
X13715544Y54831804D01*
X13630856Y54688605D01*
X13590399Y54549348D01*
X13552186Y54489512D01*
X13487690Y54459834D01*
X13469402Y54458500D01*
X13311611Y54458500D01*
X13295379Y54460292D01*
X13295356Y54460042D01*
X13287463Y54460789D01*
X13215642Y54458531D01*
X13213663Y54458500D01*
X13183568Y54458500D01*
X13176222Y54457573D01*
X13170309Y54457107D01*
X13121172Y54455563D01*
X13121170Y54455563D01*
X13121169Y54455562D01*
X13100571Y54449579D01*
X13081221Y54445572D01*
X13059940Y54442884D01*
X13059935Y54442882D01*
X13014214Y54424781D01*
X13008599Y54422859D01*
X12961406Y54409148D01*
X12961399Y54409145D01*
X12942937Y54398227D01*
X12925191Y54389534D01*
X12905248Y54381638D01*
X12905245Y54381636D01*
X12865470Y54352738D01*
X12860508Y54349479D01*
X12818194Y54324454D01*
X12803022Y54309283D01*
X12787996Y54296450D01*
X12770644Y54283843D01*
X12770643Y54283842D01*
X12739299Y54245955D01*
X12735303Y54241564D01*
X12109770Y53616032D01*
X12047458Y53582006D01*
X11976643Y53587071D01*
X11919807Y53629618D01*
X11894996Y53696138D01*
X11894676Y53705659D01*
X11906282Y56374549D01*
X11906280Y56374549D01*
X11906281Y56374550D01*
X11383079Y56370005D01*
X11314787Y56389414D01*
X11280050Y56421938D01*
X11252735Y56459533D01*
X11249479Y56464489D01*
X11224452Y56506807D01*
X11224451Y56506808D01*
X11224450Y56506810D01*
X11209291Y56521969D01*
X11196450Y56537002D01*
X11192733Y56542118D01*
X11183841Y56554357D01*
X11145959Y56585696D01*
X11141566Y56589693D01*
X10676872Y57054388D01*
X10666664Y57067131D01*
X10666471Y57066970D01*
X10661417Y57073079D01*
X10609020Y57122283D01*
X10607630Y57123630D01*
X10586333Y57144927D01*
X10586331Y57144929D01*
X10586325Y57144934D01*
X10580482Y57149466D01*
X10575967Y57153322D01*
X10573339Y57155790D01*
X10540133Y57186972D01*
X10540130Y57186974D01*
X10540125Y57186977D01*
X10521338Y57197306D01*
X10504818Y57208157D01*
X10487867Y57221305D01*
X10442739Y57240834D01*
X10437421Y57243439D01*
X10410235Y57258384D01*
X10394338Y57267124D01*
X10394335Y57267125D01*
X10373568Y57272457D01*
X10354865Y57278860D01*
X10344703Y57283257D01*
X10335176Y57287380D01*
X10335174Y57287381D01*
X10335175Y57287381D01*
X10286619Y57295071D01*
X10280804Y57296275D01*
X10233188Y57308500D01*
X10211741Y57308500D01*
X10192032Y57310051D01*
X10170848Y57313406D01*
X10170847Y57313406D01*
X10121906Y57308780D01*
X10115973Y57308500D01*
X6386611Y57308500D01*
X6370379Y57310292D01*
X6370356Y57310042D01*
X6362463Y57310789D01*
X6298264Y57308771D01*
X6229549Y57326624D01*
X6181394Y57378793D01*
X6169088Y57448715D01*
X6176678Y57479867D01*
X6178978Y57485857D01*
X6276653Y57850387D01*
X6335690Y58223129D01*
X6335690Y58223134D01*
X6335691Y58223138D01*
X6355441Y58599994D01*
X6355441Y58600007D01*
X6335691Y58976863D01*
X6322960Y59057240D01*
X6276653Y59349613D01*
X6178978Y59714143D01*
X6178977Y59714145D01*
X6178976Y59714150D01*
X6043738Y60066456D01*
X6043734Y60066464D01*
X6043734Y60066465D01*
X5872403Y60402720D01*
X5720278Y60636973D01*
X5666868Y60719218D01*
X5666856Y60719235D01*
X5429368Y61012507D01*
X5429365Y61012511D01*
X5429361Y61012515D01*
X5429354Y61012523D01*
X5382472Y61059405D01*
X5348446Y61121717D01*
X5353511Y61192532D01*
X5396058Y61249368D01*
X5462578Y61274179D01*
X5471567Y61274500D01*
X13534679Y61274500D01*
X13602800Y61254498D01*
G37*
%TD.AperFunction*%
%TA.AperFunction,Conductor*%
G36*
X21936749Y47286499D02*
G01*
X21957723Y47269596D01*
X22794224Y46433095D01*
X22828250Y46370783D01*
X22823185Y46299968D01*
X22780638Y46243132D01*
X22714118Y46218321D01*
X22705130Y46218000D01*
X22533544Y46218000D01*
X22496249Y46215066D01*
X22336599Y46168682D01*
X22193498Y46084052D01*
X22193496Y46084051D01*
X22075949Y45966504D01*
X22075948Y45966502D01*
X21991318Y45823402D01*
X21958372Y45710000D01*
X23599000Y45710000D01*
X23667121Y45689998D01*
X23713614Y45636342D01*
X23725000Y45584000D01*
X23725000Y45236000D01*
X23704998Y45167879D01*
X23651342Y45121386D01*
X23599000Y45110000D01*
X21958372Y45110000D01*
X21991318Y44996599D01*
X22075946Y44853502D01*
X22076616Y44852638D01*
X22076930Y44851838D01*
X22079981Y44846679D01*
X22079148Y44846187D01*
X22102563Y44786552D01*
X22088662Y44716930D01*
X22076625Y44698198D01*
X22075551Y44696814D01*
X21990856Y44553604D01*
X21944437Y44393830D01*
X21944437Y44393829D01*
X21941500Y44356512D01*
X21941500Y44241806D01*
X21921498Y44173685D01*
X21867842Y44127192D01*
X21797568Y44117088D01*
X21789303Y44118559D01*
X21695487Y44138500D01*
X21504513Y44138500D01*
X21317711Y44098794D01*
X21143247Y44021118D01*
X20988744Y43908865D01*
X20860965Y43766952D01*
X20860958Y43766942D01*
X20813077Y43684011D01*
X20761694Y43635019D01*
X20691980Y43621584D01*
X20677765Y43623766D01*
X20655491Y43628500D01*
X20655487Y43628500D01*
X20464513Y43628500D01*
X20277711Y43588794D01*
X20103238Y43511114D01*
X20101909Y43510346D01*
X20101043Y43510137D01*
X20097216Y43508432D01*
X20096904Y43509133D01*
X20032913Y43493613D01*
X19965823Y43516839D01*
X19921940Y43572650D01*
X19915197Y43643325D01*
X19947734Y43706427D01*
X19949780Y43708522D01*
X20184384Y43943126D01*
X20197127Y43953333D01*
X20196967Y43953527D01*
X20203073Y43958580D01*
X20203078Y43958582D01*
X20252312Y44011013D01*
X20253596Y44012338D01*
X20274925Y44033665D01*
X20279468Y44039523D01*
X20283306Y44044018D01*
X20316970Y44079865D01*
X20327308Y44098671D01*
X20338150Y44115175D01*
X20351302Y44132130D01*
X20370830Y44177261D01*
X20373439Y44182584D01*
X20397122Y44225661D01*
X20402455Y44246436D01*
X20408854Y44265129D01*
X20417378Y44284822D01*
X20425072Y44333407D01*
X20426269Y44339188D01*
X20438498Y44386810D01*
X20438498Y44408258D01*
X20440049Y44427968D01*
X20440876Y44433190D01*
X20443404Y44449150D01*
X20438778Y44498095D01*
X20438498Y44504027D01*
X20438498Y45925753D01*
X20458500Y45993874D01*
X20512156Y46040367D01*
X20551333Y46051063D01*
X20555482Y46051499D01*
X20555487Y46051500D01*
X20742288Y46091206D01*
X20916752Y46168882D01*
X21071253Y46281134D01*
X21090523Y46302535D01*
X21199034Y46423049D01*
X21199035Y46423051D01*
X21199040Y46423056D01*
X21294527Y46588444D01*
X21353542Y46770072D01*
X21373504Y46960000D01*
X21368294Y47009565D01*
X21381066Y47079402D01*
X21404503Y47111824D01*
X21562278Y47269599D01*
X21624588Y47303622D01*
X21651371Y47306501D01*
X21868628Y47306501D01*
X21936749Y47286499D01*
G37*
%TD.AperFunction*%
%TD*%
M02*
