%TF.GenerationSoftware,KiCad,Pcbnew,7.0.5-7.0.5~ubuntu20.04.1*%
%TF.CreationDate,2023-06-23T07:32:12+02:00*%
%TF.ProjectId,ModuleV440,4d6f6475-6c65-4563-9434-302e6b696361,rev?*%
%TF.SameCoordinates,Original*%
%TF.FileFunction,Copper,L2,Bot*%
%TF.FilePolarity,Positive*%
%FSLAX46Y46*%
G04 Gerber Fmt 4.6, Leading zero omitted, Abs format (unit mm)*
G04 Created by KiCad (PCBNEW 7.0.5-7.0.5~ubuntu20.04.1) date 2023-06-23 07:32:12*
%MOMM*%
%LPD*%
G01*
G04 APERTURE LIST*
G04 Aperture macros list*
%AMRoundRect*
0 Rectangle with rounded corners*
0 $1 Rounding radius*
0 $2 $3 $4 $5 $6 $7 $8 $9 X,Y pos of 4 corners*
0 Add a 4 corners polygon primitive as box body*
4,1,4,$2,$3,$4,$5,$6,$7,$8,$9,$2,$3,0*
0 Add four circle primitives for the rounded corners*
1,1,$1+$1,$2,$3*
1,1,$1+$1,$4,$5*
1,1,$1+$1,$6,$7*
1,1,$1+$1,$8,$9*
0 Add four rect primitives between the rounded corners*
20,1,$1+$1,$2,$3,$4,$5,0*
20,1,$1+$1,$4,$5,$6,$7,0*
20,1,$1+$1,$6,$7,$8,$9,0*
20,1,$1+$1,$8,$9,$2,$3,0*%
G04 Aperture macros list end*
%TA.AperFunction,ComponentPad*%
%ADD10RoundRect,0.250000X0.350000X0.625000X-0.350000X0.625000X-0.350000X-0.625000X0.350000X-0.625000X0*%
%TD*%
%TA.AperFunction,ComponentPad*%
%ADD11O,1.200000X1.750000*%
%TD*%
%TA.AperFunction,ComponentPad*%
%ADD12RoundRect,0.250000X-0.350000X-0.625000X0.350000X-0.625000X0.350000X0.625000X-0.350000X0.625000X0*%
%TD*%
%TA.AperFunction,ComponentPad*%
%ADD13R,1.700000X1.700000*%
%TD*%
%TA.AperFunction,ComponentPad*%
%ADD14O,1.700000X1.700000*%
%TD*%
%TA.AperFunction,ComponentPad*%
%ADD15C,2.400000*%
%TD*%
%TA.AperFunction,ViaPad*%
%ADD16C,1.000000*%
%TD*%
%TA.AperFunction,ViaPad*%
%ADD17C,0.800000*%
%TD*%
%TA.AperFunction,Conductor*%
%ADD18C,0.500000*%
%TD*%
%TA.AperFunction,Conductor*%
%ADD19C,0.300000*%
%TD*%
%TA.AperFunction,Conductor*%
%ADD20C,0.250000*%
%TD*%
G04 APERTURE END LIST*
D10*
%TO.P,RX1,1,Pin_1*%
%TO.N,RXD0*%
X10700000Y54950000D03*
D11*
%TO.P,RX1,2,Pin_2*%
%TO.N,VCC*%
X8700000Y54950000D03*
%TD*%
D12*
%TO.P,EXTTEMP1,1,Pin_1*%
%TO.N,MISO*%
X25600000Y30450000D03*
D11*
%TO.P,EXTTEMP1,2,Pin_2*%
%TO.N,VREF*%
X27600000Y30450000D03*
%TD*%
D10*
%TO.P,TX1,1,Pin_1*%
%TO.N,Net-(TX1-Pin_1)*%
X21300000Y54950000D03*
D11*
%TO.P,TX1,2,Pin_2*%
%TO.N,Net-(TX1-Pin_2)*%
X19300000Y54950000D03*
%TD*%
D13*
%TO.P,REMOTE1,1,Pin_1*%
%TO.N,MISO*%
X7750000Y5575000D03*
D14*
%TO.P,REMOTE1,2,Pin_2*%
%TO.N,VREF*%
X7750000Y3035000D03*
%TD*%
D12*
%TO.P,POWER1,1,Pin_1*%
%TO.N,GND*%
X20850000Y7300000D03*
D11*
%TO.P,POWER1,2,Pin_2*%
%TO.N,Net-(POWER1-Pin_2)*%
X22850000Y7300000D03*
%TD*%
D13*
%TO.P,J2,1,MISO*%
%TO.N,MISO*%
X2725000Y44875000D03*
D14*
%TO.P,J2,2,VCC*%
%TO.N,VCC*%
X5265000Y44875000D03*
%TO.P,J2,3,SCK*%
%TO.N,SCK*%
X2725000Y42335000D03*
%TO.P,J2,4,MOSI*%
%TO.N,Net-(ATTINY841-PA6)*%
X5265000Y42335000D03*
%TO.P,J2,5,~{RST}*%
%TO.N,Net-(ATTINY841-~{RESET}{slash}PB3)*%
X2725000Y39795000D03*
%TO.P,J2,6,GND*%
%TO.N,GND*%
X5265000Y39795000D03*
%TD*%
D15*
%TO.P,R30,1*%
%TO.N,VCC*%
X12660000Y22225000D03*
%TO.P,R30,2*%
%TO.N,Net-(Q1-D)*%
X7660000Y22225000D03*
%TD*%
D16*
%TO.N,*%
X2893333Y9250000D03*
X3674444Y9250000D03*
X4455555Y9250000D03*
X5236666Y9250000D03*
X6017777Y9250000D03*
X6800000Y9250000D03*
X7600000Y9250000D03*
D17*
%TO.N,GND*%
X11250000Y59425000D03*
X9730000Y50010000D03*
X10980000Y50010000D03*
X5275000Y53725000D03*
X8555000Y50010000D03*
X21990000Y35510000D03*
X25370000Y33320000D03*
X27740000Y34510000D03*
X26175000Y19550000D03*
X26160000Y18540000D03*
X27200000Y19550000D03*
X15550000Y11645000D03*
X15550000Y12625000D03*
X6090000Y16005000D03*
X7190000Y16005000D03*
X8290000Y16005000D03*
X9440000Y16005000D03*
X15550000Y13605000D03*
X16875000Y12625000D03*
X16875000Y11645000D03*
X16875000Y13605000D03*
X9650000Y46575000D03*
X10900000Y46575000D03*
X8475000Y46575000D03*
X7610000Y39485000D03*
X7610000Y40610000D03*
X23675000Y52350000D03*
X9425000Y59425000D03*
X7600000Y59425000D03*
X5270000Y52810000D03*
X3245000Y47315000D03*
X4420000Y47315000D03*
X14030000Y39690000D03*
X8870000Y43630000D03*
X7940000Y43650000D03*
X23060000Y35520000D03*
X1050000Y36800000D03*
X15550000Y14625000D03*
X16875000Y14625000D03*
X15550000Y15775000D03*
X16875000Y15775000D03*
X25350000Y34510000D03*
X27770000Y33320000D03*
X28460000Y48000000D03*
X27010000Y48000000D03*
X24500000Y55150000D03*
X21480000Y45270000D03*
X27600000Y42980000D03*
%TO.N,VCC*%
X26590000Y46770000D03*
X20460000Y46960000D03*
X27150000Y13275000D03*
X18999988Y46760000D03*
X24340000Y46800000D03*
%TO.N,RXD0*%
X20560000Y42720000D03*
%TO.N,ENABLE*%
X25200000Y39780000D03*
X20200000Y39350010D03*
%TO.N,TXD0*%
X21600000Y43230000D03*
X15420000Y52310000D03*
%TO.N,Net-(ATTINY841-PA6)*%
X15460000Y40870000D03*
X5130000Y48340000D03*
%TO.N,DUMP_LOAD_ENABLE*%
X25545250Y41620141D03*
X19830000Y40910000D03*
%TO.N,Net-(ATTINY841-XTAL2{slash}PB1)*%
X15570000Y49595000D03*
X16220000Y43910000D03*
%TO.N,Net-(Q1-G)*%
X26062139Y40179047D03*
X1100000Y11740000D03*
%TO.N,VREF*%
X13712500Y28500014D03*
X23425000Y44140000D03*
X9644988Y9230000D03*
%TO.N,SCK*%
X21820000Y38800000D03*
X11855766Y28531734D03*
%TO.N,MISO*%
X8650000Y9240000D03*
%TD*%
D18*
%TO.N,VCC*%
X18999988Y46760000D02*
X20260000Y46760000D01*
X29000000Y45620000D02*
X27820000Y46800000D01*
X20260000Y46760000D02*
X20460000Y46960000D01*
X29000000Y15125000D02*
X29000000Y45620000D01*
X27150000Y13275000D02*
X29000000Y15125000D01*
X24300000Y46760000D02*
X24340000Y46800000D01*
X27820000Y46800000D02*
X24340000Y46800000D01*
D19*
%TO.N,RXD0*%
X15840000Y51310000D02*
X16530000Y50620000D01*
X16530000Y50620000D02*
X16530000Y46750000D01*
X16530000Y46750000D02*
X20560000Y42720000D01*
X10700000Y54950000D02*
X10700000Y53800000D01*
X10700000Y53800000D02*
X13190000Y51310000D01*
X13190000Y51310000D02*
X15840000Y51310000D01*
%TO.N,ENABLE*%
X20629990Y39780000D02*
X20200000Y39350010D01*
X25200000Y39780000D02*
X20629990Y39780000D01*
%TO.N,TXD0*%
X21600000Y43230000D02*
X21200001Y43629999D01*
X15986411Y52310000D02*
X15420000Y52310000D01*
X21093985Y43629999D02*
X17249999Y47473985D01*
X21200001Y43629999D02*
X21093985Y43629999D01*
X17249999Y51046412D02*
X15986411Y52310000D01*
X17249999Y47473985D02*
X17249999Y51046412D01*
%TO.N,Net-(ATTINY841-PA6)*%
X5265000Y42335000D02*
X7070000Y44140000D01*
X7070000Y44140000D02*
X7070000Y46400000D01*
X13995000Y42335000D02*
X15460000Y40870000D01*
X7070000Y46400000D02*
X5130000Y48340000D01*
X5265000Y42335000D02*
X13995000Y42335000D01*
D20*
%TO.N,DUMP_LOAD_ENABLE*%
X24835109Y40910000D02*
X25545250Y41620141D01*
X19830000Y40910000D02*
X24835109Y40910000D01*
D19*
%TO.N,Net-(ATTINY841-XTAL2{slash}PB1)*%
X15570000Y49595000D02*
X15570000Y44560000D01*
X15570000Y44560000D02*
X16220000Y43910000D01*
%TO.N,Net-(Q1-G)*%
X2540000Y17576004D02*
X2540000Y21590000D01*
X11150000Y25400000D02*
X12800000Y27050000D01*
X12800000Y29200000D02*
X14150011Y30550011D01*
X26062139Y36225728D02*
X26062139Y40179047D01*
X1100000Y11740000D02*
X1100000Y16136004D01*
X20386422Y30550011D02*
X26062139Y36225728D01*
X12800000Y27050000D02*
X12800000Y29200000D01*
X14150011Y30550011D02*
X20386422Y30550011D01*
X6350000Y25400000D02*
X11150000Y25400000D01*
X1100000Y16136004D02*
X2540000Y17576004D01*
X2540000Y21590000D02*
X6350000Y25400000D01*
D20*
%TO.N,VREF*%
X26780000Y41760000D02*
X24400000Y44140000D01*
X26780000Y32170000D02*
X26780000Y41760000D01*
X9644988Y9795685D02*
X9644988Y9230000D01*
D19*
X13712500Y29162500D02*
X13712500Y28500014D01*
X26530000Y32400000D02*
X27450000Y31480000D01*
D20*
X27450000Y30450000D02*
X9644988Y12644988D01*
D19*
X22430000Y30100000D02*
X15300000Y30100000D01*
D20*
X7750000Y3035000D02*
X9644988Y4929988D01*
X24400000Y44140000D02*
X23425000Y44140000D01*
D19*
X27450000Y31480000D02*
X27450000Y30450000D01*
X14650000Y30100000D02*
X13712500Y29162500D01*
X24740000Y32400000D02*
X26530000Y32400000D01*
X15312486Y30100000D02*
X14650000Y30100000D01*
D20*
X27600000Y31350000D02*
X26780000Y32170000D01*
X9644988Y4929988D02*
X9644988Y9230000D01*
X9644988Y12644988D02*
X9644988Y9795685D01*
X27600000Y30450000D02*
X27450000Y30450000D01*
D19*
X15300000Y30100000D02*
X15250000Y30050000D01*
D20*
X27600000Y30450000D02*
X27600000Y31350000D01*
D19*
X24730000Y32400000D02*
X22430000Y30100000D01*
%TO.N,SCK*%
X6800000Y40456001D02*
X6800000Y39100000D01*
D20*
X4000000Y41100000D02*
X3960000Y41100000D01*
D19*
X4000000Y41100000D02*
X6156001Y41100000D01*
X11887500Y28500000D02*
X11887500Y28923911D01*
X2725000Y42335000D02*
X3365000Y42335000D01*
X11855766Y29055766D02*
X13850000Y31050000D01*
X11855766Y28531734D02*
X11855766Y29055766D01*
X24260000Y35060000D02*
X24260000Y36360000D01*
X12287491Y28900007D02*
X11919218Y28531734D01*
X7250000Y38650000D02*
X21670000Y38650000D01*
X22219999Y38400001D02*
X21820000Y38800000D01*
X6800000Y39100000D02*
X7250000Y38650000D01*
X6156001Y41100000D02*
X6800000Y40456001D01*
X20250000Y31050000D02*
X24260000Y35060000D01*
X12199814Y29025783D02*
X12287491Y28938106D01*
X11919218Y28531734D02*
X11855766Y28531734D01*
X13850000Y31050000D02*
X20250000Y31050000D01*
D20*
X3960000Y41100000D02*
X2725000Y42335000D01*
D19*
X21670000Y38650000D02*
X21820000Y38800000D01*
X24260000Y36360000D02*
X22219999Y38400001D01*
D20*
%TO.N,MISO*%
X8350007Y13300007D02*
X8350007Y10799993D01*
X8350007Y10799993D02*
X8625000Y10525000D01*
X25450000Y30400000D02*
X8350007Y13300007D01*
X25450000Y30450000D02*
X25450000Y30400000D01*
X7750000Y6975000D02*
X7750000Y5575000D01*
X8625000Y10525000D02*
X8625000Y9265000D01*
X8625000Y9265000D02*
X8650000Y9240000D01*
X8650000Y7875000D02*
X7750000Y6975000D01*
X8650000Y9240000D02*
X8650000Y7875000D01*
%TD*%
%TA.AperFunction,Conductor*%
%TO.N,GND*%
G36*
X28198011Y29148505D02*
G01*
X28236395Y29088779D01*
X28241499Y29053280D01*
X28241500Y15491372D01*
X28221498Y15423251D01*
X28204595Y15402277D01*
X26993667Y14191350D01*
X26931355Y14157324D01*
X26930772Y14157199D01*
X26867712Y14143794D01*
X26693249Y14066119D01*
X26693248Y14066118D01*
X26538744Y13953865D01*
X26410965Y13811952D01*
X26410958Y13811942D01*
X26315476Y13646562D01*
X26315473Y13646556D01*
X26308485Y13625049D01*
X26256457Y13464928D01*
X26236496Y13275001D01*
X26256457Y13085073D01*
X26277501Y13020309D01*
X26315473Y12903444D01*
X26315476Y12903439D01*
X26410958Y12738059D01*
X26410965Y12738049D01*
X26538744Y12596136D01*
X26538747Y12596134D01*
X26693248Y12483882D01*
X26867712Y12406206D01*
X27054513Y12366500D01*
X27245487Y12366500D01*
X27432288Y12406206D01*
X27606752Y12483882D01*
X27761253Y12596134D01*
X27889040Y12738056D01*
X27984527Y12903444D01*
X28039388Y13072289D01*
X28070124Y13122445D01*
X29490778Y14543099D01*
X29504617Y14555059D01*
X29524058Y14569531D01*
X29558001Y14609985D01*
X29561700Y14614021D01*
X29567580Y14619899D01*
X29587621Y14645247D01*
X29588674Y14646539D01*
X29638032Y14705360D01*
X29638033Y14705363D01*
X29638037Y14705367D01*
X29642066Y14711492D01*
X29642122Y14711455D01*
X29646171Y14717810D01*
X29646113Y14717845D01*
X29649963Y14724089D01*
X29649962Y14724089D01*
X29649967Y14724094D01*
X29682392Y14793633D01*
X29683175Y14795249D01*
X29691581Y14811987D01*
X29740026Y14863883D01*
X29808840Y14881351D01*
X29876174Y14858842D01*
X29920650Y14803503D01*
X29930178Y14755383D01*
X29924517Y1543194D01*
X29924500Y1543072D01*
X29924500Y1502483D01*
X29924306Y1497537D01*
X29907739Y1287045D01*
X29904646Y1267517D01*
X29857094Y1069447D01*
X29850984Y1050643D01*
X29773034Y862455D01*
X29764058Y844838D01*
X29657623Y671151D01*
X29646001Y655156D01*
X29513714Y500267D01*
X29499733Y486286D01*
X29344844Y353999D01*
X29328849Y342377D01*
X29155162Y235942D01*
X29137545Y226966D01*
X28949357Y149016D01*
X28930553Y142906D01*
X28732483Y95354D01*
X28712955Y92261D01*
X28502464Y75694D01*
X28497518Y75500D01*
X12777482Y75500D01*
X12772536Y75694D01*
X12562044Y92261D01*
X12542516Y95354D01*
X12344446Y142906D01*
X12325642Y149016D01*
X12137454Y226966D01*
X12119837Y235942D01*
X11946150Y342377D01*
X11930155Y353999D01*
X11775266Y486286D01*
X11761285Y500267D01*
X11715882Y553427D01*
X11628997Y655158D01*
X11617376Y671151D01*
X11510941Y844838D01*
X11501965Y862455D01*
X11454837Y976231D01*
X11424014Y1050644D01*
X11417905Y1069447D01*
X11370353Y1267517D01*
X11367260Y1287045D01*
X11350694Y1497538D01*
X11350500Y1502483D01*
X11350500Y3786103D01*
X11935673Y3786103D01*
X11940779Y3613888D01*
X11945875Y3441988D01*
X11945875Y3441987D01*
X11996701Y3101515D01*
X11996702Y3101508D01*
X12087448Y2769416D01*
X12087449Y2769414D01*
X12216826Y2450404D01*
X12216828Y2450401D01*
X12383034Y2148921D01*
X12383036Y2148917D01*
X12383038Y2148915D01*
X12583725Y1869221D01*
X12583726Y1869220D01*
X12583730Y1869215D01*
X12816099Y1615209D01*
X13076880Y1390469D01*
X13362410Y1198149D01*
X13668683Y1040950D01*
X13991399Y921078D01*
X14326027Y840217D01*
X14667870Y799500D01*
X14667876Y799500D01*
X14925980Y799500D01*
X14925990Y799500D01*
X15183655Y814791D01*
X15522486Y875687D01*
X15851736Y976231D01*
X16063349Y1069447D01*
X16166766Y1115002D01*
X16166772Y1115005D01*
X16166773Y1115006D01*
X16166783Y1115010D01*
X16463206Y1290076D01*
X16736842Y1498973D01*
X16983851Y1738767D01*
X17200764Y2006093D01*
X17384538Y2297198D01*
X17532592Y2607994D01*
X17642848Y2934120D01*
X17713758Y3270998D01*
X17744327Y3613897D01*
X17734125Y3958006D01*
X17683297Y4298492D01*
X17592554Y4630577D01*
X17463172Y4949599D01*
X17296966Y5251079D01*
X17296961Y5251086D01*
X17096274Y5530780D01*
X17096273Y5530781D01*
X17096272Y5530782D01*
X17096270Y5530785D01*
X16863901Y5784791D01*
X16603120Y6009531D01*
X16317590Y6201851D01*
X16011317Y6359050D01*
X15785387Y6442971D01*
X15688599Y6478923D01*
X15353975Y6559783D01*
X15353969Y6559784D01*
X15209426Y6577001D01*
X15012130Y6600500D01*
X14754010Y6600500D01*
X14496345Y6585209D01*
X14496341Y6585209D01*
X14496336Y6585208D01*
X14157511Y6524313D01*
X13828268Y6423771D01*
X13828255Y6423766D01*
X13513233Y6284999D01*
X13513227Y6284996D01*
X13216793Y6109924D01*
X12943154Y5901024D01*
X12696151Y5661237D01*
X12479237Y5393910D01*
X12295462Y5102802D01*
X12295454Y5102788D01*
X12147410Y4792014D01*
X12147406Y4792002D01*
X12037150Y4465875D01*
X12037149Y4465870D01*
X11966241Y4129004D01*
X11966241Y4129000D01*
X11935673Y3786115D01*
X11935673Y3786110D01*
X11935673Y3786105D01*
X11935673Y3786103D01*
X11350500Y3786103D01*
X11350500Y6950000D01*
X19742000Y6950000D01*
X19742000Y6624484D01*
X19752605Y6520682D01*
X19752606Y6520679D01*
X19808342Y6352475D01*
X19901365Y6201661D01*
X19901370Y6201655D01*
X20026654Y6076371D01*
X20026660Y6076366D01*
X20177474Y5983343D01*
X20345678Y5927607D01*
X20345681Y5927606D01*
X20449483Y5917001D01*
X20449483Y5917000D01*
X20500000Y5917000D01*
X20500000Y6950000D01*
X19742000Y6950000D01*
X11350500Y6950000D01*
X11350500Y7268605D01*
X20471114Y7268605D01*
X20501837Y7147281D01*
X20570289Y7042508D01*
X20669052Y6965637D01*
X20787424Y6925000D01*
X20881073Y6925000D01*
X20973446Y6940414D01*
X21083514Y6999981D01*
X21168278Y7092059D01*
X21200000Y7164378D01*
X21200000Y5917000D01*
X21250517Y5917000D01*
X21250516Y5917001D01*
X21354318Y5927606D01*
X21354321Y5927607D01*
X21529491Y5985651D01*
X21530245Y5983375D01*
X21589074Y5992327D01*
X21653895Y5963365D01*
X21692768Y5903956D01*
X21698164Y5868318D01*
X21700320Y5549476D01*
X21700320Y5549477D01*
X21700321Y5549475D01*
X24376307Y5553125D01*
X24351307Y9000000D01*
X24351306Y9000000D01*
X24351306Y9000001D01*
X21677293Y8953652D01*
X21678736Y8740236D01*
X21659195Y8671981D01*
X21605855Y8625127D01*
X21535651Y8614548D01*
X21513107Y8619779D01*
X21354324Y8672394D01*
X21354318Y8672395D01*
X21250516Y8683000D01*
X21200000Y8683000D01*
X21200000Y7445465D01*
X21198163Y7452719D01*
X21129711Y7557492D01*
X21030948Y7634363D01*
X20912576Y7675000D01*
X20818927Y7675000D01*
X20726554Y7659586D01*
X20616486Y7600019D01*
X20531722Y7507941D01*
X20481449Y7393330D01*
X20471114Y7268605D01*
X11350500Y7268605D01*
X11350500Y7650000D01*
X19742000Y7650000D01*
X20500000Y7650000D01*
X20500000Y8683000D01*
X20449483Y8683000D01*
X20345681Y8672395D01*
X20345678Y8672394D01*
X20177474Y8616658D01*
X20026660Y8523635D01*
X20026654Y8523630D01*
X19901370Y8398346D01*
X19901365Y8398340D01*
X19808342Y8247526D01*
X19752606Y8079322D01*
X19752605Y8079319D01*
X19742000Y7975517D01*
X19742000Y7650000D01*
X11350500Y7650000D01*
X11350500Y9534471D01*
X11352414Y9556352D01*
X11354122Y9566045D01*
X11354124Y9566048D01*
X11352414Y9575747D01*
X11351249Y9589060D01*
X11350500Y9593308D01*
X11350500Y9593312D01*
X11350498Y9593317D01*
X11349748Y9597572D01*
X11346290Y9610478D01*
X11344581Y9620171D01*
X11344581Y9620172D01*
X11344579Y9620173D01*
X11341062Y9626265D01*
X11336549Y9631645D01*
X11328016Y9636571D01*
X11310025Y9649169D01*
X11302479Y9655501D01*
X11295881Y9657903D01*
X11288952Y9659125D01*
X11279254Y9657414D01*
X11257375Y9655500D01*
X10521117Y9655500D01*
X10452996Y9675502D01*
X10411998Y9718500D01*
X10384030Y9766941D01*
X10384029Y9766942D01*
X10384028Y9766944D01*
X10359784Y9793870D01*
X10329068Y9857875D01*
X10327421Y9878211D01*
X10327500Y10192500D01*
X10327498Y10192501D01*
X10327499Y10192501D01*
X10315316Y10204705D01*
X10281345Y10267046D01*
X10278488Y10293724D01*
X10278488Y12330395D01*
X10298490Y12398516D01*
X10315393Y12419490D01*
X18637155Y20741252D01*
X27022642Y29126740D01*
X27084952Y29160764D01*
X27152944Y29156714D01*
X27337473Y29092847D01*
X27547016Y29062719D01*
X27696290Y29069830D01*
X27758463Y29072791D01*
X27758467Y29072792D01*
X27758474Y29072792D01*
X27964204Y29122702D01*
X28063160Y29167894D01*
X28133430Y29177998D01*
X28198011Y29148505D01*
G37*
%TD.AperFunction*%
%TA.AperFunction,Conductor*%
G36*
X24409533Y31044107D02*
G01*
X24466368Y31001560D01*
X24491179Y30935040D01*
X24491500Y30926051D01*
X24491500Y30389596D01*
X24471498Y30321475D01*
X24454595Y30300501D01*
X7961343Y13807250D01*
X7948908Y13797286D01*
X7949096Y13797059D01*
X7942986Y13792005D01*
X7895701Y13741652D01*
X7894326Y13740233D01*
X7873870Y13719776D01*
X7869567Y13714230D01*
X7865721Y13709728D01*
X7833424Y13675333D01*
X7833418Y13675324D01*
X7823658Y13657572D01*
X7812810Y13641057D01*
X7800393Y13625049D01*
X7781652Y13581743D01*
X7779041Y13576413D01*
X7756312Y13535068D01*
X7756310Y13535063D01*
X7751274Y13515448D01*
X7744871Y13496745D01*
X7736826Y13478155D01*
X7729444Y13431551D01*
X7728240Y13425739D01*
X7716507Y13380039D01*
X7716507Y13359784D01*
X7714956Y13340074D01*
X7711787Y13320065D01*
X7711787Y13320064D01*
X7716227Y13273090D01*
X7716507Y13267157D01*
X7716507Y10883847D01*
X7714758Y10868005D01*
X7715051Y10867977D01*
X7714305Y10860085D01*
X7716476Y10791019D01*
X7716507Y10789040D01*
X7716507Y10760142D01*
X7716508Y10760121D01*
X7717385Y10753173D01*
X7717851Y10747261D01*
X7719333Y10700105D01*
X7719334Y10700100D01*
X7724984Y10680654D01*
X7728993Y10661296D01*
X7731532Y10641200D01*
X7731533Y10641194D01*
X7748900Y10597331D01*
X7750823Y10591714D01*
X7763989Y10546400D01*
X7774301Y10528962D01*
X7782995Y10511214D01*
X7790451Y10492384D01*
X7790457Y10492373D01*
X7818183Y10454212D01*
X7821441Y10449253D01*
X7825362Y10442623D01*
X7842828Y10373808D01*
X7820316Y10306475D01*
X7764976Y10262001D01*
X7704564Y10253082D01*
X7600003Y10263380D01*
X7599997Y10263380D01*
X7402305Y10243910D01*
X7265439Y10202393D01*
X7228682Y10196968D01*
X7170677Y10197052D01*
X7134284Y10202477D01*
X6997694Y10243910D01*
X6800003Y10263380D01*
X6799997Y10263380D01*
X6602304Y10243910D01*
X6469222Y10203541D01*
X6432466Y10198116D01*
X6384715Y10198185D01*
X6348323Y10203610D01*
X6215478Y10243908D01*
X6215477Y10243909D01*
X6215471Y10243910D01*
X6017780Y10263380D01*
X6017774Y10263380D01*
X5820080Y10243910D01*
X5690699Y10204664D01*
X5653943Y10199239D01*
X5599877Y10199317D01*
X5563485Y10204742D01*
X5434361Y10243910D01*
X5236669Y10263380D01*
X5236663Y10263380D01*
X5038970Y10243910D01*
X4913283Y10205784D01*
X4876527Y10200359D01*
X4815037Y10200448D01*
X4778645Y10205873D01*
X4653250Y10243910D01*
X4455558Y10263380D01*
X4455552Y10263380D01*
X4257858Y10243910D01*
X4135866Y10206905D01*
X4099109Y10201480D01*
X4030195Y10201580D01*
X3993804Y10207005D01*
X3872140Y10243910D01*
X3674447Y10263380D01*
X3674441Y10263380D01*
X3476747Y10243910D01*
X3358450Y10208026D01*
X3321694Y10202601D01*
X3245355Y10202711D01*
X3208963Y10208136D01*
X3091028Y10243910D01*
X2893336Y10263380D01*
X2893330Y10263380D01*
X2695635Y10243910D01*
X2581032Y10209147D01*
X2544277Y10203722D01*
X435448Y10206762D01*
X367357Y10226862D01*
X328197Y10266927D01*
X255941Y10384838D01*
X246965Y10402455D01*
X169015Y10590643D01*
X162905Y10609447D01*
X115353Y10807517D01*
X112260Y10827045D01*
X109660Y10860085D01*
X95692Y11037558D01*
X95500Y11042460D01*
X95500Y11064531D01*
X95499Y11064533D01*
X95499Y11084518D01*
X95480Y11084635D01*
X95436Y11192670D01*
X115410Y11260797D01*
X169047Y11307311D01*
X239317Y11317444D01*
X303910Y11287977D01*
X330555Y11255719D01*
X360958Y11203059D01*
X360965Y11203049D01*
X488744Y11061136D01*
X488747Y11061134D01*
X643248Y10948882D01*
X817712Y10871206D01*
X1004513Y10831500D01*
X1195487Y10831500D01*
X1382288Y10871206D01*
X1556752Y10948882D01*
X1711253Y11061134D01*
X1839040Y11203056D01*
X1934527Y11368444D01*
X1993542Y11550072D01*
X2013504Y11740000D01*
X1993542Y11929928D01*
X1934527Y12111556D01*
X1839040Y12276944D01*
X1790861Y12330452D01*
X1760146Y12394456D01*
X1758499Y12414748D01*
X1758499Y15811056D01*
X1778501Y15879176D01*
X1795399Y15900145D01*
X2944386Y17049132D01*
X2957129Y17059339D01*
X2956969Y17059533D01*
X2963075Y17064586D01*
X2963080Y17064588D01*
X3012314Y17117019D01*
X3013598Y17118344D01*
X3034927Y17139671D01*
X3039470Y17145529D01*
X3043308Y17150024D01*
X3076972Y17185871D01*
X3087310Y17204677D01*
X3098152Y17221181D01*
X3111304Y17238136D01*
X3130832Y17283267D01*
X3133441Y17288590D01*
X3157124Y17331667D01*
X3162457Y17352442D01*
X3168856Y17371135D01*
X3177380Y17390828D01*
X3185071Y17439390D01*
X3186272Y17445198D01*
X3198500Y17492816D01*
X3198500Y17514257D01*
X3200051Y17533968D01*
X3203407Y17555156D01*
X3198780Y17604108D01*
X3198500Y17610041D01*
X3198500Y21265051D01*
X3218502Y21333172D01*
X3235405Y21354146D01*
X4106260Y22225001D01*
X5946709Y22225001D01*
X5965845Y21969644D01*
X6022826Y21719998D01*
X6022827Y21719995D01*
X6116374Y21481638D01*
X6116376Y21481634D01*
X6244410Y21259873D01*
X6244412Y21259870D01*
X6244413Y21259869D01*
X6404069Y21059666D01*
X6591781Y20885495D01*
X6591787Y20885491D01*
X6803345Y20741252D01*
X6803352Y20741248D01*
X6803355Y20741246D01*
X6936360Y20677194D01*
X7034060Y20630144D01*
X7034073Y20630139D01*
X7278746Y20554668D01*
X7278748Y20554668D01*
X7278757Y20554665D01*
X7531966Y20516500D01*
X7531970Y20516500D01*
X7788030Y20516500D01*
X7788034Y20516500D01*
X8041243Y20554665D01*
X8041253Y20554668D01*
X8285929Y20630140D01*
X8285930Y20630141D01*
X8285935Y20630142D01*
X8516646Y20741246D01*
X8728219Y20885495D01*
X8915931Y21059666D01*
X9075587Y21259869D01*
X9203622Y21481631D01*
X9297174Y21719999D01*
X9354155Y21969647D01*
X9373291Y22225000D01*
X10946709Y22225000D01*
X10965845Y21969644D01*
X11022826Y21719998D01*
X11022827Y21719995D01*
X11116374Y21481638D01*
X11116376Y21481634D01*
X11244410Y21259873D01*
X11244412Y21259870D01*
X11244413Y21259869D01*
X11404069Y21059666D01*
X11591781Y20885495D01*
X11591787Y20885491D01*
X11803345Y20741252D01*
X11803352Y20741248D01*
X11803355Y20741246D01*
X11936360Y20677194D01*
X12034060Y20630144D01*
X12034073Y20630139D01*
X12278746Y20554668D01*
X12278748Y20554668D01*
X12278757Y20554665D01*
X12531966Y20516500D01*
X12531970Y20516500D01*
X12788030Y20516500D01*
X12788034Y20516500D01*
X13041243Y20554665D01*
X13041253Y20554668D01*
X13285929Y20630140D01*
X13285930Y20630141D01*
X13285935Y20630142D01*
X13516646Y20741246D01*
X13728219Y20885495D01*
X13915931Y21059666D01*
X14075587Y21259869D01*
X14203622Y21481631D01*
X14297174Y21719999D01*
X14354155Y21969647D01*
X14373291Y22225000D01*
X14354155Y22480353D01*
X14297174Y22730001D01*
X14292013Y22743151D01*
X14203625Y22968363D01*
X14203623Y22968367D01*
X14075589Y23190128D01*
X14075587Y23190131D01*
X13915931Y23390334D01*
X13728219Y23564505D01*
X13516646Y23708754D01*
X13516643Y23708755D01*
X13516641Y23708757D01*
X13516640Y23708758D01*
X13285936Y23819858D01*
X13285929Y23819861D01*
X13041253Y23895333D01*
X13041245Y23895335D01*
X13041243Y23895335D01*
X12788034Y23933500D01*
X12531966Y23933500D01*
X12278757Y23895335D01*
X12278755Y23895335D01*
X12278746Y23895333D01*
X12034073Y23819862D01*
X12034060Y23819857D01*
X11803352Y23708753D01*
X11803345Y23708749D01*
X11591787Y23564510D01*
X11591782Y23564506D01*
X11404070Y23390335D01*
X11244410Y23190128D01*
X11116376Y22968367D01*
X11116374Y22968363D01*
X11022827Y22730006D01*
X11022826Y22730003D01*
X10965845Y22480357D01*
X10946709Y22225000D01*
X9373291Y22225000D01*
X9354155Y22480353D01*
X9297174Y22730001D01*
X9292013Y22743151D01*
X9203625Y22968363D01*
X9203623Y22968367D01*
X9075589Y23190128D01*
X9075587Y23190131D01*
X8915931Y23390334D01*
X8728219Y23564505D01*
X8516646Y23708754D01*
X8516643Y23708755D01*
X8516641Y23708757D01*
X8516640Y23708758D01*
X8285936Y23819858D01*
X8285929Y23819861D01*
X8041253Y23895333D01*
X8041245Y23895335D01*
X8041243Y23895335D01*
X7788034Y23933500D01*
X7531966Y23933500D01*
X7278757Y23895335D01*
X7278755Y23895335D01*
X7278746Y23895333D01*
X7034073Y23819862D01*
X7034060Y23819857D01*
X6803352Y23708753D01*
X6803345Y23708749D01*
X6591787Y23564510D01*
X6591782Y23564506D01*
X6404070Y23390335D01*
X6244410Y23190128D01*
X6116376Y22968367D01*
X6116374Y22968363D01*
X6022827Y22730006D01*
X6022826Y22730003D01*
X5965845Y22480357D01*
X5946709Y22225001D01*
X4106260Y22225001D01*
X6585855Y24704595D01*
X6648167Y24738621D01*
X6674950Y24741500D01*
X11063389Y24741500D01*
X11079620Y24739709D01*
X11079644Y24739958D01*
X11087536Y24739212D01*
X11087536Y24739213D01*
X11087537Y24739212D01*
X11111275Y24739958D01*
X11159358Y24741469D01*
X11161337Y24741500D01*
X11191425Y24741500D01*
X11191432Y24741500D01*
X11198779Y24742429D01*
X11204682Y24742894D01*
X11253831Y24744438D01*
X11274421Y24750421D01*
X11293776Y24754429D01*
X11315064Y24757118D01*
X11360796Y24775225D01*
X11366380Y24777137D01*
X11413600Y24790855D01*
X11432050Y24801768D01*
X11449813Y24810470D01*
X11469756Y24818365D01*
X11509537Y24847270D01*
X11514487Y24850520D01*
X11524175Y24856250D01*
X11556807Y24875547D01*
X11571977Y24890719D01*
X11587005Y24903553D01*
X11604357Y24916159D01*
X11635703Y24954051D01*
X11639671Y24958413D01*
X13204387Y26523129D01*
X13217130Y26533337D01*
X13216971Y26533530D01*
X13223072Y26538580D01*
X13223080Y26538584D01*
X13272329Y26591031D01*
X13273613Y26592356D01*
X13294926Y26613667D01*
X13299462Y26619517D01*
X13303306Y26624018D01*
X13336972Y26659867D01*
X13347303Y26678661D01*
X13358151Y26695177D01*
X13371304Y26712131D01*
X13390845Y26757290D01*
X13393428Y26762562D01*
X13417124Y26805663D01*
X13422460Y26826451D01*
X13428857Y26845131D01*
X13437379Y26864823D01*
X13445072Y26913405D01*
X13446266Y26919169D01*
X13458500Y26966812D01*
X13458499Y26988260D01*
X13460051Y27007976D01*
X13463406Y27029152D01*
X13458780Y27078094D01*
X13458500Y27084026D01*
X13458500Y27469611D01*
X13478502Y27537732D01*
X13532158Y27584225D01*
X13602432Y27594329D01*
X13610687Y27592859D01*
X13617013Y27591514D01*
X13617014Y27591514D01*
X13807987Y27591514D01*
X13994788Y27631220D01*
X14169252Y27708896D01*
X14323753Y27821148D01*
X14451540Y27963070D01*
X14547027Y28128458D01*
X14606042Y28310086D01*
X14626004Y28500014D01*
X14606042Y28689942D01*
X14547027Y28871570D01*
X14524286Y28910957D01*
X14507549Y28979951D01*
X14530769Y29047043D01*
X14544311Y29063052D01*
X14691903Y29210644D01*
X14882001Y29400742D01*
X14944311Y29434766D01*
X15015126Y29429701D01*
X15022416Y29426497D01*
X15025165Y29425508D01*
X15025168Y29425506D01*
X15056878Y29418418D01*
X15187531Y29389213D01*
X15187536Y29389212D01*
X15187536Y29389213D01*
X15187537Y29389212D01*
X15353831Y29394438D01*
X15445985Y29421212D01*
X15498601Y29436497D01*
X15533754Y29441500D01*
X22343389Y29441500D01*
X22359620Y29439709D01*
X22359644Y29439958D01*
X22367536Y29439212D01*
X22367536Y29439213D01*
X22367537Y29439212D01*
X22391275Y29439958D01*
X22439358Y29441469D01*
X22441337Y29441500D01*
X22471425Y29441500D01*
X22471432Y29441500D01*
X22478779Y29442429D01*
X22484682Y29442894D01*
X22533831Y29444438D01*
X22554421Y29450421D01*
X22573776Y29454429D01*
X22595064Y29457118D01*
X22640796Y29475225D01*
X22646380Y29477137D01*
X22693600Y29490855D01*
X22712050Y29501768D01*
X22729813Y29510470D01*
X22749756Y29518365D01*
X22789537Y29547270D01*
X22794487Y29550520D01*
X22804175Y29556250D01*
X22836807Y29575547D01*
X22851977Y29590719D01*
X22867005Y29603553D01*
X22884357Y29616159D01*
X22915702Y29654050D01*
X22919670Y29658412D01*
X24276404Y31015147D01*
X24338717Y31049172D01*
X24409533Y31044107D01*
G37*
%TD.AperFunction*%
%TA.AperFunction,Conductor*%
G36*
X24596554Y61254498D02*
G01*
X24643047Y61200842D01*
X24653151Y61130568D01*
X24623657Y61065988D01*
X24617528Y61059405D01*
X24570645Y61012523D01*
X24570631Y61012507D01*
X24333143Y60719235D01*
X24333131Y60719218D01*
X24127595Y60402718D01*
X24127591Y60402712D01*
X23956265Y60066464D01*
X23956261Y60066456D01*
X23821023Y59714150D01*
X23723346Y59349612D01*
X23664308Y58976863D01*
X23644559Y58600007D01*
X23644559Y58599994D01*
X23664308Y58223138D01*
X23723346Y57850389D01*
X23821023Y57485851D01*
X23956261Y57133545D01*
X23956265Y57133537D01*
X24127597Y56797280D01*
X24333131Y56480783D01*
X24333143Y56480766D01*
X24570631Y56187494D01*
X24570645Y56187478D01*
X24837477Y55920646D01*
X24837485Y55920639D01*
X24837489Y55920635D01*
X24860888Y55901687D01*
X25130765Y55683144D01*
X25130782Y55683132D01*
X25309396Y55567140D01*
X25447280Y55477597D01*
X25783535Y55306266D01*
X25783539Y55306265D01*
X25783544Y55306262D01*
X26135850Y55171024D01*
X26135855Y55171023D01*
X26135857Y55171022D01*
X26500387Y55073347D01*
X26873129Y55014310D01*
X26873131Y55014310D01*
X26873137Y55014309D01*
X27066871Y55004157D01*
X27155706Y54999501D01*
X27155707Y54999500D01*
X27155720Y54999500D01*
X27344293Y54999500D01*
X27344293Y54999501D01*
X27450610Y55005073D01*
X27626862Y55014309D01*
X27626866Y55014310D01*
X27626871Y55014310D01*
X27999613Y55073347D01*
X28364143Y55171022D01*
X28364146Y55171024D01*
X28364149Y55171024D01*
X28716455Y55306262D01*
X28716456Y55306263D01*
X28716465Y55306266D01*
X29052720Y55477597D01*
X29369225Y55683137D01*
X29662511Y55920635D01*
X29732713Y55990838D01*
X29795023Y56024861D01*
X29865839Y56019797D01*
X29922675Y55977251D01*
X29947486Y55910731D01*
X29947807Y55901687D01*
X29943550Y45964718D01*
X29923519Y45896606D01*
X29869843Y45850136D01*
X29799565Y45840062D01*
X29734997Y45869583D01*
X29697946Y45925138D01*
X29692114Y45942738D01*
X29692109Y45942746D01*
X29689012Y45949389D01*
X29689074Y45949419D01*
X29685788Y45956205D01*
X29685728Y45956174D01*
X29682433Y45962735D01*
X29657811Y46000170D01*
X29640266Y46026845D01*
X29639293Y46028374D01*
X29599032Y46093649D01*
X29594478Y46099408D01*
X29594531Y46099451D01*
X29589766Y46105300D01*
X29589715Y46105256D01*
X29584998Y46110878D01*
X29529159Y46163559D01*
X29527878Y46164803D01*
X28401907Y47290774D01*
X28389936Y47304625D01*
X28375469Y47324058D01*
X28375467Y47324060D01*
X28335024Y47357997D01*
X28330970Y47361711D01*
X28325104Y47367577D01*
X28325101Y47367580D01*
X28315555Y47375129D01*
X28299810Y47387579D01*
X28298392Y47388734D01*
X28258770Y47421980D01*
X28239640Y47438032D01*
X28239639Y47438033D01*
X28239635Y47438036D01*
X28233506Y47442067D01*
X28233541Y47442122D01*
X28227187Y47446171D01*
X28227153Y47446114D01*
X28220906Y47449967D01*
X28151375Y47482391D01*
X28149742Y47483181D01*
X28081188Y47517609D01*
X28081186Y47517610D01*
X28081183Y47517611D01*
X28074289Y47520120D01*
X28074311Y47520183D01*
X28067189Y47522659D01*
X28067169Y47522596D01*
X28060210Y47524903D01*
X27985045Y47540424D01*
X27983258Y47540820D01*
X27908656Y47558500D01*
X27901367Y47559352D01*
X27901374Y47559420D01*
X27893877Y47560186D01*
X27893872Y47560119D01*
X27886558Y47560759D01*
X27809825Y47558527D01*
X27807993Y47558500D01*
X27079414Y47558500D01*
X27028166Y47569393D01*
X26872288Y47638794D01*
X26685487Y47678500D01*
X26494513Y47678500D01*
X26307711Y47638794D01*
X26227995Y47603303D01*
X26151833Y47569393D01*
X26100586Y47558500D01*
X24882587Y47558500D01*
X24814466Y47578502D01*
X24808524Y47582565D01*
X24796754Y47591117D01*
X24622288Y47668794D01*
X24435487Y47708500D01*
X24244513Y47708500D01*
X24057711Y47668794D01*
X23883247Y47591118D01*
X23728744Y47478865D01*
X23600965Y47336952D01*
X23600958Y47336942D01*
X23505476Y47171562D01*
X23505473Y47171555D01*
X23446457Y46989928D01*
X23426496Y46800001D01*
X23446457Y46610073D01*
X23453485Y46588444D01*
X23505473Y46428444D01*
X23515924Y46410343D01*
X23600958Y46263059D01*
X23600965Y46263049D01*
X23728744Y46121136D01*
X23758591Y46099451D01*
X23883248Y46008882D01*
X24057712Y45931206D01*
X24244513Y45891500D01*
X24435487Y45891500D01*
X24622288Y45931206D01*
X24796752Y46008882D01*
X24808524Y46017436D01*
X24875391Y46041294D01*
X24882587Y46041500D01*
X26006122Y46041500D01*
X26074243Y46021498D01*
X26080183Y46017436D01*
X26087508Y46012114D01*
X26133248Y45978882D01*
X26307712Y45901206D01*
X26494513Y45861500D01*
X26685487Y45861500D01*
X26872288Y45901206D01*
X27046752Y45978882D01*
X27099108Y46016921D01*
X27099817Y46017436D01*
X27166685Y46041295D01*
X27173878Y46041500D01*
X27453629Y46041500D01*
X27521750Y46021498D01*
X27542724Y46004595D01*
X28204595Y45342724D01*
X28238621Y45280412D01*
X28241500Y45253629D01*
X28241500Y31909249D01*
X28221498Y31841128D01*
X28167842Y31794635D01*
X28097568Y31784531D01*
X28035193Y31812158D01*
X28029114Y31817186D01*
X28024728Y31821176D01*
X28007933Y31837971D01*
X27988575Y31862926D01*
X27974452Y31886807D01*
X27974450Y31886809D01*
X27974447Y31886813D01*
X27959291Y31901969D01*
X27946450Y31917002D01*
X27933841Y31934357D01*
X27895953Y31965701D01*
X27891571Y31969688D01*
X27450403Y32410856D01*
X27416378Y32473167D01*
X27413499Y32499950D01*
X27413499Y36849693D01*
X27413499Y41676155D01*
X27415249Y41691986D01*
X27414956Y41692013D01*
X27415702Y41699907D01*
X27413531Y41768977D01*
X27413500Y41770956D01*
X27413500Y41799851D01*
X27413500Y41799856D01*
X27412619Y41806822D01*
X27412155Y41812718D01*
X27410673Y41859890D01*
X27405022Y41879337D01*
X27401012Y41898700D01*
X27398474Y41918797D01*
X27381099Y41962680D01*
X27379179Y41968289D01*
X27366018Y42013593D01*
X27355705Y42031031D01*
X27347010Y42048778D01*
X27339552Y42067617D01*
X27311821Y42105785D01*
X27308562Y42110745D01*
X27284541Y42151365D01*
X27270218Y42165688D01*
X27257377Y42180721D01*
X27245471Y42197108D01*
X27238029Y42203265D01*
X27209108Y42227190D01*
X27204736Y42231169D01*
X24907244Y44528661D01*
X24897279Y44541099D01*
X24897052Y44540910D01*
X24892001Y44547016D01*
X24892000Y44547018D01*
X24841626Y44594322D01*
X24840237Y44595668D01*
X24829990Y44605915D01*
X24819776Y44616130D01*
X24819772Y44616134D01*
X24814225Y44620437D01*
X24809717Y44624288D01*
X24775325Y44656583D01*
X24775319Y44656587D01*
X24757563Y44666349D01*
X24741047Y44677198D01*
X24725041Y44689614D01*
X24694289Y44702922D01*
X24681740Y44708352D01*
X24676408Y44710964D01*
X24635061Y44733695D01*
X24615436Y44738734D01*
X24596736Y44745136D01*
X24578145Y44753181D01*
X24578143Y44753182D01*
X24578142Y44753182D01*
X24531542Y44760563D01*
X24525729Y44761767D01*
X24480030Y44773500D01*
X24459776Y44773500D01*
X24440066Y44775051D01*
X24420057Y44778220D01*
X24420056Y44778220D01*
X24373083Y44773780D01*
X24367150Y44773500D01*
X24133200Y44773500D01*
X24065079Y44793502D01*
X24039563Y44815190D01*
X24037965Y44816965D01*
X24036253Y44818866D01*
X24017128Y44832761D01*
X23881752Y44931118D01*
X23707288Y45008794D01*
X23520487Y45048500D01*
X23329513Y45048500D01*
X23142711Y45008794D01*
X22968247Y44931118D01*
X22813744Y44818865D01*
X22685965Y44676952D01*
X22685958Y44676942D01*
X22594521Y44518568D01*
X22590473Y44511556D01*
X22588443Y44505309D01*
X22531457Y44329928D01*
X22511496Y44140001D01*
X22531457Y43950073D01*
X22550014Y43892963D01*
X22552042Y43821995D01*
X22515379Y43761197D01*
X22451667Y43729872D01*
X22381134Y43737964D01*
X22336545Y43769716D01*
X22211255Y43908865D01*
X22056752Y44021118D01*
X21882288Y44098794D01*
X21695487Y44138500D01*
X21670261Y44138500D01*
X21602140Y44158502D01*
X21596199Y44162565D01*
X21590132Y44166973D01*
X21571339Y44177305D01*
X21554819Y44188156D01*
X21537868Y44201304D01*
X21492740Y44220833D01*
X21487422Y44223438D01*
X21460236Y44238383D01*
X21444339Y44247123D01*
X21444336Y44247124D01*
X21428994Y44251063D01*
X21371235Y44284009D01*
X19868839Y45786405D01*
X19834813Y45848717D01*
X19839878Y45919532D01*
X19882425Y45976368D01*
X19948945Y46001179D01*
X19957934Y46001500D01*
X20195559Y46001500D01*
X20213819Y46000170D01*
X20218715Y45999453D01*
X20237789Y45996659D01*
X20271146Y45999578D01*
X20290385Y46001260D01*
X20295878Y46001500D01*
X20304175Y46001500D01*
X20304180Y46001500D01*
X20326230Y46004078D01*
X20336182Y46005241D01*
X20337985Y46005426D01*
X20414426Y46012113D01*
X20414430Y46012115D01*
X20421618Y46013598D01*
X20421631Y46013532D01*
X20428987Y46015164D01*
X20428972Y46015229D01*
X20436102Y46016920D01*
X20436113Y46016921D01*
X20508277Y46043188D01*
X20509885Y46043746D01*
X20514000Y46045110D01*
X20548931Y46050745D01*
X20548925Y46050810D01*
X20550114Y46050935D01*
X20553617Y46051500D01*
X20555487Y46051500D01*
X20742288Y46091206D01*
X20916752Y46168882D01*
X21071253Y46281134D01*
X21114932Y46329644D01*
X21199034Y46423049D01*
X21199035Y46423051D01*
X21199040Y46423056D01*
X21294527Y46588444D01*
X21353542Y46770072D01*
X21373504Y46960000D01*
X21353542Y47149928D01*
X21294527Y47331556D01*
X21199040Y47496944D01*
X21199038Y47496946D01*
X21199034Y47496952D01*
X21071255Y47638865D01*
X20916752Y47751118D01*
X20742288Y47828794D01*
X20555487Y47868500D01*
X20364513Y47868500D01*
X20177711Y47828794D01*
X20003247Y47751118D01*
X19848744Y47638865D01*
X19777906Y47560190D01*
X19717460Y47522950D01*
X19684270Y47518500D01*
X19542575Y47518500D01*
X19474454Y47538502D01*
X19468512Y47542565D01*
X19456742Y47551117D01*
X19440159Y47558500D01*
X19282276Y47628794D01*
X19095475Y47668500D01*
X18904501Y47668500D01*
X18717699Y47628794D01*
X18543235Y47551118D01*
X18388737Y47438868D01*
X18386896Y47437210D01*
X18385598Y47436588D01*
X18383393Y47434985D01*
X18383099Y47435389D01*
X18322888Y47406494D01*
X18252434Y47415260D01*
X18213491Y47441753D01*
X18106362Y47548882D01*
X17945403Y47709842D01*
X17911378Y47772154D01*
X17908499Y47798937D01*
X17908499Y50959801D01*
X17910291Y50976030D01*
X17910041Y50976053D01*
X17910787Y50983947D01*
X17908530Y51055772D01*
X17908499Y51057751D01*
X17908499Y51087836D01*
X17908499Y51087844D01*
X17907570Y51095192D01*
X17907105Y51101096D01*
X17905561Y51150243D01*
X17899578Y51170836D01*
X17895570Y51190194D01*
X17892881Y51211473D01*
X17892881Y51211476D01*
X17874776Y51257204D01*
X17872862Y51262793D01*
X17859144Y51310012D01*
X17848225Y51328473D01*
X17839527Y51346230D01*
X17831634Y51366168D01*
X17802730Y51405951D01*
X17799470Y51410914D01*
X17774449Y51453222D01*
X17759290Y51468381D01*
X17746449Y51483414D01*
X17733840Y51500769D01*
X17695944Y51532119D01*
X17691570Y51536100D01*
X16513286Y52714385D01*
X16503075Y52727131D01*
X16502882Y52726970D01*
X16497828Y52733079D01*
X16445431Y52782283D01*
X16444041Y52783630D01*
X16422744Y52804927D01*
X16422742Y52804929D01*
X16422736Y52804934D01*
X16416893Y52809466D01*
X16412378Y52813322D01*
X16409750Y52815790D01*
X16376544Y52846972D01*
X16376541Y52846974D01*
X16376536Y52846977D01*
X16357749Y52857306D01*
X16341229Y52868157D01*
X16324278Y52881305D01*
X16279150Y52900834D01*
X16273832Y52903439D01*
X16246646Y52918384D01*
X16230749Y52927124D01*
X16230746Y52927125D01*
X16209979Y52932457D01*
X16191276Y52938860D01*
X16181114Y52943257D01*
X16171587Y52947380D01*
X16171585Y52947381D01*
X16171586Y52947381D01*
X16123030Y52955071D01*
X16117215Y52956275D01*
X16076929Y52966618D01*
X16034201Y52986724D01*
X15876752Y53101118D01*
X15702288Y53178794D01*
X15515487Y53218500D01*
X15324513Y53218500D01*
X15137711Y53178794D01*
X14963247Y53101118D01*
X14808744Y52988865D01*
X14680965Y52846952D01*
X14680958Y52846942D01*
X14585476Y52681562D01*
X14585473Y52681555D01*
X14526457Y52499928D01*
X14506496Y52310001D01*
X14527148Y52113504D01*
X14525764Y52113359D01*
X14520922Y52049905D01*
X14478105Y51993273D01*
X14411467Y51968780D01*
X14403078Y51968500D01*
X13514950Y51968500D01*
X13446829Y51988502D01*
X13425855Y52005405D01*
X11937450Y53493810D01*
X18103738Y53493810D01*
X22523719Y53515499D01*
X22536281Y56404501D01*
X22536280Y56404501D01*
X18116262Y56386189D01*
X18103738Y53493811D01*
X18103738Y53493810D01*
X11937450Y53493810D01*
X11931076Y53500184D01*
X11897050Y53562496D01*
X11894172Y53589827D01*
X11900302Y54999501D01*
X11906282Y56374549D01*
X11906280Y56374549D01*
X11906281Y56374550D01*
X7516263Y56336419D01*
X7516263Y56336418D01*
X7503738Y53443581D01*
X10058267Y53467946D01*
X10126573Y53448595D01*
X10167921Y53406088D01*
X10175547Y53393193D01*
X10190714Y53378026D01*
X10203552Y53362995D01*
X10216158Y53345644D01*
X10254039Y53314306D01*
X10258420Y53310320D01*
X11518835Y52049905D01*
X12663125Y50905615D01*
X12673338Y50892869D01*
X12673531Y50893028D01*
X12678583Y50886921D01*
X12730978Y50837719D01*
X12732367Y50836373D01*
X12753667Y50815073D01*
X12753675Y50815067D01*
X12759517Y50810535D01*
X12764033Y50806678D01*
X12799867Y50773028D01*
X12818669Y50762692D01*
X12835175Y50751849D01*
X12852132Y50738696D01*
X12897254Y50719171D01*
X12902580Y50716561D01*
X12945659Y50692877D01*
X12945663Y50692876D01*
X12966432Y50687544D01*
X12985134Y50681141D01*
X13004824Y50672620D01*
X13053395Y50664928D01*
X13059189Y50663729D01*
X13106812Y50651500D01*
X13128259Y50651500D01*
X13147967Y50649950D01*
X13169152Y50646594D01*
X13206880Y50650161D01*
X13218094Y50651220D01*
X13224027Y50651500D01*
X15116522Y50651500D01*
X15184643Y50631498D01*
X15231136Y50577842D01*
X15241240Y50507568D01*
X15211746Y50442988D01*
X15167771Y50410393D01*
X15113247Y50386118D01*
X14958744Y50273865D01*
X14830965Y50131952D01*
X14830958Y50131942D01*
X14735476Y49966562D01*
X14735473Y49966555D01*
X14676457Y49784928D01*
X14656496Y49595000D01*
X14676457Y49405073D01*
X14706526Y49312530D01*
X14735473Y49223444D01*
X14735476Y49223439D01*
X14830961Y49058054D01*
X14879135Y49004553D01*
X14909853Y48940546D01*
X14911500Y48920241D01*
X14911500Y44646611D01*
X14909708Y44630379D01*
X14909958Y44630355D01*
X14909211Y44622463D01*
X14911468Y44550642D01*
X14911499Y44548666D01*
X14911499Y44518570D01*
X14912427Y44511223D01*
X14912893Y44505309D01*
X14914437Y44456171D01*
X14914438Y44456168D01*
X14920421Y44435571D01*
X14924428Y44416220D01*
X14927117Y44394940D01*
X14927117Y44394938D01*
X14945216Y44349222D01*
X14947139Y44343606D01*
X14960853Y44296403D01*
X14960853Y44296402D01*
X14971771Y44277942D01*
X14980468Y44260189D01*
X14988364Y44240245D01*
X14988367Y44240240D01*
X15000570Y44223445D01*
X15017265Y44200468D01*
X15020521Y44195510D01*
X15040004Y44162565D01*
X15045547Y44153193D01*
X15060714Y44138026D01*
X15073552Y44122995D01*
X15086158Y44105644D01*
X15124039Y44074306D01*
X15128420Y44070320D01*
X15220036Y43978704D01*
X15277030Y43921710D01*
X15311056Y43859398D01*
X15313244Y43845790D01*
X15326458Y43720072D01*
X15326458Y43720070D01*
X15326459Y43720068D01*
X15329126Y43711861D01*
X15385473Y43538444D01*
X15385476Y43538439D01*
X15480958Y43373059D01*
X15480965Y43373049D01*
X15608744Y43231136D01*
X15608747Y43231134D01*
X15763248Y43118882D01*
X15937712Y43041206D01*
X16124513Y43001500D01*
X16315487Y43001500D01*
X16502288Y43041206D01*
X16676752Y43118882D01*
X16831253Y43231134D01*
X16867335Y43271207D01*
X16959034Y43373049D01*
X16959035Y43373051D01*
X16959040Y43373056D01*
X17054527Y43538444D01*
X17113542Y43720072D01*
X17133504Y43910000D01*
X17113542Y44099928D01*
X17054527Y44281556D01*
X16959040Y44446944D01*
X16959038Y44446946D01*
X16959034Y44446952D01*
X16831255Y44588865D01*
X16676752Y44701118D01*
X16502288Y44778794D01*
X16328303Y44815776D01*
X16265829Y44849505D01*
X16231508Y44911654D01*
X16228500Y44939023D01*
X16228500Y45816051D01*
X16248502Y45884172D01*
X16302158Y45930665D01*
X16372432Y45940769D01*
X16437012Y45911275D01*
X16443594Y45905147D01*
X18052337Y44296403D01*
X19617030Y42731710D01*
X19651056Y42669398D01*
X19653244Y42655790D01*
X19666458Y42530072D01*
X19725473Y42348444D01*
X19738295Y42326235D01*
X19820958Y42183059D01*
X19820965Y42183049D01*
X19948738Y42041143D01*
X19948742Y42041139D01*
X19948747Y42041134D01*
X19948752Y42041131D01*
X19952073Y42038140D01*
X19989315Y41977695D01*
X19987966Y41906711D01*
X19948455Y41847725D01*
X19883325Y41819464D01*
X19867766Y41818500D01*
X19734513Y41818500D01*
X19547711Y41778794D01*
X19373247Y41701118D01*
X19218744Y41588865D01*
X19090965Y41446952D01*
X19090958Y41446942D01*
X18995476Y41281562D01*
X18995473Y41281555D01*
X18936457Y41099928D01*
X18916496Y40910000D01*
X18936457Y40720073D01*
X18964987Y40632268D01*
X18995473Y40538444D01*
X18995476Y40538439D01*
X19090958Y40373059D01*
X19090965Y40373049D01*
X19218744Y40231136D01*
X19273799Y40191136D01*
X19373248Y40118882D01*
X19426498Y40095174D01*
X19480594Y40049194D01*
X19501243Y39981267D01*
X19481891Y39912958D01*
X19468887Y39895759D01*
X19460965Y39886962D01*
X19460958Y39886952D01*
X19365476Y39721572D01*
X19365473Y39721565D01*
X19306457Y39539938D01*
X19293992Y39421330D01*
X19266979Y39355673D01*
X19208758Y39315043D01*
X19168682Y39308500D01*
X7584500Y39308500D01*
X7516379Y39328502D01*
X7469886Y39382158D01*
X7458500Y39434500D01*
X7458500Y40369390D01*
X7460292Y40385619D01*
X7460042Y40385642D01*
X7460788Y40393536D01*
X7458531Y40465361D01*
X7458500Y40467340D01*
X7458500Y40497425D01*
X7458500Y40497433D01*
X7457571Y40504781D01*
X7457106Y40510685D01*
X7455562Y40559832D01*
X7449579Y40580425D01*
X7445571Y40599783D01*
X7442882Y40621062D01*
X7442882Y40621065D01*
X7424777Y40666793D01*
X7422863Y40672382D01*
X7409145Y40719601D01*
X7398224Y40738066D01*
X7389531Y40755812D01*
X7381635Y40775757D01*
X7352736Y40815531D01*
X7349482Y40820484D01*
X7324453Y40862808D01*
X7324452Y40862810D01*
X7309288Y40877974D01*
X7296447Y40893008D01*
X7283841Y40910358D01*
X7283836Y40910363D01*
X7262718Y40927832D01*
X7245950Y40941704D01*
X7241577Y40945684D01*
X6725856Y41461405D01*
X6691830Y41523717D01*
X6696895Y41594532D01*
X6739442Y41651368D01*
X6805962Y41676179D01*
X6814951Y41676500D01*
X13670050Y41676500D01*
X13738171Y41656498D01*
X13759145Y41639595D01*
X14517030Y40881710D01*
X14551056Y40819398D01*
X14553244Y40805790D01*
X14566458Y40680072D01*
X14625473Y40498444D01*
X14625476Y40498439D01*
X14720958Y40333059D01*
X14720965Y40333049D01*
X14848744Y40191136D01*
X14848747Y40191134D01*
X15003248Y40078882D01*
X15177712Y40001206D01*
X15364513Y39961500D01*
X15555487Y39961500D01*
X15742288Y40001206D01*
X15916752Y40078882D01*
X16071253Y40191134D01*
X16150980Y40279680D01*
X16199034Y40333049D01*
X16199035Y40333051D01*
X16199040Y40333056D01*
X16294527Y40498444D01*
X16353542Y40680072D01*
X16373504Y40870000D01*
X16353542Y41059928D01*
X16294527Y41241556D01*
X16199040Y41406944D01*
X16199038Y41406946D01*
X16199034Y41406952D01*
X16071255Y41548865D01*
X15916752Y41661118D01*
X15742288Y41738794D01*
X15555487Y41778500D01*
X15534950Y41778500D01*
X15466829Y41798502D01*
X15445855Y41815405D01*
X14521875Y42739385D01*
X14511664Y42752131D01*
X14511471Y42751970D01*
X14506417Y42758079D01*
X14454020Y42807283D01*
X14452630Y42808630D01*
X14431333Y42829927D01*
X14431331Y42829929D01*
X14431325Y42829934D01*
X14425482Y42834466D01*
X14420967Y42838322D01*
X14399544Y42858439D01*
X14385133Y42871972D01*
X14385130Y42871974D01*
X14385125Y42871977D01*
X14366338Y42882306D01*
X14349818Y42893157D01*
X14332867Y42906305D01*
X14287739Y42925834D01*
X14282421Y42928439D01*
X14255235Y42943384D01*
X14239338Y42952124D01*
X14239335Y42952125D01*
X14218568Y42957457D01*
X14199865Y42963860D01*
X14189703Y42968257D01*
X14180176Y42972380D01*
X14180174Y42972381D01*
X14180175Y42972381D01*
X14131619Y42980071D01*
X14125804Y42981275D01*
X14078188Y42993500D01*
X14056741Y42993500D01*
X14037032Y42995051D01*
X14015848Y42998406D01*
X14015847Y42998406D01*
X13966906Y42993780D01*
X13960973Y42993500D01*
X7158950Y42993500D01*
X7090829Y43013502D01*
X7044336Y43067158D01*
X7034232Y43137432D01*
X7063726Y43202012D01*
X7069854Y43208595D01*
X7367758Y43506500D01*
X7474386Y43613129D01*
X7487129Y43623336D01*
X7486969Y43623529D01*
X7493075Y43628582D01*
X7493080Y43628584D01*
X7542329Y43681031D01*
X7543613Y43682356D01*
X7564926Y43703667D01*
X7569462Y43709517D01*
X7573306Y43714018D01*
X7606972Y43749867D01*
X7617303Y43768661D01*
X7628151Y43785177D01*
X7641304Y43802131D01*
X7660845Y43847290D01*
X7663428Y43852562D01*
X7687124Y43895663D01*
X7692460Y43916451D01*
X7698857Y43935131D01*
X7707379Y43954823D01*
X7715072Y44003404D01*
X7716271Y44009189D01*
X7728500Y44056812D01*
X7728500Y44078258D01*
X7730051Y44097969D01*
X7730361Y44099928D01*
X7733406Y44119151D01*
X7728778Y44168106D01*
X7728499Y44174004D01*
X7728499Y46313388D01*
X7730292Y46329621D01*
X7730041Y46329644D01*
X7730786Y46337529D01*
X7730788Y46337537D01*
X7728530Y46409359D01*
X7728499Y46411341D01*
X7728499Y46423059D01*
X7728500Y46441432D01*
X7727571Y46448780D01*
X7727106Y46454687D01*
X7725562Y46503831D01*
X7719579Y46524424D01*
X7715571Y46543782D01*
X7712882Y46565061D01*
X7712882Y46565064D01*
X7694777Y46610792D01*
X7692863Y46616381D01*
X7679145Y46663600D01*
X7668226Y46682061D01*
X7659528Y46699818D01*
X7651635Y46719756D01*
X7622731Y46759539D01*
X7619471Y46764502D01*
X7616176Y46770073D01*
X7594452Y46806807D01*
X7594451Y46806808D01*
X7594450Y46806810D01*
X7579291Y46821969D01*
X7566450Y46837002D01*
X7553841Y46854357D01*
X7515945Y46885707D01*
X7511571Y46889688D01*
X6072969Y48328291D01*
X6038943Y48390603D01*
X6036754Y48404216D01*
X6023542Y48529926D01*
X6023541Y48529931D01*
X5964527Y48711556D01*
X5869040Y48876944D01*
X5869038Y48876946D01*
X5869034Y48876952D01*
X5741255Y49018865D01*
X5586752Y49131118D01*
X5412288Y49208794D01*
X5225487Y49248500D01*
X5034513Y49248500D01*
X4847711Y49208794D01*
X4673247Y49131118D01*
X4518744Y49018865D01*
X4390965Y48876952D01*
X4390958Y48876942D01*
X4295476Y48711562D01*
X4295473Y48711555D01*
X4236457Y48529928D01*
X4216496Y48340000D01*
X4236457Y48150073D01*
X4266526Y48057530D01*
X4295473Y47968444D01*
X4295476Y47968439D01*
X4390958Y47803059D01*
X4390965Y47803049D01*
X4518744Y47661136D01*
X4549495Y47638794D01*
X4673248Y47548882D01*
X4847712Y47471206D01*
X5034513Y47431500D01*
X5055050Y47431500D01*
X5123171Y47411498D01*
X5144145Y47394595D01*
X6374595Y46164146D01*
X6408620Y46101834D01*
X6411500Y46075051D01*
X6411500Y45958292D01*
X6391498Y45890171D01*
X6337842Y45843678D01*
X6267568Y45833574D01*
X6202988Y45863068D01*
X6192804Y45872949D01*
X6188239Y45877907D01*
X6145368Y45911275D01*
X6010576Y46016189D01*
X5812574Y46123342D01*
X5812572Y46123343D01*
X5812571Y46123344D01*
X5599639Y46196443D01*
X5599630Y46196445D01*
X5555476Y46203813D01*
X5377569Y46233500D01*
X5152431Y46233500D01*
X5004211Y46208767D01*
X4930369Y46196445D01*
X4930360Y46196443D01*
X4717428Y46123344D01*
X4717426Y46123342D01*
X4520779Y46016922D01*
X4519426Y46016190D01*
X4519424Y46016189D01*
X4341762Y45877909D01*
X4280754Y45811637D01*
X4219901Y45775067D01*
X4148936Y45777202D01*
X4090391Y45817364D01*
X4069999Y45852943D01*
X4045162Y45919532D01*
X4025889Y45971204D01*
X4025888Y45971206D01*
X4025887Y45971208D01*
X3938261Y46088262D01*
X3821207Y46175888D01*
X3821202Y46175890D01*
X3684204Y46226989D01*
X3684196Y46226991D01*
X3623649Y46233500D01*
X3623638Y46233500D01*
X1826362Y46233500D01*
X1826350Y46233500D01*
X1765803Y46226991D01*
X1765795Y46226989D01*
X1628797Y46175890D01*
X1628792Y46175888D01*
X1511738Y46088262D01*
X1424112Y45971208D01*
X1424110Y45971203D01*
X1373011Y45834205D01*
X1373009Y45834197D01*
X1366500Y45773650D01*
X1366500Y43976351D01*
X1373009Y43915804D01*
X1373011Y43915796D01*
X1424110Y43778798D01*
X1424112Y43778793D01*
X1511738Y43661739D01*
X1628791Y43574114D01*
X1628792Y43574114D01*
X1628796Y43574111D01*
X1743810Y43531213D01*
X1800642Y43488668D01*
X1825453Y43422148D01*
X1810362Y43352774D01*
X1792475Y43327821D01*
X1649280Y43172271D01*
X1649275Y43172266D01*
X1526141Y42983794D01*
X1435703Y42777614D01*
X1435702Y42777613D01*
X1380437Y42559376D01*
X1380436Y42559370D01*
X1380436Y42559368D01*
X1361844Y42335000D01*
X1374435Y42183049D01*
X1380437Y42110625D01*
X1435702Y41892388D01*
X1435703Y41892387D01*
X1435704Y41892384D01*
X1476884Y41798502D01*
X1526141Y41686207D01*
X1649275Y41497735D01*
X1649279Y41497730D01*
X1801762Y41332092D01*
X1856331Y41289619D01*
X1979424Y41193811D01*
X2012680Y41175814D01*
X2063071Y41125800D01*
X2078423Y41056484D01*
X2053862Y40989871D01*
X2012680Y40954187D01*
X1989600Y40941696D01*
X1979426Y40936190D01*
X1979424Y40936189D01*
X1801762Y40797909D01*
X1649279Y40632271D01*
X1649275Y40632266D01*
X1526141Y40443794D01*
X1435703Y40237614D01*
X1435702Y40237613D01*
X1380437Y40019376D01*
X1380436Y40019370D01*
X1380436Y40019368D01*
X1361844Y39795000D01*
X1379232Y39585156D01*
X1380437Y39570625D01*
X1435702Y39352388D01*
X1435703Y39352387D01*
X1435704Y39352384D01*
X1524580Y39149765D01*
X1526141Y39146207D01*
X1649275Y38957735D01*
X1649279Y38957730D01*
X1801762Y38792092D01*
X1856331Y38749619D01*
X1979424Y38653811D01*
X2177426Y38546658D01*
X2177427Y38546658D01*
X2177428Y38546657D01*
X2289227Y38508277D01*
X2390365Y38473556D01*
X2612431Y38436500D01*
X2612435Y38436500D01*
X2837565Y38436500D01*
X2837569Y38436500D01*
X3059635Y38473556D01*
X3272574Y38546658D01*
X3470576Y38653811D01*
X3648240Y38792094D01*
X3800722Y38957732D01*
X3889816Y39094102D01*
X3943819Y39140190D01*
X4014167Y39149765D01*
X4078524Y39119788D01*
X4100782Y39094102D01*
X4189674Y38958042D01*
X4342097Y38792466D01*
X4519698Y38654233D01*
X4519699Y38654232D01*
X4717628Y38547118D01*
X4717630Y38547117D01*
X4914999Y38479362D01*
X4915000Y38479362D01*
X4915000Y39436682D01*
X4991900Y39370048D01*
X5122685Y39310320D01*
X5229237Y39295000D01*
X5300763Y39295000D01*
X5407315Y39310320D01*
X5538100Y39370048D01*
X5615000Y39436682D01*
X5615000Y38479362D01*
X5812369Y38547117D01*
X5812371Y38547118D01*
X6010300Y38654232D01*
X6010309Y38654238D01*
X6094941Y38720110D01*
X6160983Y38746167D01*
X6230628Y38732382D01*
X6271891Y38697906D01*
X6275545Y38693195D01*
X6275546Y38693194D01*
X6275547Y38693193D01*
X6290714Y38678026D01*
X6303552Y38662995D01*
X6316158Y38645644D01*
X6354039Y38614306D01*
X6358420Y38610320D01*
X6723124Y38245616D01*
X6723125Y38245615D01*
X6733338Y38232869D01*
X6733531Y38233028D01*
X6738583Y38226921D01*
X6790978Y38177719D01*
X6792367Y38176373D01*
X6813667Y38155073D01*
X6813675Y38155067D01*
X6819517Y38150535D01*
X6824033Y38146678D01*
X6859867Y38113028D01*
X6878669Y38102692D01*
X6895175Y38091849D01*
X6912132Y38078696D01*
X6957254Y38059171D01*
X6962580Y38056561D01*
X7005659Y38032877D01*
X7005663Y38032876D01*
X7026432Y38027544D01*
X7045134Y38021141D01*
X7064824Y38012620D01*
X7113395Y38004928D01*
X7119189Y38003729D01*
X7166812Y37991500D01*
X7188259Y37991500D01*
X7207967Y37989950D01*
X7229152Y37986594D01*
X7266880Y37990161D01*
X7278094Y37991220D01*
X7284027Y37991500D01*
X21375506Y37991500D01*
X21426755Y37980607D01*
X21537712Y37931206D01*
X21724513Y37891500D01*
X21745050Y37891500D01*
X21813171Y37871498D01*
X21834145Y37854595D01*
X23564595Y36124146D01*
X23598620Y36061834D01*
X23601500Y36035051D01*
X23601500Y35384951D01*
X23581498Y35316830D01*
X23564595Y35295856D01*
X20014145Y31745405D01*
X19951833Y31711379D01*
X19925050Y31708500D01*
X13936614Y31708500D01*
X13920379Y31710293D01*
X13920356Y31710043D01*
X13912463Y31710789D01*
X13840623Y31708531D01*
X13838644Y31708500D01*
X13808568Y31708500D01*
X13808563Y31708500D01*
X13808554Y31708499D01*
X13801219Y31707573D01*
X13795305Y31707107D01*
X13746172Y31705563D01*
X13746170Y31705563D01*
X13746169Y31705562D01*
X13725571Y31699579D01*
X13706221Y31695572D01*
X13684940Y31692884D01*
X13684935Y31692882D01*
X13639214Y31674781D01*
X13633599Y31672859D01*
X13586406Y31659148D01*
X13586399Y31659145D01*
X13567937Y31648227D01*
X13550191Y31639534D01*
X13530248Y31631638D01*
X13530245Y31631636D01*
X13490470Y31602738D01*
X13485508Y31599479D01*
X13443194Y31574454D01*
X13428022Y31559283D01*
X13412996Y31546450D01*
X13395644Y31533843D01*
X13395643Y31533842D01*
X13364299Y31495955D01*
X13360303Y31491564D01*
X11451377Y29582639D01*
X11438631Y29572426D01*
X11438791Y29572233D01*
X11432686Y29567183D01*
X11383484Y29514789D01*
X11382108Y29513369D01*
X11360837Y29492098D01*
X11356293Y29486241D01*
X11352444Y29481735D01*
X11318795Y29445901D01*
X11318793Y29445899D01*
X11308457Y29427099D01*
X11297609Y29410586D01*
X11284465Y29393640D01*
X11284460Y29393631D01*
X11264938Y29348519D01*
X11262326Y29343189D01*
X11238643Y29300106D01*
X11238639Y29300096D01*
X11233307Y29279330D01*
X11226905Y29260630D01*
X11218386Y29240946D01*
X11218383Y29240935D01*
X11212815Y29205777D01*
X11182402Y29141624D01*
X11182005Y29141180D01*
X11116723Y29068675D01*
X11021242Y28903296D01*
X11021239Y28903290D01*
X11006765Y28858748D01*
X10962223Y28721662D01*
X10942262Y28531734D01*
X10962223Y28341807D01*
X10992292Y28249264D01*
X11021239Y28160178D01*
X11049607Y28111043D01*
X11116724Y27994793D01*
X11116731Y27994783D01*
X11244510Y27852870D01*
X11244513Y27852868D01*
X11399014Y27740616D01*
X11573478Y27662940D01*
X11760279Y27623234D01*
X11951257Y27623234D01*
X11989302Y27631321D01*
X12060093Y27625920D01*
X12116726Y27583104D01*
X12141220Y27516466D01*
X12141500Y27508075D01*
X12141500Y27374950D01*
X12121498Y27306829D01*
X12104595Y27285855D01*
X10914145Y26095405D01*
X10851833Y26061379D01*
X10825050Y26058500D01*
X6436614Y26058500D01*
X6420379Y26060293D01*
X6420356Y26060043D01*
X6412463Y26060789D01*
X6340623Y26058531D01*
X6338644Y26058500D01*
X6308568Y26058500D01*
X6308563Y26058500D01*
X6308554Y26058499D01*
X6301219Y26057573D01*
X6295305Y26057107D01*
X6246172Y26055563D01*
X6246170Y26055563D01*
X6246169Y26055562D01*
X6225571Y26049579D01*
X6206221Y26045572D01*
X6184940Y26042884D01*
X6184935Y26042882D01*
X6139214Y26024781D01*
X6133599Y26022859D01*
X6086406Y26009148D01*
X6086399Y26009145D01*
X6067937Y25998227D01*
X6050191Y25989534D01*
X6030248Y25981638D01*
X6030245Y25981636D01*
X5990470Y25952738D01*
X5985508Y25949479D01*
X5943194Y25924454D01*
X5928022Y25909283D01*
X5912996Y25896450D01*
X5895644Y25883843D01*
X5895643Y25883842D01*
X5864299Y25845955D01*
X5860303Y25841564D01*
X2135611Y22116873D01*
X2122865Y22106660D01*
X2123025Y22106467D01*
X2116920Y22101417D01*
X2067718Y22049023D01*
X2066342Y22047603D01*
X2045071Y22026332D01*
X2040527Y22020475D01*
X2036678Y22015969D01*
X2003029Y21980135D01*
X2003027Y21980133D01*
X1992691Y21961333D01*
X1981843Y21944820D01*
X1968699Y21927874D01*
X1968694Y21927865D01*
X1949172Y21882753D01*
X1946560Y21877423D01*
X1922877Y21834340D01*
X1922873Y21834330D01*
X1917541Y21813564D01*
X1911139Y21794864D01*
X1902620Y21775180D01*
X1902619Y21775176D01*
X1894928Y21726616D01*
X1893724Y21720803D01*
X1881499Y21673190D01*
X1881500Y21651742D01*
X1879949Y21632033D01*
X1876594Y21610850D01*
X1876594Y21610848D01*
X1881220Y21561906D01*
X1881500Y21555973D01*
X1881500Y17900955D01*
X1861498Y17832834D01*
X1844595Y17811860D01*
X695611Y16662877D01*
X682865Y16652664D01*
X683025Y16652471D01*
X676920Y16647421D01*
X627718Y16595027D01*
X626342Y16593607D01*
X605071Y16572336D01*
X600527Y16566479D01*
X596678Y16561973D01*
X563029Y16526139D01*
X563027Y16526137D01*
X552691Y16507337D01*
X541843Y16490824D01*
X528699Y16473878D01*
X528694Y16473869D01*
X509172Y16428757D01*
X506560Y16423427D01*
X482877Y16380344D01*
X482873Y16380334D01*
X477541Y16359568D01*
X471139Y16340868D01*
X462620Y16321184D01*
X462619Y16321180D01*
X454928Y16272620D01*
X453724Y16266807D01*
X441499Y16219194D01*
X441500Y16197746D01*
X439949Y16178037D01*
X436594Y16156854D01*
X436594Y16156852D01*
X441220Y16107910D01*
X441500Y16101977D01*
X441500Y12414760D01*
X421498Y12346639D01*
X409136Y12330450D01*
X360965Y12276952D01*
X360961Y12276945D01*
X330107Y12223505D01*
X278724Y12174512D01*
X209010Y12161077D01*
X143099Y12187464D01*
X101918Y12245296D01*
X94988Y12286454D01*
X94970Y12330450D01*
X85618Y35153952D01*
X1700876Y35153952D01*
X1702586Y35144254D01*
X1703750Y35130941D01*
X1705249Y35122441D01*
X1708707Y35109532D01*
X1710418Y35099830D01*
X1713935Y35093738D01*
X1718452Y35088355D01*
X1726982Y35083430D01*
X1744972Y35070833D01*
X1752518Y35064501D01*
X1752519Y35064501D01*
X1752520Y35064500D01*
X1752521Y35064500D01*
X1759123Y35062097D01*
X1766047Y35060876D01*
X1766047Y35060877D01*
X1766048Y35060876D01*
X1775746Y35062587D01*
X1797625Y35064500D01*
X14852520Y35064500D01*
X20635778Y35064500D01*
X20644657Y35063872D01*
X20668689Y35060457D01*
X20668692Y35060455D01*
X20675014Y35061789D01*
X20682460Y35062565D01*
X20682457Y35062586D01*
X20693307Y35064500D01*
X20693312Y35064500D01*
X20696617Y35065704D01*
X20705165Y35068148D01*
X20722468Y35071796D01*
X20722470Y35071800D01*
X20724113Y35072821D01*
X20727107Y35074279D01*
X20727845Y35074814D01*
X20730159Y35077206D01*
X20731640Y35078451D01*
X20731645Y35078452D01*
X20740488Y35093771D01*
X20745461Y35101131D01*
X20756374Y35115051D01*
X20756373Y35115054D01*
X20756977Y35116900D01*
X20758332Y35119937D01*
X20758552Y35120819D01*
X20758788Y35124142D01*
X20759124Y35126048D01*
X20756055Y35143450D01*
X20755131Y35152304D01*
X20754023Y35185531D01*
X20736940Y35698049D01*
X20738786Y35724131D01*
X20739122Y35726046D01*
X20739124Y35726048D01*
X20736052Y35743465D01*
X20735131Y35752301D01*
X20735015Y35755820D01*
X20735013Y35755825D01*
X20735013Y35755827D01*
X20732739Y35766615D01*
X20732759Y35766620D01*
X20730701Y35773817D01*
X20729581Y35780172D01*
X20729579Y35780174D01*
X20725391Y35787430D01*
X20719791Y35793669D01*
X20714091Y35796711D01*
X20692428Y35811348D01*
X20687479Y35815501D01*
X20679610Y35818365D01*
X20671308Y35819545D01*
X20664985Y35818212D01*
X20638986Y35815500D01*
X1825530Y35815500D01*
X1803650Y35817414D01*
X1793952Y35819125D01*
X1784254Y35817414D01*
X1770938Y35816250D01*
X1762453Y35814754D01*
X1749539Y35811294D01*
X1739827Y35809581D01*
X1733737Y35806066D01*
X1728354Y35801548D01*
X1723426Y35793013D01*
X1710835Y35775031D01*
X1704499Y35767481D01*
X1702097Y35760881D01*
X1700876Y35753952D01*
X1702586Y35744254D01*
X1704500Y35722376D01*
X1704500Y35185531D01*
X1702587Y35163657D01*
X1700876Y35153952D01*
X85618Y35153952D01*
X77127Y55876757D01*
X97101Y55944883D01*
X150738Y55991398D01*
X221008Y56001531D01*
X285600Y55972064D01*
X292222Y55965901D01*
X337477Y55920646D01*
X337485Y55920639D01*
X337489Y55920635D01*
X360888Y55901687D01*
X630765Y55683144D01*
X630782Y55683132D01*
X809396Y55567140D01*
X947280Y55477597D01*
X1283535Y55306266D01*
X1283539Y55306265D01*
X1283544Y55306262D01*
X1635850Y55171024D01*
X1635855Y55171023D01*
X1635857Y55171022D01*
X2000387Y55073347D01*
X2373129Y55014310D01*
X2373131Y55014310D01*
X2373137Y55014309D01*
X2566871Y55004157D01*
X2655706Y54999501D01*
X2655707Y54999500D01*
X2655720Y54999500D01*
X2844293Y54999500D01*
X2844293Y54999501D01*
X2950610Y55005073D01*
X3126862Y55014309D01*
X3126866Y55014310D01*
X3126871Y55014310D01*
X3499613Y55073347D01*
X3864143Y55171022D01*
X3864146Y55171024D01*
X3864149Y55171024D01*
X4216455Y55306262D01*
X4216456Y55306263D01*
X4216465Y55306266D01*
X4552720Y55477597D01*
X4869225Y55683137D01*
X5162511Y55920635D01*
X5429365Y56187489D01*
X5666863Y56480775D01*
X5872403Y56797279D01*
X6043734Y57133535D01*
X6178978Y57485857D01*
X6276653Y57850387D01*
X6335690Y58223129D01*
X6335690Y58223134D01*
X6335691Y58223138D01*
X6355441Y58599994D01*
X6355441Y58600007D01*
X6335691Y58976863D01*
X6276653Y59349612D01*
X6178976Y59714150D01*
X6043738Y60066456D01*
X6043734Y60066464D01*
X6043734Y60066465D01*
X5872403Y60402720D01*
X5666863Y60719225D01*
X5666856Y60719235D01*
X5429368Y61012507D01*
X5429365Y61012511D01*
X5429361Y61012515D01*
X5429354Y61012523D01*
X5382472Y61059405D01*
X5348446Y61121717D01*
X5353511Y61192532D01*
X5396058Y61249368D01*
X5462578Y61274179D01*
X5471567Y61274500D01*
X24528433Y61274500D01*
X24596554Y61254498D01*
G37*
%TD.AperFunction*%
%TA.AperFunction,Conductor*%
G36*
X26064532Y35192695D02*
G01*
X26121368Y35150148D01*
X26146179Y35083628D01*
X26146500Y35074639D01*
X26146500Y33184500D01*
X26126498Y33116379D01*
X26072842Y33069886D01*
X26020500Y33058500D01*
X24816611Y33058500D01*
X24800379Y33060292D01*
X24800356Y33060042D01*
X24792463Y33060789D01*
X24720642Y33058531D01*
X24718663Y33058500D01*
X24698568Y33058500D01*
X24698563Y33058500D01*
X24698554Y33058499D01*
X24694523Y33057990D01*
X24688613Y33057525D01*
X24626171Y33055563D01*
X24626163Y33055561D01*
X24597877Y33047344D01*
X24578529Y33043337D01*
X24574938Y33042884D01*
X24556788Y33035698D01*
X24551173Y33033775D01*
X24466400Y33009146D01*
X24323193Y32924453D01*
X24323189Y32924450D01*
X22194145Y30795405D01*
X22131833Y30761379D01*
X22105050Y30758500D01*
X21830361Y30758500D01*
X21762240Y30778502D01*
X21715747Y30832158D01*
X21705643Y30902432D01*
X21735137Y30967012D01*
X21741266Y30973595D01*
X25931405Y35163734D01*
X25993717Y35197760D01*
X26064532Y35192695D01*
G37*
%TD.AperFunction*%
%TD*%
M02*
