M48
; DRILL file {KiCad 7.0.5-7.0.5~ubuntu20.04.1} date Fri 23 Jun 2023 08:30:10 AM CEST
; FORMAT={-:-/ absolute / inch / decimal}
; #@! TF.CreationDate,2023-06-23T08:30:10+02:00
; #@! TF.GenerationSoftware,Kicad,Pcbnew,7.0.5-7.0.5~ubuntu20.04.1
; #@! TF.FileFunction,Plated,1,2,PTH
FMAT,2
INCH
; #@! TA.AperFunction,Plated,PTH,ViaDrill
T1C0.0157
; #@! TA.AperFunction,Plated,PTH,ComponentDrill
T2C0.0295
; #@! TA.AperFunction,Plated,PTH,ComponentDrill
T3C0.0394
; #@! TA.AperFunction,Plated,PTH,ComponentDrill
T4C0.0409
; #@! TA.AperFunction,Plated,PTH,ComponentDrill
T5C0.0433
; #@! TA.AperFunction,Plated,PTH,ComponentDrill
T6C0.0472
; #@! TA.AperFunction,Plated,PTH,ComponentDrill
T7C0.0512
; #@! TA.AperFunction,Plated,PTH,ComponentDrill
T8C0.0520
%
G90
G05
T1
X0.0971Y2.8123
X0.112Y3.037
X0.1354Y0.4284
X0.1354Y0.389
X0.1494Y3.037
X0.1591Y0.7016
X0.1748Y0.4284
X0.1748Y0.389
X0.1888Y3.037
X0.194Y0.6539
X0.2226Y1.7384
X0.3134Y2.8079
X0.316Y2.0464
X0.316Y2.007
X0.3554Y2.0464
X0.3554Y2.007
X0.3821Y2.6516
X0.3928Y2.0464
X0.3928Y2.007
X0.4354Y2.6516
X0.4887Y2.6516
X0.4976Y0.9469
X0.4976Y0.9075
X0.537Y0.9469
X0.537Y0.9075
X0.5421Y2.6516
X0.5472Y3.0935
X0.5472Y3.0531
X0.5544Y2.3957
X0.5954Y2.6516
X0.6077Y2.3957
X0.6487Y2.6516
X0.6611Y2.3957
X0.702Y2.6516
X0.7144Y2.3957
X0.721Y0.9168
X0.721Y0.8774
X0.7554Y2.6516
X0.757Y1.7954
X0.757Y1.756
X0.7603Y0.9168
X0.7603Y0.8774
X0.7677Y2.3957
X0.7963Y1.7954
X0.7963Y1.756
X0.803Y2.5305
X0.8087Y2.6516
X0.8248Y1.3428
X0.8248Y1.3034
X0.829Y1.5941
X0.829Y1.5547
X0.8337Y1.7954
X0.8337Y1.756
X0.8451Y1.1793
X0.862Y2.6516
X0.8642Y1.3428
X0.8642Y1.3034
X0.8684Y1.5941
X0.8684Y1.5547
X0.8845Y1.1793
X0.8859Y0.5645
X0.8947Y0.7195
X0.9033Y0.6311
X0.9173Y0.5098
X0.9409Y0.3807
X0.961Y2.385
X0.9799Y0.3807
X1.0026Y1.7698
X1.0026Y1.7304
X1.0067Y0.6565
X1.0181Y0.3807
X1.0374Y0.999
X1.0374Y0.9636
X1.0374Y0.9242
X1.0378Y1.373
X1.0402Y0.6122
X1.0526Y3.0659
X1.0748Y2.1685
X1.0854Y0.5679
X1.092Y3.0659
X1.2083Y2.7457
X1.2411Y2.9847
X1.2598Y2.564
X1.2603Y2.625
X1.2608Y2.503
X1.2677Y1.9567
X1.2677Y1.9173
X1.2785Y2.9847
X1.3179Y2.9847
X1.3407Y2.3696
X1.3767Y2.3536
X1.407Y2.422
X1.4102Y3.0492
X1.4305Y0.6045
X1.4362Y0.6435
X1.4375Y0.4611
X1.4448Y3.0774
X1.4531Y0.6854
X1.4697Y0.429
X1.4921Y1.8504
X1.5354Y1.8504
X1.5384Y2.6658
X1.5384Y2.6264
X1.5402Y1.5339
X1.5571Y1.5758
X1.5758Y2.6658
X1.5758Y2.6264
X1.585Y2.0083
X1.6024Y0.6496
X1.6043Y2.8051
X1.6073Y1.4174
X1.6073Y1.378
X1.6152Y2.6658
X1.6152Y2.6264
X1.6189Y2.4244
X1.6189Y2.3851
X1.6201Y2.9852
X1.6211Y2.1453
X1.6211Y3.0315
X1.6492Y1.0169
X1.6492Y0.9776
X1.6492Y0.9382
X1.6535Y0.685
X1.6563Y2.4244
X1.6563Y2.3851
X1.6604Y2.1453
X1.6614Y1.6526
X1.6614Y1.1565
X1.6811Y1.3701
X1.6957Y2.4244
X1.6957Y2.3851
X1.6978Y2.1453
X1.7165Y1.1201
X1.7205Y0.7598
X1.7362Y1.6526
X1.753Y1.9769
X1.7584Y1.4132
X1.7584Y1.3738
X1.7598Y1.1368
X1.7598Y0.7614
X1.7904Y1.9769
X1.7913Y0.8543
X1.7933Y2.7598
X1.815Y1.0472
X1.815Y1.2795
X1.8209Y0.685
X1.8543Y1.0472
X1.8937Y1.4301
X1.8996Y1.6526
X1.9488Y0.8465
X1.975Y1.6526
X1.9803Y0.4803
X1.986Y2.181
X1.986Y2.1416
X2.0079Y1.3583
X2.0254Y2.181
X2.0254Y2.1416
X2.0479Y1.4098
X2.0479Y1.3704
X2.0571Y0.685
X2.0628Y2.181
X2.0628Y2.1416
X2.0669Y0.4803
X2.0873Y1.4098
X2.0873Y1.3704
X2.1271Y0.8887
X2.1457Y1.0354
X2.1496Y0.4596
X2.154Y0.9692
X2.1641Y0.9023
X2.1654Y1.1024
X2.1772Y0.4291
X2.1801Y0.766
X2.2014Y0.9615
X2.2088Y0.8502
X2.2638Y1.6535
X2.2677Y0.9606
X2.2805Y1.4333
X2.2825Y1.8455
X2.2907Y1.0374
X2.3199Y1.4333
X2.3228Y0.5477
X2.3301Y1.0374
X2.3342Y0.6301
X2.3346Y0.5906
X2.3382Y0.6767
X2.3384Y1.9999
X2.3504Y0.8898
X2.3622Y1.6535
X2.3777Y1.9999
X2.378Y1.2677
X2.3957Y2.249
X2.4151Y1.9999
X2.4505Y1.9239
X2.4646Y1.4333
X2.4774Y1.3179
X2.4793Y0.8564
X2.5168Y0.8278
X2.5689Y1.0925
X2.5689Y1.0433
X2.5748Y1.3268
X2.5748Y1.2598
X2.5945Y0.8307
X2.5945Y0.7756
X2.5984Y0.4803
X2.5984Y0.4409
X2.6317Y1.7814
X2.6317Y1.742
X2.6535Y0.7717
X2.6575Y0.7362
X2.6811Y0.7126
X2.7205Y1.311
X2.7205Y1.2677
X2.7333Y1.0916
X2.7362Y1.2008
X2.748Y0.9331
X2.7618Y0.5177
X2.7628Y0.5599
X2.7756Y0.6535
X2.7815Y2.1083
X2.7854Y2.1614
X2.7911Y1.9871
X2.8305Y1.9871
X2.8307Y1.0433
X2.8307Y0.3661
X2.8425Y0.9055
X2.8504Y0.5
X2.8679Y1.9871
X2.874Y0.626
X2.8927Y2.2652
X2.9102Y1.7686
X2.9102Y1.7292
X2.9238Y0.3652
X2.9341Y2.2652
X2.938Y3.2589
X2.9488Y1.4961
X2.9488Y1.4488
X2.9567Y0.5
X2.9693Y1.2136
X2.9754Y2.2652
X2.9843Y0.626
X3.0011Y2.6199
X3.0011Y2.5825
X3.0011Y2.5431
X3.0132Y3.2065
X3.0133Y3.3955
X3.0133Y3.3581
X3.0133Y3.3227
X3.0133Y3.2853
X3.0133Y3.2459
X3.0197Y1.3268
X3.0239Y1.1959
X3.0276Y1.0551
X3.0405Y2.6199
X3.0405Y2.5825
X3.0405Y2.5431
X3.063Y0.9291
X3.0761Y0.3545
X3.1155Y0.3545
X3.1181Y1.0787
X3.1189Y1.6328
X3.1189Y1.5934
X3.123Y2.436
X3.123Y2.3947
X3.123Y2.3514
X3.1339Y0.8819
X3.1582Y1.6328
X3.1582Y1.5934
X3.1776Y2.1273
X3.1779Y1.9841
X3.1811Y1.0787
X3.1956Y1.6328
X3.1956Y1.5934
X3.2055Y2.2652
X3.215Y2.1273
X3.2173Y1.9841
X3.2449Y2.2652
X3.248Y0.5079
X3.2547Y1.9841
X3.2843Y2.2652
X3.2992Y0.6102
X3.3051Y0.7126
X3.318Y0.9774
X3.318Y0.938
X3.3189Y0.5079
X3.3217Y2.2652
X3.3307Y0.3937
X3.378Y1.0974
X3.4331Y0.6457
X3.4764Y0.6457
X3.4764Y0.5079
X3.4882Y0.3829
X3.5079Y1.0984
X3.5126Y1.5737
X3.5126Y1.5343
X3.5315Y0.3829
X3.5519Y1.5737
X3.5519Y1.5343
X3.5606Y2.4664
X3.5606Y2.427
X3.5787Y2.0896
X3.5893Y1.5737
X3.5893Y1.5343
X3.6014Y2.4656
X3.6024Y2.427
X3.6359Y1.1002
X3.6788Y1.1002
X3.7028Y1.9035
X3.7039Y1.9528
X3.7217Y1.1002
X3.752Y0.3829
X3.7697Y0.4823
X3.8169Y1.6614
X3.8994Y0.8093
X3.9002Y0.7694
X3.9396Y0.8088
X3.9396Y0.7694
X3.9516Y2.2752
X3.9744Y1.8378
X3.977Y0.8088
X3.977Y0.7694
X3.991Y2.275
X4.0236Y1.8366
X4.0246Y0.4085
X4.0303Y2.275
X4.06Y0.624
X4.0615Y0.6747
X4.0669Y1.9343
X4.0677Y2.275
X4.1032Y2.275
X4.1161Y1.9331
X4.1254Y1.387
X4.1406Y2.275
X4.1647Y1.387
X4.2021Y1.387
X4.2323Y0.6398
X4.2572Y1.387
X4.2966Y1.387
X4.3159Y0.4016
X4.334Y1.387
X4.3439Y1.5888
X4.3439Y1.5494
X4.3736Y1.171
X4.3736Y1.1306
X4.4061Y2.2892
X4.4061Y2.2498
X4.413Y1.171
X4.413Y1.1316
X4.4455Y2.2892
X4.4455Y2.2498
X4.4504Y1.171
X4.4504Y1.1316
X4.4829Y2.2892
X4.4829Y2.2498
X4.4882Y2.7854
X4.4882Y2.7461
X4.5413Y2.9941
X4.5807Y2.9941
X4.6201Y2.9941
X4.6398Y0.4315
X4.6405Y0.3916
X4.6437Y2.5945
X4.6604Y2.4577
X4.6604Y2.4183
X4.6634Y1.6644
X4.6799Y0.431
X4.6799Y0.3916
X4.6998Y2.4577
X4.6998Y2.4183
X4.7173Y0.431
X4.7173Y0.3916
X4.7372Y2.4577
X4.7372Y2.4183
T2
X3.3299Y0.2815
X3.4087Y0.2815
X3.6059Y0.2815
X3.6847Y0.2815
T3
X1.1323Y0.3976
X1.2323Y0.3976
X1.3996Y2.053
X1.3996Y1.953
X1.3996Y1.853
X1.3996Y1.753
X1.3996Y1.653
X1.3996Y1.553
X1.3996Y1.453
X1.3996Y1.353
X1.3996Y1.253
X1.3996Y1.153
X1.3996Y1.053
X1.3996Y0.953
X1.3996Y0.853
X1.3996Y0.753
X1.5008Y0.2461
X1.5008Y0.1461
X1.6008Y0.2461
X1.6008Y0.1461
X1.7008Y0.2461
X1.7008Y0.1461
X4.0079Y0.9961
X4.1079Y0.9961
X4.2079Y0.9961
X4.3079Y0.9961
X4.4079Y0.9961
X4.5079Y0.9961
X4.6079Y0.9961
X4.6083Y1.5648
X4.6083Y1.4648
X4.6083Y1.3648
X4.6083Y1.2648
T4
X0.138Y2.6209
X0.138Y2.5209
X0.138Y2.4209
X0.138Y2.3209
X0.138Y2.2209
X0.138Y2.1209
X0.138Y2.0209
X0.138Y1.9209
X0.138Y1.8209
X0.138Y1.7209
X0.138Y1.6209
X0.138Y1.5209
X0.138Y1.4209
X0.138Y1.3209
X0.138Y1.2209
X0.138Y1.1209
X0.138Y1.0209
X0.138Y0.9209
X0.138Y0.8209
X1.138Y2.6209
X1.138Y2.5209
X1.138Y2.4209
X1.138Y2.3209
X1.138Y2.2209
X1.138Y2.1209
X1.138Y2.0209
X1.138Y1.9209
X1.138Y1.8209
X1.138Y1.7209
X1.138Y1.6209
X1.138Y1.5209
X1.138Y1.4209
X1.138Y1.3209
X1.138Y1.2209
X1.138Y1.1209
X1.138Y1.0209
X1.138Y0.9209
X1.138Y0.8209
T5
X3.8459Y0.3159
X3.8459Y0.06
X4.0231Y0.3159
X4.0231Y0.06
X4.1437Y0.3159
X4.1437Y0.06
X4.3209Y0.3159
X4.3209Y0.06
T6
X2.2563Y3.2913
X2.4531Y3.2913
X2.65Y3.2913
X3.7982Y3.2894
X3.9951Y3.2894
X4.1919Y3.2894
T7
X0.5154Y0.1772
X0.5209Y3.3256
X0.6654Y0.1772
X0.6709Y3.3256
X0.8154Y0.1772
X0.8209Y3.3256
X0.9654Y0.1772
X0.9709Y3.3256
X1.5215Y3.3256
X1.6715Y3.3256
X1.8215Y3.3256
X1.9715Y3.3256
X2.0345Y0.177
X2.1845Y0.177
X2.3345Y0.177
X2.4845Y0.177
X2.6968Y0.1776
X2.8468Y0.1776
X2.9968Y0.1776
X3.1468Y0.1776
X3.19Y3.2894
X3.3396Y3.2894
T8
X2.7598Y2.9429
X2.7598Y2.4705
X4.3018Y2.9409
X4.3018Y2.4685
T6
G00X2.2795Y2.9406
M15
G01X2.2795Y2.9453
M16
G05
G00X2.2795Y2.4681
M15
G01X2.2795Y2.4728
M16
G05
G00X2.8386Y2.7047
M15
G01X2.8386Y2.7087
M16
G05
G00X3.8215Y2.9386
M15
G01X3.8215Y2.9433
M16
G05
G00X3.8215Y2.4661
M15
G01X3.8215Y2.4709
M16
G05
G00X4.3805Y2.7028
M15
G01X4.3805Y2.7067
M16
G05
T0
M30
