%TF.GenerationSoftware,KiCad,Pcbnew,7.0.5-7.0.5~ubuntu20.04.1*%
%TF.CreationDate,2023-06-23T08:30:10+02:00*%
%TF.ProjectId,ControllerCircuit,436f6e74-726f-46c6-9c65-724369726375,rev?*%
%TF.SameCoordinates,Original*%
%TF.FileFunction,Soldermask,Bot*%
%TF.FilePolarity,Negative*%
%FSLAX46Y46*%
G04 Gerber Fmt 4.6, Leading zero omitted, Abs format (unit mm)*
G04 Created by KiCad (PCBNEW 7.0.5-7.0.5~ubuntu20.04.1) date 2023-06-23 08:30:10*
%MOMM*%
%LPD*%
G01*
G04 APERTURE LIST*
G04 Aperture macros list*
%AMRoundRect*
0 Rectangle with rounded corners*
0 $1 Rounding radius*
0 $2 $3 $4 $5 $6 $7 $8 $9 X,Y pos of 4 corners*
0 Add a 4 corners polygon primitive as box body*
4,1,4,$2,$3,$4,$5,$6,$7,$8,$9,$2,$3,0*
0 Add four circle primitives for the rounded corners*
1,1,$1+$1,$2,$3*
1,1,$1+$1,$4,$5*
1,1,$1+$1,$6,$7*
1,1,$1+$1,$8,$9*
0 Add four rect primitives between the rounded corners*
20,1,$1+$1,$2,$3,$4,$5,0*
20,1,$1+$1,$4,$5,$6,$7,0*
20,1,$1+$1,$6,$7,$8,$9,0*
20,1,$1+$1,$8,$9,$2,$3,0*%
G04 Aperture macros list end*
%ADD10C,4.000000*%
%ADD11R,2.000000X2.000000*%
%ADD12C,2.200000*%
%ADD13R,1.800000X1.800000*%
%ADD14C,1.800000*%
%ADD15C,1.560000*%
%ADD16R,1.700000X1.700000*%
%ADD17O,1.700000X1.700000*%
%ADD18RoundRect,0.249999X-0.350001X-0.625001X0.350001X-0.625001X0.350001X0.625001X-0.350001X0.625001X0*%
%ADD19O,1.200000X1.750000*%
%ADD20R,1.980000X1.980000*%
%ADD21C,2.000000*%
%ADD22R,1.900000X2.200000*%
%ADD23R,1.900000X1.900000*%
%ADD24C,1.900000*%
%ADD25R,2.200000X2.200000*%
%ADD26C,3.200000*%
G04 APERTURE END LIST*
D10*
%TO.C,REF\u002A\u002A*%
X118650000Y83800000D03*
%TD*%
%TO.C,REF\u002A\u002A*%
X118650000Y3850000D03*
%TD*%
D11*
%TO.C,J7*%
X68499020Y4511340D03*
D12*
X72309020Y4511340D03*
X76119020Y4511340D03*
X79929020Y4511340D03*
%TD*%
D13*
%TO.C,U4*%
X3506394Y66570000D03*
D14*
X3506394Y64030000D03*
D15*
X3506394Y61490000D03*
X3506394Y58950000D03*
X3506394Y56410000D03*
X3506394Y53870000D03*
X3506394Y51330000D03*
X3506394Y48790000D03*
X3506394Y46250000D03*
X3506394Y43710000D03*
X3506394Y41170000D03*
X3506394Y38630000D03*
X3506394Y36090000D03*
X3506394Y33550000D03*
X3506394Y31010000D03*
X3506394Y28470000D03*
X3506394Y25930000D03*
D14*
X3506394Y23390000D03*
X3506394Y20850000D03*
X28906394Y66570000D03*
X28906394Y64030000D03*
D15*
X28906394Y61490000D03*
X28906394Y58950000D03*
X28906394Y56410000D03*
X28906394Y53870000D03*
X28906394Y51330000D03*
X28906394Y48790000D03*
D14*
X28906394Y46250000D03*
X28906394Y43710000D03*
D15*
X28906394Y41170000D03*
X28906394Y38630000D03*
X28906394Y36090000D03*
X28906394Y33550000D03*
X28906394Y31010000D03*
X28906394Y28470000D03*
X28906394Y25930000D03*
D14*
X28906394Y23390000D03*
X28906394Y20850000D03*
%TD*%
D11*
%TO.C,J1*%
X13090000Y4500000D03*
D12*
X16900000Y4500000D03*
X20710000Y4500000D03*
X24520000Y4500000D03*
%TD*%
D11*
%TO.C,J4*%
X51675686Y4496340D03*
D12*
X55485686Y4496340D03*
X59295686Y4496340D03*
X63105686Y4496340D03*
%TD*%
D16*
%TO.C,J8*%
X43200000Y6250000D03*
D17*
X43200000Y3710000D03*
X40660000Y6250000D03*
X40660000Y3710000D03*
X38120000Y6250000D03*
X38120000Y3710000D03*
%TD*%
D18*
%TO.C,TX1*%
X91591000Y7150400D03*
D19*
X93591000Y7150400D03*
%TD*%
D18*
%TO.C,RX1*%
X84580720Y7150400D03*
D19*
X86580720Y7150400D03*
%TD*%
D20*
%TO.C,K1*%
X109265000Y62700000D03*
D21*
X109265000Y74700000D03*
D22*
X111265000Y68700000D03*
X97065000Y62700000D03*
X97065000Y74700000D03*
%TD*%
D16*
%TO.C,J10*%
X31300000Y10100000D03*
D17*
X28760000Y10100000D03*
%TD*%
D10*
%TO.C,REF\u002A\u002A*%
X3700000Y83800000D03*
%TD*%
%TO.C,REF\u002A\u002A*%
X3700000Y3800000D03*
%TD*%
D23*
%TO.C,J2*%
X106475000Y83550000D03*
D24*
X101475000Y83550000D03*
X96475000Y83550000D03*
%TD*%
D11*
%TO.C,J12*%
X24660000Y84470000D03*
D12*
X20850000Y84470000D03*
X17040000Y84470000D03*
X13230000Y84470000D03*
%TD*%
D25*
%TO.C,J5*%
X84825000Y83550000D03*
D12*
X81025000Y83550000D03*
%TD*%
D16*
%TO.C,J14*%
X101800000Y25300000D03*
D17*
X104340000Y25300000D03*
X106880000Y25300000D03*
X109420000Y25300000D03*
X111960000Y25300000D03*
X114500000Y25300000D03*
X117040000Y25300000D03*
%TD*%
D21*
%TO.C,SW1*%
X97687000Y1524000D03*
X97687000Y8024000D03*
X102187000Y1524000D03*
X102187000Y8024000D03*
%TD*%
%TO.C,SW2*%
X105250000Y1524000D03*
X105250000Y8024000D03*
X109750000Y1524000D03*
X109750000Y8024000D03*
%TD*%
D26*
%TO.C,LCD1*%
X116550000Y13625000D03*
X116550000Y57625000D03*
X40550000Y13625000D03*
X40550000Y57625000D03*
D16*
X35550000Y19125000D03*
D17*
X35550000Y21665000D03*
X35550000Y24205000D03*
X35550000Y26745000D03*
X35550000Y29285000D03*
X35550000Y31825000D03*
X35550000Y34365000D03*
X35550000Y36905000D03*
X35550000Y39445000D03*
X35550000Y41985000D03*
X35550000Y44525000D03*
X35550000Y47065000D03*
X35550000Y49605000D03*
X35550000Y52145000D03*
X117050000Y32125000D03*
X117050000Y34665000D03*
X117050000Y37205000D03*
X117050000Y39745000D03*
%TD*%
D11*
%TO.C,J9*%
X50075000Y84470000D03*
D12*
X46265000Y84470000D03*
X42455000Y84470000D03*
X38645000Y84470000D03*
%TD*%
D20*
%TO.C,K2*%
X70100000Y62750000D03*
D21*
X70100000Y74750000D03*
D22*
X72100000Y68750000D03*
X57900000Y62750000D03*
X57900000Y74750000D03*
%TD*%
D23*
%TO.C,J3*%
X67310000Y83600000D03*
D24*
X62310000Y83600000D03*
X57310000Y83600000D03*
%TD*%
M02*
