%TF.GenerationSoftware,KiCad,Pcbnew,7.0.5-7.0.5~ubuntu20.04.1*%
%TF.CreationDate,2023-06-23T08:30:09+02:00*%
%TF.ProjectId,ControllerCircuit,436f6e74-726f-46c6-9c65-724369726375,rev?*%
%TF.SameCoordinates,Original*%
%TF.FileFunction,Soldermask,Top*%
%TF.FilePolarity,Negative*%
%FSLAX46Y46*%
G04 Gerber Fmt 4.6, Leading zero omitted, Abs format (unit mm)*
G04 Created by KiCad (PCBNEW 7.0.5-7.0.5~ubuntu20.04.1) date 2023-06-23 08:30:09*
%MOMM*%
%LPD*%
G01*
G04 APERTURE LIST*
G04 Aperture macros list*
%AMRoundRect*
0 Rectangle with rounded corners*
0 $1 Rounding radius*
0 $2 $3 $4 $5 $6 $7 $8 $9 X,Y pos of 4 corners*
0 Add a 4 corners polygon primitive as box body*
4,1,4,$2,$3,$4,$5,$6,$7,$8,$9,$2,$3,0*
0 Add four circle primitives for the rounded corners*
1,1,$1+$1,$2,$3*
1,1,$1+$1,$4,$5*
1,1,$1+$1,$6,$7*
1,1,$1+$1,$8,$9*
0 Add four rect primitives between the rounded corners*
20,1,$1+$1,$2,$3,$4,$5,0*
20,1,$1+$1,$4,$5,$6,$7,0*
20,1,$1+$1,$6,$7,$8,$9,0*
20,1,$1+$1,$8,$9,$2,$3,0*%
%AMFreePoly0*
4,1,19,0.500000,-0.750000,0.000000,-0.750000,0.000000,-0.744911,-0.071157,-0.744911,-0.207708,-0.704816,-0.327430,-0.627875,-0.420627,-0.520320,-0.479746,-0.390866,-0.500000,-0.250000,-0.500000,0.250000,-0.479746,0.390866,-0.420627,0.520320,-0.327430,0.627875,-0.207708,0.704816,-0.071157,0.744911,0.000000,0.744911,0.000000,0.750000,0.500000,0.750000,0.500000,-0.750000,0.500000,-0.750000,
$1*%
%AMFreePoly1*
4,1,19,0.000000,0.744911,0.071157,0.744911,0.207708,0.704816,0.327430,0.627875,0.420627,0.520320,0.479746,0.390866,0.500000,0.250000,0.500000,-0.250000,0.479746,-0.390866,0.420627,-0.520320,0.327430,-0.627875,0.207708,-0.704816,0.071157,-0.744911,0.000000,-0.744911,0.000000,-0.750000,-0.500000,-0.750000,-0.500000,0.750000,0.000000,0.750000,0.000000,0.744911,0.000000,0.744911,
$1*%
G04 Aperture macros list end*
%ADD10C,4.000000*%
%ADD11RoundRect,0.249999X-0.262501X-0.450001X0.262501X-0.450001X0.262501X0.450001X-0.262501X0.450001X0*%
%ADD12RoundRect,0.250000X-0.250000X-0.475000X0.250000X-0.475000X0.250000X0.475000X-0.250000X0.475000X0*%
%ADD13RoundRect,0.150000X-0.825000X-0.150000X0.825000X-0.150000X0.825000X0.150000X-0.825000X0.150000X0*%
%ADD14R,2.000000X2.000000*%
%ADD15C,2.200000*%
%ADD16R,1.800000X1.800000*%
%ADD17C,1.800000*%
%ADD18C,1.560000*%
%ADD19R,1.700000X1.700000*%
%ADD20O,1.700000X1.700000*%
%ADD21RoundRect,0.249999X-0.350001X-0.625001X0.350001X-0.625001X0.350001X0.625001X-0.350001X0.625001X0*%
%ADD22O,1.200000X1.750000*%
%ADD23R,1.980000X1.980000*%
%ADD24C,2.000000*%
%ADD25R,1.900000X2.200000*%
%ADD26RoundRect,0.237500X-0.287500X-0.237500X0.287500X-0.237500X0.287500X0.237500X-0.287500X0.237500X0*%
%ADD27R,1.700000X1.300000*%
%ADD28R,0.900000X0.800000*%
%ADD29RoundRect,0.249999X-0.450001X0.262501X-0.450001X-0.262501X0.450001X-0.262501X0.450001X0.262501X0*%
%ADD30RoundRect,0.249999X0.262501X0.450001X-0.262501X0.450001X-0.262501X-0.450001X0.262501X-0.450001X0*%
%ADD31R,0.800000X0.900000*%
%ADD32RoundRect,0.162500X-0.462500X-2.562500X0.462500X-2.562500X0.462500X2.562500X-0.462500X2.562500X0*%
%ADD33RoundRect,0.249999X-0.537501X-0.425001X0.537501X-0.425001X0.537501X0.425001X-0.537501X0.425001X0*%
%ADD34R,1.500000X2.000000*%
%ADD35R,3.800000X2.000000*%
%ADD36R,2.000000X0.640000*%
%ADD37R,1.900000X1.900000*%
%ADD38C,1.900000*%
%ADD39R,1.000000X1.500000*%
%ADD40FreePoly0,180.000000*%
%ADD41FreePoly1,180.000000*%
%ADD42R,2.200000X2.200000*%
%ADD43RoundRect,0.150000X-0.150000X0.662500X-0.150000X-0.662500X0.150000X-0.662500X0.150000X0.662500X0*%
%ADD44RoundRect,0.100000X-0.637500X-0.100000X0.637500X-0.100000X0.637500X0.100000X-0.637500X0.100000X0*%
%ADD45RoundRect,0.250000X-0.262500X-0.450000X0.262500X-0.450000X0.262500X0.450000X-0.262500X0.450000X0*%
%ADD46RoundRect,0.250000X0.325000X0.650000X-0.325000X0.650000X-0.325000X-0.650000X0.325000X-0.650000X0*%
%ADD47R,1.500000X0.800000*%
%ADD48R,2.000000X1.450000*%
%ADD49R,0.800000X0.300000*%
%ADD50C,3.200000*%
%ADD51R,1.200000X0.950000*%
%ADD52R,2.000000X1.100000*%
%ADD53RoundRect,0.250000X0.250000X0.475000X-0.250000X0.475000X-0.250000X-0.475000X0.250000X-0.475000X0*%
%ADD54RoundRect,0.075000X-0.650000X-0.075000X0.650000X-0.075000X0.650000X0.075000X-0.650000X0.075000X0*%
%ADD55R,1.300000X1.700000*%
%ADD56RoundRect,0.250000X0.262500X0.450000X-0.262500X0.450000X-0.262500X-0.450000X0.262500X-0.450000X0*%
G04 APERTURE END LIST*
D10*
%TO.C,REF\u002A\u002A*%
X118650000Y83800000D03*
%TD*%
%TO.C,REF\u002A\u002A*%
X118650000Y3850000D03*
%TD*%
D11*
%TO.C,R4*%
X19524740Y16375000D03*
X21349740Y16375000D03*
%TD*%
D12*
%TO.C,C6*%
X57742480Y22660000D03*
X59642480Y22660000D03*
%TD*%
%TO.C,C1*%
X50568980Y26689200D03*
X52468980Y26689200D03*
%TD*%
D11*
%TO.C,R9*%
X46927500Y15670000D03*
X48752500Y15670000D03*
%TD*%
D13*
%TO.C,U5*%
X47109980Y23654200D03*
X47109980Y22384200D03*
X47109980Y21114200D03*
X47109980Y19844200D03*
X52059980Y19844200D03*
X52059980Y21114200D03*
X52059980Y22384200D03*
X52059980Y23654200D03*
%TD*%
D14*
%TO.C,J7*%
X68499020Y4511340D03*
D15*
X72309020Y4511340D03*
X76119020Y4511340D03*
X79929020Y4511340D03*
%TD*%
D16*
%TO.C,U4*%
X3506394Y66570000D03*
D17*
X3506394Y64030000D03*
D18*
X3506394Y61490000D03*
X3506394Y58950000D03*
X3506394Y56410000D03*
X3506394Y53870000D03*
X3506394Y51330000D03*
X3506394Y48790000D03*
X3506394Y46250000D03*
X3506394Y43710000D03*
X3506394Y41170000D03*
X3506394Y38630000D03*
X3506394Y36090000D03*
X3506394Y33550000D03*
X3506394Y31010000D03*
X3506394Y28470000D03*
X3506394Y25930000D03*
D17*
X3506394Y23390000D03*
X3506394Y20850000D03*
X28906394Y66570000D03*
X28906394Y64030000D03*
D18*
X28906394Y61490000D03*
X28906394Y58950000D03*
X28906394Y56410000D03*
X28906394Y53870000D03*
X28906394Y51330000D03*
X28906394Y48790000D03*
D17*
X28906394Y46250000D03*
X28906394Y43710000D03*
D18*
X28906394Y41170000D03*
X28906394Y38630000D03*
X28906394Y36090000D03*
X28906394Y33550000D03*
X28906394Y31010000D03*
X28906394Y28470000D03*
X28906394Y25930000D03*
D17*
X28906394Y23390000D03*
X28906394Y20850000D03*
%TD*%
D14*
%TO.C,J1*%
X13090000Y4500000D03*
D15*
X16900000Y4500000D03*
X20710000Y4500000D03*
X24520000Y4500000D03*
%TD*%
D14*
%TO.C,J4*%
X51675686Y4496340D03*
D15*
X55485686Y4496340D03*
X59295686Y4496340D03*
X63105686Y4496340D03*
%TD*%
D19*
%TO.C,J8*%
X43200000Y6250000D03*
D20*
X43200000Y3710000D03*
X40660000Y6250000D03*
X40660000Y3710000D03*
X38120000Y6250000D03*
X38120000Y3710000D03*
%TD*%
D21*
%TO.C,TX1*%
X91591000Y7150400D03*
D22*
X93591000Y7150400D03*
%TD*%
D21*
%TO.C,RX1*%
X84580720Y7150400D03*
D22*
X86580720Y7150400D03*
%TD*%
D23*
%TO.C,K1*%
X109265000Y62700000D03*
D24*
X109265000Y74700000D03*
D25*
X111265000Y68700000D03*
X97065000Y62700000D03*
X97065000Y74700000D03*
%TD*%
D11*
%TO.C,R12*%
X90687500Y83475000D03*
X92512500Y83475000D03*
%TD*%
D26*
%TO.C,D3*%
X90725000Y85850000D03*
X92475000Y85850000D03*
%TD*%
D19*
%TO.C,J10*%
X31300000Y10100000D03*
D20*
X28760000Y10100000D03*
%TD*%
D11*
%TO.C,R1*%
X19524740Y18325000D03*
X21349740Y18325000D03*
%TD*%
%TO.C,R17*%
X19524740Y14425000D03*
X21349740Y14425000D03*
%TD*%
D10*
%TO.C,REF\u002A\u002A*%
X3700000Y83800000D03*
%TD*%
%TO.C,REF\u002A\u002A*%
X3700000Y3800000D03*
%TD*%
D27*
%TO.C,D2*%
X115350000Y61820000D03*
X115350000Y65320000D03*
%TD*%
D28*
%TO.C,Q1*%
X117800000Y69650000D03*
X117800000Y71550000D03*
X115800000Y70600000D03*
%TD*%
D29*
%TO.C,R10*%
X117950000Y67762500D03*
X117950000Y65937500D03*
%TD*%
D11*
%TO.C,R11*%
X116887500Y73700000D03*
X118712500Y73700000D03*
%TD*%
D30*
%TO.C,R3*%
X93292500Y22880000D03*
X91467500Y22880000D03*
%TD*%
D11*
%TO.C,R2*%
X86087500Y14500000D03*
X87912500Y14500000D03*
%TD*%
D29*
%TO.C,R8*%
X79300000Y69862500D03*
X79300000Y68037500D03*
%TD*%
D31*
%TO.C,Q3*%
X79150000Y73000000D03*
X81050000Y73000000D03*
X80100000Y75000000D03*
%TD*%
D32*
%TO.C,F1*%
X83362500Y75760000D03*
X90150000Y75800000D03*
%TD*%
D33*
%TO.C,C4*%
X88016700Y67836000D03*
X90891700Y67836000D03*
%TD*%
%TO.C,C3*%
X85531700Y70186000D03*
X88406700Y70186000D03*
%TD*%
D34*
%TO.C,U6*%
X90374200Y65121000D03*
X88074200Y65121000D03*
D35*
X88074200Y58821000D03*
D34*
X85774200Y65121000D03*
%TD*%
D36*
%TO.C,U9*%
X27675000Y73580000D03*
X27675000Y76120000D03*
X21375000Y76120000D03*
X21375000Y73580000D03*
%TD*%
D11*
%TO.C,R18*%
X26332500Y71700000D03*
X28157500Y71700000D03*
%TD*%
D37*
%TO.C,J2*%
X106475000Y83550000D03*
D38*
X101475000Y83550000D03*
X96475000Y83550000D03*
%TD*%
D30*
%TO.C,R19*%
X59584980Y20500000D03*
X57759980Y20500000D03*
%TD*%
D11*
%TO.C,R21*%
X40787500Y33500000D03*
X42612500Y33500000D03*
%TD*%
D12*
%TO.C,C2*%
X68650000Y21100000D03*
X70550000Y21100000D03*
%TD*%
D39*
%TO.C,JP1*%
X80650000Y20400000D03*
X81950000Y20400000D03*
%TD*%
D30*
%TO.C,R24*%
X21349740Y12425000D03*
X19524740Y12425000D03*
%TD*%
D36*
%TO.C,U12*%
X16375000Y76030000D03*
X16375000Y78570000D03*
X10075000Y78570000D03*
X10075000Y76030000D03*
%TD*%
D14*
%TO.C,J12*%
X24660000Y84470000D03*
D15*
X20850000Y84470000D03*
X17040000Y84470000D03*
X13230000Y84470000D03*
%TD*%
D40*
%TO.C,JP4*%
X51890000Y15660000D03*
D41*
X50590000Y15660000D03*
%TD*%
D31*
%TO.C,D8*%
X79990000Y12640000D03*
X78090000Y12640000D03*
X79040000Y10640000D03*
%TD*%
D42*
%TO.C,J5*%
X84825000Y83550000D03*
D15*
X81025000Y83550000D03*
%TD*%
D43*
%TO.C,U2*%
X92943320Y20607000D03*
X91673320Y20607000D03*
X91673320Y14232000D03*
X92943320Y14232000D03*
%TD*%
D19*
%TO.C,J14*%
X101800000Y25300000D03*
D20*
X104340000Y25300000D03*
X106880000Y25300000D03*
X109420000Y25300000D03*
X111960000Y25300000D03*
X114500000Y25300000D03*
X117040000Y25300000D03*
%TD*%
D12*
%TO.C,C10*%
X97950000Y54150000D03*
X99850000Y54150000D03*
%TD*%
%TO.C,C7*%
X96991000Y16129000D03*
X98891000Y16129000D03*
%TD*%
D11*
%TO.C,R7*%
X100457500Y12827000D03*
X102282500Y12827000D03*
%TD*%
%TO.C,R26*%
X97008500Y12827000D03*
X98833500Y12827000D03*
%TD*%
D24*
%TO.C,SW1*%
X97687000Y1524000D03*
X97687000Y8024000D03*
X102187000Y1524000D03*
X102187000Y8024000D03*
%TD*%
%TO.C,SW2*%
X105250000Y1524000D03*
X105250000Y8024000D03*
X109750000Y1524000D03*
X109750000Y8024000D03*
%TD*%
D11*
%TO.C,R27*%
X107823500Y12827000D03*
X109648500Y12827000D03*
%TD*%
D12*
%TO.C,C11*%
X104357000Y16129000D03*
X106257000Y16129000D03*
%TD*%
D11*
%TO.C,R28*%
X104374500Y12827000D03*
X106199500Y12827000D03*
%TD*%
D44*
%TO.C,U3*%
X57137500Y18075000D03*
X57137500Y17425000D03*
X57137500Y16775000D03*
X57137500Y16125000D03*
X57137500Y15475000D03*
X57137500Y14825000D03*
X57137500Y14175000D03*
X57137500Y13525000D03*
X57137500Y12875000D03*
X57137500Y12225000D03*
X57137500Y11575000D03*
X57137500Y10925000D03*
X62862500Y10925000D03*
X62862500Y11575000D03*
X62862500Y12225000D03*
X62862500Y12875000D03*
X62862500Y13525000D03*
X62862500Y14175000D03*
X62862500Y14825000D03*
X62862500Y15475000D03*
X62862500Y16125000D03*
X62862500Y16775000D03*
X62862500Y17425000D03*
X62862500Y18075000D03*
%TD*%
D28*
%TO.C,Q4*%
X86020000Y19575000D03*
X86020000Y17675000D03*
X88020000Y18625000D03*
%TD*%
D45*
%TO.C,R20*%
X86087500Y22880000D03*
X87912500Y22880000D03*
%TD*%
D46*
%TO.C,C5*%
X68975000Y16500000D03*
X66025000Y16500000D03*
%TD*%
D45*
%TO.C,R29*%
X46087500Y34900000D03*
X47912500Y34900000D03*
%TD*%
D47*
%TO.C,J15*%
X98600000Y41195000D03*
X98600000Y42295000D03*
X98600000Y43395000D03*
X98600000Y44495000D03*
X98600000Y45595000D03*
X98600000Y46695000D03*
X98600000Y47795000D03*
X98600000Y48895000D03*
D48*
X96000000Y37525000D03*
X104300000Y37525000D03*
X104300000Y51275000D03*
X96000000Y51275000D03*
%TD*%
D24*
%TO.C,FID1*%
X9500000Y84100000D03*
%TD*%
%TO.C,FID2*%
X9000000Y6500000D03*
%TD*%
%TO.C,FID3*%
X113750000Y6500000D03*
%TD*%
%TO.C,FID4*%
X113750000Y81000000D03*
%TD*%
D12*
%TO.C,C9*%
X78350000Y25200000D03*
X80250000Y25200000D03*
%TD*%
D49*
%TO.C,U1*%
X73550000Y25730000D03*
X73550000Y25230000D03*
X73550000Y24730000D03*
X73550000Y24230000D03*
X76650000Y24230000D03*
X76650000Y24730000D03*
X76650000Y25230000D03*
X76650000Y25730000D03*
%TD*%
D13*
%TO.C,U7*%
X72725000Y21805000D03*
X72725000Y20535000D03*
X72725000Y19265000D03*
X72725000Y17995000D03*
X77675000Y17995000D03*
X77675000Y19265000D03*
X77675000Y20535000D03*
X77675000Y21805000D03*
%TD*%
D30*
%TO.C,R6*%
X82112500Y17200000D03*
X80287500Y17200000D03*
%TD*%
D50*
%TO.C,LCD1*%
X116550000Y13625000D03*
X116550000Y57625000D03*
X40550000Y13625000D03*
X40550000Y57625000D03*
D19*
X35550000Y19125000D03*
D20*
X35550000Y21665000D03*
X35550000Y24205000D03*
X35550000Y26745000D03*
X35550000Y29285000D03*
X35550000Y31825000D03*
X35550000Y34365000D03*
X35550000Y36905000D03*
X35550000Y39445000D03*
X35550000Y41985000D03*
X35550000Y44525000D03*
X35550000Y47065000D03*
X35550000Y49605000D03*
X35550000Y52145000D03*
X117050000Y32125000D03*
X117050000Y34665000D03*
X117050000Y37205000D03*
X117050000Y39745000D03*
%TD*%
D12*
%TO.C,C8*%
X72450000Y28300000D03*
X74350000Y28300000D03*
%TD*%
D51*
%TO.C,D6*%
X4650000Y13975000D03*
X4650000Y15425000D03*
X7850000Y15425000D03*
X7850000Y13975000D03*
%TD*%
D52*
%TO.C,D1*%
X15875000Y12925000D03*
X15875000Y14625000D03*
X15875000Y16325000D03*
X11075000Y16325000D03*
X11075000Y14625000D03*
X11075000Y12925000D03*
%TD*%
D45*
%TO.C,R22*%
X93087500Y54180000D03*
X94912500Y54180000D03*
%TD*%
D11*
%TO.C,R16*%
X2762500Y72775000D03*
X4587500Y72775000D03*
%TD*%
D30*
%TO.C,R5*%
X8216200Y72775000D03*
X6391200Y72775000D03*
%TD*%
D11*
%TO.C,R25*%
X15032500Y74150000D03*
X16857500Y74150000D03*
%TD*%
D53*
%TO.C,C14*%
X47490000Y71535000D03*
X45590000Y71535000D03*
%TD*%
D14*
%TO.C,J9*%
X50075000Y84470000D03*
D15*
X46265000Y84470000D03*
X42455000Y84470000D03*
X38645000Y84470000D03*
%TD*%
D53*
%TO.C,C13*%
X47490000Y73585000D03*
X45590000Y73585000D03*
%TD*%
D12*
%TO.C,C12*%
X45540000Y76210000D03*
X47440000Y76210000D03*
%TD*%
D45*
%TO.C,R30*%
X49177500Y78360000D03*
X51002500Y78360000D03*
%TD*%
%TO.C,R23*%
X45577500Y78260000D03*
X47402500Y78260000D03*
%TD*%
D54*
%TO.C,U8*%
X38465000Y78435000D03*
X38465000Y77935000D03*
X38465000Y77435000D03*
X38465000Y76935000D03*
X38465000Y76435000D03*
X42865000Y76435000D03*
X42865000Y76935000D03*
X42865000Y77435000D03*
X42865000Y77935000D03*
X42865000Y78435000D03*
%TD*%
D23*
%TO.C,K2*%
X70100000Y62750000D03*
D24*
X70100000Y74750000D03*
D25*
X72100000Y68750000D03*
X57900000Y62750000D03*
X57900000Y74750000D03*
%TD*%
D31*
%TO.C,Q2*%
X65725000Y56850000D03*
X67625000Y56850000D03*
X66675000Y58850000D03*
%TD*%
D30*
%TO.C,R14*%
X63887500Y57000000D03*
X62062500Y57000000D03*
%TD*%
D29*
%TO.C,R15*%
X69725000Y58742500D03*
X69725000Y56917500D03*
%TD*%
D26*
%TO.C,D4*%
X71850000Y85675000D03*
X73600000Y85675000D03*
%TD*%
D55*
%TO.C,D5*%
X59925000Y59300000D03*
X63425000Y59300000D03*
%TD*%
D37*
%TO.C,J3*%
X67310000Y83600000D03*
D38*
X62310000Y83600000D03*
X57310000Y83600000D03*
%TD*%
D11*
%TO.C,R13*%
X71462500Y83525000D03*
X73287500Y83525000D03*
%TD*%
D56*
%TO.C,R31*%
X43547500Y72990000D03*
X41722500Y72990000D03*
%TD*%
%TO.C,R32*%
X40042500Y72980000D03*
X38217500Y72980000D03*
%TD*%
M02*
