%TF.GenerationSoftware,KiCad,Pcbnew,7.0.5-7.0.5~ubuntu20.04.1*%
%TF.CreationDate,2023-07-13T22:08:42+02:00*%
%TF.ProjectId,ModuleV450,4d6f6475-6c65-4563-9435-302e6b696361,rev?*%
%TF.SameCoordinates,Original*%
%TF.FileFunction,Copper,L1,Top*%
%TF.FilePolarity,Positive*%
%FSLAX46Y46*%
G04 Gerber Fmt 4.6, Leading zero omitted, Abs format (unit mm)*
G04 Created by KiCad (PCBNEW 7.0.5-7.0.5~ubuntu20.04.1) date 2023-07-13 22:08:42*
%MOMM*%
%LPD*%
G01*
G04 APERTURE LIST*
G04 Aperture macros list*
%AMRoundRect*
0 Rectangle with rounded corners*
0 $1 Rounding radius*
0 $2 $3 $4 $5 $6 $7 $8 $9 X,Y pos of 4 corners*
0 Add a 4 corners polygon primitive as box body*
4,1,4,$2,$3,$4,$5,$6,$7,$8,$9,$2,$3,0*
0 Add four circle primitives for the rounded corners*
1,1,$1+$1,$2,$3*
1,1,$1+$1,$4,$5*
1,1,$1+$1,$6,$7*
1,1,$1+$1,$8,$9*
0 Add four rect primitives between the rounded corners*
20,1,$1+$1,$2,$3,$4,$5,0*
20,1,$1+$1,$4,$5,$6,$7,0*
20,1,$1+$1,$6,$7,$8,$9,0*
20,1,$1+$1,$8,$9,$2,$3,0*%
G04 Aperture macros list end*
%TA.AperFunction,ComponentPad*%
%ADD10R,3.000000X3.000000*%
%TD*%
%TA.AperFunction,ComponentPad*%
%ADD11O,1.700000X1.700000*%
%TD*%
%TA.AperFunction,ComponentPad*%
%ADD12R,1.700000X1.700000*%
%TD*%
%TA.AperFunction,SMDPad,CuDef*%
%ADD13RoundRect,0.150000X0.150000X-0.662500X0.150000X0.662500X-0.150000X0.662500X-0.150000X-0.662500X0*%
%TD*%
%TA.AperFunction,SMDPad,CuDef*%
%ADD14RoundRect,0.250000X0.450000X-0.262500X0.450000X0.262500X-0.450000X0.262500X-0.450000X-0.262500X0*%
%TD*%
%TA.AperFunction,SMDPad,CuDef*%
%ADD15RoundRect,0.250000X-1.075000X0.362500X-1.075000X-0.362500X1.075000X-0.362500X1.075000X0.362500X0*%
%TD*%
%TA.AperFunction,SMDPad,CuDef*%
%ADD16R,0.900000X0.800000*%
%TD*%
%TA.AperFunction,SMDPad,CuDef*%
%ADD17RoundRect,0.218750X0.256250X-0.218750X0.256250X0.218750X-0.256250X0.218750X-0.256250X-0.218750X0*%
%TD*%
%TA.AperFunction,SMDPad,CuDef*%
%ADD18RoundRect,0.243750X0.456250X-0.243750X0.456250X0.243750X-0.456250X0.243750X-0.456250X-0.243750X0*%
%TD*%
%TA.AperFunction,SMDPad,CuDef*%
%ADD19RoundRect,0.250000X-0.450000X0.262500X-0.450000X-0.262500X0.450000X-0.262500X0.450000X0.262500X0*%
%TD*%
%TA.AperFunction,SMDPad,CuDef*%
%ADD20RoundRect,0.250000X0.475000X-0.250000X0.475000X0.250000X-0.475000X0.250000X-0.475000X-0.250000X0*%
%TD*%
%TA.AperFunction,SMDPad,CuDef*%
%ADD21RoundRect,0.250000X0.312500X1.450000X-0.312500X1.450000X-0.312500X-1.450000X0.312500X-1.450000X0*%
%TD*%
%TA.AperFunction,SMDPad,CuDef*%
%ADD22R,2.300000X2.500000*%
%TD*%
%TA.AperFunction,SMDPad,CuDef*%
%ADD23RoundRect,0.150000X0.150000X-0.825000X0.150000X0.825000X-0.150000X0.825000X-0.150000X-0.825000X0*%
%TD*%
%TA.AperFunction,ViaPad*%
%ADD24C,0.800000*%
%TD*%
%TA.AperFunction,ViaPad*%
%ADD25C,0.600000*%
%TD*%
%TA.AperFunction,Conductor*%
%ADD26C,0.250000*%
%TD*%
%TA.AperFunction,Conductor*%
%ADD27C,0.300000*%
%TD*%
%TA.AperFunction,Conductor*%
%ADD28C,2.000000*%
%TD*%
%TA.AperFunction,Conductor*%
%ADD29C,0.600000*%
%TD*%
%TA.AperFunction,Conductor*%
%ADD30C,0.200000*%
%TD*%
%TA.AperFunction,Conductor*%
%ADD31C,0.500000*%
%TD*%
%TA.AperFunction,Conductor*%
%ADD32C,1.500000*%
%TD*%
%TA.AperFunction,Conductor*%
%ADD33C,1.000000*%
%TD*%
G04 APERTURE END LIST*
D10*
%TO.P,VCC,1*%
%TO.N,VCC*%
X55880000Y5537200D03*
%TD*%
%TO.P,DUMP,1*%
%TO.N,Net-(Q1-D)*%
X56083200Y-12750800D03*
%TD*%
D11*
%TO.P,EXTTEMP1,2,Pin_2*%
%TO.N,ENABLE*%
X42545000Y10160000D03*
D12*
%TO.P,EXTTEMP1,1,Pin_1*%
%TO.N,PA3*%
X42545000Y12700000D03*
%TD*%
D13*
%TO.P,U1,1*%
%TO.N,Net-(R5-Pad1)*%
X23615000Y4562500D03*
%TO.P,U1,2*%
%TO.N,GND*%
X24885000Y4562500D03*
%TO.P,U1,3*%
%TO.N,Net-(TX1-Pin_1)*%
X24885000Y10937500D03*
%TO.P,U1,4*%
%TO.N,Net-(TX1-Pin_2)*%
X23615000Y10937500D03*
%TD*%
D14*
%TO.P,R16,1*%
%TO.N,GND*%
X21625000Y-12562500D03*
%TO.P,R16,2*%
%TO.N,RXD0*%
X21625000Y-10737500D03*
%TD*%
D15*
%TO.P,R27,1*%
%TO.N,Net-(R25-Pad2)*%
X52525000Y-8187500D03*
%TO.P,R27,2*%
%TO.N,Net-(Q1-D)*%
X52525000Y-12812500D03*
%TD*%
%TO.P,R26,1*%
%TO.N,Net-(R24-Pad2)*%
X48425000Y-1570834D03*
%TO.P,R26,2*%
%TO.N,Net-(R26-Pad2)*%
X48425000Y-6195834D03*
%TD*%
%TO.P,R28,1*%
%TO.N,Net-(R26-Pad2)*%
X48425000Y-8212500D03*
%TO.P,R28,2*%
%TO.N,Net-(Q1-D)*%
X48425000Y-12837500D03*
%TD*%
%TO.P,R24,1*%
%TO.N,VCC*%
X48425000Y5537500D03*
%TO.P,R24,2*%
%TO.N,Net-(R24-Pad2)*%
X48425000Y912500D03*
%TD*%
%TO.P,R25,1*%
%TO.N,Net-(R22-Pad2)*%
X52525000Y-1545834D03*
%TO.P,R25,2*%
%TO.N,Net-(R25-Pad2)*%
X52525000Y-6170834D03*
%TD*%
%TO.P,R22,1*%
%TO.N,VCC*%
X52525000Y5562500D03*
%TO.P,R22,2*%
%TO.N,Net-(R22-Pad2)*%
X52525000Y937500D03*
%TD*%
D14*
%TO.P,R19,1*%
%TO.N,ENABLE*%
X45825000Y-5312500D03*
%TO.P,R19,2*%
%TO.N,PA7*%
X45825000Y-3487500D03*
%TD*%
D16*
%TO.P,Q1,1,G*%
%TO.N,Net-(Q1-G)*%
X61725000Y-12475000D03*
%TO.P,Q1,2,S*%
%TO.N,GND*%
X61725000Y-10575000D03*
%TO.P,Q1,3,D*%
%TO.N,Net-(Q1-D)*%
X59725000Y-11525000D03*
%TD*%
D17*
%TO.P,D4,1,K*%
%TO.N,Net-(D4-K)*%
X26325000Y-12712500D03*
%TO.P,D4,2,A*%
%TO.N,PA6*%
X26325000Y-11137500D03*
%TD*%
D18*
%TO.P,D3,1,K*%
%TO.N,Net-(D3-K)*%
X62240000Y-4037500D03*
%TO.P,D3,2,A*%
%TO.N,VCC*%
X62240000Y-2162500D03*
%TD*%
D14*
%TO.P,R21,1*%
%TO.N,PA3*%
X29525000Y5987500D03*
%TO.P,R21,2*%
%TO.N,GND*%
X29525000Y7812500D03*
%TD*%
%TO.P,R17,1*%
%TO.N,Net-(Q1-D)*%
X62195000Y-7512500D03*
%TO.P,R17,2*%
%TO.N,Net-(D3-K)*%
X62195000Y-5687500D03*
%TD*%
%TO.P,R18,1*%
%TO.N,GND*%
X23650000Y-12562500D03*
%TO.P,R18,2*%
%TO.N,Net-(D4-K)*%
X23650000Y-10737500D03*
%TD*%
D19*
%TO.P,R5,1*%
%TO.N,Net-(R5-Pad1)*%
X24225000Y212500D03*
%TO.P,R5,2*%
%TO.N,TXD0*%
X24225000Y-1612500D03*
%TD*%
%TO.P,R20,1*%
%TO.N,PA7*%
X34725000Y-6199500D03*
%TO.P,R20,2*%
%TO.N,GND*%
X34725000Y-8024500D03*
%TD*%
D16*
%TO.P,D1,1,FB*%
%TO.N,VREF*%
X28785000Y-7510000D03*
%TO.P,D1,2,K*%
X28785000Y-5610000D03*
%TO.P,D1,3,A*%
%TO.N,GND*%
X26785000Y-6560000D03*
%TD*%
D20*
%TO.P,C1,1*%
%TO.N,VCC*%
X27415000Y1690000D03*
%TO.P,C1,2*%
%TO.N,GND*%
X27415000Y3590000D03*
%TD*%
D19*
%TO.P,R14,1*%
%TO.N,Net-(Q1-G)*%
X36725000Y7612500D03*
%TO.P,R14,2*%
%TO.N,DUMP_LOAD_ENABLE*%
X36725000Y5787500D03*
%TD*%
D14*
%TO.P,R2,2*%
%TO.N,VREF*%
X30735000Y-5687500D03*
%TO.P,R2,1*%
%TO.N,REF_EN*%
X30735000Y-7512500D03*
%TD*%
D21*
%TO.P,F1,1*%
%TO.N,VCC*%
X-362500Y12250000D03*
%TO.P,F1,2*%
%TO.N,unconnected-(F1-Pad2)*%
X-4637500Y12250000D03*
%TD*%
D14*
%TO.P,R15,1*%
%TO.N,Net-(Q1-G)*%
X63825000Y-12412500D03*
%TO.P,R15,2*%
%TO.N,GND*%
X63825000Y-10587500D03*
%TD*%
D20*
%TO.P,C2,1*%
%TO.N,VCC*%
X27405000Y-2230000D03*
%TO.P,C2,2*%
%TO.N,GND*%
X27405000Y-330000D03*
%TD*%
D22*
%TO.P,D2,1,A1*%
%TO.N,VCC*%
X1750000Y7650000D03*
%TO.P,D2,2,A2*%
%TO.N,GND*%
X1750000Y3350000D03*
%TD*%
D15*
%TO.P,R10,1*%
%TO.N,Net-(R10-Pad1)*%
X42975000Y-8237500D03*
%TO.P,R10,2*%
%TO.N,Net-(Q1-D)*%
X42975000Y-12862500D03*
%TD*%
%TO.P,R6,1*%
%TO.N,VCC*%
X42975000Y5512500D03*
%TO.P,R6,2*%
%TO.N,Net-(R6-Pad2)*%
X42975000Y887500D03*
%TD*%
D12*
%TO.P,UPDI1,1,Pin_1*%
%TO.N,VCC*%
X30625000Y-11600000D03*
D11*
%TO.P,UPDI1,2,Pin_2*%
%TO.N,RESET*%
X33165000Y-11600000D03*
%TO.P,UPDI1,3,Pin_3*%
%TO.N,GND*%
X35705000Y-11600000D03*
%TD*%
D14*
%TO.P,R1,1*%
%TO.N,VCC*%
X32865000Y5907500D03*
%TO.P,R1,2*%
%TO.N,RESET*%
X32865000Y7732500D03*
%TD*%
D23*
%TO.P,U2,1,VCC*%
%TO.N,VCC*%
X29625000Y-1795000D03*
%TO.P,U2,2,PA4*%
%TO.N,unconnected-(U2-PA4-Pad2)*%
X30895000Y-1795000D03*
%TO.P,U2,3,PA5*%
%TO.N,VREF*%
X32165000Y-1795000D03*
%TO.P,U2,4,PA6*%
%TO.N,PA6*%
X33435000Y-1795000D03*
%TO.P,U2,5,PA7*%
%TO.N,PA7*%
X34705000Y-1795000D03*
%TO.P,U2,6,PB3*%
%TO.N,RXD0*%
X35975000Y-1795000D03*
%TO.P,U2,7,PB2*%
%TO.N,TXD0*%
X37245000Y-1795000D03*
%TO.P,U2,8,PB1*%
%TO.N,DUMP_LOAD_ENABLE*%
X37245000Y3155000D03*
%TO.P,U2,9,PB0*%
%TO.N,ENABLE*%
X35975000Y3155000D03*
%TO.P,U2,10,~{RESET}/PA0*%
%TO.N,RESET*%
X34705000Y3155000D03*
%TO.P,U2,11,PA1*%
%TO.N,REF_EN*%
X33435000Y3155000D03*
%TO.P,U2,12,PA2*%
%TO.N,unconnected-(U2-PA2-Pad12)*%
X32165000Y3155000D03*
%TO.P,U2,13,PA3*%
%TO.N,PA3*%
X30895000Y3155000D03*
%TO.P,U2,14,GND*%
%TO.N,GND*%
X29625000Y3155000D03*
%TD*%
D12*
%TO.P,RX1,1,Pin_1*%
%TO.N,RXD0*%
X14097000Y-1270000D03*
D11*
%TO.P,RX1,2,Pin_2*%
%TO.N,VCC*%
X11557000Y-1270000D03*
%TD*%
D12*
%TO.P,TX1,1,Pin_1*%
%TO.N,Net-(TX1-Pin_1)*%
X11557000Y4572000D03*
D11*
%TO.P,TX1,2,Pin_2*%
%TO.N,Net-(TX1-Pin_2)*%
X14097000Y4572000D03*
%TD*%
D15*
%TO.P,R8,1*%
%TO.N,Net-(R6-Pad2)*%
X42975000Y-1595834D03*
%TO.P,R8,2*%
%TO.N,Net-(R10-Pad1)*%
X42975000Y-6220834D03*
%TD*%
D24*
%TO.N,GND*%
X18750000Y-10500000D03*
X39825000Y7200000D03*
X8500000Y3250000D03*
X53925000Y10275000D03*
X53925000Y9250000D03*
X53925000Y11300000D03*
X58650000Y-7800000D03*
X58650000Y-6700000D03*
X58650000Y-5600000D03*
X58650000Y-2250000D03*
X58650000Y-4450000D03*
X58650000Y-3350000D03*
X66150000Y-855000D03*
X66150000Y125000D03*
X66150000Y-1835000D03*
X17000000Y-10500000D03*
X27960000Y-11455000D03*
X27960000Y-10280000D03*
X36325000Y-3760000D03*
X38825000Y7700000D03*
X22685000Y1020000D03*
X27675000Y10950000D03*
X30285000Y12720000D03*
X64180000Y-8310000D03*
X64180000Y-7210000D03*
X64180000Y-6060000D03*
X42025000Y-10400000D03*
X43175000Y-10400000D03*
X44325000Y-10400000D03*
X45475000Y-10400000D03*
X46625000Y-10400000D03*
X47775000Y-10400000D03*
X48925000Y-10400000D03*
X50075000Y-10400000D03*
X51225000Y-10400000D03*
X52375000Y-10400000D03*
X53525000Y-10400000D03*
X44425000Y3300000D03*
X42125000Y3300000D03*
X43275000Y3300000D03*
X50175000Y3300000D03*
X49025000Y3300000D03*
X53625000Y3300000D03*
X52375000Y-3900000D03*
X51225000Y-3900000D03*
X53525000Y-3900000D03*
X41925000Y-3900000D03*
X44225000Y-3900000D03*
X43075000Y-3900000D03*
X49625000Y7600000D03*
X36755000Y12770000D03*
X35565000Y12740000D03*
X28025000Y5000000D03*
X52825000Y10275000D03*
X52825000Y9250000D03*
X52825000Y11300000D03*
X25025000Y4800000D03*
X18669000Y11684000D03*
D25*
X88165000Y10290000D03*
D24*
X38325000Y-13200000D03*
D25*
X103165000Y-5210000D03*
D24*
X33925000Y9300000D03*
D25*
X88165000Y-5210000D03*
D24*
X38325000Y-12100000D03*
X24615000Y-6360000D03*
X15250000Y-10500000D03*
D25*
X98165000Y10290000D03*
X98165000Y-5210000D03*
D24*
X38325000Y4800000D03*
X15113000Y11684000D03*
D25*
X93165000Y10290000D03*
X93165000Y-5210000D03*
D24*
X16891000Y11684000D03*
D25*
X103165000Y10290000D03*
D24*
X31025000Y-8800000D03*
%TO.N,VCC*%
X29025000Y-200000D03*
D25*
X20193000Y-5334000D03*
D24*
X31625000Y5300000D03*
%TO.N,ENABLE*%
X48225000Y-3900000D03*
%TO.N,TXD0*%
X29825000Y1000000D03*
X24225000Y-2900008D03*
D25*
%TO.N,unconnected-(F1-Pad2)*%
X-30025000Y10290000D03*
X-20025000Y10290000D03*
X-30025000Y-5210000D03*
X-25025000Y10290000D03*
X-20025000Y-5210000D03*
X-25025000Y-5210000D03*
X-35025000Y-5210000D03*
X-35025000Y10290000D03*
D24*
%TO.N,VREF*%
X32165000Y-1795000D03*
X32325000Y-5900002D03*
%TO.N,PA6*%
X33025000Y-4900000D03*
X33435000Y-1795000D03*
%TO.N,RESET*%
X34225000Y1400000D03*
%TO.N,PA7*%
X45825000Y-3487486D03*
X35025000Y-200002D03*
X34825000Y-4572000D03*
%TO.N,REF_EN*%
X30735000Y-7512500D03*
X33020000Y1371600D03*
%TO.N,Net-(Q1-G)*%
X63535000Y-13600000D03*
X37225000Y9702800D03*
%TD*%
D26*
%TO.N,ENABLE*%
X35975000Y3155000D02*
X35625000Y3505000D01*
X35625000Y3505000D02*
X35625000Y9685800D01*
X35625000Y9685800D02*
X36404000Y10464800D01*
X36404000Y10464800D02*
X42240200Y10464800D01*
D27*
%TO.N,PA3*%
X29525000Y5987500D02*
X30312500Y5987500D01*
X30312500Y5987500D02*
X31125000Y6800000D01*
X31125000Y6800000D02*
X31125000Y8550000D01*
X31125000Y8550000D02*
X33751000Y11176000D01*
X33751000Y11176000D02*
X41021000Y11176000D01*
X41021000Y11176000D02*
X42545000Y12700000D01*
D28*
%TO.N,GND*%
X1750000Y3350000D02*
X8150000Y3350000D01*
D29*
X61737500Y-10587500D02*
X61725000Y-10575000D01*
D28*
X88265000Y12065000D02*
X64135000Y12065000D01*
D30*
X8250000Y3250000D02*
X8150000Y3350000D01*
D29*
X63825000Y-10587500D02*
X61737500Y-10587500D01*
D31*
%TO.N,VCC*%
X29025000Y-200000D02*
X29025000Y-610000D01*
D28*
X1750000Y11077000D02*
X381000Y12446000D01*
X381000Y12446000D02*
X127000Y12446000D01*
X1750000Y7650000D02*
X1750000Y11077000D01*
D31*
X27405000Y-2230000D02*
X29190000Y-2230000D01*
D27*
X56667500Y5562500D02*
X56032500Y5562500D01*
X55880000Y5715000D02*
X55727500Y5562500D01*
D31*
X27415000Y1690000D02*
X29025000Y80000D01*
D27*
X56032500Y5562500D02*
X55880000Y5715000D01*
D30*
X19432500Y-5270000D02*
X13271000Y-5270000D01*
D27*
X55727500Y5562500D02*
X54975000Y5562500D01*
D31*
X26225000Y2880000D02*
X27415000Y1690000D01*
D32*
X43675000Y5562500D02*
X54975000Y5562500D01*
D28*
X1750000Y11077000D02*
X1750000Y12000000D01*
D31*
X26289990Y12164990D02*
X26225000Y12100000D01*
D27*
X60587500Y-2162500D02*
X57762500Y662500D01*
X57762500Y662500D02*
X57762500Y4467500D01*
D31*
X29190000Y-2230000D02*
X29625000Y-1795000D01*
D28*
X1750000Y12000000D02*
X5500000Y15750000D01*
X51225000Y15325000D02*
X51225000Y5987500D01*
D26*
X32257500Y5300000D02*
X31625000Y5300000D01*
D31*
X29125000Y15000000D02*
X26289990Y12164990D01*
D30*
X11557000Y-3556000D02*
X11557000Y-1270000D01*
X13271000Y-5270000D02*
X11557000Y-3556000D01*
D27*
X62240000Y-2162500D02*
X60587500Y-2162500D01*
D26*
X32865000Y5907500D02*
X32257500Y5300000D01*
D30*
X19432500Y-5270000D02*
X20129000Y-5270000D01*
D28*
X5500000Y15750000D02*
X50800000Y15750000D01*
D31*
X29025000Y-610000D02*
X27405000Y-2230000D01*
D27*
X57762500Y4467500D02*
X56667500Y5562500D01*
D31*
X29025000Y80000D02*
X29025000Y-200000D01*
D30*
X20129000Y-5270000D02*
X20193000Y-5334000D01*
D28*
X50800000Y15750000D02*
X51225000Y15325000D01*
D31*
X26225000Y12100000D02*
X26225000Y2880000D01*
D26*
%TO.N,RXD0*%
X22625000Y-6500000D02*
X22625000Y-3920000D01*
D30*
X19432500Y-1460000D02*
X14287000Y-1460000D01*
D26*
X20225000Y-1520000D02*
X20165000Y-1460000D01*
X35145000Y-3600000D02*
X25675000Y-3600000D01*
X35975000Y-2770000D02*
X35145000Y-3600000D01*
X25675000Y-3600000D02*
X25005000Y-4270000D01*
X22975000Y-4270000D02*
X20225000Y-1520000D01*
D30*
X14287000Y-1460000D02*
X14097000Y-1270000D01*
D26*
X21625000Y-10737500D02*
X21625000Y-7500000D01*
X21625000Y-7500000D02*
X22625000Y-6500000D01*
X25005000Y-4270000D02*
X22975000Y-4270000D01*
X22625000Y-3920000D02*
X20225000Y-1520000D01*
X20165000Y-1460000D02*
X19432500Y-1460000D01*
X35975000Y-1795000D02*
X35975000Y-2770000D01*
%TO.N,ENABLE*%
X45825000Y-5312500D02*
X46812500Y-5312500D01*
X46812500Y-5312500D02*
X48225000Y-3900000D01*
%TO.N,Net-(R5-Pad1)*%
X23790000Y4387500D02*
X23615000Y4562500D01*
X23790000Y647500D02*
X23790000Y4387500D01*
X24225000Y212500D02*
X23790000Y647500D01*
%TO.N,TXD0*%
X30224999Y600001D02*
X29825000Y1000000D01*
X37024003Y600001D02*
X30224999Y600001D01*
X37245000Y-1795000D02*
X37245000Y379004D01*
X37245000Y379004D02*
X37024003Y600001D01*
X24225000Y-1612500D02*
X24225000Y-2900008D01*
D33*
%TO.N,Net-(R6-Pad2)*%
X42975000Y-1595834D02*
X42975000Y887500D01*
D27*
%TO.N,Net-(D3-K)*%
X62195000Y-5687500D02*
X62195000Y-4082500D01*
D26*
%TO.N,Net-(D4-K)*%
X24062500Y-11037500D02*
X23650000Y-11037500D01*
X25737500Y-12712500D02*
X24062500Y-11037500D01*
X26325000Y-12712500D02*
X25737500Y-12712500D01*
D28*
%TO.N,unconnected-(F1-Pad2)*%
X-5080000Y12250000D02*
X-15232500Y12250000D01*
D30*
X-14790000Y12250000D02*
X-15240000Y12700000D01*
D26*
%TO.N,DUMP_LOAD_ENABLE*%
X37245000Y5267500D02*
X36725000Y5787500D01*
X37245000Y3155000D02*
X37245000Y5267500D01*
D33*
%TO.N,Net-(R22-Pad2)*%
X52525000Y-1545834D02*
X52525000Y937500D01*
%TO.N,Net-(R24-Pad2)*%
X48425000Y-1570834D02*
X48425000Y912500D01*
D26*
%TO.N,VREF*%
X30735000Y-5687500D02*
X30780010Y-5642490D01*
X32112498Y-5687500D02*
X32325000Y-5900002D01*
X30780010Y-5642490D02*
X30780010Y-5610000D01*
X30735000Y-5687500D02*
X32112498Y-5687500D01*
X28785000Y-7510000D02*
X28785000Y-5610000D01*
X28785000Y-5610000D02*
X30780010Y-5610000D01*
D33*
%TO.N,Net-(R10-Pad1)*%
X42975000Y-8237500D02*
X42975000Y-6220834D01*
%TO.N,Net-(R25-Pad2)*%
X52525000Y-8187500D02*
X52525000Y-6170834D01*
%TO.N,Net-(R26-Pad2)*%
X48425000Y-8212500D02*
X48425000Y-6195834D01*
D27*
%TO.N,PA6*%
X25825000Y-10637500D02*
X25825000Y-4810000D01*
X25825000Y-4810000D02*
X26235000Y-4400000D01*
X26235000Y-4400000D02*
X32525000Y-4400000D01*
X32525000Y-4400000D02*
X33025000Y-4900000D01*
X26325000Y-11137500D02*
X25825000Y-10637500D01*
D26*
%TO.N,PA3*%
X30895000Y3155000D02*
X30895000Y4817500D01*
X30895000Y4817500D02*
X29725000Y5987500D01*
X29725000Y5987500D02*
X29525000Y5987500D01*
%TO.N,RESET*%
X33565000Y7732500D02*
X32865000Y7732500D01*
X34705000Y3155000D02*
X34705000Y1880000D01*
X34705000Y1880000D02*
X34225000Y1400000D01*
X34705000Y6592500D02*
X33565000Y7732500D01*
X34705000Y3155000D02*
X34705000Y6592500D01*
%TO.N,PA7*%
X34705000Y-520002D02*
X35025000Y-200002D01*
X34725000Y-5687500D02*
X34725000Y-4375010D01*
X34705000Y-1795000D02*
X34705000Y-520002D01*
%TO.N,REF_EN*%
X33435000Y3155000D02*
X33435000Y1710000D01*
X33435000Y1710000D02*
X33025000Y1300000D01*
D33*
%TO.N,Net-(Q1-D)*%
X55992500Y-12812500D02*
X55880000Y-12700000D01*
X55880000Y-12700000D02*
X55767500Y-12812500D01*
D27*
X62195000Y-7880000D02*
X59725000Y-10350000D01*
D33*
X48450000Y-12812500D02*
X48425000Y-12837500D01*
X59725000Y-11525000D02*
X58437500Y-12812500D01*
D27*
X59725000Y-10350000D02*
X59725000Y-11525000D01*
D33*
X52525000Y-12812500D02*
X48450000Y-12812500D01*
X58437500Y-12812500D02*
X55992500Y-12812500D01*
D27*
X62195000Y-7512500D02*
X62195000Y-7880000D01*
D33*
X48425000Y-12837500D02*
X43000000Y-12837500D01*
X43000000Y-12837500D02*
X42975000Y-12862500D01*
X55767500Y-12812500D02*
X52625000Y-12812500D01*
D27*
%TO.N,Net-(Q1-G)*%
X63535000Y-12702500D02*
X63825000Y-12412500D01*
X63535000Y-13600000D02*
X63535000Y-12702500D01*
D31*
X63825000Y-12412500D02*
X61787500Y-12412500D01*
D26*
X36725000Y7612500D02*
X36725000Y9124999D01*
D31*
X61787500Y-12412500D02*
X61725000Y-12475000D01*
D26*
X36725000Y9124999D02*
X37225000Y9624999D01*
D30*
%TO.N,Net-(TX1-Pin_1)*%
X20225000Y6100000D02*
X17325000Y6100000D01*
D26*
X21463000Y7338000D02*
X21463000Y13000000D01*
D30*
X11557000Y6096000D02*
X11557000Y4572000D01*
D26*
X24838750Y13000000D02*
X24885000Y12953750D01*
X21463000Y13000000D02*
X24838750Y13000000D01*
D30*
X12065000Y6604000D02*
X11557000Y6096000D01*
D26*
X24885000Y12953750D02*
X24885000Y10937500D01*
D30*
X17325000Y6100000D02*
X16825000Y6600000D01*
D26*
X20225000Y6100000D02*
X21463000Y7338000D01*
D30*
X16825000Y6600000D02*
X14355000Y6600000D01*
X14351000Y6604000D02*
X12065000Y6604000D01*
D26*
%TO.N,Net-(TX1-Pin_2)*%
X22352000Y4417000D02*
X20285000Y2350000D01*
D30*
X19432500Y2350000D02*
X16319000Y2350000D01*
D26*
X20285000Y2350000D02*
X19432500Y2350000D01*
X22352000Y9674500D02*
X22352000Y4417000D01*
X23615000Y10937500D02*
X22352000Y9674500D01*
D30*
X16319000Y2350000D02*
X14097000Y4572000D01*
%TD*%
%TA.AperFunction,Conductor*%
%TO.N,GND*%
G36*
X27057750Y14221498D02*
G01*
X27104243Y14167842D01*
X27114347Y14097568D01*
X27084853Y14032988D01*
X27078739Y14026421D01*
X26411756Y13359438D01*
X25756805Y12704488D01*
X25734220Y12681904D01*
X25720391Y12669950D01*
X25719764Y12669483D01*
X25653184Y12644834D01*
X25583847Y12660093D01*
X25533766Y12710417D01*
X25518500Y12770534D01*
X25518500Y12869901D01*
X25520249Y12885737D01*
X25519955Y12885764D01*
X25520699Y12893653D01*
X25520701Y12893659D01*
X25518530Y12962709D01*
X25518499Y12964691D01*
X25518499Y12978117D01*
X25518500Y12993606D01*
X25517620Y13000566D01*
X25517154Y13006475D01*
X25515673Y13053640D01*
X25510022Y13073087D01*
X25506012Y13092450D01*
X25503474Y13112547D01*
X25486100Y13156427D01*
X25484184Y13162025D01*
X25471018Y13207344D01*
X25460700Y13224789D01*
X25452005Y13242541D01*
X25444553Y13261365D01*
X25444550Y13261371D01*
X25416818Y13299540D01*
X25413562Y13304497D01*
X25389542Y13345113D01*
X25389540Y13345115D01*
X25389540Y13345116D01*
X25375218Y13359438D01*
X25362377Y13374471D01*
X25350471Y13390858D01*
X25346228Y13394368D01*
X25330881Y13407064D01*
X25327934Y13409662D01*
X25280376Y13454322D01*
X25278986Y13455669D01*
X25264336Y13470319D01*
X25258526Y13476130D01*
X25258522Y13476134D01*
X25252975Y13480437D01*
X25248467Y13484288D01*
X25214075Y13516583D01*
X25214069Y13516587D01*
X25196313Y13526349D01*
X25179797Y13537198D01*
X25163791Y13549614D01*
X25133039Y13562922D01*
X25120490Y13568352D01*
X25115158Y13570964D01*
X25073811Y13593695D01*
X25054186Y13598734D01*
X25035486Y13605136D01*
X25016895Y13613181D01*
X25016893Y13613182D01*
X25016892Y13613182D01*
X24970292Y13620563D01*
X24964479Y13621767D01*
X24918780Y13633500D01*
X24898526Y13633500D01*
X24878816Y13635051D01*
X24858807Y13638220D01*
X24858806Y13638220D01*
X24811833Y13633780D01*
X24805900Y13633500D01*
X21534794Y13633500D01*
X21511183Y13635732D01*
X21509340Y13636084D01*
X21503096Y13637275D01*
X21503090Y13637275D01*
X21488622Y13636365D01*
X21445050Y13633624D01*
X21441117Y13633500D01*
X21423137Y13633500D01*
X21405312Y13631249D01*
X21401377Y13630877D01*
X21343353Y13627226D01*
X21343340Y13627223D01*
X21335508Y13624678D01*
X21312374Y13619507D01*
X21304210Y13618476D01*
X21304200Y13618473D01*
X21250164Y13597080D01*
X21246443Y13595741D01*
X21191122Y13577763D01*
X21184160Y13573345D01*
X21163037Y13562583D01*
X21155383Y13559553D01*
X21108355Y13525386D01*
X21105084Y13523163D01*
X21055985Y13492004D01*
X21055975Y13491995D01*
X21050331Y13485985D01*
X21032562Y13470319D01*
X21025896Y13465475D01*
X21025890Y13465470D01*
X20988836Y13420680D01*
X20986220Y13417712D01*
X20946417Y13375325D01*
X20946414Y13375321D01*
X20942441Y13368095D01*
X20929125Y13348502D01*
X20923868Y13342148D01*
X20923866Y13342144D01*
X20899105Y13289525D01*
X20897309Y13286001D01*
X20869306Y13235062D01*
X20869302Y13235052D01*
X20867253Y13227073D01*
X20859225Y13204775D01*
X20855718Y13197323D01*
X20855716Y13197316D01*
X20844822Y13140212D01*
X20843959Y13136351D01*
X20829500Y13080032D01*
X20829500Y13071794D01*
X20827268Y13048182D01*
X20825725Y13040097D01*
X20825725Y13040094D01*
X20829376Y12982051D01*
X20829500Y12978117D01*
X20829500Y7652595D01*
X20809498Y7584474D01*
X20792595Y7563500D01*
X19974500Y6745405D01*
X19912188Y6711379D01*
X19885405Y6708500D01*
X17629239Y6708500D01*
X17561118Y6728502D01*
X17540144Y6745405D01*
X17414579Y6870970D01*
X17286390Y6999159D01*
X17280963Y7005347D01*
X17258987Y7033987D01*
X17227074Y7058475D01*
X17227074Y7058476D01*
X17131882Y7131520D01*
X17131874Y7131525D01*
X16983849Y7192839D01*
X16963068Y7195574D01*
X16861227Y7208982D01*
X16861197Y7208985D01*
X16825002Y7213750D01*
X16824999Y7213750D01*
X16789219Y7209040D01*
X16780988Y7208500D01*
X14425400Y7208500D01*
X14417178Y7209039D01*
X14400879Y7211185D01*
X14390888Y7212500D01*
X14390885Y7212500D01*
X12109011Y7212500D01*
X12100779Y7213040D01*
X12065001Y7217750D01*
X12064998Y7217750D01*
X12029203Y7213039D01*
X12029204Y7213038D01*
X12025117Y7212500D01*
X12025115Y7212500D01*
X11998834Y7209040D01*
X11906151Y7196839D01*
X11758127Y7135526D01*
X11732318Y7115724D01*
X11732319Y7115723D01*
X11663921Y7063239D01*
X11663866Y7063199D01*
X11631012Y7037987D01*
X11609035Y7009347D01*
X11603597Y7003147D01*
X11157852Y6557402D01*
X11151651Y6551964D01*
X11123011Y6529986D01*
X11097509Y6496754D01*
X11097440Y6496661D01*
X11025477Y6402878D01*
X11025476Y6402876D01*
X10983093Y6300554D01*
X10964162Y6254851D01*
X10963226Y6247741D01*
X10960267Y6225261D01*
X10948500Y6135885D01*
X10948500Y6135880D01*
X10946733Y6122457D01*
X10943250Y6096001D01*
X10943250Y6096000D01*
X10946285Y6072946D01*
X10935346Y6002797D01*
X10888217Y5949699D01*
X10821363Y5930500D01*
X10658350Y5930500D01*
X10597803Y5923991D01*
X10597795Y5923989D01*
X10460797Y5872890D01*
X10460792Y5872888D01*
X10343738Y5785262D01*
X10256112Y5668208D01*
X10256110Y5668203D01*
X10205011Y5531205D01*
X10205009Y5531197D01*
X10198500Y5470650D01*
X10198500Y3673351D01*
X10205009Y3612804D01*
X10205011Y3612796D01*
X10256110Y3475798D01*
X10256112Y3475793D01*
X10343738Y3358739D01*
X10460792Y3271113D01*
X10460794Y3271112D01*
X10460796Y3271111D01*
X10505114Y3254581D01*
X10597795Y3220012D01*
X10597803Y3220010D01*
X10658350Y3213501D01*
X10658355Y3213501D01*
X10658362Y3213500D01*
X10658368Y3213500D01*
X12455632Y3213500D01*
X12455638Y3213500D01*
X12455645Y3213501D01*
X12455649Y3213501D01*
X12516196Y3220010D01*
X12516199Y3220011D01*
X12516201Y3220011D01*
X12653204Y3271111D01*
X12682895Y3293337D01*
X12770261Y3358739D01*
X12857886Y3475792D01*
X12857885Y3475792D01*
X12857889Y3475796D01*
X12901999Y3594061D01*
X12944545Y3650893D01*
X13011066Y3675704D01*
X13080440Y3660612D01*
X13112753Y3635365D01*
X13173760Y3569094D01*
X13173762Y3569092D01*
X13217291Y3535212D01*
X13351424Y3430811D01*
X13549426Y3323658D01*
X13549427Y3323658D01*
X13549428Y3323657D01*
X13637748Y3293337D01*
X13762365Y3250556D01*
X13984431Y3213500D01*
X13984435Y3213500D01*
X14209565Y3213500D01*
X14209569Y3213500D01*
X14431635Y3250556D01*
X14451232Y3257285D01*
X14522155Y3260488D01*
X14581243Y3227208D01*
X15857605Y1950846D01*
X15863037Y1944652D01*
X15885012Y1916014D01*
X15914836Y1893129D01*
X15914873Y1893099D01*
X16012117Y1818481D01*
X16012124Y1818476D01*
X16160149Y1757162D01*
X16203992Y1751390D01*
X16318999Y1736249D01*
X16319000Y1736249D01*
X16319001Y1736249D01*
X16354789Y1740960D01*
X16363020Y1741500D01*
X19239186Y1741500D01*
X19270520Y1737542D01*
X19352470Y1716500D01*
X20201147Y1716500D01*
X20216988Y1714751D01*
X20217016Y1715044D01*
X20224901Y1714300D01*
X20224909Y1714298D01*
X20286208Y1716225D01*
X20293976Y1716469D01*
X20295955Y1716500D01*
X20324851Y1716500D01*
X20324856Y1716500D01*
X20331818Y1717381D01*
X20337719Y1717846D01*
X20384889Y1719327D01*
X20404347Y1724981D01*
X20423694Y1728987D01*
X20443797Y1731526D01*
X20487679Y1748901D01*
X20493274Y1750817D01*
X20521816Y1759109D01*
X20538591Y1763981D01*
X20538595Y1763983D01*
X20556026Y1774292D01*
X20573780Y1782991D01*
X20592617Y1790448D01*
X20630786Y1818182D01*
X20635744Y1821438D01*
X20676362Y1845458D01*
X20690685Y1859782D01*
X20705724Y1872626D01*
X20707650Y1874025D01*
X20722107Y1884528D01*
X20752193Y1920897D01*
X20756161Y1925259D01*
X22617733Y3786831D01*
X22680043Y3820855D01*
X22750858Y3815790D01*
X22807694Y3773243D01*
X22827823Y3732887D01*
X22855856Y3636395D01*
X22940544Y3493197D01*
X22940549Y3493190D01*
X23058188Y3375551D01*
X23058190Y3375550D01*
X23058193Y3375547D01*
X23094640Y3353993D01*
X23143092Y3302101D01*
X23156500Y3245540D01*
X23156500Y952821D01*
X23137741Y886674D01*
X23082887Y797743D01*
X23082885Y797740D01*
X23082885Y797738D01*
X23073815Y770366D01*
X23027113Y629427D01*
X23027112Y629421D01*
X23016500Y525554D01*
X23016500Y-100544D01*
X23027112Y-204425D01*
X23082885Y-372738D01*
X23175970Y-523652D01*
X23175975Y-523658D01*
X23263222Y-610905D01*
X23297248Y-673217D01*
X23292183Y-744032D01*
X23263222Y-789095D01*
X23175975Y-876341D01*
X23175970Y-876347D01*
X23082885Y-1027262D01*
X23027113Y-1195572D01*
X23027112Y-1195579D01*
X23016500Y-1299446D01*
X23016500Y-1925544D01*
X23027112Y-2029425D01*
X23082885Y-2197738D01*
X23175970Y-2348652D01*
X23175975Y-2348658D01*
X23301341Y-2474024D01*
X23301346Y-2474028D01*
X23301348Y-2474030D01*
X23306029Y-2476917D01*
X23353509Y-2529698D01*
X23364916Y-2599772D01*
X23359720Y-2623096D01*
X23331457Y-2710078D01*
X23311496Y-2900007D01*
X23331457Y-3089935D01*
X23349171Y-3144450D01*
X23390473Y-3271564D01*
X23443291Y-3363048D01*
X23489262Y-3442671D01*
X23488060Y-3443364D01*
X23509446Y-3503315D01*
X23493361Y-3572465D01*
X23442444Y-3621942D01*
X23383651Y-3636500D01*
X23289595Y-3636500D01*
X23221474Y-3616498D01*
X23200500Y-3599595D01*
X23115218Y-3514313D01*
X23102376Y-3499278D01*
X23090472Y-3482893D01*
X23054108Y-3452810D01*
X23049736Y-3448831D01*
X20672244Y-1071338D01*
X20662279Y-1058901D01*
X20662052Y-1059090D01*
X20657001Y-1052984D01*
X20657000Y-1052982D01*
X20649164Y-1045624D01*
X20606624Y-1005676D01*
X20605234Y-1004329D01*
X20594989Y-994084D01*
X20584776Y-983870D01*
X20584772Y-983866D01*
X20579225Y-979563D01*
X20574717Y-975712D01*
X20540325Y-943417D01*
X20540319Y-943413D01*
X20522563Y-933651D01*
X20506047Y-922802D01*
X20490041Y-910386D01*
X20459289Y-897078D01*
X20446740Y-891648D01*
X20441408Y-889036D01*
X20400061Y-866305D01*
X20380436Y-861266D01*
X20361736Y-854864D01*
X20353962Y-851500D01*
X20343145Y-846819D01*
X20343143Y-846818D01*
X20343142Y-846818D01*
X20296542Y-839437D01*
X20290729Y-838233D01*
X20245030Y-826500D01*
X20224776Y-826500D01*
X20205066Y-824949D01*
X20185057Y-821780D01*
X20185056Y-821780D01*
X20138083Y-826220D01*
X20132150Y-826500D01*
X19392644Y-826500D01*
X19392641Y-826500D01*
X19392629Y-826501D01*
X19273705Y-841525D01*
X19270859Y-842652D01*
X19224475Y-851500D01*
X15581500Y-851500D01*
X15513379Y-831498D01*
X15466886Y-777842D01*
X15455500Y-725500D01*
X15455500Y-371367D01*
X15455499Y-371350D01*
X15448990Y-310803D01*
X15448988Y-310795D01*
X15409314Y-204427D01*
X15397889Y-173796D01*
X15397888Y-173794D01*
X15397887Y-173792D01*
X15310261Y-56738D01*
X15193207Y30888D01*
X15193202Y30890D01*
X15056204Y81989D01*
X15056196Y81991D01*
X14995649Y88500D01*
X14995638Y88500D01*
X13198362Y88500D01*
X13198350Y88500D01*
X13137803Y81991D01*
X13137795Y81989D01*
X13000797Y30890D01*
X13000792Y30888D01*
X12883738Y-56738D01*
X12796112Y-173792D01*
X12796111Y-173795D01*
X12752000Y-292058D01*
X12709453Y-348893D01*
X12642932Y-373703D01*
X12573558Y-358611D01*
X12541246Y-333363D01*
X12480240Y-267094D01*
X12480239Y-267093D01*
X12480237Y-267091D01*
X12391324Y-197887D01*
X12302576Y-128811D01*
X12104574Y-21658D01*
X12104572Y-21657D01*
X12104571Y-21656D01*
X11891639Y51443D01*
X11891630Y51445D01*
X11847476Y58813D01*
X11669569Y88500D01*
X11444431Y88500D01*
X11296210Y63767D01*
X11222369Y51445D01*
X11222360Y51443D01*
X11009428Y-21656D01*
X11009426Y-21658D01*
X10833037Y-117115D01*
X10811426Y-128810D01*
X10811424Y-128811D01*
X10633762Y-267091D01*
X10481279Y-432729D01*
X10481275Y-432734D01*
X10358141Y-621206D01*
X10267703Y-827386D01*
X10267702Y-827387D01*
X10212437Y-1045624D01*
X10212436Y-1045630D01*
X10212436Y-1045632D01*
X10193844Y-1270000D01*
X10209005Y-1452968D01*
X10212437Y-1494375D01*
X10267702Y-1712612D01*
X10267703Y-1712613D01*
X10267704Y-1712616D01*
X10336136Y-1868626D01*
X10358141Y-1918793D01*
X10481275Y-2107265D01*
X10481279Y-2107270D01*
X10633762Y-2272908D01*
X10712776Y-2334407D01*
X10811424Y-2411189D01*
X10882469Y-2449636D01*
X10932859Y-2499648D01*
X10948499Y-2560449D01*
X10948499Y-3511984D01*
X10947960Y-3520214D01*
X10943250Y-3555999D01*
X10948640Y-3596952D01*
X10948644Y-3596983D01*
X10960224Y-3684939D01*
X10964161Y-3714849D01*
X10999661Y-3800552D01*
X11025476Y-3862876D01*
X11057358Y-3904425D01*
X11098522Y-3958071D01*
X11098525Y-3958074D01*
X11123014Y-3989988D01*
X11151651Y-4011962D01*
X11157844Y-4017393D01*
X12809605Y-5669154D01*
X12815037Y-5675348D01*
X12836952Y-5703908D01*
X12837014Y-5703988D01*
X12866425Y-5726556D01*
X12866459Y-5726583D01*
X12958352Y-5797095D01*
X12964124Y-5801524D01*
X13112149Y-5862838D01*
X13131543Y-5865391D01*
X13231115Y-5878500D01*
X13231120Y-5878500D01*
X13271000Y-5883750D01*
X13306781Y-5879040D01*
X13315012Y-5878500D01*
X19392615Y-5878500D01*
X19541918Y-5878500D01*
X19610039Y-5898502D01*
X19631008Y-5915400D01*
X19685719Y-5970111D01*
X19685721Y-5970113D01*
X19839981Y-6067041D01*
X19839982Y-6067041D01*
X19839985Y-6067043D01*
X20011953Y-6127217D01*
X20193000Y-6147616D01*
X20374047Y-6127217D01*
X20546015Y-6067043D01*
X20700281Y-5970111D01*
X20829111Y-5841281D01*
X20926043Y-5687015D01*
X20986217Y-5515047D01*
X21006616Y-5334000D01*
X20986217Y-5152953D01*
X20926043Y-4980985D01*
X20926041Y-4980982D01*
X20926041Y-4980981D01*
X20829112Y-4826720D01*
X20829111Y-4826718D01*
X20700281Y-4697888D01*
X20700279Y-4697887D01*
X20546018Y-4600958D01*
X20546015Y-4600957D01*
X20374050Y-4540784D01*
X20374049Y-4540783D01*
X20374047Y-4540783D01*
X20193000Y-4520384D01*
X20011953Y-4540783D01*
X20011950Y-4540783D01*
X20011949Y-4540784D01*
X19839985Y-4600956D01*
X19795163Y-4629120D01*
X19774367Y-4642187D01*
X19707332Y-4661500D01*
X13575239Y-4661500D01*
X13507118Y-4641498D01*
X13486144Y-4624595D01*
X12202405Y-3340856D01*
X12168379Y-3278544D01*
X12165500Y-3251761D01*
X12165500Y-2560449D01*
X12185502Y-2492328D01*
X12231530Y-2449636D01*
X12302576Y-2411189D01*
X12480240Y-2272906D01*
X12541245Y-2206637D01*
X12602096Y-2170067D01*
X12673061Y-2172200D01*
X12731606Y-2212362D01*
X12752000Y-2247941D01*
X12796111Y-2366204D01*
X12796112Y-2366207D01*
X12883738Y-2483261D01*
X13000792Y-2570887D01*
X13000794Y-2570888D01*
X13000796Y-2570889D01*
X13040184Y-2585580D01*
X13137795Y-2621988D01*
X13137803Y-2621990D01*
X13198350Y-2628499D01*
X13198355Y-2628499D01*
X13198362Y-2628500D01*
X13198368Y-2628500D01*
X14995632Y-2628500D01*
X14995638Y-2628500D01*
X14995645Y-2628499D01*
X14995649Y-2628499D01*
X15056196Y-2621990D01*
X15056199Y-2621989D01*
X15056201Y-2621989D01*
X15193204Y-2570889D01*
X15198556Y-2566883D01*
X15310261Y-2483261D01*
X15397887Y-2366207D01*
X15397887Y-2366206D01*
X15397889Y-2366204D01*
X15448989Y-2229201D01*
X15450800Y-2212362D01*
X15454168Y-2181032D01*
X15481337Y-2115440D01*
X15539654Y-2074948D01*
X15579446Y-2068500D01*
X19239186Y-2068500D01*
X19270520Y-2072458D01*
X19352470Y-2093500D01*
X19850406Y-2093500D01*
X19918527Y-2113502D01*
X19939501Y-2130405D01*
X21954595Y-4145499D01*
X21988621Y-4207811D01*
X21991500Y-4234594D01*
X21991499Y-6185405D01*
X21971497Y-6253526D01*
X21954594Y-6274500D01*
X21236340Y-6992754D01*
X21223903Y-7002719D01*
X21224091Y-7002946D01*
X21217981Y-7007999D01*
X21170693Y-7058355D01*
X21169319Y-7059774D01*
X21148863Y-7080231D01*
X21144560Y-7085777D01*
X21140714Y-7090279D01*
X21108417Y-7124674D01*
X21108411Y-7124683D01*
X21098651Y-7142435D01*
X21087803Y-7158950D01*
X21075386Y-7174958D01*
X21056645Y-7218264D01*
X21054034Y-7223594D01*
X21031305Y-7264939D01*
X21031303Y-7264944D01*
X21026267Y-7284559D01*
X21019864Y-7303262D01*
X21011819Y-7321852D01*
X21004437Y-7368456D01*
X21003233Y-7374268D01*
X20991500Y-7419968D01*
X20991500Y-7440223D01*
X20989949Y-7459933D01*
X20986780Y-7479942D01*
X20986780Y-7479943D01*
X20991220Y-7526917D01*
X20991500Y-7532850D01*
X20991500Y-9645761D01*
X20971498Y-9713882D01*
X20917842Y-9760375D01*
X20905133Y-9765365D01*
X20852265Y-9782883D01*
X20701347Y-9875970D01*
X20701341Y-9875975D01*
X20575975Y-10001341D01*
X20575970Y-10001347D01*
X20482885Y-10152262D01*
X20427113Y-10320572D01*
X20427112Y-10320579D01*
X20416500Y-10424446D01*
X20416500Y-11050544D01*
X20427112Y-11154425D01*
X20482885Y-11322738D01*
X20575970Y-11473652D01*
X20575975Y-11473658D01*
X20663576Y-11561259D01*
X20697602Y-11623571D01*
X20692537Y-11694386D01*
X20663576Y-11739449D01*
X20576370Y-11826654D01*
X20576365Y-11826660D01*
X20483342Y-11977474D01*
X20427606Y-12145678D01*
X20427605Y-12145682D01*
X20420778Y-12212498D01*
X20420780Y-12212500D01*
X23874000Y-12212500D01*
X23942121Y-12232502D01*
X23988614Y-12286158D01*
X24000000Y-12338500D01*
X24000000Y-12786500D01*
X23979998Y-12854621D01*
X23926342Y-12901114D01*
X23874000Y-12912500D01*
X20420780Y-12912500D01*
X20420778Y-12912501D01*
X20427605Y-12979317D01*
X20427606Y-12979321D01*
X20483342Y-13147525D01*
X20576365Y-13298339D01*
X20576370Y-13298345D01*
X20662462Y-13384437D01*
X20696488Y-13446749D01*
X20691423Y-13517564D01*
X20648876Y-13574400D01*
X20582356Y-13599211D01*
X20573421Y-13599532D01*
X9772115Y-13604126D01*
X9703985Y-13584153D01*
X9683095Y-13567351D01*
X8350686Y-12238818D01*
X7751928Y-11641802D01*
X7717814Y-11579541D01*
X7714895Y-11552891D01*
X7714891Y-11551471D01*
X7651044Y14115188D01*
X7670877Y14183357D01*
X7724417Y14229983D01*
X7777044Y14241500D01*
X26989629Y14241500D01*
X27057750Y14221498D01*
G37*
%TD.AperFunction*%
%TA.AperFunction,Conductor*%
G36*
X49658621Y14221498D02*
G01*
X49705114Y14167842D01*
X49716500Y14115500D01*
X49716500Y6947000D01*
X49696498Y6878879D01*
X49642842Y6832386D01*
X49590500Y6821000D01*
X43618478Y6821000D01*
X43586992Y6818167D01*
X43449376Y6805782D01*
X43449376Y6805781D01*
X43231009Y6745516D01*
X43024317Y6645978D01*
X42969648Y6633500D01*
X41849455Y6633500D01*
X41745574Y6622888D01*
X41577261Y6567115D01*
X41426347Y6474030D01*
X41426341Y6474025D01*
X41300975Y6348659D01*
X41300970Y6348653D01*
X41207885Y6197738D01*
X41152113Y6029428D01*
X41152112Y6029421D01*
X41141500Y5925554D01*
X41141500Y5099456D01*
X41152112Y4995575D01*
X41207885Y4827262D01*
X41300970Y4676348D01*
X41300975Y4676342D01*
X41426341Y4550976D01*
X41426347Y4550971D01*
X41426348Y4550970D01*
X41577262Y4457885D01*
X41745574Y4402113D01*
X41849455Y4391500D01*
X43190602Y4391501D01*
X43234875Y4383467D01*
X43266498Y4371599D01*
X43338839Y4344449D01*
X43338841Y4344449D01*
X43338843Y4344448D01*
X43561730Y4304000D01*
X43561733Y4304000D01*
X53745500Y4304000D01*
X53813621Y4283998D01*
X53860114Y4230342D01*
X53871500Y4178000D01*
X53871500Y3988551D01*
X53878009Y3928004D01*
X53878011Y3927996D01*
X53929110Y3790998D01*
X53929112Y3790993D01*
X54016738Y3673939D01*
X54133792Y3586313D01*
X54133794Y3586312D01*
X54133796Y3586311D01*
X54192875Y3564276D01*
X54270795Y3535212D01*
X54270803Y3535210D01*
X54331350Y3528701D01*
X54331355Y3528701D01*
X54331362Y3528700D01*
X56978000Y3528700D01*
X57046121Y3508698D01*
X57092614Y3455042D01*
X57104000Y3402700D01*
X57104000Y749111D01*
X57102208Y732880D01*
X57102458Y732856D01*
X57101711Y724964D01*
X57103969Y653142D01*
X57104000Y651163D01*
X57104000Y621070D01*
X57104927Y613724D01*
X57105393Y607810D01*
X57106937Y558671D01*
X57106938Y558668D01*
X57112921Y538071D01*
X57116928Y518720D01*
X57119617Y497440D01*
X57119617Y497438D01*
X57137716Y451722D01*
X57139639Y446106D01*
X57153353Y398903D01*
X57153353Y398902D01*
X57164271Y380442D01*
X57172968Y362689D01*
X57180864Y342745D01*
X57180867Y342740D01*
X57198179Y318914D01*
X57209765Y302968D01*
X57213021Y298010D01*
X57238047Y255693D01*
X57253214Y240526D01*
X57266052Y225495D01*
X57278658Y208144D01*
X57316540Y176805D01*
X57320921Y172819D01*
X58715241Y-1221500D01*
X60060624Y-2566883D01*
X60070840Y-2579633D01*
X60071033Y-2579474D01*
X60076084Y-2585580D01*
X60119100Y-2625975D01*
X60128494Y-2634796D01*
X60129883Y-2636142D01*
X60151167Y-2657426D01*
X60157023Y-2661968D01*
X60161520Y-2665810D01*
X60197367Y-2699472D01*
X60216160Y-2709803D01*
X60232684Y-2720658D01*
X60249632Y-2733805D01*
X60294755Y-2753331D01*
X60300089Y-2755944D01*
X60343157Y-2779621D01*
X60343159Y-2779622D01*
X60343163Y-2779624D01*
X60363940Y-2784958D01*
X60382632Y-2791357D01*
X60402323Y-2799879D01*
X60450902Y-2807572D01*
X60456671Y-2808767D01*
X60504312Y-2821000D01*
X60525758Y-2821000D01*
X60545468Y-2822550D01*
X60566651Y-2825906D01*
X60602142Y-2822551D01*
X60615592Y-2821280D01*
X60621525Y-2821000D01*
X61085410Y-2821000D01*
X61153531Y-2841002D01*
X61183489Y-2871520D01*
X61185106Y-2870243D01*
X61189661Y-2876004D01*
X61314001Y-3000344D01*
X61315043Y-3001168D01*
X61315571Y-3001914D01*
X61319191Y-3005534D01*
X61318572Y-3006152D01*
X61356069Y-3059111D01*
X61359256Y-3130036D01*
X61323592Y-3191425D01*
X61315043Y-3198832D01*
X61314001Y-3199655D01*
X61189661Y-3323995D01*
X61189656Y-3324001D01*
X61097339Y-3473670D01*
X61097339Y-3473671D01*
X61043384Y-3636500D01*
X61042025Y-3640600D01*
X61031500Y-3743616D01*
X61031500Y-4331374D01*
X61038511Y-4400000D01*
X61042026Y-4434404D01*
X61097339Y-4601329D01*
X61175015Y-4727262D01*
X61193509Y-4757244D01*
X61192296Y-4757991D01*
X61215846Y-4816375D01*
X61202591Y-4886124D01*
X61179545Y-4917772D01*
X61145970Y-4951347D01*
X61052885Y-5102262D01*
X60997113Y-5270572D01*
X60997112Y-5270579D01*
X60986500Y-5374446D01*
X60986500Y-6000544D01*
X60997112Y-6104425D01*
X61052885Y-6272738D01*
X61145970Y-6423652D01*
X61145975Y-6423658D01*
X61233222Y-6510905D01*
X61267248Y-6573217D01*
X61262183Y-6644032D01*
X61233222Y-6689095D01*
X61145975Y-6776341D01*
X61145970Y-6776347D01*
X61052885Y-6927262D01*
X60997113Y-7095572D01*
X60997112Y-7095579D01*
X60986500Y-7199446D01*
X60986500Y-7825544D01*
X60997112Y-7929422D01*
X60997112Y-7929424D01*
X60997113Y-7929426D01*
X61026727Y-8018796D01*
X61029167Y-8089750D01*
X60996217Y-8147522D01*
X59320611Y-9823127D01*
X59307865Y-9833340D01*
X59308025Y-9833533D01*
X59301920Y-9838583D01*
X59252718Y-9890977D01*
X59251342Y-9892397D01*
X59230071Y-9913668D01*
X59225527Y-9919525D01*
X59221678Y-9924031D01*
X59188029Y-9959865D01*
X59188027Y-9959867D01*
X59177691Y-9978667D01*
X59166843Y-9995180D01*
X59153699Y-10012126D01*
X59153694Y-10012135D01*
X59134172Y-10057247D01*
X59131560Y-10062577D01*
X59107877Y-10105660D01*
X59107873Y-10105670D01*
X59102541Y-10126436D01*
X59096139Y-10145136D01*
X59087620Y-10164820D01*
X59087619Y-10164824D01*
X59079928Y-10213384D01*
X59078724Y-10219197D01*
X59066500Y-10266810D01*
X59066500Y-10288258D01*
X59064949Y-10307967D01*
X59061594Y-10329150D01*
X59061594Y-10329152D01*
X59066220Y-10378094D01*
X59066500Y-10384027D01*
X59066500Y-10582814D01*
X59046498Y-10650935D01*
X59016010Y-10683682D01*
X58911737Y-10761740D01*
X58824112Y-10878792D01*
X58824110Y-10878797D01*
X58773013Y-11015791D01*
X58771200Y-11023466D01*
X58768553Y-11022840D01*
X58746377Y-11076369D01*
X58737369Y-11086395D01*
X58306793Y-11516971D01*
X58244483Y-11550995D01*
X58173668Y-11545931D01*
X58116832Y-11503384D01*
X58092021Y-11436864D01*
X58091700Y-11427875D01*
X58091700Y-11202167D01*
X58091699Y-11202150D01*
X58085190Y-11141603D01*
X58085188Y-11141595D01*
X58051227Y-11050544D01*
X58034089Y-11004596D01*
X58034088Y-11004594D01*
X58034087Y-11004592D01*
X57946461Y-10887538D01*
X57829407Y-10799912D01*
X57829402Y-10799910D01*
X57692404Y-10748811D01*
X57692396Y-10748809D01*
X57631849Y-10742300D01*
X57631838Y-10742300D01*
X54534562Y-10742300D01*
X54534550Y-10742300D01*
X54474003Y-10748809D01*
X54473995Y-10748811D01*
X54336997Y-10799910D01*
X54336992Y-10799912D01*
X54219938Y-10887538D01*
X54132312Y-11004592D01*
X54132310Y-11004597D01*
X54081211Y-11141595D01*
X54081209Y-11141603D01*
X54074700Y-11202150D01*
X54074700Y-11633750D01*
X54054698Y-11701871D01*
X54001042Y-11748364D01*
X53930768Y-11758468D01*
X53909068Y-11753355D01*
X53754427Y-11702113D01*
X53754420Y-11702112D01*
X53650553Y-11691500D01*
X51399455Y-11691500D01*
X51295574Y-11702112D01*
X51127259Y-11757886D01*
X51082910Y-11785241D01*
X51016764Y-11804000D01*
X49892705Y-11804000D01*
X49826556Y-11785240D01*
X49822740Y-11782886D01*
X49822739Y-11782885D01*
X49822738Y-11782885D01*
X49654426Y-11727113D01*
X49654420Y-11727112D01*
X49550553Y-11716500D01*
X47299455Y-11716500D01*
X47195574Y-11727112D01*
X47027259Y-11782886D01*
X46982910Y-11810241D01*
X46916764Y-11829000D01*
X44442705Y-11829000D01*
X44376556Y-11810240D01*
X44372740Y-11807886D01*
X44372739Y-11807885D01*
X44372738Y-11807885D01*
X44204426Y-11752113D01*
X44204420Y-11752112D01*
X44100553Y-11741500D01*
X41849455Y-11741500D01*
X41745574Y-11752112D01*
X41577261Y-11807885D01*
X41426347Y-11900970D01*
X41426341Y-11900975D01*
X41300975Y-12026341D01*
X41300970Y-12026347D01*
X41207885Y-12177262D01*
X41152113Y-12345572D01*
X41152112Y-12345579D01*
X41141500Y-12449446D01*
X41141500Y-13275544D01*
X41152112Y-13379425D01*
X41167278Y-13425191D01*
X41169718Y-13496146D01*
X41133410Y-13557156D01*
X41069881Y-13588851D01*
X41047727Y-13590824D01*
X40304488Y-13591140D01*
X40236358Y-13571167D01*
X40189843Y-13517531D01*
X40179709Y-13447261D01*
X40209174Y-13382668D01*
X40236308Y-13359146D01*
X40257905Y-13345266D01*
X40273670Y-13336658D01*
X40298373Y-13325377D01*
X40318896Y-13307592D01*
X40333269Y-13296832D01*
X40356128Y-13282143D01*
X40373911Y-13261619D01*
X40386622Y-13248909D01*
X40396105Y-13240692D01*
X40407143Y-13231128D01*
X40421832Y-13208269D01*
X40432597Y-13193891D01*
X40450377Y-13173373D01*
X40461659Y-13148668D01*
X40470270Y-13132899D01*
X40484953Y-13110053D01*
X40492603Y-13083997D01*
X40498882Y-13067160D01*
X40510165Y-13042457D01*
X40514030Y-13015567D01*
X40517848Y-12998017D01*
X40525500Y-12971961D01*
X40525500Y-12828039D01*
X40525500Y-8650544D01*
X41141500Y-8650544D01*
X41152112Y-8754425D01*
X41207885Y-8922738D01*
X41300970Y-9073652D01*
X41300975Y-9073658D01*
X41426341Y-9199024D01*
X41426347Y-9199029D01*
X41426348Y-9199030D01*
X41577262Y-9292115D01*
X41745574Y-9347887D01*
X41849455Y-9358500D01*
X44100544Y-9358499D01*
X44204426Y-9347887D01*
X44372738Y-9292115D01*
X44523652Y-9199030D01*
X44649030Y-9073652D01*
X44742115Y-8922738D01*
X44797887Y-8754426D01*
X44808500Y-8650545D01*
X44808499Y-7824456D01*
X44800532Y-7746471D01*
X44797887Y-7720574D01*
X44782619Y-7674498D01*
X44742115Y-7552262D01*
X44649030Y-7401348D01*
X44649029Y-7401347D01*
X44649024Y-7401341D01*
X44565945Y-7318262D01*
X44531919Y-7255950D01*
X44536984Y-7185135D01*
X44565945Y-7140072D01*
X44649024Y-7056992D01*
X44649030Y-7056986D01*
X44742115Y-6906072D01*
X44797887Y-6737760D01*
X44808500Y-6633879D01*
X44808499Y-6342516D01*
X44828501Y-6274398D01*
X44882156Y-6227905D01*
X44952430Y-6217800D01*
X45000642Y-6235275D01*
X45052262Y-6267115D01*
X45220574Y-6322887D01*
X45324455Y-6333500D01*
X46325544Y-6333499D01*
X46429426Y-6322887D01*
X46429429Y-6322885D01*
X46436146Y-6321448D01*
X46436628Y-6323699D01*
X46496803Y-6321620D01*
X46557819Y-6357919D01*
X46589524Y-6421443D01*
X46591500Y-6443669D01*
X46591500Y-6608878D01*
X46602112Y-6712759D01*
X46657885Y-6881072D01*
X46750970Y-7031986D01*
X46750975Y-7031992D01*
X46834055Y-7115072D01*
X46868081Y-7177384D01*
X46863016Y-7248199D01*
X46834055Y-7293262D01*
X46750975Y-7376341D01*
X46750970Y-7376347D01*
X46657885Y-7527262D01*
X46602113Y-7695572D01*
X46602112Y-7695579D01*
X46591500Y-7799446D01*
X46591500Y-8625544D01*
X46602112Y-8729425D01*
X46657885Y-8897738D01*
X46750970Y-9048652D01*
X46750975Y-9048658D01*
X46876341Y-9174024D01*
X46876347Y-9174029D01*
X46876348Y-9174030D01*
X47027262Y-9267115D01*
X47195574Y-9322887D01*
X47299455Y-9333500D01*
X49550544Y-9333499D01*
X49654426Y-9322887D01*
X49822738Y-9267115D01*
X49973652Y-9174030D01*
X50099030Y-9048652D01*
X50192115Y-8897738D01*
X50247887Y-8729426D01*
X50258500Y-8625545D01*
X50258500Y-8600544D01*
X50691500Y-8600544D01*
X50702112Y-8704425D01*
X50757885Y-8872738D01*
X50850970Y-9023652D01*
X50850975Y-9023658D01*
X50976341Y-9149024D01*
X50976347Y-9149029D01*
X50976348Y-9149030D01*
X51127262Y-9242115D01*
X51295574Y-9297887D01*
X51399455Y-9308500D01*
X53650544Y-9308499D01*
X53754426Y-9297887D01*
X53922738Y-9242115D01*
X54073652Y-9149030D01*
X54199030Y-9023652D01*
X54292115Y-8872738D01*
X54347887Y-8704426D01*
X54358500Y-8600545D01*
X54358499Y-7774456D01*
X54347887Y-7670574D01*
X54292115Y-7502262D01*
X54199030Y-7351348D01*
X54199029Y-7351347D01*
X54199024Y-7351341D01*
X54115945Y-7268262D01*
X54081919Y-7205950D01*
X54086984Y-7135135D01*
X54115945Y-7090072D01*
X54199024Y-7006992D01*
X54199030Y-7006986D01*
X54292115Y-6856072D01*
X54347887Y-6687760D01*
X54358500Y-6583879D01*
X54358499Y-5757790D01*
X54347887Y-5653908D01*
X54292115Y-5485596D01*
X54199030Y-5334682D01*
X54199029Y-5334681D01*
X54199024Y-5334675D01*
X54073658Y-5209309D01*
X54073652Y-5209304D01*
X54055416Y-5198056D01*
X53922738Y-5116219D01*
X53838581Y-5088332D01*
X53754427Y-5060447D01*
X53754420Y-5060446D01*
X53650553Y-5049834D01*
X51399455Y-5049834D01*
X51295574Y-5060446D01*
X51127261Y-5116219D01*
X50976347Y-5209304D01*
X50976341Y-5209309D01*
X50850975Y-5334675D01*
X50850970Y-5334681D01*
X50757885Y-5485596D01*
X50702113Y-5653906D01*
X50702112Y-5653913D01*
X50691500Y-5757780D01*
X50691500Y-6583878D01*
X50702112Y-6687759D01*
X50757885Y-6856072D01*
X50850970Y-7006986D01*
X50850975Y-7006992D01*
X50934055Y-7090072D01*
X50968081Y-7152384D01*
X50963016Y-7223199D01*
X50934055Y-7268262D01*
X50850975Y-7351341D01*
X50850970Y-7351347D01*
X50757885Y-7502262D01*
X50702113Y-7670572D01*
X50702112Y-7670579D01*
X50691500Y-7774446D01*
X50691500Y-8600544D01*
X50258500Y-8600544D01*
X50258499Y-7799456D01*
X50247887Y-7695574D01*
X50192115Y-7527262D01*
X50099030Y-7376348D01*
X50099029Y-7376347D01*
X50099024Y-7376341D01*
X50015945Y-7293262D01*
X49981919Y-7230950D01*
X49986984Y-7160135D01*
X50015945Y-7115072D01*
X50099024Y-7031992D01*
X50099030Y-7031986D01*
X50192115Y-6881072D01*
X50247887Y-6712760D01*
X50258500Y-6608879D01*
X50258499Y-5782790D01*
X50247887Y-5678908D01*
X50192115Y-5510596D01*
X50099030Y-5359682D01*
X50099029Y-5359681D01*
X50099024Y-5359675D01*
X49973658Y-5234309D01*
X49973652Y-5234304D01*
X49967593Y-5230567D01*
X49822738Y-5141219D01*
X49738582Y-5113332D01*
X49654427Y-5085447D01*
X49654420Y-5085446D01*
X49550553Y-5074834D01*
X49550545Y-5074834D01*
X48250261Y-5074834D01*
X48182140Y-5054832D01*
X48135647Y-5001176D01*
X48125543Y-4930902D01*
X48155037Y-4866322D01*
X48161166Y-4859739D01*
X48175500Y-4845405D01*
X48237812Y-4811379D01*
X48264595Y-4808500D01*
X48320487Y-4808500D01*
X48507288Y-4768794D01*
X48681752Y-4691118D01*
X48836253Y-4578866D01*
X48881653Y-4528444D01*
X48964034Y-4436951D01*
X48964035Y-4436949D01*
X48964040Y-4436944D01*
X49059527Y-4271556D01*
X49118542Y-4089928D01*
X49138504Y-3900000D01*
X49118542Y-3710072D01*
X49059527Y-3528444D01*
X48964040Y-3363056D01*
X48964038Y-3363054D01*
X48964034Y-3363048D01*
X48836255Y-3221135D01*
X48681752Y-3108882D01*
X48507288Y-3031206D01*
X48320487Y-2991500D01*
X48129513Y-2991500D01*
X47942711Y-3031206D01*
X47768247Y-3108882D01*
X47613744Y-3221135D01*
X47485965Y-3363048D01*
X47485958Y-3363058D01*
X47390476Y-3528438D01*
X47390473Y-3528444D01*
X47376170Y-3572465D01*
X47331457Y-3710072D01*
X47314092Y-3875292D01*
X47287079Y-3940949D01*
X47277877Y-3951216D01*
X47238986Y-3990107D01*
X47176674Y-4024133D01*
X47105859Y-4019068D01*
X47049023Y-3976521D01*
X47024212Y-3910001D01*
X47024544Y-3888204D01*
X47033499Y-3800552D01*
X47033500Y-3800545D01*
X47033499Y-3174456D01*
X47030357Y-3143703D01*
X47022887Y-3070574D01*
X47008383Y-3026803D01*
X46967115Y-2902262D01*
X46918796Y-2823926D01*
X46900060Y-2755447D01*
X46921319Y-2687709D01*
X46975827Y-2642217D01*
X47046275Y-2633416D01*
X47065656Y-2638171D01*
X47195574Y-2681221D01*
X47299455Y-2691834D01*
X49550544Y-2691833D01*
X49654426Y-2681221D01*
X49822738Y-2625449D01*
X49973652Y-2532364D01*
X50099030Y-2406986D01*
X50192115Y-2256072D01*
X50247887Y-2087760D01*
X50258500Y-1983879D01*
X50258500Y-1958878D01*
X50691500Y-1958878D01*
X50702112Y-2062759D01*
X50757885Y-2231072D01*
X50850970Y-2381986D01*
X50850975Y-2381992D01*
X50976341Y-2507358D01*
X50976347Y-2507363D01*
X50976348Y-2507364D01*
X51127262Y-2600449D01*
X51295574Y-2656221D01*
X51399455Y-2666834D01*
X53650544Y-2666833D01*
X53754426Y-2656221D01*
X53922738Y-2600449D01*
X54073652Y-2507364D01*
X54199030Y-2381986D01*
X54292115Y-2231072D01*
X54347887Y-2062760D01*
X54358500Y-1958879D01*
X54358499Y-1132790D01*
X54347887Y-1028908D01*
X54292115Y-860596D01*
X54199030Y-709682D01*
X54199029Y-709681D01*
X54199024Y-709675D01*
X54073658Y-584309D01*
X54073652Y-584304D01*
X54073651Y-584304D01*
X53922738Y-491219D01*
X53838581Y-463332D01*
X53754427Y-435447D01*
X53754421Y-435446D01*
X53696354Y-429513D01*
X53630620Y-402690D01*
X53589822Y-344586D01*
X53586914Y-273649D01*
X53622820Y-212401D01*
X53686138Y-180288D01*
X53696343Y-178820D01*
X53754426Y-172887D01*
X53922738Y-117115D01*
X54073652Y-24030D01*
X54199030Y101348D01*
X54292115Y252262D01*
X54347887Y420574D01*
X54358500Y524455D01*
X54358499Y1350544D01*
X54347887Y1454426D01*
X54292115Y1622738D01*
X54199030Y1773652D01*
X54199029Y1773653D01*
X54199024Y1773659D01*
X54073658Y1899025D01*
X54073652Y1899030D01*
X54046117Y1916014D01*
X53922738Y1992115D01*
X53838582Y2020002D01*
X53754427Y2047887D01*
X53754420Y2047888D01*
X53650553Y2058500D01*
X51399455Y2058500D01*
X51295574Y2047888D01*
X51127261Y1992115D01*
X50976347Y1899030D01*
X50976341Y1899025D01*
X50850975Y1773659D01*
X50850970Y1773653D01*
X50757885Y1622738D01*
X50702113Y1454428D01*
X50702112Y1454421D01*
X50691500Y1350554D01*
X50691500Y524456D01*
X50702112Y420575D01*
X50757885Y252262D01*
X50850970Y101348D01*
X50850975Y101342D01*
X50976341Y-24024D01*
X50976347Y-24029D01*
X50976348Y-24030D01*
X51127262Y-117115D01*
X51295574Y-172887D01*
X51328802Y-176281D01*
X51353643Y-178820D01*
X51419378Y-205642D01*
X51460176Y-263745D01*
X51463085Y-334682D01*
X51427181Y-395931D01*
X51363862Y-428045D01*
X51353641Y-429515D01*
X51295574Y-435446D01*
X51127261Y-491219D01*
X50976347Y-584304D01*
X50976341Y-584309D01*
X50850975Y-709675D01*
X50850970Y-709681D01*
X50757885Y-860596D01*
X50702113Y-1028906D01*
X50702112Y-1028913D01*
X50691500Y-1132780D01*
X50691500Y-1958878D01*
X50258500Y-1958878D01*
X50258499Y-1157790D01*
X50247887Y-1053908D01*
X50192115Y-885596D01*
X50099030Y-734682D01*
X50099029Y-734681D01*
X50099024Y-734675D01*
X49973658Y-609309D01*
X49973652Y-609304D01*
X49933129Y-584309D01*
X49822738Y-516219D01*
X49738581Y-488332D01*
X49654427Y-460447D01*
X49654421Y-460446D01*
X49596354Y-454513D01*
X49530620Y-427690D01*
X49489822Y-369586D01*
X49486914Y-298649D01*
X49522820Y-237401D01*
X49586138Y-205288D01*
X49596343Y-203820D01*
X49654426Y-197887D01*
X49822738Y-142115D01*
X49973652Y-49030D01*
X50099030Y76348D01*
X50192115Y227262D01*
X50247887Y395574D01*
X50258500Y499455D01*
X50258499Y1325544D01*
X50254892Y1360849D01*
X50247887Y1429426D01*
X50235849Y1465756D01*
X50192115Y1597738D01*
X50099030Y1748652D01*
X50099029Y1748653D01*
X50099024Y1748659D01*
X49973658Y1874025D01*
X49973652Y1874030D01*
X49956629Y1884530D01*
X49822738Y1967115D01*
X49738581Y1995002D01*
X49654427Y2022887D01*
X49654420Y2022888D01*
X49550553Y2033500D01*
X47299455Y2033500D01*
X47195574Y2022888D01*
X47027261Y1967115D01*
X46876347Y1874030D01*
X46876341Y1874025D01*
X46750975Y1748659D01*
X46750970Y1748653D01*
X46657885Y1597738D01*
X46602113Y1429428D01*
X46602112Y1429421D01*
X46591500Y1325554D01*
X46591500Y499456D01*
X46602112Y395575D01*
X46657885Y227262D01*
X46750970Y76348D01*
X46750975Y76342D01*
X46876341Y-49024D01*
X46876347Y-49029D01*
X46876348Y-49030D01*
X47027262Y-142115D01*
X47195574Y-197887D01*
X47228802Y-201281D01*
X47253643Y-203820D01*
X47319378Y-230642D01*
X47360176Y-288745D01*
X47363085Y-359682D01*
X47327181Y-420931D01*
X47263862Y-453045D01*
X47253641Y-454515D01*
X47195574Y-460446D01*
X47027261Y-516219D01*
X46876347Y-609304D01*
X46876341Y-609309D01*
X46750975Y-734675D01*
X46750970Y-734681D01*
X46657885Y-885596D01*
X46602113Y-1053906D01*
X46602112Y-1053913D01*
X46591500Y-1157780D01*
X46591500Y-1983878D01*
X46602112Y-2087759D01*
X46628913Y-2168638D01*
X46648979Y-2229196D01*
X46657886Y-2256074D01*
X46706202Y-2334407D01*
X46724939Y-2402886D01*
X46703679Y-2470625D01*
X46649172Y-2516116D01*
X46578723Y-2524917D01*
X46559331Y-2520158D01*
X46505134Y-2502199D01*
X46429427Y-2477113D01*
X46429420Y-2477112D01*
X46325553Y-2466500D01*
X45324455Y-2466500D01*
X45220574Y-2477112D01*
X45052261Y-2532885D01*
X44901347Y-2625970D01*
X44901341Y-2625975D01*
X44775975Y-2751341D01*
X44775970Y-2751347D01*
X44682885Y-2902262D01*
X44627113Y-3070572D01*
X44627112Y-3070579D01*
X44616500Y-3174446D01*
X44616500Y-3800544D01*
X44627112Y-3904425D01*
X44682885Y-4072738D01*
X44775970Y-4223652D01*
X44775975Y-4223658D01*
X44863222Y-4310905D01*
X44897248Y-4373217D01*
X44892183Y-4444032D01*
X44863222Y-4489095D01*
X44775975Y-4576341D01*
X44775970Y-4576347D01*
X44682885Y-4727262D01*
X44627113Y-4895572D01*
X44627112Y-4895579D01*
X44616500Y-4999446D01*
X44616500Y-5090815D01*
X44596498Y-5158936D01*
X44542842Y-5205429D01*
X44472568Y-5215533D01*
X44424354Y-5198056D01*
X44372738Y-5166219D01*
X44269947Y-5132158D01*
X44204427Y-5110447D01*
X44204420Y-5110446D01*
X44100553Y-5099834D01*
X41849455Y-5099834D01*
X41745574Y-5110446D01*
X41577261Y-5166219D01*
X41426347Y-5259304D01*
X41426341Y-5259309D01*
X41300975Y-5384675D01*
X41300970Y-5384681D01*
X41207885Y-5535596D01*
X41152113Y-5703906D01*
X41152112Y-5703913D01*
X41141500Y-5807780D01*
X41141500Y-6633878D01*
X41152112Y-6737759D01*
X41207885Y-6906072D01*
X41300970Y-7056986D01*
X41300975Y-7056992D01*
X41384055Y-7140072D01*
X41418081Y-7202384D01*
X41413016Y-7273199D01*
X41384055Y-7318262D01*
X41300975Y-7401341D01*
X41300970Y-7401347D01*
X41207885Y-7552262D01*
X41152113Y-7720572D01*
X41152112Y-7720579D01*
X41141500Y-7824446D01*
X41141500Y-8650544D01*
X40525500Y-8650544D01*
X40525500Y-2008878D01*
X41141500Y-2008878D01*
X41152112Y-2112759D01*
X41207885Y-2281072D01*
X41300970Y-2431986D01*
X41300975Y-2431992D01*
X41426341Y-2557358D01*
X41426347Y-2557363D01*
X41426348Y-2557364D01*
X41577262Y-2650449D01*
X41745574Y-2706221D01*
X41849455Y-2716834D01*
X44100544Y-2716833D01*
X44204426Y-2706221D01*
X44372738Y-2650449D01*
X44523652Y-2557364D01*
X44649030Y-2431986D01*
X44742115Y-2281072D01*
X44797887Y-2112760D01*
X44808500Y-2008879D01*
X44808499Y-1182790D01*
X44808299Y-1180837D01*
X44797887Y-1078908D01*
X44786858Y-1045624D01*
X44742115Y-910596D01*
X44649030Y-759682D01*
X44649029Y-759681D01*
X44649024Y-759675D01*
X44523658Y-634309D01*
X44523652Y-634304D01*
X44483129Y-609309D01*
X44372738Y-541219D01*
X44248179Y-499945D01*
X44204427Y-485447D01*
X44204421Y-485446D01*
X44146354Y-479513D01*
X44080620Y-452690D01*
X44039822Y-394586D01*
X44036914Y-323649D01*
X44072820Y-262401D01*
X44136138Y-230288D01*
X44146343Y-228820D01*
X44204426Y-222887D01*
X44372738Y-167115D01*
X44523652Y-74030D01*
X44649030Y51348D01*
X44742115Y202262D01*
X44797887Y370574D01*
X44808500Y474455D01*
X44808499Y1300544D01*
X44797887Y1404426D01*
X44742115Y1572738D01*
X44649030Y1723652D01*
X44649029Y1723653D01*
X44649024Y1723659D01*
X44523658Y1849025D01*
X44523652Y1849030D01*
X44520752Y1850819D01*
X44372738Y1942115D01*
X44275509Y1974333D01*
X44204427Y1997887D01*
X44204420Y1997888D01*
X44100553Y2008500D01*
X41849455Y2008500D01*
X41745574Y1997888D01*
X41577261Y1942115D01*
X41426347Y1849030D01*
X41426341Y1849025D01*
X41300975Y1723659D01*
X41300970Y1723653D01*
X41207885Y1572738D01*
X41152113Y1404428D01*
X41152112Y1404421D01*
X41141500Y1300554D01*
X41141500Y474456D01*
X41152112Y370575D01*
X41207885Y202262D01*
X41300970Y51348D01*
X41300975Y51342D01*
X41426341Y-74024D01*
X41426347Y-74029D01*
X41426348Y-74030D01*
X41577262Y-167115D01*
X41745574Y-222887D01*
X41778802Y-226281D01*
X41803643Y-228820D01*
X41869378Y-255642D01*
X41910176Y-313745D01*
X41913085Y-384682D01*
X41877181Y-445931D01*
X41813862Y-478045D01*
X41803641Y-479515D01*
X41745574Y-485446D01*
X41577261Y-541219D01*
X41426347Y-634304D01*
X41426341Y-634309D01*
X41300975Y-759675D01*
X41300970Y-759681D01*
X41207885Y-910596D01*
X41152113Y-1078906D01*
X41152112Y-1078913D01*
X41141500Y-1182780D01*
X41141500Y-2008878D01*
X40525500Y-2008878D01*
X40525500Y235799D01*
X40525500Y5920554D01*
X40527422Y5935706D01*
X40526634Y5935792D01*
X40527617Y5944746D01*
X40527619Y5944753D01*
X40525534Y6007284D01*
X40525500Y6009381D01*
X40525500Y6035796D01*
X40525500Y6035799D01*
X40524797Y6040684D01*
X40524193Y6047526D01*
X40522825Y6088595D01*
X40517604Y6104405D01*
X40512534Y6125975D01*
X40510165Y6142457D01*
X40493094Y6179834D01*
X40490586Y6186230D01*
X40477700Y6225260D01*
X40468232Y6238965D01*
X40457293Y6258228D01*
X40450377Y6273373D01*
X40450376Y6273374D01*
X40450376Y6273375D01*
X40423476Y6304418D01*
X40419256Y6309863D01*
X40404589Y6331095D01*
X40395901Y6343673D01*
X40395898Y6343676D01*
X40382959Y6354154D01*
X40367026Y6369565D01*
X40365655Y6371147D01*
X40356128Y6382143D01*
X40356127Y6382144D01*
X40321561Y6404358D01*
X40315971Y6408399D01*
X40284052Y6434247D01*
X40284044Y6434251D01*
X40268689Y6440654D01*
X40249064Y6450949D01*
X40235054Y6459953D01*
X40235051Y6459954D01*
X40195634Y6471528D01*
X40189132Y6473830D01*
X40151212Y6489643D01*
X40151213Y6489643D01*
X40134657Y6491463D01*
X40112935Y6495810D01*
X40101327Y6499218D01*
X40096961Y6500500D01*
X40096960Y6500500D01*
X40055885Y6500500D01*
X40049001Y6500877D01*
X40044103Y6501416D01*
X40018505Y6500562D01*
X40017703Y6500535D01*
X40015607Y6500500D01*
X39953038Y6500500D01*
X39944122Y6499218D01*
X39944009Y6500000D01*
X39928924Y6497576D01*
X39476678Y6482501D01*
X39417697Y6480535D01*
X39415600Y6480500D01*
X39353039Y6480500D01*
X39330985Y6474025D01*
X39313617Y6468926D01*
X39306906Y6467349D01*
X39266461Y6460151D01*
X39266459Y6460150D01*
X39251549Y6452732D01*
X39230920Y6444643D01*
X39214946Y6439953D01*
X39180383Y6417742D01*
X39174388Y6414338D01*
X39137606Y6396035D01*
X39137605Y6396033D01*
X39125391Y6384716D01*
X39107881Y6371147D01*
X39093873Y6362144D01*
X39093871Y6362143D01*
X39066968Y6331095D01*
X39062173Y6326138D01*
X39032038Y6298214D01*
X39023504Y6283909D01*
X39010528Y6265960D01*
X38999624Y6253376D01*
X38999622Y6253373D01*
X38999623Y6253373D01*
X38986784Y6225260D01*
X38982558Y6216007D01*
X38979354Y6209900D01*
X38958305Y6174616D01*
X38958304Y6174613D01*
X38954147Y6158488D01*
X38946751Y6137605D01*
X38939837Y6122465D01*
X38939835Y6122461D01*
X38938758Y6114967D01*
X38933988Y6081792D01*
X38932636Y6075037D01*
X38922380Y6035251D01*
X38922380Y6035245D01*
X38924464Y5972703D01*
X38924499Y5970605D01*
X38924500Y-12828039D01*
X38924499Y-12971958D01*
X38932150Y-12998016D01*
X38935969Y-13015572D01*
X38939835Y-13042457D01*
X38951115Y-13067156D01*
X38957397Y-13083999D01*
X38965048Y-13110056D01*
X38965049Y-13110059D01*
X38979727Y-13132899D01*
X38988338Y-13148668D01*
X38999619Y-13173366D01*
X38999624Y-13173374D01*
X39017402Y-13193891D01*
X39028173Y-13208279D01*
X39042857Y-13231128D01*
X39051089Y-13238261D01*
X39063379Y-13248911D01*
X39076088Y-13261620D01*
X39093872Y-13282143D01*
X39116716Y-13296824D01*
X39131106Y-13307595D01*
X39151627Y-13325377D01*
X39176332Y-13336659D01*
X39192093Y-13345266D01*
X39207354Y-13355073D01*
X39214456Y-13359638D01*
X39260946Y-13413296D01*
X39271047Y-13483571D01*
X39241550Y-13548150D01*
X39181822Y-13586531D01*
X39146384Y-13591632D01*
X37109999Y-13592499D01*
X36158680Y-13592903D01*
X27248538Y-13596693D01*
X27180408Y-13576720D01*
X27133893Y-13523084D01*
X27123759Y-13452814D01*
X27151666Y-13391634D01*
X27151047Y-13391145D01*
X27153040Y-13388624D01*
X27153224Y-13388221D01*
X27154118Y-13387259D01*
X27155595Y-13385391D01*
X27155600Y-13385387D01*
X27244849Y-13240692D01*
X27298324Y-13079314D01*
X27308500Y-12979711D01*
X27308499Y-12498649D01*
X29266500Y-12498649D01*
X29273009Y-12559196D01*
X29273011Y-12559204D01*
X29324110Y-12696202D01*
X29324112Y-12696207D01*
X29411738Y-12813261D01*
X29528792Y-12900887D01*
X29528794Y-12900888D01*
X29528796Y-12900889D01*
X29583900Y-12921442D01*
X29665795Y-12951988D01*
X29665803Y-12951990D01*
X29726350Y-12958499D01*
X29726355Y-12958499D01*
X29726362Y-12958500D01*
X29726368Y-12958500D01*
X31523632Y-12958500D01*
X31523638Y-12958500D01*
X31523645Y-12958499D01*
X31523649Y-12958499D01*
X31584196Y-12951990D01*
X31584199Y-12951989D01*
X31584201Y-12951989D01*
X31721204Y-12900889D01*
X31791399Y-12848342D01*
X31838261Y-12813261D01*
X31925886Y-12696208D01*
X31925885Y-12696208D01*
X31925889Y-12696204D01*
X31969999Y-12577939D01*
X32012545Y-12521107D01*
X32079066Y-12496296D01*
X32148440Y-12511388D01*
X32180753Y-12536635D01*
X32201529Y-12559204D01*
X32241762Y-12602908D01*
X32296331Y-12645381D01*
X32419424Y-12741189D01*
X32617426Y-12848342D01*
X32617427Y-12848342D01*
X32617428Y-12848343D01*
X32672340Y-12867194D01*
X32830365Y-12921444D01*
X33052431Y-12958500D01*
X33052435Y-12958500D01*
X33277565Y-12958500D01*
X33277569Y-12958500D01*
X33499635Y-12921444D01*
X33712574Y-12848342D01*
X33910576Y-12741189D01*
X34088240Y-12602906D01*
X34240722Y-12437268D01*
X34329816Y-12300898D01*
X34383819Y-12254810D01*
X34454167Y-12245235D01*
X34518524Y-12275212D01*
X34540782Y-12300898D01*
X34629674Y-12436958D01*
X34782097Y-12602534D01*
X34959698Y-12740767D01*
X34959699Y-12740768D01*
X35157628Y-12847882D01*
X35157630Y-12847883D01*
X35354999Y-12915638D01*
X35355000Y-12915638D01*
X35355000Y-11958318D01*
X35431900Y-12024952D01*
X35562685Y-12084680D01*
X35669237Y-12100000D01*
X35740763Y-12100000D01*
X35847315Y-12084680D01*
X35978100Y-12024952D01*
X36055000Y-11958318D01*
X36055000Y-12915638D01*
X36252369Y-12847883D01*
X36252371Y-12847882D01*
X36450300Y-12740768D01*
X36450301Y-12740767D01*
X36627902Y-12602534D01*
X36780325Y-12436958D01*
X36903419Y-12248548D01*
X36993820Y-12042456D01*
X36993823Y-12042449D01*
X37017234Y-11950000D01*
X36064600Y-11950000D01*
X36086761Y-11930798D01*
X36164493Y-11809844D01*
X36205000Y-11671889D01*
X36205000Y-11528111D01*
X36164493Y-11390156D01*
X36086761Y-11269202D01*
X36064600Y-11250000D01*
X37017234Y-11250000D01*
X37017234Y-11249999D01*
X36993823Y-11157550D01*
X36993820Y-11157543D01*
X36903419Y-10951451D01*
X36780325Y-10763041D01*
X36627902Y-10597465D01*
X36450301Y-10459232D01*
X36450300Y-10459231D01*
X36252371Y-10352117D01*
X36252369Y-10352116D01*
X36055000Y-10284360D01*
X36055000Y-11241681D01*
X35978100Y-11175048D01*
X35847315Y-11115320D01*
X35740763Y-11100000D01*
X35669237Y-11100000D01*
X35562685Y-11115320D01*
X35431900Y-11175048D01*
X35355000Y-11241681D01*
X35355000Y-10284360D01*
X35157630Y-10352116D01*
X35157628Y-10352117D01*
X34959699Y-10459231D01*
X34959698Y-10459232D01*
X34782097Y-10597465D01*
X34629670Y-10763045D01*
X34540780Y-10899101D01*
X34486776Y-10945189D01*
X34416428Y-10954764D01*
X34352071Y-10924786D01*
X34329816Y-10899101D01*
X34266746Y-10802564D01*
X34240724Y-10762734D01*
X34240720Y-10762729D01*
X34124570Y-10636558D01*
X34088240Y-10597094D01*
X34088239Y-10597093D01*
X34088237Y-10597091D01*
X33968367Y-10503792D01*
X33910576Y-10458811D01*
X33712574Y-10351658D01*
X33712572Y-10351657D01*
X33712571Y-10351656D01*
X33499639Y-10278557D01*
X33499630Y-10278555D01*
X33455476Y-10271187D01*
X33277569Y-10241500D01*
X33052431Y-10241500D01*
X32930156Y-10261904D01*
X32830369Y-10278555D01*
X32830360Y-10278557D01*
X32617428Y-10351656D01*
X32617426Y-10351658D01*
X32419426Y-10458810D01*
X32419424Y-10458811D01*
X32241762Y-10597091D01*
X32180754Y-10663363D01*
X32119901Y-10699933D01*
X32048936Y-10697798D01*
X31990391Y-10657636D01*
X31969999Y-10622057D01*
X31925889Y-10503797D01*
X31925887Y-10503792D01*
X31838261Y-10386738D01*
X31721207Y-10299112D01*
X31721202Y-10299110D01*
X31584204Y-10248011D01*
X31584196Y-10248009D01*
X31523649Y-10241500D01*
X31523638Y-10241500D01*
X29726362Y-10241500D01*
X29726350Y-10241500D01*
X29665803Y-10248009D01*
X29665795Y-10248011D01*
X29528797Y-10299110D01*
X29528792Y-10299112D01*
X29411738Y-10386738D01*
X29324112Y-10503792D01*
X29324110Y-10503797D01*
X29273011Y-10640795D01*
X29273009Y-10640803D01*
X29266500Y-10701350D01*
X29266500Y-12498649D01*
X27308499Y-12498649D01*
X27308499Y-12445290D01*
X27298324Y-12345686D01*
X27244849Y-12184308D01*
X27155600Y-12039613D01*
X27130081Y-12014094D01*
X27096057Y-11951785D01*
X27101121Y-11880969D01*
X27130081Y-11835905D01*
X27155600Y-11810387D01*
X27244849Y-11665692D01*
X27298324Y-11504314D01*
X27308500Y-11404711D01*
X27308499Y-10870290D01*
X27298324Y-10770686D01*
X27244849Y-10609308D01*
X27155600Y-10464613D01*
X27155599Y-10464612D01*
X27155594Y-10464606D01*
X27035393Y-10344405D01*
X27035387Y-10344400D01*
X26890692Y-10255151D01*
X26890691Y-10255151D01*
X26729314Y-10201676D01*
X26729311Y-10201675D01*
X26729309Y-10201675D01*
X26629719Y-10191500D01*
X26629711Y-10191500D01*
X26609500Y-10191500D01*
X26541379Y-10171498D01*
X26494886Y-10117842D01*
X26483500Y-10065500D01*
X26483500Y-5184500D01*
X26503502Y-5116379D01*
X26557158Y-5069886D01*
X26609500Y-5058500D01*
X27700500Y-5058500D01*
X27768621Y-5078502D01*
X27815114Y-5132158D01*
X27826500Y-5184500D01*
X27826500Y-5723894D01*
X27806498Y-5792015D01*
X27752842Y-5838508D01*
X27682568Y-5848612D01*
X27617988Y-5819118D01*
X27599635Y-5799408D01*
X27597903Y-5797095D01*
X27480965Y-5709555D01*
X27344093Y-5658505D01*
X27283597Y-5652000D01*
X27135000Y-5652000D01*
X27135000Y-6210000D01*
X27786452Y-6210000D01*
X27854573Y-6230002D01*
X27887320Y-6260491D01*
X27971738Y-6373261D01*
X28086448Y-6459132D01*
X28128995Y-6515968D01*
X28134059Y-6586784D01*
X28100034Y-6649096D01*
X28086448Y-6660868D01*
X27971738Y-6746738D01*
X27887320Y-6859509D01*
X27830484Y-6902056D01*
X27786452Y-6910000D01*
X27135000Y-6910000D01*
X27135000Y-7468000D01*
X27283585Y-7468000D01*
X27283597Y-7467999D01*
X27344093Y-7461494D01*
X27480964Y-7410444D01*
X27480965Y-7410444D01*
X27597903Y-7322904D01*
X27599631Y-7320597D01*
X27601941Y-7318867D01*
X27604277Y-7316532D01*
X27604612Y-7316867D01*
X27656467Y-7278050D01*
X27727283Y-7272984D01*
X27789595Y-7307009D01*
X27823620Y-7369321D01*
X27826500Y-7396105D01*
X27826500Y-7958649D01*
X27833009Y-8019196D01*
X27833011Y-8019204D01*
X27884110Y-8156202D01*
X27884112Y-8156207D01*
X27971738Y-8273261D01*
X28088792Y-8360887D01*
X28088794Y-8360888D01*
X28088796Y-8360889D01*
X28125291Y-8374501D01*
X28225795Y-8411988D01*
X28225803Y-8411990D01*
X28286350Y-8418499D01*
X28286355Y-8418499D01*
X28286362Y-8418500D01*
X28286368Y-8418500D01*
X29283632Y-8418500D01*
X29283638Y-8418500D01*
X29283645Y-8418499D01*
X29283649Y-8418499D01*
X29344196Y-8411990D01*
X29344199Y-8411989D01*
X29344201Y-8411989D01*
X29481204Y-8360889D01*
X29575091Y-8290605D01*
X29641610Y-8265794D01*
X29710984Y-8280885D01*
X29739695Y-8302378D01*
X29811341Y-8374024D01*
X29811347Y-8374029D01*
X29811348Y-8374030D01*
X29962262Y-8467115D01*
X30130574Y-8522887D01*
X30234455Y-8533500D01*
X31235544Y-8533499D01*
X31339426Y-8522887D01*
X31507738Y-8467115D01*
X31657888Y-8374501D01*
X33520778Y-8374501D01*
X33527605Y-8441317D01*
X33527606Y-8441321D01*
X33583342Y-8609525D01*
X33676365Y-8760339D01*
X33676370Y-8760345D01*
X33801654Y-8885629D01*
X33801660Y-8885634D01*
X33952474Y-8978657D01*
X34120678Y-9034393D01*
X34120681Y-9034394D01*
X34224483Y-9044999D01*
X34224483Y-9045000D01*
X34375000Y-9045000D01*
X34375000Y-8374500D01*
X35075000Y-8374500D01*
X35075000Y-9045000D01*
X35225517Y-9045000D01*
X35225516Y-9044999D01*
X35329318Y-9034394D01*
X35329321Y-9034393D01*
X35497525Y-8978657D01*
X35648339Y-8885634D01*
X35648345Y-8885629D01*
X35773629Y-8760345D01*
X35773634Y-8760339D01*
X35866657Y-8609525D01*
X35922393Y-8441321D01*
X35922394Y-8441317D01*
X35929221Y-8374501D01*
X35929220Y-8374500D01*
X35075000Y-8374500D01*
X34375000Y-8374500D01*
X33520780Y-8374500D01*
X33520778Y-8374501D01*
X31657888Y-8374501D01*
X31658652Y-8374030D01*
X31784030Y-8248652D01*
X31877115Y-8097738D01*
X31932887Y-7929426D01*
X31943500Y-7825545D01*
X31943499Y-7199456D01*
X31932887Y-7095574D01*
X31932886Y-7095570D01*
X31932886Y-7095568D01*
X31876576Y-6925636D01*
X31874135Y-6854681D01*
X31910443Y-6793671D01*
X31973972Y-6761976D01*
X32035798Y-6768705D01*
X32036432Y-6766756D01*
X32042706Y-6768794D01*
X32042708Y-6768794D01*
X32042712Y-6768796D01*
X32229513Y-6808502D01*
X32420487Y-6808502D01*
X32607288Y-6768796D01*
X32781752Y-6691120D01*
X32936253Y-6578868D01*
X32941341Y-6573217D01*
X33064034Y-6436953D01*
X33064035Y-6436951D01*
X33064040Y-6436946D01*
X33159527Y-6271558D01*
X33218542Y-6089930D01*
X33238504Y-5900002D01*
X33237974Y-5894961D01*
X33250743Y-5825124D01*
X33299242Y-5773275D01*
X33312020Y-5766686D01*
X33340363Y-5754067D01*
X33410729Y-5744635D01*
X33475026Y-5774743D01*
X33512838Y-5834832D01*
X33516957Y-5881982D01*
X33516500Y-5886455D01*
X33516500Y-6512544D01*
X33527112Y-6616425D01*
X33582885Y-6784738D01*
X33675970Y-6935652D01*
X33675975Y-6935658D01*
X33763576Y-7023259D01*
X33797602Y-7085571D01*
X33792537Y-7156386D01*
X33763576Y-7201449D01*
X33676370Y-7288654D01*
X33676365Y-7288660D01*
X33583342Y-7439474D01*
X33527606Y-7607678D01*
X33527605Y-7607682D01*
X33520778Y-7674498D01*
X33520780Y-7674500D01*
X35929220Y-7674500D01*
X35929221Y-7674498D01*
X35922394Y-7607682D01*
X35922393Y-7607678D01*
X35866657Y-7439474D01*
X35773634Y-7288660D01*
X35773629Y-7288654D01*
X35686424Y-7201449D01*
X35652398Y-7139137D01*
X35657463Y-7068322D01*
X35686424Y-7023259D01*
X35774024Y-6935658D01*
X35774030Y-6935652D01*
X35867115Y-6784738D01*
X35922887Y-6616426D01*
X35933500Y-6512545D01*
X35933499Y-5886456D01*
X35932741Y-5879040D01*
X35922887Y-5782574D01*
X35917620Y-5766679D01*
X35867115Y-5614262D01*
X35774030Y-5463348D01*
X35774029Y-5463347D01*
X35774024Y-5463341D01*
X35648658Y-5337975D01*
X35648652Y-5337970D01*
X35642214Y-5333999D01*
X35590229Y-5301934D01*
X35542753Y-5249150D01*
X35531350Y-5179075D01*
X35559642Y-5113960D01*
X35562710Y-5110420D01*
X35564040Y-5108944D01*
X35659527Y-4943556D01*
X35718542Y-4761928D01*
X35738504Y-4572000D01*
X35718542Y-4382072D01*
X35659527Y-4200444D01*
X35659526Y-4200442D01*
X35659525Y-4200439D01*
X35627684Y-4145289D01*
X35610946Y-4076294D01*
X35634166Y-4009202D01*
X35647702Y-3993200D01*
X36363657Y-3277245D01*
X36376092Y-3267284D01*
X36375905Y-3267057D01*
X36382016Y-3262001D01*
X36382015Y-3262001D01*
X36382018Y-3262000D01*
X36429368Y-3211575D01*
X36430650Y-3210252D01*
X36434023Y-3206879D01*
X36458973Y-3187526D01*
X36531807Y-3144453D01*
X36531816Y-3144443D01*
X36532766Y-3143708D01*
X36533659Y-3143357D01*
X36538631Y-3140417D01*
X36539105Y-3141218D01*
X36598849Y-3117756D01*
X36668473Y-3131652D01*
X36687226Y-3143703D01*
X36688196Y-3144455D01*
X36831394Y-3229143D01*
X36831397Y-3229143D01*
X36831399Y-3229145D01*
X36991169Y-3275562D01*
X37028488Y-3278499D01*
X37028489Y-3278500D01*
X37028498Y-3278500D01*
X37461511Y-3278500D01*
X37461511Y-3278499D01*
X37498831Y-3275562D01*
X37658601Y-3229145D01*
X37658603Y-3229143D01*
X37658605Y-3229143D01*
X37751075Y-3174456D01*
X37801807Y-3144453D01*
X37919453Y-3026807D01*
X37993109Y-2902262D01*
X38004143Y-2883605D01*
X38004143Y-2883603D01*
X38004145Y-2883601D01*
X38050562Y-2723831D01*
X38053499Y-2686510D01*
X38053500Y-2686510D01*
X38053500Y-903489D01*
X38053499Y-903488D01*
X38051362Y-876341D01*
X38050562Y-866169D01*
X38004145Y-706399D01*
X38004143Y-706397D01*
X38004143Y-706394D01*
X37919455Y-563196D01*
X37919454Y-563195D01*
X37919453Y-563193D01*
X37915406Y-559146D01*
X37881380Y-496839D01*
X37878499Y-470057D01*
X37878499Y295145D01*
X37880249Y310988D01*
X37879955Y311015D01*
X37880700Y318905D01*
X37880702Y318913D01*
X37878531Y387993D01*
X37878500Y389972D01*
X37878500Y418854D01*
X37878500Y418860D01*
X37877620Y425822D01*
X37877156Y431711D01*
X37875674Y478893D01*
X37870017Y498362D01*
X37866012Y517706D01*
X37863474Y537801D01*
X37846100Y581682D01*
X37844181Y587288D01*
X37831018Y632597D01*
X37820706Y650034D01*
X37812010Y667783D01*
X37804552Y686621D01*
X37776812Y724801D01*
X37773564Y729746D01*
X37749542Y770366D01*
X37735214Y784694D01*
X37722384Y799715D01*
X37710472Y816111D01*
X37680423Y840970D01*
X37674119Y846185D01*
X37669726Y850182D01*
X37531245Y988664D01*
X37521282Y1001099D01*
X37521056Y1000911D01*
X37516003Y1007019D01*
X37465629Y1054323D01*
X37464239Y1055670D01*
X37453993Y1065916D01*
X37443779Y1076131D01*
X37443775Y1076135D01*
X37438228Y1080438D01*
X37433720Y1084289D01*
X37399328Y1116584D01*
X37399322Y1116588D01*
X37381566Y1126350D01*
X37365050Y1137199D01*
X37349044Y1149615D01*
X37318292Y1162923D01*
X37305743Y1168353D01*
X37300411Y1170965D01*
X37259064Y1193696D01*
X37239439Y1198735D01*
X37220739Y1205137D01*
X37202148Y1213182D01*
X37202146Y1213183D01*
X37202145Y1213183D01*
X37155545Y1220564D01*
X37149732Y1221768D01*
X37104033Y1233501D01*
X37083779Y1233501D01*
X37064069Y1235052D01*
X37044060Y1238221D01*
X37044059Y1238221D01*
X36997086Y1233781D01*
X36991153Y1233501D01*
X35260941Y1233501D01*
X35192820Y1253503D01*
X35146327Y1307159D01*
X35135628Y1372642D01*
X35135904Y1375271D01*
X35162902Y1440929D01*
X35172114Y1451211D01*
X35181135Y1460231D01*
X35185437Y1465779D01*
X35189267Y1470265D01*
X35221586Y1504679D01*
X35231345Y1522433D01*
X35242204Y1538962D01*
X35254326Y1554589D01*
X35254614Y1554960D01*
X35273354Y1598268D01*
X35275965Y1603596D01*
X35286489Y1622738D01*
X35298695Y1644940D01*
X35303733Y1664565D01*
X35310132Y1683256D01*
X35317529Y1700351D01*
X35362938Y1754921D01*
X35430645Y1776282D01*
X35497304Y1758760D01*
X35561394Y1720857D01*
X35561397Y1720857D01*
X35561399Y1720855D01*
X35721169Y1674438D01*
X35758488Y1671501D01*
X35758489Y1671500D01*
X35758498Y1671500D01*
X36191511Y1671500D01*
X36191511Y1671501D01*
X36228831Y1674438D01*
X36388601Y1720855D01*
X36388603Y1720857D01*
X36388605Y1720857D01*
X36461523Y1763981D01*
X36531807Y1805547D01*
X36531814Y1805555D01*
X36532767Y1806292D01*
X36533662Y1806644D01*
X36538631Y1809582D01*
X36539104Y1808781D01*
X36598850Y1832244D01*
X36668474Y1818348D01*
X36687233Y1806292D01*
X36688189Y1805551D01*
X36688193Y1805547D01*
X36688197Y1805545D01*
X36688198Y1805544D01*
X36831394Y1720857D01*
X36831397Y1720857D01*
X36831399Y1720855D01*
X36991169Y1674438D01*
X37028488Y1671501D01*
X37028489Y1671500D01*
X37028498Y1671500D01*
X37461511Y1671500D01*
X37461511Y1671501D01*
X37498831Y1674438D01*
X37658601Y1720855D01*
X37658603Y1720857D01*
X37658605Y1720857D01*
X37731526Y1763983D01*
X37801807Y1805547D01*
X37919453Y1923193D01*
X37987630Y2038473D01*
X38004143Y2066395D01*
X38004143Y2066397D01*
X38004145Y2066399D01*
X38050562Y2226169D01*
X38053499Y2263490D01*
X38053500Y2263490D01*
X38053500Y4046511D01*
X38053499Y4046512D01*
X38050562Y4083829D01*
X38050562Y4083830D01*
X38046277Y4098580D01*
X38004145Y4243601D01*
X38004143Y4243603D01*
X38004143Y4243606D01*
X37919455Y4386804D01*
X37919454Y4386805D01*
X37919453Y4386807D01*
X37915406Y4390854D01*
X37881380Y4453161D01*
X37878500Y4479942D01*
X37878499Y5183646D01*
X37880249Y5199486D01*
X37879956Y5199513D01*
X37880701Y5207406D01*
X37880702Y5207409D01*
X37880375Y5217802D01*
X37886707Y5261392D01*
X37922887Y5370574D01*
X37933500Y5474455D01*
X37933499Y6100544D01*
X37931260Y6122457D01*
X37922887Y6204426D01*
X37920090Y6212866D01*
X37867115Y6372738D01*
X37774030Y6523652D01*
X37774029Y6523653D01*
X37774024Y6523659D01*
X37686778Y6610905D01*
X37652752Y6673217D01*
X37657817Y6744032D01*
X37686778Y6789095D01*
X37774024Y6876342D01*
X37774030Y6876348D01*
X37867115Y7027262D01*
X37922887Y7195574D01*
X37933500Y7299455D01*
X37933499Y7925544D01*
X37922887Y8029426D01*
X37867115Y8197738D01*
X37774030Y8348652D01*
X37774029Y8348653D01*
X37774024Y8348659D01*
X37648658Y8474025D01*
X37648652Y8474030D01*
X37497738Y8567115D01*
X37497737Y8567116D01*
X37452019Y8582265D01*
X37393651Y8622677D01*
X37366395Y8688234D01*
X37378908Y8758119D01*
X37427218Y8810145D01*
X37465456Y8825115D01*
X37507288Y8834006D01*
X37681752Y8911682D01*
X37836253Y9023934D01*
X37875063Y9067037D01*
X37964034Y9165849D01*
X37964035Y9165851D01*
X37964040Y9165856D01*
X38059527Y9331244D01*
X38118542Y9512872D01*
X38138504Y9702800D01*
X38138504Y9702802D01*
X38138504Y9705300D01*
X38138912Y9706693D01*
X38139194Y9709367D01*
X38139683Y9709316D01*
X38158506Y9773421D01*
X38212162Y9819914D01*
X38264504Y9831300D01*
X41128787Y9831300D01*
X41196908Y9811298D01*
X41243401Y9757642D01*
X41250931Y9736231D01*
X41255702Y9717388D01*
X41255703Y9717387D01*
X41255704Y9717384D01*
X41305157Y9604642D01*
X41346141Y9511207D01*
X41469275Y9322735D01*
X41469279Y9322730D01*
X41621762Y9157092D01*
X41676331Y9114619D01*
X41799424Y9018811D01*
X41997426Y8911658D01*
X41997427Y8911658D01*
X41997428Y8911657D01*
X42109227Y8873277D01*
X42210365Y8838556D01*
X42432431Y8801500D01*
X42432435Y8801500D01*
X42657565Y8801500D01*
X42657569Y8801500D01*
X42879635Y8838556D01*
X43092574Y8911658D01*
X43290576Y9018811D01*
X43468240Y9157094D01*
X43620722Y9322732D01*
X43743860Y9511209D01*
X43834296Y9717384D01*
X43889564Y9935632D01*
X43908156Y10160000D01*
X43889564Y10384368D01*
X43860019Y10501039D01*
X43834297Y10602613D01*
X43834296Y10602614D01*
X43834296Y10602616D01*
X43743860Y10808791D01*
X43737140Y10819076D01*
X43620724Y10997266D01*
X43620719Y10997271D01*
X43477524Y11152821D01*
X43446103Y11216486D01*
X43454090Y11287032D01*
X43498948Y11342061D01*
X43526183Y11356211D01*
X43641204Y11399111D01*
X43758261Y11486739D01*
X43845889Y11603796D01*
X43896989Y11740799D01*
X43898800Y11757638D01*
X43903499Y11801351D01*
X43903500Y11801368D01*
X43903500Y13598633D01*
X43903499Y13598650D01*
X43896990Y13659197D01*
X43896988Y13659205D01*
X43845889Y13796203D01*
X43845887Y13796208D01*
X43758261Y13913262D01*
X43641205Y14000889D01*
X43633840Y14004910D01*
X43583635Y14055109D01*
X43568541Y14124483D01*
X43593348Y14191004D01*
X43650182Y14233554D01*
X43694220Y14241500D01*
X49590500Y14241500D01*
X49658621Y14221498D01*
G37*
%TD.AperFunction*%
%TA.AperFunction,Conductor*%
G36*
X64447816Y16537104D02*
G01*
X64515931Y16517092D01*
X64536897Y16500194D01*
X66463103Y14573721D01*
X66497122Y14511408D01*
X66500000Y14484633D01*
X66500000Y-11527824D01*
X66479998Y-11595945D01*
X66463114Y-11616901D01*
X65247376Y-12833156D01*
X65185071Y-12867194D01*
X65114255Y-12862144D01*
X65057410Y-12819609D01*
X65032585Y-12753094D01*
X65032916Y-12731262D01*
X65033499Y-12725550D01*
X65033500Y-12725545D01*
X65033499Y-12099456D01*
X65027675Y-12042449D01*
X65022887Y-11995574D01*
X65008377Y-11951785D01*
X64967115Y-11827262D01*
X64874030Y-11676348D01*
X64874029Y-11676347D01*
X64874024Y-11676341D01*
X64786424Y-11588741D01*
X64752398Y-11526429D01*
X64757463Y-11455614D01*
X64786424Y-11410551D01*
X64873629Y-11323345D01*
X64873634Y-11323339D01*
X64966657Y-11172525D01*
X65022393Y-11004321D01*
X65022394Y-11004317D01*
X65029221Y-10937501D01*
X65029220Y-10937500D01*
X62641691Y-10937500D01*
X62599120Y-10925000D01*
X60723548Y-10925000D01*
X60655427Y-10904998D01*
X60622680Y-10874509D01*
X60538261Y-10761738D01*
X60486681Y-10723126D01*
X60444134Y-10666290D01*
X60439070Y-10595474D01*
X60473092Y-10533166D01*
X60744355Y-10261903D01*
X60806666Y-10227879D01*
X60833449Y-10225000D01*
X61375000Y-10225000D01*
X62075000Y-10225000D01*
X62658309Y-10225000D01*
X62700880Y-10237500D01*
X63475000Y-10237500D01*
X63475000Y-9567000D01*
X64175000Y-9567000D01*
X64175000Y-10237500D01*
X65029220Y-10237500D01*
X65029221Y-10237498D01*
X65022394Y-10170682D01*
X65022393Y-10170678D01*
X64966657Y-10002474D01*
X64873634Y-9851660D01*
X64873629Y-9851654D01*
X64748345Y-9726370D01*
X64748339Y-9726365D01*
X64597525Y-9633342D01*
X64429321Y-9577606D01*
X64429318Y-9577605D01*
X64325516Y-9567000D01*
X64175000Y-9567000D01*
X63475000Y-9567000D01*
X63324483Y-9567000D01*
X63220681Y-9577605D01*
X63220678Y-9577606D01*
X63052474Y-9633342D01*
X62901660Y-9726365D01*
X62901654Y-9726370D01*
X62776370Y-9851654D01*
X62771815Y-9857416D01*
X62769630Y-9855688D01*
X62726350Y-9894573D01*
X62656269Y-9905937D01*
X62591169Y-9877609D01*
X62571090Y-9856427D01*
X62537904Y-9812095D01*
X62420965Y-9724555D01*
X62284093Y-9673505D01*
X62223597Y-9667000D01*
X62075000Y-9667000D01*
X62075000Y-10225000D01*
X61375000Y-10225000D01*
X61375000Y-9683448D01*
X61395002Y-9615327D01*
X61411902Y-9594355D01*
X62435854Y-8570403D01*
X62498166Y-8536378D01*
X62524949Y-8533499D01*
X62695544Y-8533499D01*
X62799426Y-8522887D01*
X62967738Y-8467115D01*
X63118652Y-8374030D01*
X63244030Y-8248652D01*
X63337115Y-8097738D01*
X63392887Y-7929426D01*
X63403500Y-7825545D01*
X63403499Y-7199456D01*
X63400996Y-7174958D01*
X63392887Y-7095574D01*
X63371816Y-7031986D01*
X63337115Y-6927262D01*
X63244030Y-6776348D01*
X63244029Y-6776347D01*
X63244024Y-6776341D01*
X63156778Y-6689095D01*
X63122752Y-6626783D01*
X63127817Y-6555968D01*
X63156778Y-6510905D01*
X63244024Y-6423658D01*
X63244030Y-6423652D01*
X63337115Y-6272738D01*
X63392887Y-6104426D01*
X63403500Y-6000545D01*
X63403499Y-5374456D01*
X63392887Y-5270574D01*
X63337115Y-5102262D01*
X63244030Y-4951348D01*
X63244028Y-4951346D01*
X63240177Y-4945102D01*
X63241846Y-4944072D01*
X63219001Y-4887455D01*
X63232246Y-4817704D01*
X63255300Y-4786041D01*
X63290344Y-4750998D01*
X63382661Y-4601329D01*
X63437974Y-4434404D01*
X63448500Y-4331375D01*
X63448499Y-3743626D01*
X63437974Y-3640596D01*
X63382661Y-3473671D01*
X63290344Y-3324002D01*
X63290343Y-3324001D01*
X63290338Y-3323995D01*
X63166004Y-3199661D01*
X63164963Y-3198838D01*
X63164434Y-3198091D01*
X63160809Y-3194466D01*
X63161428Y-3193846D01*
X63123933Y-3140898D01*
X63120741Y-3069973D01*
X63156401Y-3008582D01*
X63164963Y-3001162D01*
X63165990Y-3000348D01*
X63165998Y-3000344D01*
X63290344Y-2875998D01*
X63382661Y-2726329D01*
X63437974Y-2559404D01*
X63448500Y-2456375D01*
X63448499Y-1868626D01*
X63437974Y-1765596D01*
X63382661Y-1598671D01*
X63290344Y-1449002D01*
X63290343Y-1449001D01*
X63290338Y-1448995D01*
X63166004Y-1324661D01*
X63165998Y-1324656D01*
X63016329Y-1232339D01*
X63015647Y-1232113D01*
X62849404Y-1177026D01*
X62849401Y-1177025D01*
X62849399Y-1177025D01*
X62746383Y-1166500D01*
X61733625Y-1166500D01*
X61630600Y-1177025D01*
X61630597Y-1177025D01*
X61630596Y-1177026D01*
X61547885Y-1204433D01*
X61463670Y-1232339D01*
X61314001Y-1324656D01*
X61313995Y-1324661D01*
X61189661Y-1448995D01*
X61185106Y-1454757D01*
X61182843Y-1452968D01*
X61139864Y-1491626D01*
X61085410Y-1504000D01*
X60912449Y-1504000D01*
X60844328Y-1483998D01*
X60823354Y-1467095D01*
X58457905Y898355D01*
X58423879Y960667D01*
X58421000Y987450D01*
X58421000Y4380886D01*
X58422792Y4397121D01*
X58422543Y4397144D01*
X58423287Y4405030D01*
X58423289Y4405037D01*
X58421031Y4476878D01*
X58421000Y4478857D01*
X58421000Y4508929D01*
X58421000Y4508932D01*
X58420069Y4516291D01*
X58419606Y4522178D01*
X58418062Y4571331D01*
X58412079Y4591924D01*
X58408071Y4611282D01*
X58405382Y4632561D01*
X58405382Y4632564D01*
X58387277Y4678292D01*
X58385363Y4683881D01*
X58371645Y4731100D01*
X58360724Y4749565D01*
X58352031Y4767311D01*
X58344135Y4787256D01*
X58315236Y4827030D01*
X58311982Y4831983D01*
X58292389Y4865114D01*
X58286952Y4874309D01*
X58271788Y4889473D01*
X58258947Y4904507D01*
X58246341Y4921857D01*
X58246336Y4921862D01*
X58225218Y4939331D01*
X58208450Y4953203D01*
X58204077Y4957183D01*
X57925405Y5235855D01*
X57891379Y5298167D01*
X57888500Y5324950D01*
X57888500Y7085833D01*
X57888499Y7085850D01*
X57881990Y7146397D01*
X57881988Y7146405D01*
X57830889Y7283403D01*
X57830887Y7283408D01*
X57743261Y7400462D01*
X57626207Y7488088D01*
X57626202Y7488090D01*
X57489204Y7539189D01*
X57489196Y7539191D01*
X57428649Y7545700D01*
X57428638Y7545700D01*
X54331362Y7545700D01*
X54331350Y7545700D01*
X54270803Y7539191D01*
X54270795Y7539189D01*
X54133797Y7488090D01*
X54133792Y7488088D01*
X54016738Y7400462D01*
X53929112Y7283408D01*
X53929110Y7283403D01*
X53878011Y7146405D01*
X53878009Y7146397D01*
X53871500Y7085850D01*
X53871500Y6947000D01*
X53851498Y6878879D01*
X53797842Y6832386D01*
X53745500Y6821000D01*
X52859500Y6821000D01*
X52791379Y6841002D01*
X52744886Y6894658D01*
X52733500Y6947000D01*
X52733500Y15309178D01*
X52733513Y15310447D01*
X52735647Y15416362D01*
X52735646Y15416366D01*
X52735647Y15416377D01*
X52725210Y15489921D01*
X52724789Y15493704D01*
X52718811Y15567761D01*
X52718809Y15567772D01*
X52708611Y15609143D01*
X52707410Y15615345D01*
X52701426Y15657518D01*
X52679327Y15728436D01*
X52678304Y15732104D01*
X52660524Y15804244D01*
X52660523Y15804245D01*
X52660523Y15804248D01*
X52652042Y15824152D01*
X52643823Y15843444D01*
X52641632Y15849401D01*
X52628968Y15890046D01*
X52595772Y15956515D01*
X52594188Y15959940D01*
X52565056Y16028316D01*
X52542279Y16064333D01*
X52539174Y16069841D01*
X52520147Y16107941D01*
X52520142Y16107948D01*
X52476718Y16168227D01*
X52474587Y16171381D01*
X52434883Y16234168D01*
X52406639Y16266049D01*
X52402679Y16271000D01*
X52377782Y16305560D01*
X52359665Y16323677D01*
X52325640Y16385986D01*
X52330703Y16456802D01*
X52373249Y16513638D01*
X52439768Y16538451D01*
X52448772Y16538772D01*
X64447816Y16537104D01*
G37*
%TD.AperFunction*%
%TA.AperFunction,Conductor*%
G36*
X24936988Y-4905249D02*
G01*
X24937016Y-4904956D01*
X24944901Y-4905700D01*
X24944909Y-4905702D01*
X25006208Y-4903775D01*
X25013976Y-4903531D01*
X25015955Y-4903500D01*
X25040500Y-4903500D01*
X25108621Y-4923502D01*
X25155114Y-4977158D01*
X25166500Y-5029500D01*
X25166500Y-10550889D01*
X25164708Y-10567120D01*
X25164958Y-10567144D01*
X25164211Y-10575036D01*
X25166469Y-10646858D01*
X25166500Y-10648837D01*
X25166500Y-10678930D01*
X25167427Y-10686276D01*
X25167893Y-10692190D01*
X25169437Y-10741329D01*
X25169438Y-10741332D01*
X25175421Y-10761929D01*
X25179428Y-10781280D01*
X25182117Y-10802560D01*
X25182117Y-10802562D01*
X25200216Y-10848278D01*
X25202139Y-10853894D01*
X25215853Y-10901097D01*
X25215853Y-10901098D01*
X25226771Y-10919558D01*
X25235468Y-10937311D01*
X25243364Y-10957255D01*
X25243368Y-10957261D01*
X25272259Y-10997025D01*
X25275520Y-11001988D01*
X25278189Y-11006502D01*
X25295650Y-11075318D01*
X25273134Y-11142650D01*
X25217791Y-11187120D01*
X25147190Y-11194609D01*
X25083748Y-11162740D01*
X25080642Y-11159738D01*
X24895404Y-10974500D01*
X24861378Y-10912188D01*
X24858499Y-10885405D01*
X24858499Y-10424455D01*
X24847887Y-10320574D01*
X24847886Y-10320572D01*
X24792115Y-10152262D01*
X24699030Y-10001348D01*
X24699029Y-10001347D01*
X24699024Y-10001341D01*
X24573658Y-9875975D01*
X24573652Y-9875970D01*
X24534239Y-9851660D01*
X24422738Y-9782885D01*
X24338582Y-9754998D01*
X24254427Y-9727113D01*
X24254420Y-9727112D01*
X24150553Y-9716500D01*
X23149455Y-9716500D01*
X23045574Y-9727112D01*
X22877261Y-9782885D01*
X22726347Y-9875970D01*
X22720590Y-9880523D01*
X22719750Y-9879461D01*
X22664271Y-9909749D01*
X22593456Y-9904677D01*
X22554902Y-9879899D01*
X22554410Y-9880523D01*
X22548652Y-9875970D01*
X22462980Y-9823127D01*
X22397738Y-9782885D01*
X22397736Y-9782884D01*
X22397734Y-9782883D01*
X22344867Y-9765365D01*
X22286496Y-9724951D01*
X22259240Y-9659395D01*
X22258500Y-9645761D01*
X22258500Y-7814592D01*
X22278502Y-7746471D01*
X22295400Y-7725502D01*
X23013657Y-7007245D01*
X23026092Y-6997284D01*
X23025905Y-6997057D01*
X23032016Y-6992001D01*
X23032015Y-6992001D01*
X23032018Y-6992000D01*
X23079352Y-6941592D01*
X23080667Y-6940235D01*
X23101135Y-6919769D01*
X23105437Y-6914221D01*
X23109267Y-6909735D01*
X23141586Y-6875321D01*
X23151345Y-6857567D01*
X23162204Y-6841038D01*
X23174614Y-6825040D01*
X23193354Y-6781732D01*
X23195965Y-6776404D01*
X23195996Y-6776348D01*
X23218695Y-6735060D01*
X23223733Y-6715435D01*
X23230138Y-6696730D01*
X23233442Y-6689095D01*
X23238181Y-6678145D01*
X23243584Y-6644032D01*
X23245561Y-6631547D01*
X23246762Y-6625740D01*
X23258500Y-6580030D01*
X23258500Y-6559775D01*
X23260051Y-6540063D01*
X23263220Y-6520057D01*
X23259838Y-6484276D01*
X23258780Y-6473080D01*
X23258500Y-6467148D01*
X23258500Y-5029500D01*
X23278502Y-4961379D01*
X23332158Y-4914886D01*
X23384500Y-4903500D01*
X24921147Y-4903500D01*
X24936988Y-4905249D01*
G37*
%TD.AperFunction*%
%TA.AperFunction,Conductor*%
G36*
X24308474Y9763348D02*
G01*
X24327227Y9751297D01*
X24328189Y9750551D01*
X24328193Y9750547D01*
X24471399Y9665855D01*
X24631169Y9619438D01*
X24668488Y9616501D01*
X24668489Y9616500D01*
X24668498Y9616500D01*
X25101511Y9616500D01*
X25101511Y9616501D01*
X25138831Y9619438D01*
X25298601Y9665855D01*
X25298604Y9665858D01*
X25305347Y9667816D01*
X25376343Y9667613D01*
X25435960Y9629059D01*
X25465268Y9564395D01*
X25466500Y9546819D01*
X25466500Y5952661D01*
X25446498Y5884540D01*
X25392842Y5838047D01*
X25322568Y5827943D01*
X25305346Y5831664D01*
X25185000Y5866629D01*
X25185000Y3258373D01*
X25305345Y3293337D01*
X25376342Y3293134D01*
X25435958Y3254581D01*
X25465267Y3189916D01*
X25466499Y3172341D01*
X25466500Y2944442D01*
X25465170Y2926181D01*
X25463222Y2912879D01*
X25461659Y2902211D01*
X25464793Y2866386D01*
X25466260Y2849628D01*
X25466500Y2844134D01*
X25466500Y2835816D01*
X25470242Y2803801D01*
X25470428Y2801980D01*
X25477112Y2725581D01*
X25478596Y2718394D01*
X25478531Y2718381D01*
X25480165Y2711011D01*
X25480229Y2711025D01*
X25481921Y2703885D01*
X25487744Y2687887D01*
X25508175Y2631753D01*
X25508761Y2630066D01*
X25532885Y2557264D01*
X25535987Y2550612D01*
X25535926Y2550584D01*
X25539211Y2543798D01*
X25539270Y2543827D01*
X25542563Y2537270D01*
X25584736Y2473150D01*
X25585717Y2471610D01*
X25625970Y2406349D01*
X25625972Y2406347D01*
X25630522Y2400592D01*
X25630468Y2400550D01*
X25635228Y2394708D01*
X25635279Y2394750D01*
X25639997Y2389128D01*
X25695822Y2336460D01*
X25697136Y2335183D01*
X26144595Y1887724D01*
X26178621Y1825412D01*
X26181500Y1798629D01*
X26181500Y1389456D01*
X26192112Y1285575D01*
X26247885Y1117262D01*
X26340970Y966348D01*
X26340975Y966342D01*
X26466341Y840976D01*
X26466347Y840971D01*
X26466348Y840970D01*
X26506651Y816111D01*
X26548933Y790031D01*
X26596411Y737245D01*
X26607814Y667170D01*
X26579521Y602054D01*
X26548933Y575549D01*
X26456660Y518635D01*
X26456654Y518630D01*
X26331370Y393346D01*
X26331365Y393340D01*
X26238342Y242526D01*
X26182605Y74320D01*
X26177055Y20002D01*
X26177057Y20000D01*
X27629000Y20000D01*
X27697121Y-2D01*
X27743614Y-53658D01*
X27755000Y-106000D01*
X27755000Y-554000D01*
X27734998Y-622121D01*
X27681342Y-668614D01*
X27629000Y-680000D01*
X26177057Y-680000D01*
X26177055Y-680001D01*
X26182605Y-734319D01*
X26238342Y-902525D01*
X26331365Y-1053339D01*
X26331370Y-1053345D01*
X26456657Y-1178632D01*
X26459446Y-1180837D01*
X26460863Y-1182838D01*
X26461850Y-1183825D01*
X26461681Y-1183993D01*
X26500479Y-1238775D01*
X26503674Y-1309700D01*
X26468017Y-1371093D01*
X26459457Y-1378511D01*
X26456345Y-1380971D01*
X26330975Y-1506341D01*
X26330970Y-1506347D01*
X26237885Y-1657262D01*
X26182113Y-1825572D01*
X26182112Y-1825579D01*
X26171500Y-1929446D01*
X26171500Y-2530544D01*
X26182112Y-2634425D01*
X26199372Y-2686511D01*
X26237266Y-2800870D01*
X26239706Y-2871822D01*
X26203398Y-2932832D01*
X26139869Y-2964527D01*
X26117661Y-2966500D01*
X25758853Y-2966500D01*
X25743011Y-2964750D01*
X25742984Y-2965044D01*
X25735091Y-2964298D01*
X25666024Y-2966469D01*
X25664045Y-2966500D01*
X25635144Y-2966500D01*
X25635140Y-2966500D01*
X25635130Y-2966501D01*
X25628179Y-2967379D01*
X25622267Y-2967844D01*
X25575112Y-2969326D01*
X25575110Y-2969327D01*
X25555655Y-2974978D01*
X25536302Y-2978986D01*
X25516210Y-2981524D01*
X25516202Y-2981526D01*
X25472336Y-2998893D01*
X25466721Y-3000816D01*
X25421407Y-3013982D01*
X25403964Y-3024297D01*
X25386218Y-3032990D01*
X25367382Y-3040448D01*
X25332549Y-3065755D01*
X25265681Y-3089612D01*
X25196530Y-3073530D01*
X25147051Y-3022614D01*
X25132953Y-2953032D01*
X25133173Y-2950729D01*
X25138504Y-2900008D01*
X25118542Y-2710080D01*
X25090278Y-2623096D01*
X25088251Y-2552131D01*
X25124913Y-2491332D01*
X25143965Y-2476920D01*
X25148652Y-2474030D01*
X25274030Y-2348652D01*
X25367115Y-2197738D01*
X25422887Y-2029426D01*
X25433500Y-1925545D01*
X25433499Y-1299456D01*
X25422887Y-1195574D01*
X25367115Y-1027262D01*
X25274030Y-876348D01*
X25274029Y-876347D01*
X25274024Y-876341D01*
X25186778Y-789095D01*
X25152752Y-726783D01*
X25157817Y-655968D01*
X25186778Y-610905D01*
X25274024Y-523658D01*
X25274030Y-523652D01*
X25367115Y-372738D01*
X25422887Y-204426D01*
X25433500Y-100545D01*
X25433499Y525544D01*
X25424792Y610773D01*
X25422887Y629426D01*
X25415684Y651163D01*
X25367115Y797738D01*
X25274030Y948652D01*
X25274029Y948653D01*
X25274024Y948659D01*
X25148658Y1074025D01*
X25148652Y1074030D01*
X25135314Y1082257D01*
X24997738Y1167115D01*
X24902313Y1198735D01*
X24829427Y1222887D01*
X24829420Y1222888D01*
X24725553Y1233500D01*
X24725545Y1233500D01*
X24549500Y1233500D01*
X24481379Y1253502D01*
X24434886Y1307158D01*
X24423500Y1359500D01*
X24423500Y2230994D01*
X24423500Y3137481D01*
X24443501Y3205598D01*
X24497157Y3252091D01*
X24567431Y3262195D01*
X24584654Y3258474D01*
X24585000Y3258374D01*
X24585000Y5866629D01*
X24471598Y5833682D01*
X24328499Y5749054D01*
X24327639Y5748386D01*
X24326840Y5748073D01*
X24321679Y5745020D01*
X24321186Y5745853D01*
X24261554Y5722438D01*
X24191931Y5736337D01*
X24173184Y5748385D01*
X24171803Y5749456D01*
X24028605Y5834144D01*
X23868829Y5880563D01*
X23831511Y5883500D01*
X23831502Y5883500D01*
X23398498Y5883500D01*
X23398489Y5883500D01*
X23361171Y5880563D01*
X23361170Y5880563D01*
X23201395Y5834144D01*
X23175638Y5818911D01*
X23106821Y5801452D01*
X23039490Y5823970D01*
X22995022Y5879315D01*
X22985500Y5927365D01*
X22985500Y9359906D01*
X23005502Y9428027D01*
X23022399Y9448996D01*
X23178048Y9604645D01*
X23240356Y9638667D01*
X23302288Y9636545D01*
X23361169Y9619438D01*
X23398488Y9616501D01*
X23398489Y9616500D01*
X23398498Y9616500D01*
X23831511Y9616500D01*
X23831511Y9616501D01*
X23868831Y9619438D01*
X24028601Y9665855D01*
X24028603Y9665857D01*
X24028605Y9665857D01*
X24096239Y9705856D01*
X24171807Y9750547D01*
X24171814Y9750555D01*
X24172767Y9751292D01*
X24173662Y9751644D01*
X24178631Y9754582D01*
X24179104Y9753781D01*
X24238850Y9777244D01*
X24308474Y9763348D01*
G37*
%TD.AperFunction*%
%TA.AperFunction,Conductor*%
G36*
X41463901Y14221498D02*
G01*
X41510394Y14167842D01*
X41520498Y14097568D01*
X41491004Y14032988D01*
X41456160Y14004910D01*
X41448794Y14000889D01*
X41331738Y13913262D01*
X41244112Y13796208D01*
X41244110Y13796203D01*
X41193011Y13659205D01*
X41193009Y13659197D01*
X41186500Y13598650D01*
X41186500Y12324950D01*
X41166498Y12256829D01*
X41149595Y12235855D01*
X40785145Y11871405D01*
X40722833Y11837379D01*
X40696050Y11834500D01*
X33837614Y11834500D01*
X33821379Y11836293D01*
X33821356Y11836043D01*
X33813463Y11836789D01*
X33741623Y11834531D01*
X33739644Y11834500D01*
X33709568Y11834500D01*
X33709563Y11834500D01*
X33709554Y11834499D01*
X33702219Y11833573D01*
X33696305Y11833107D01*
X33647172Y11831563D01*
X33647170Y11831563D01*
X33647169Y11831562D01*
X33626571Y11825579D01*
X33607221Y11821572D01*
X33585940Y11818884D01*
X33585935Y11818882D01*
X33540214Y11800781D01*
X33534599Y11798859D01*
X33487406Y11785148D01*
X33487399Y11785145D01*
X33468937Y11774227D01*
X33451191Y11765534D01*
X33431248Y11757638D01*
X33431245Y11757636D01*
X33391470Y11728738D01*
X33386508Y11725479D01*
X33344194Y11700454D01*
X33329022Y11685283D01*
X33313996Y11672450D01*
X33296644Y11659843D01*
X33296643Y11659842D01*
X33265299Y11621955D01*
X33261303Y11617564D01*
X30720611Y9076873D01*
X30707865Y9066660D01*
X30708025Y9066467D01*
X30701920Y9061417D01*
X30652718Y9009023D01*
X30651342Y9007603D01*
X30630071Y8986332D01*
X30625527Y8980475D01*
X30621678Y8975969D01*
X30588029Y8940135D01*
X30588027Y8940133D01*
X30577691Y8921333D01*
X30566843Y8904820D01*
X30553699Y8887874D01*
X30553693Y8887865D01*
X30534171Y8842753D01*
X30531560Y8837422D01*
X30507065Y8792861D01*
X30456721Y8742801D01*
X30387304Y8727906D01*
X30330502Y8746318D01*
X30297527Y8766657D01*
X30129321Y8822394D01*
X30129318Y8822395D01*
X30025516Y8833000D01*
X29875000Y8833000D01*
X29875000Y7588500D01*
X29854998Y7520379D01*
X29801342Y7473886D01*
X29749000Y7462500D01*
X28320780Y7462500D01*
X28320778Y7462499D01*
X28327605Y7395683D01*
X28327606Y7395679D01*
X28383342Y7227475D01*
X28476365Y7076661D01*
X28476366Y7076660D01*
X28563576Y6989449D01*
X28597601Y6927137D01*
X28592535Y6856321D01*
X28563576Y6811259D01*
X28475970Y6723653D01*
X28382885Y6572738D01*
X28327113Y6404428D01*
X28327112Y6404421D01*
X28316500Y6300554D01*
X28316500Y5674456D01*
X28327112Y5570575D01*
X28382885Y5402262D01*
X28475970Y5251348D01*
X28475975Y5251342D01*
X28601341Y5125976D01*
X28601347Y5125971D01*
X28601348Y5125970D01*
X28752262Y5032885D01*
X28920574Y4977113D01*
X29024455Y4966500D01*
X29797903Y4966501D01*
X29866024Y4946499D01*
X29886998Y4929596D01*
X29976520Y4840074D01*
X30010546Y4777762D01*
X30005481Y4706947D01*
X29963078Y4650219D01*
X29925000Y4621630D01*
X29925000Y2981000D01*
X29904998Y2912879D01*
X29851342Y2866386D01*
X29799000Y2855000D01*
X29451000Y2855000D01*
X29382879Y2875002D01*
X29336386Y2928658D01*
X29325000Y2981000D01*
X29324999Y4621629D01*
X29211598Y4588682D01*
X29068498Y4504052D01*
X29068496Y4504051D01*
X28950949Y4386504D01*
X28950948Y4386502D01*
X28866318Y4243401D01*
X28833908Y4131848D01*
X28795694Y4072013D01*
X28731197Y4042336D01*
X28660895Y4052240D01*
X28607107Y4098580D01*
X28593306Y4127371D01*
X28581658Y4162524D01*
X28488634Y4313340D01*
X28488629Y4313346D01*
X28363345Y4438630D01*
X28363339Y4438635D01*
X28212525Y4531658D01*
X28044321Y4587394D01*
X28044318Y4587395D01*
X27940516Y4598000D01*
X27765000Y4598000D01*
X27765000Y3366000D01*
X27744998Y3297879D01*
X27691342Y3251386D01*
X27639000Y3240000D01*
X27191000Y3240000D01*
X27122879Y3260002D01*
X27076386Y3313658D01*
X27065000Y3366000D01*
X27065000Y4598001D01*
X27046504Y4616497D01*
X27041378Y4618002D01*
X26994885Y4671658D01*
X26983499Y4724000D01*
X26983499Y7488090D01*
X26983499Y8162502D01*
X28320778Y8162502D01*
X28320780Y8162500D01*
X29175000Y8162500D01*
X29175000Y8833000D01*
X29024483Y8833000D01*
X28920681Y8822395D01*
X28920678Y8822394D01*
X28752474Y8766658D01*
X28601660Y8673635D01*
X28601654Y8673630D01*
X28476370Y8548346D01*
X28476365Y8548340D01*
X28383342Y8397526D01*
X28327606Y8229322D01*
X28327605Y8229318D01*
X28320778Y8162502D01*
X26983499Y8162502D01*
X26983499Y11733633D01*
X27003501Y11801750D01*
X27020399Y11822719D01*
X29402275Y14204595D01*
X29464588Y14238621D01*
X29491371Y14241500D01*
X41395780Y14241500D01*
X41463901Y14221498D01*
G37*
%TD.AperFunction*%
%TA.AperFunction,Conductor*%
G36*
X35324724Y10497498D02*
G01*
X35371217Y10443842D01*
X35381321Y10373568D01*
X35351827Y10308988D01*
X35345698Y10302404D01*
X35236333Y10193040D01*
X35223901Y10183079D01*
X35224089Y10182852D01*
X35217979Y10177798D01*
X35170694Y10127445D01*
X35169319Y10126026D01*
X35148863Y10105569D01*
X35144560Y10100023D01*
X35140714Y10095521D01*
X35108417Y10061126D01*
X35108411Y10061117D01*
X35098651Y10043365D01*
X35087803Y10026850D01*
X35075386Y10010842D01*
X35056645Y9967536D01*
X35054034Y9962206D01*
X35031305Y9920861D01*
X35031303Y9920856D01*
X35026267Y9901241D01*
X35019864Y9882538D01*
X35011819Y9863948D01*
X35004437Y9817344D01*
X35003233Y9811532D01*
X34991499Y9765831D01*
X34991499Y9745569D01*
X34989948Y9725867D01*
X34986780Y9705862D01*
X34986780Y9705856D01*
X34991220Y9658883D01*
X34991500Y9652950D01*
X34991500Y7506095D01*
X34971498Y7437974D01*
X34917842Y7391481D01*
X34847568Y7381377D01*
X34782988Y7410871D01*
X34776405Y7417000D01*
X34093374Y8100031D01*
X34062864Y8149494D01*
X34007115Y8317738D01*
X33914030Y8468652D01*
X33914029Y8468653D01*
X33914024Y8468659D01*
X33788658Y8594025D01*
X33788652Y8594030D01*
X33725167Y8633188D01*
X33637738Y8687115D01*
X33492697Y8735176D01*
X33469427Y8742887D01*
X33469420Y8742888D01*
X33365553Y8753500D01*
X32563948Y8753500D01*
X32495827Y8773502D01*
X32449334Y8827158D01*
X32439230Y8897432D01*
X32468724Y8962012D01*
X32474824Y8968566D01*
X33986857Y10480598D01*
X34049167Y10514621D01*
X34075950Y10517500D01*
X35256603Y10517500D01*
X35324724Y10497498D01*
G37*
%TD.AperFunction*%
%TD*%
%TA.AperFunction,Conductor*%
%TO.N,GND*%
G36*
X109798039Y13950315D02*
G01*
X109843794Y13897511D01*
X109855000Y13846000D01*
X109855000Y-8766000D01*
X109835315Y-8833039D01*
X109782511Y-8878794D01*
X109731000Y-8890000D01*
X87119000Y-8890000D01*
X87051961Y-8870315D01*
X87006206Y-8817511D01*
X86995000Y-8766000D01*
X86995000Y2540000D01*
X93903583Y2540000D01*
X93922871Y2122816D01*
X93922871Y2122810D01*
X93922872Y2122807D01*
X93980568Y1709195D01*
X93980570Y1709187D01*
X94076184Y1302659D01*
X94208908Y906665D01*
X94208909Y906661D01*
X94377584Y524650D01*
X94377589Y524640D01*
X94377593Y524631D01*
X94377597Y524623D01*
X94377598Y524622D01*
X94580809Y159789D01*
X94580813Y159782D01*
X94580814Y159781D01*
X94816831Y-184762D01*
X94816833Y-184764D01*
X94816840Y-184774D01*
X95082416Y-504593D01*
X95083633Y-506059D01*
X95378941Y-801367D01*
X95425376Y-839926D01*
X95700225Y-1068159D01*
X95700231Y-1068163D01*
X95700238Y-1068169D01*
X96044781Y-1304186D01*
X96409631Y-1507407D01*
X96409648Y-1507414D01*
X96409649Y-1507415D01*
X96791660Y-1676090D01*
X96791664Y-1676091D01*
X96791666Y-1676091D01*
X96791676Y-1676096D01*
X97187656Y-1808815D01*
X97594192Y-1904431D01*
X98007816Y-1962129D01*
X98425000Y-1981417D01*
X98842184Y-1962129D01*
X99255808Y-1904431D01*
X99662344Y-1808815D01*
X100058324Y-1676096D01*
X100058335Y-1676090D01*
X100058339Y-1676090D01*
X100293458Y-1572274D01*
X100440369Y-1507407D01*
X100805219Y-1304186D01*
X101149762Y-1068169D01*
X101471059Y-801367D01*
X101766367Y-506059D01*
X102033169Y-184762D01*
X102269186Y159781D01*
X102472407Y524631D01*
X102586136Y782203D01*
X102641090Y906661D01*
X102641091Y906665D01*
X102641096Y906676D01*
X102773815Y1302656D01*
X102869431Y1709192D01*
X102927129Y2122816D01*
X102946417Y2540000D01*
X102927129Y2957184D01*
X102869431Y3370808D01*
X102773815Y3777344D01*
X102641096Y4173324D01*
X102641091Y4173336D01*
X102641090Y4173340D01*
X102472415Y4555351D01*
X102472414Y4555352D01*
X102472407Y4555369D01*
X102269186Y4920219D01*
X102033169Y5264762D01*
X102033163Y5264769D01*
X102033159Y5264775D01*
X101766376Y5586048D01*
X101766367Y5586059D01*
X101471059Y5881367D01*
X101468457Y5883528D01*
X101149774Y6148160D01*
X101149764Y6148167D01*
X101149762Y6148169D01*
X100805219Y6384186D01*
X100805218Y6384187D01*
X100805211Y6384191D01*
X100440378Y6587402D01*
X100440377Y6587403D01*
X100440369Y6587407D01*
X100440360Y6587411D01*
X100440350Y6587416D01*
X100058339Y6756091D01*
X100058335Y6756092D01*
X100058326Y6756095D01*
X100058324Y6756096D01*
X99662344Y6888815D01*
X99662343Y6888816D01*
X99662341Y6888816D01*
X99255813Y6984430D01*
X99255805Y6984432D01*
X98842193Y7042128D01*
X98842190Y7042129D01*
X98842184Y7042129D01*
X98425000Y7061417D01*
X98007816Y7042129D01*
X98007810Y7042129D01*
X98007806Y7042128D01*
X97594194Y6984432D01*
X97594186Y6984430D01*
X97187658Y6888816D01*
X96791664Y6756092D01*
X96791660Y6756091D01*
X96409649Y6587416D01*
X96409621Y6587402D01*
X96044788Y6384191D01*
X96044781Y6384187D01*
X95700235Y6148167D01*
X95700225Y6148160D01*
X95378952Y5881377D01*
X95378932Y5881359D01*
X95083641Y5586068D01*
X95083623Y5586048D01*
X94816840Y5264775D01*
X94816833Y5264765D01*
X94580813Y4920219D01*
X94580809Y4920212D01*
X94377598Y4555379D01*
X94377584Y4555351D01*
X94208909Y4173340D01*
X94208908Y4173336D01*
X94076184Y3777342D01*
X93980570Y3370814D01*
X93980568Y3370806D01*
X93922872Y2957194D01*
X93922871Y2957184D01*
X93903583Y2540000D01*
X86995000Y2540000D01*
X86995000Y13846000D01*
X87014685Y13913039D01*
X87067489Y13958794D01*
X87119000Y13970000D01*
X109731000Y13970000D01*
X109798039Y13950315D01*
G37*
%TD.AperFunction*%
%TD*%
%TA.AperFunction,Conductor*%
%TO.N,unconnected-(F1-Pad2)*%
G36*
X-13391961Y13950315D02*
G01*
X-13346206Y13897511D01*
X-13335000Y13846000D01*
X-13335000Y-8766000D01*
X-13354685Y-8833039D01*
X-13407489Y-8878794D01*
X-13459000Y-8890000D01*
X-36071000Y-8890000D01*
X-36138039Y-8870315D01*
X-36183794Y-8817511D01*
X-36195000Y-8766000D01*
X-36195000Y2540000D01*
X-29286417Y2540000D01*
X-29267129Y2122816D01*
X-29267129Y2122810D01*
X-29267128Y2122807D01*
X-29209432Y1709195D01*
X-29209430Y1709187D01*
X-29113816Y1302659D01*
X-28981092Y906665D01*
X-28981091Y906661D01*
X-28812416Y524650D01*
X-28812411Y524640D01*
X-28812407Y524631D01*
X-28812403Y524623D01*
X-28812402Y524622D01*
X-28609191Y159789D01*
X-28609187Y159782D01*
X-28609186Y159781D01*
X-28373169Y-184762D01*
X-28373167Y-184764D01*
X-28373160Y-184774D01*
X-28107584Y-504593D01*
X-28106367Y-506059D01*
X-27811059Y-801367D01*
X-27764624Y-839926D01*
X-27489775Y-1068159D01*
X-27489769Y-1068163D01*
X-27489762Y-1068169D01*
X-27145219Y-1304186D01*
X-26780369Y-1507407D01*
X-26780352Y-1507414D01*
X-26780351Y-1507415D01*
X-26398340Y-1676090D01*
X-26398336Y-1676091D01*
X-26398334Y-1676091D01*
X-26398324Y-1676096D01*
X-26002344Y-1808815D01*
X-25595808Y-1904431D01*
X-25182184Y-1962129D01*
X-24765000Y-1981417D01*
X-24347816Y-1962129D01*
X-23934192Y-1904431D01*
X-23527656Y-1808815D01*
X-23131676Y-1676096D01*
X-23131665Y-1676090D01*
X-23131661Y-1676090D01*
X-22896542Y-1572273D01*
X-22749631Y-1507407D01*
X-22384781Y-1304186D01*
X-22040238Y-1068169D01*
X-21718941Y-801367D01*
X-21423633Y-506059D01*
X-21156831Y-184762D01*
X-20920814Y159781D01*
X-20717593Y524631D01*
X-20603864Y782203D01*
X-20548910Y906661D01*
X-20548909Y906665D01*
X-20548904Y906676D01*
X-20416185Y1302656D01*
X-20320569Y1709192D01*
X-20262871Y2122816D01*
X-20243583Y2540000D01*
X-20262871Y2957184D01*
X-20320569Y3370808D01*
X-20416185Y3777344D01*
X-20548904Y4173324D01*
X-20548909Y4173336D01*
X-20548910Y4173340D01*
X-20717585Y4555351D01*
X-20717586Y4555352D01*
X-20717593Y4555369D01*
X-20920814Y4920219D01*
X-21156831Y5264762D01*
X-21156837Y5264769D01*
X-21156841Y5264775D01*
X-21423624Y5586048D01*
X-21423633Y5586059D01*
X-21718941Y5881367D01*
X-21721543Y5883528D01*
X-22040226Y6148160D01*
X-22040236Y6148167D01*
X-22040238Y6148169D01*
X-22384781Y6384186D01*
X-22384782Y6384187D01*
X-22384789Y6384191D01*
X-22749622Y6587402D01*
X-22749623Y6587403D01*
X-22749631Y6587407D01*
X-22749640Y6587411D01*
X-22749650Y6587416D01*
X-23131661Y6756091D01*
X-23131665Y6756092D01*
X-23131674Y6756095D01*
X-23131676Y6756096D01*
X-23527656Y6888815D01*
X-23527657Y6888816D01*
X-23527659Y6888816D01*
X-23934187Y6984430D01*
X-23934195Y6984432D01*
X-24347807Y7042128D01*
X-24347810Y7042129D01*
X-24347816Y7042129D01*
X-24765000Y7061417D01*
X-24765001Y7061417D01*
X-24798035Y7059890D01*
X-25182184Y7042129D01*
X-25182190Y7042129D01*
X-25182194Y7042128D01*
X-25595806Y6984432D01*
X-25595814Y6984430D01*
X-26002342Y6888816D01*
X-26398336Y6756092D01*
X-26398340Y6756091D01*
X-26780351Y6587416D01*
X-26780379Y6587402D01*
X-27145212Y6384191D01*
X-27145219Y6384187D01*
X-27489765Y6148167D01*
X-27489775Y6148160D01*
X-27811048Y5881377D01*
X-27811068Y5881359D01*
X-28106359Y5586068D01*
X-28106377Y5586048D01*
X-28373160Y5264775D01*
X-28373167Y5264765D01*
X-28609187Y4920219D01*
X-28609191Y4920212D01*
X-28812402Y4555379D01*
X-28812416Y4555351D01*
X-28981091Y4173340D01*
X-28981092Y4173336D01*
X-29113816Y3777342D01*
X-29209430Y3370814D01*
X-29209432Y3370806D01*
X-29267128Y2957194D01*
X-29267129Y2957184D01*
X-29286417Y2540000D01*
X-36195000Y2540000D01*
X-36195000Y13846000D01*
X-36175315Y13913039D01*
X-36122511Y13958794D01*
X-36071000Y13970000D01*
X-13459000Y13970000D01*
X-13391961Y13950315D01*
G37*
%TD.AperFunction*%
%TD*%
M02*
