%TF.GenerationSoftware,KiCad,Pcbnew,7.0.5-7.0.5~ubuntu20.04.1*%
%TF.CreationDate,2023-07-13T22:08:42+02:00*%
%TF.ProjectId,ModuleV450,4d6f6475-6c65-4563-9435-302e6b696361,rev?*%
%TF.SameCoordinates,Original*%
%TF.FileFunction,Legend,Top*%
%TF.FilePolarity,Positive*%
%FSLAX46Y46*%
G04 Gerber Fmt 4.6, Leading zero omitted, Abs format (unit mm)*
G04 Created by KiCad (PCBNEW 7.0.5-7.0.5~ubuntu20.04.1) date 2023-07-13 22:08:42*
%MOMM*%
%LPD*%
G01*
G04 APERTURE LIST*
G04 Aperture macros list*
%AMRoundRect*
0 Rectangle with rounded corners*
0 $1 Rounding radius*
0 $2 $3 $4 $5 $6 $7 $8 $9 X,Y pos of 4 corners*
0 Add a 4 corners polygon primitive as box body*
4,1,4,$2,$3,$4,$5,$6,$7,$8,$9,$2,$3,0*
0 Add four circle primitives for the rounded corners*
1,1,$1+$1,$2,$3*
1,1,$1+$1,$4,$5*
1,1,$1+$1,$6,$7*
1,1,$1+$1,$8,$9*
0 Add four rect primitives between the rounded corners*
20,1,$1+$1,$2,$3,$4,$5,0*
20,1,$1+$1,$4,$5,$6,$7,0*
20,1,$1+$1,$6,$7,$8,$9,0*
20,1,$1+$1,$8,$9,$2,$3,0*%
G04 Aperture macros list end*
%ADD10C,0.150000*%
%ADD11C,0.200000*%
%ADD12C,0.300000*%
%ADD13C,0.175000*%
%ADD14C,0.250000*%
%ADD15C,0.100000*%
%ADD16C,0.120000*%
%ADD17C,10.643506*%
%ADD18RoundRect,0.200000X-1.500000X-1.500000X1.500000X-1.500000X1.500000X1.500000X-1.500000X1.500000X0*%
%ADD19O,2.100000X2.100000*%
%ADD20RoundRect,0.200000X-0.850000X-0.850000X0.850000X-0.850000X0.850000X0.850000X-0.850000X0.850000X0*%
%ADD21RoundRect,0.350000X0.150000X-0.662500X0.150000X0.662500X-0.150000X0.662500X-0.150000X-0.662500X0*%
%ADD22RoundRect,0.450000X0.450000X-0.262500X0.450000X0.262500X-0.450000X0.262500X-0.450000X-0.262500X0*%
%ADD23RoundRect,0.450000X-1.075000X0.362500X-1.075000X-0.362500X1.075000X-0.362500X1.075000X0.362500X0*%
%ADD24RoundRect,0.200000X0.450000X0.400000X-0.450000X0.400000X-0.450000X-0.400000X0.450000X-0.400000X0*%
%ADD25RoundRect,0.418750X0.256250X-0.218750X0.256250X0.218750X-0.256250X0.218750X-0.256250X-0.218750X0*%
%ADD26RoundRect,0.443750X0.456250X-0.243750X0.456250X0.243750X-0.456250X0.243750X-0.456250X-0.243750X0*%
%ADD27RoundRect,0.450000X-0.450000X0.262500X-0.450000X-0.262500X0.450000X-0.262500X0.450000X0.262500X0*%
%ADD28RoundRect,0.450000X0.475000X-0.250000X0.475000X0.250000X-0.475000X0.250000X-0.475000X-0.250000X0*%
%ADD29RoundRect,0.450000X0.312500X1.450000X-0.312500X1.450000X-0.312500X-1.450000X0.312500X-1.450000X0*%
%ADD30RoundRect,0.200000X-1.150000X1.250000X-1.150000X-1.250000X1.150000X-1.250000X1.150000X1.250000X0*%
%ADD31RoundRect,0.200000X0.850000X-0.850000X0.850000X0.850000X-0.850000X0.850000X-0.850000X-0.850000X0*%
%ADD32RoundRect,0.350000X0.150000X-0.825000X0.150000X0.825000X-0.150000X0.825000X-0.150000X-0.825000X0*%
%ADD33RoundRect,0.200000X-0.850000X0.850000X-0.850000X-0.850000X0.850000X-0.850000X0.850000X0.850000X0*%
G04 APERTURE END LIST*
D10*
X40287295Y-10008208D02*
X40858723Y-10008208D01*
X40858723Y-10008208D02*
X40973009Y-10046303D01*
X40973009Y-10046303D02*
X41049200Y-10122494D01*
X41049200Y-10122494D02*
X41087295Y-10236779D01*
X41087295Y-10236779D02*
X41087295Y-10312970D01*
X41087295Y-9246303D02*
X41087295Y-9627255D01*
X41087295Y-9627255D02*
X40287295Y-9627255D01*
X41011104Y-8522493D02*
X41049200Y-8560589D01*
X41049200Y-8560589D02*
X41087295Y-8674874D01*
X41087295Y-8674874D02*
X41087295Y-8751065D01*
X41087295Y-8751065D02*
X41049200Y-8865351D01*
X41049200Y-8865351D02*
X40973009Y-8941541D01*
X40973009Y-8941541D02*
X40896819Y-8979636D01*
X40896819Y-8979636D02*
X40744438Y-9017732D01*
X40744438Y-9017732D02*
X40630152Y-9017732D01*
X40630152Y-9017732D02*
X40477771Y-8979636D01*
X40477771Y-8979636D02*
X40401580Y-8941541D01*
X40401580Y-8941541D02*
X40325390Y-8865351D01*
X40325390Y-8865351D02*
X40287295Y-8751065D01*
X40287295Y-8751065D02*
X40287295Y-8674874D01*
X40287295Y-8674874D02*
X40325390Y-8560589D01*
X40325390Y-8560589D02*
X40363485Y-8522493D01*
X40287295Y-7951065D02*
X40858723Y-7951065D01*
X40858723Y-7951065D02*
X40973009Y-7989160D01*
X40973009Y-7989160D02*
X41049200Y-8065351D01*
X41049200Y-8065351D02*
X41087295Y-8179636D01*
X41087295Y-8179636D02*
X41087295Y-8255827D01*
X41087295Y-7189160D02*
X41087295Y-7570112D01*
X41087295Y-7570112D02*
X40287295Y-7570112D01*
X41011104Y-6465350D02*
X41049200Y-6503446D01*
X41049200Y-6503446D02*
X41087295Y-6617731D01*
X41087295Y-6617731D02*
X41087295Y-6693922D01*
X41087295Y-6693922D02*
X41049200Y-6808208D01*
X41049200Y-6808208D02*
X40973009Y-6884398D01*
X40973009Y-6884398D02*
X40896819Y-6922493D01*
X40896819Y-6922493D02*
X40744438Y-6960589D01*
X40744438Y-6960589D02*
X40630152Y-6960589D01*
X40630152Y-6960589D02*
X40477771Y-6922493D01*
X40477771Y-6922493D02*
X40401580Y-6884398D01*
X40401580Y-6884398D02*
X40325390Y-6808208D01*
X40325390Y-6808208D02*
X40287295Y-6693922D01*
X40287295Y-6693922D02*
X40287295Y-6617731D01*
X40287295Y-6617731D02*
X40325390Y-6503446D01*
X40325390Y-6503446D02*
X40363485Y-6465350D01*
X40287295Y-5893922D02*
X40858723Y-5893922D01*
X40858723Y-5893922D02*
X40973009Y-5932017D01*
X40973009Y-5932017D02*
X41049200Y-6008208D01*
X41049200Y-6008208D02*
X41087295Y-6122493D01*
X41087295Y-6122493D02*
X41087295Y-6198684D01*
X41087295Y-5132017D02*
X41087295Y-5512969D01*
X41087295Y-5512969D02*
X40287295Y-5512969D01*
X41011104Y-4408207D02*
X41049200Y-4446303D01*
X41049200Y-4446303D02*
X41087295Y-4560588D01*
X41087295Y-4560588D02*
X41087295Y-4636779D01*
X41087295Y-4636779D02*
X41049200Y-4751065D01*
X41049200Y-4751065D02*
X40973009Y-4827255D01*
X40973009Y-4827255D02*
X40896819Y-4865350D01*
X40896819Y-4865350D02*
X40744438Y-4903446D01*
X40744438Y-4903446D02*
X40630152Y-4903446D01*
X40630152Y-4903446D02*
X40477771Y-4865350D01*
X40477771Y-4865350D02*
X40401580Y-4827255D01*
X40401580Y-4827255D02*
X40325390Y-4751065D01*
X40325390Y-4751065D02*
X40287295Y-4636779D01*
X40287295Y-4636779D02*
X40287295Y-4560588D01*
X40287295Y-4560588D02*
X40325390Y-4446303D01*
X40325390Y-4446303D02*
X40363485Y-4408207D01*
X40287295Y-3836779D02*
X40858723Y-3836779D01*
X40858723Y-3836779D02*
X40973009Y-3874874D01*
X40973009Y-3874874D02*
X41049200Y-3951065D01*
X41049200Y-3951065D02*
X41087295Y-4065350D01*
X41087295Y-4065350D02*
X41087295Y-4141541D01*
X41087295Y-3074874D02*
X41087295Y-3455826D01*
X41087295Y-3455826D02*
X40287295Y-3455826D01*
X41011104Y-2351064D02*
X41049200Y-2389160D01*
X41049200Y-2389160D02*
X41087295Y-2503445D01*
X41087295Y-2503445D02*
X41087295Y-2579636D01*
X41087295Y-2579636D02*
X41049200Y-2693922D01*
X41049200Y-2693922D02*
X40973009Y-2770112D01*
X40973009Y-2770112D02*
X40896819Y-2808207D01*
X40896819Y-2808207D02*
X40744438Y-2846303D01*
X40744438Y-2846303D02*
X40630152Y-2846303D01*
X40630152Y-2846303D02*
X40477771Y-2808207D01*
X40477771Y-2808207D02*
X40401580Y-2770112D01*
X40401580Y-2770112D02*
X40325390Y-2693922D01*
X40325390Y-2693922D02*
X40287295Y-2579636D01*
X40287295Y-2579636D02*
X40287295Y-2503445D01*
X40287295Y-2503445D02*
X40325390Y-2389160D01*
X40325390Y-2389160D02*
X40363485Y-2351064D01*
D11*
X28470714Y-13222219D02*
X27899286Y-13222219D01*
X28185000Y-13222219D02*
X28185000Y-12222219D01*
X28185000Y-12222219D02*
X28089762Y-12365076D01*
X28089762Y-12365076D02*
X27994524Y-12460314D01*
X27994524Y-12460314D02*
X27899286Y-12507933D01*
D12*
X57239590Y-6105237D02*
X55639590Y-5905237D01*
X56401495Y-6000475D02*
X56401495Y-5086189D01*
X57239590Y-5190951D02*
X55639590Y-4990951D01*
X55639590Y-3924285D02*
X55639590Y-3619523D01*
X55639590Y-3619523D02*
X55715780Y-3476666D01*
X55715780Y-3476666D02*
X55868161Y-3343333D01*
X55868161Y-3343333D02*
X56172923Y-3305237D01*
X56172923Y-3305237D02*
X56706257Y-3371904D01*
X56706257Y-3371904D02*
X57011019Y-3486190D01*
X57011019Y-3486190D02*
X57163400Y-3657618D01*
X57163400Y-3657618D02*
X57239590Y-3819523D01*
X57239590Y-3819523D02*
X57239590Y-4124285D01*
X57239590Y-4124285D02*
X57163400Y-4267142D01*
X57163400Y-4267142D02*
X57011019Y-4400476D01*
X57011019Y-4400476D02*
X56706257Y-4438571D01*
X56706257Y-4438571D02*
X56172923Y-4371904D01*
X56172923Y-4371904D02*
X55868161Y-4257618D01*
X55868161Y-4257618D02*
X55715780Y-4086190D01*
X55715780Y-4086190D02*
X55639590Y-3924285D01*
X55639590Y-2781428D02*
X55639590Y-1867143D01*
X57239590Y-2524286D02*
X55639590Y-2324286D01*
X57087209Y-1514761D02*
X57163400Y-1448095D01*
X57163400Y-1448095D02*
X57239590Y-1533809D01*
X57239590Y-1533809D02*
X57163400Y-1600476D01*
X57163400Y-1600476D02*
X57087209Y-1514761D01*
X57087209Y-1514761D02*
X57239590Y-1533809D01*
X56630066Y-1457618D02*
X55715780Y-1419523D01*
X55715780Y-1419523D02*
X55639590Y-1333809D01*
X55639590Y-1333809D02*
X55715780Y-1267142D01*
X55715780Y-1267142D02*
X56630066Y-1457618D01*
X56630066Y-1457618D02*
X55639590Y-1333809D01*
D13*
X24139733Y5200001D02*
X24139733Y4800001D01*
X24139733Y5000001D02*
X23439733Y5000001D01*
X23439733Y5000001D02*
X23539733Y4933334D01*
X23539733Y4933334D02*
X23606400Y4866667D01*
X23606400Y4866667D02*
X23639733Y4800001D01*
D14*
X40246616Y11692143D02*
X40246616Y10492143D01*
X40246616Y10492143D02*
X39960902Y10492143D01*
X39960902Y10492143D02*
X39789473Y10549286D01*
X39789473Y10549286D02*
X39675188Y10663572D01*
X39675188Y10663572D02*
X39618045Y10777858D01*
X39618045Y10777858D02*
X39560902Y11006429D01*
X39560902Y11006429D02*
X39560902Y11177858D01*
X39560902Y11177858D02*
X39618045Y11406429D01*
X39618045Y11406429D02*
X39675188Y11520715D01*
X39675188Y11520715D02*
X39789473Y11635000D01*
X39789473Y11635000D02*
X39960902Y11692143D01*
X39960902Y11692143D02*
X40246616Y11692143D01*
X39046616Y11692143D02*
X39046616Y10492143D01*
X38246616Y11120715D02*
X38246616Y11692143D01*
X38646616Y10492143D02*
X38246616Y11120715D01*
X38246616Y11120715D02*
X37846616Y10492143D01*
X37046616Y11063572D02*
X36875188Y11120715D01*
X36875188Y11120715D02*
X36818045Y11177858D01*
X36818045Y11177858D02*
X36760902Y11292143D01*
X36760902Y11292143D02*
X36760902Y11463572D01*
X36760902Y11463572D02*
X36818045Y11577858D01*
X36818045Y11577858D02*
X36875188Y11635000D01*
X36875188Y11635000D02*
X36989473Y11692143D01*
X36989473Y11692143D02*
X37446616Y11692143D01*
X37446616Y11692143D02*
X37446616Y10492143D01*
X37446616Y10492143D02*
X37046616Y10492143D01*
X37046616Y10492143D02*
X36932331Y10549286D01*
X36932331Y10549286D02*
X36875188Y10606429D01*
X36875188Y10606429D02*
X36818045Y10720715D01*
X36818045Y10720715D02*
X36818045Y10835000D01*
X36818045Y10835000D02*
X36875188Y10949286D01*
X36875188Y10949286D02*
X36932331Y11006429D01*
X36932331Y11006429D02*
X37046616Y11063572D01*
X37046616Y11063572D02*
X37446616Y11063572D01*
X36246616Y11692143D02*
X36246616Y10492143D01*
X36246616Y10492143D02*
X35846616Y11349286D01*
X35846616Y11349286D02*
X35446616Y10492143D01*
X35446616Y10492143D02*
X35446616Y11692143D01*
X34932330Y11635000D02*
X34760902Y11692143D01*
X34760902Y11692143D02*
X34475187Y11692143D01*
X34475187Y11692143D02*
X34360902Y11635000D01*
X34360902Y11635000D02*
X34303759Y11577858D01*
X34303759Y11577858D02*
X34246616Y11463572D01*
X34246616Y11463572D02*
X34246616Y11349286D01*
X34246616Y11349286D02*
X34303759Y11235000D01*
X34303759Y11235000D02*
X34360902Y11177858D01*
X34360902Y11177858D02*
X34475187Y11120715D01*
X34475187Y11120715D02*
X34703759Y11063572D01*
X34703759Y11063572D02*
X34818044Y11006429D01*
X34818044Y11006429D02*
X34875187Y10949286D01*
X34875187Y10949286D02*
X34932330Y10835000D01*
X34932330Y10835000D02*
X34932330Y10720715D01*
X34932330Y10720715D02*
X34875187Y10606429D01*
X34875187Y10606429D02*
X34818044Y10549286D01*
X34818044Y10549286D02*
X34703759Y10492143D01*
X34703759Y10492143D02*
X34418044Y10492143D01*
X34418044Y10492143D02*
X34246616Y10549286D01*
X32932330Y10892143D02*
X32646616Y11692143D01*
X32646616Y11692143D02*
X32360901Y10892143D01*
X31389473Y10892143D02*
X31389473Y11692143D01*
X31675187Y10435000D02*
X31960901Y11292143D01*
X31960901Y11292143D02*
X31218044Y11292143D01*
X30760901Y11577858D02*
X30703758Y11635000D01*
X30703758Y11635000D02*
X30760901Y11692143D01*
X30760901Y11692143D02*
X30818044Y11635000D01*
X30818044Y11635000D02*
X30760901Y11577858D01*
X30760901Y11577858D02*
X30760901Y11692143D01*
X29618044Y10492143D02*
X30189472Y10492143D01*
X30189472Y10492143D02*
X30246615Y11063572D01*
X30246615Y11063572D02*
X30189472Y11006429D01*
X30189472Y11006429D02*
X30075187Y10949286D01*
X30075187Y10949286D02*
X29789472Y10949286D01*
X29789472Y10949286D02*
X29675187Y11006429D01*
X29675187Y11006429D02*
X29618044Y11063572D01*
X29618044Y11063572D02*
X29560901Y11177858D01*
X29560901Y11177858D02*
X29560901Y11463572D01*
X29560901Y11463572D02*
X29618044Y11577858D01*
X29618044Y11577858D02*
X29675187Y11635000D01*
X29675187Y11635000D02*
X29789472Y11692143D01*
X29789472Y11692143D02*
X30075187Y11692143D01*
X30075187Y11692143D02*
X30189472Y11635000D01*
X30189472Y11635000D02*
X30246615Y11577858D01*
X28418044Y11692143D02*
X29103758Y11692143D01*
X28760901Y11692143D02*
X28760901Y10492143D01*
X28760901Y10492143D02*
X28875187Y10663572D01*
X28875187Y10663572D02*
X28989472Y10777858D01*
X28989472Y10777858D02*
X29103758Y10835000D01*
D13*
X29759733Y-3289999D02*
X29759733Y-3689999D01*
X29759733Y-3489999D02*
X29059733Y-3489999D01*
X29059733Y-3489999D02*
X29159733Y-3556666D01*
X29159733Y-3556666D02*
X29226400Y-3623333D01*
X29226400Y-3623333D02*
X29259733Y-3689999D01*
D10*
X59107143Y14960181D02*
X59107143Y15960181D01*
X59107143Y15960181D02*
X59345238Y15960181D01*
X59345238Y15960181D02*
X59488095Y15912562D01*
X59488095Y15912562D02*
X59583333Y15817324D01*
X59583333Y15817324D02*
X59630952Y15722086D01*
X59630952Y15722086D02*
X59678571Y15531610D01*
X59678571Y15531610D02*
X59678571Y15388753D01*
X59678571Y15388753D02*
X59630952Y15198277D01*
X59630952Y15198277D02*
X59583333Y15103039D01*
X59583333Y15103039D02*
X59488095Y15007800D01*
X59488095Y15007800D02*
X59345238Y14960181D01*
X59345238Y14960181D02*
X59107143Y14960181D01*
X60297619Y15960181D02*
X60488095Y15960181D01*
X60488095Y15960181D02*
X60583333Y15912562D01*
X60583333Y15912562D02*
X60678571Y15817324D01*
X60678571Y15817324D02*
X60726190Y15626848D01*
X60726190Y15626848D02*
X60726190Y15293515D01*
X60726190Y15293515D02*
X60678571Y15103039D01*
X60678571Y15103039D02*
X60583333Y15007800D01*
X60583333Y15007800D02*
X60488095Y14960181D01*
X60488095Y14960181D02*
X60297619Y14960181D01*
X60297619Y14960181D02*
X60202381Y15007800D01*
X60202381Y15007800D02*
X60107143Y15103039D01*
X60107143Y15103039D02*
X60059524Y15293515D01*
X60059524Y15293515D02*
X60059524Y15626848D01*
X60059524Y15626848D02*
X60107143Y15817324D01*
X60107143Y15817324D02*
X60202381Y15912562D01*
X60202381Y15912562D02*
X60297619Y15960181D01*
X61916667Y14960181D02*
X61916667Y15960181D01*
X61916667Y15960181D02*
X62488095Y14960181D01*
X62488095Y14960181D02*
X62488095Y15960181D01*
X63154762Y15960181D02*
X63345238Y15960181D01*
X63345238Y15960181D02*
X63440476Y15912562D01*
X63440476Y15912562D02*
X63535714Y15817324D01*
X63535714Y15817324D02*
X63583333Y15626848D01*
X63583333Y15626848D02*
X63583333Y15293515D01*
X63583333Y15293515D02*
X63535714Y15103039D01*
X63535714Y15103039D02*
X63440476Y15007800D01*
X63440476Y15007800D02*
X63345238Y14960181D01*
X63345238Y14960181D02*
X63154762Y14960181D01*
X63154762Y14960181D02*
X63059524Y15007800D01*
X63059524Y15007800D02*
X62964286Y15103039D01*
X62964286Y15103039D02*
X62916667Y15293515D01*
X62916667Y15293515D02*
X62916667Y15626848D01*
X62916667Y15626848D02*
X62964286Y15817324D01*
X62964286Y15817324D02*
X63059524Y15912562D01*
X63059524Y15912562D02*
X63154762Y15960181D01*
X63869048Y15960181D02*
X64440476Y15960181D01*
X64154762Y14960181D02*
X64154762Y15960181D01*
X65488096Y15007800D02*
X65630953Y14960181D01*
X65630953Y14960181D02*
X65869048Y14960181D01*
X65869048Y14960181D02*
X65964286Y15007800D01*
X65964286Y15007800D02*
X66011905Y15055420D01*
X66011905Y15055420D02*
X66059524Y15150658D01*
X66059524Y15150658D02*
X66059524Y15245896D01*
X66059524Y15245896D02*
X66011905Y15341134D01*
X66011905Y15341134D02*
X65964286Y15388753D01*
X65964286Y15388753D02*
X65869048Y15436372D01*
X65869048Y15436372D02*
X65678572Y15483991D01*
X65678572Y15483991D02*
X65583334Y15531610D01*
X65583334Y15531610D02*
X65535715Y15579229D01*
X65535715Y15579229D02*
X65488096Y15674467D01*
X65488096Y15674467D02*
X65488096Y15769705D01*
X65488096Y15769705D02*
X65535715Y15864943D01*
X65535715Y15864943D02*
X65583334Y15912562D01*
X65583334Y15912562D02*
X65678572Y15960181D01*
X65678572Y15960181D02*
X65916667Y15960181D01*
X65916667Y15960181D02*
X66059524Y15912562D01*
X66488096Y14960181D02*
X66488096Y15960181D01*
X66488096Y15483991D02*
X67059524Y15483991D01*
X67059524Y14960181D02*
X67059524Y15960181D01*
X67726191Y15960181D02*
X67916667Y15960181D01*
X67916667Y15960181D02*
X68011905Y15912562D01*
X68011905Y15912562D02*
X68107143Y15817324D01*
X68107143Y15817324D02*
X68154762Y15626848D01*
X68154762Y15626848D02*
X68154762Y15293515D01*
X68154762Y15293515D02*
X68107143Y15103039D01*
X68107143Y15103039D02*
X68011905Y15007800D01*
X68011905Y15007800D02*
X67916667Y14960181D01*
X67916667Y14960181D02*
X67726191Y14960181D01*
X67726191Y14960181D02*
X67630953Y15007800D01*
X67630953Y15007800D02*
X67535715Y15103039D01*
X67535715Y15103039D02*
X67488096Y15293515D01*
X67488096Y15293515D02*
X67488096Y15626848D01*
X67488096Y15626848D02*
X67535715Y15817324D01*
X67535715Y15817324D02*
X67630953Y15912562D01*
X67630953Y15912562D02*
X67726191Y15960181D01*
X69154762Y14960181D02*
X68821429Y15436372D01*
X68583334Y14960181D02*
X68583334Y15960181D01*
X68583334Y15960181D02*
X68964286Y15960181D01*
X68964286Y15960181D02*
X69059524Y15912562D01*
X69059524Y15912562D02*
X69107143Y15864943D01*
X69107143Y15864943D02*
X69154762Y15769705D01*
X69154762Y15769705D02*
X69154762Y15626848D01*
X69154762Y15626848D02*
X69107143Y15531610D01*
X69107143Y15531610D02*
X69059524Y15483991D01*
X69059524Y15483991D02*
X68964286Y15436372D01*
X68964286Y15436372D02*
X68583334Y15436372D01*
X69440477Y15960181D02*
X70011905Y15960181D01*
X69726191Y14960181D02*
X69726191Y15960181D01*
X71678572Y15055420D02*
X71630953Y15007800D01*
X71630953Y15007800D02*
X71488096Y14960181D01*
X71488096Y14960181D02*
X71392858Y14960181D01*
X71392858Y14960181D02*
X71250001Y15007800D01*
X71250001Y15007800D02*
X71154763Y15103039D01*
X71154763Y15103039D02*
X71107144Y15198277D01*
X71107144Y15198277D02*
X71059525Y15388753D01*
X71059525Y15388753D02*
X71059525Y15531610D01*
X71059525Y15531610D02*
X71107144Y15722086D01*
X71107144Y15722086D02*
X71154763Y15817324D01*
X71154763Y15817324D02*
X71250001Y15912562D01*
X71250001Y15912562D02*
X71392858Y15960181D01*
X71392858Y15960181D02*
X71488096Y15960181D01*
X71488096Y15960181D02*
X71630953Y15912562D01*
X71630953Y15912562D02*
X71678572Y15864943D01*
X72107144Y14960181D02*
X72107144Y15960181D01*
X73154762Y14960181D02*
X72821429Y15436372D01*
X72583334Y14960181D02*
X72583334Y15960181D01*
X72583334Y15960181D02*
X72964286Y15960181D01*
X72964286Y15960181D02*
X73059524Y15912562D01*
X73059524Y15912562D02*
X73107143Y15864943D01*
X73107143Y15864943D02*
X73154762Y15769705D01*
X73154762Y15769705D02*
X73154762Y15626848D01*
X73154762Y15626848D02*
X73107143Y15531610D01*
X73107143Y15531610D02*
X73059524Y15483991D01*
X73059524Y15483991D02*
X72964286Y15436372D01*
X72964286Y15436372D02*
X72583334Y15436372D01*
X74154762Y15055420D02*
X74107143Y15007800D01*
X74107143Y15007800D02*
X73964286Y14960181D01*
X73964286Y14960181D02*
X73869048Y14960181D01*
X73869048Y14960181D02*
X73726191Y15007800D01*
X73726191Y15007800D02*
X73630953Y15103039D01*
X73630953Y15103039D02*
X73583334Y15198277D01*
X73583334Y15198277D02*
X73535715Y15388753D01*
X73535715Y15388753D02*
X73535715Y15531610D01*
X73535715Y15531610D02*
X73583334Y15722086D01*
X73583334Y15722086D02*
X73630953Y15817324D01*
X73630953Y15817324D02*
X73726191Y15912562D01*
X73726191Y15912562D02*
X73869048Y15960181D01*
X73869048Y15960181D02*
X73964286Y15960181D01*
X73964286Y15960181D02*
X74107143Y15912562D01*
X74107143Y15912562D02*
X74154762Y15864943D01*
X74583334Y15960181D02*
X74583334Y15150658D01*
X74583334Y15150658D02*
X74630953Y15055420D01*
X74630953Y15055420D02*
X74678572Y15007800D01*
X74678572Y15007800D02*
X74773810Y14960181D01*
X74773810Y14960181D02*
X74964286Y14960181D01*
X74964286Y14960181D02*
X75059524Y15007800D01*
X75059524Y15007800D02*
X75107143Y15055420D01*
X75107143Y15055420D02*
X75154762Y15150658D01*
X75154762Y15150658D02*
X75154762Y15960181D01*
X75630953Y14960181D02*
X75630953Y15960181D01*
X75964286Y15960181D02*
X76535714Y15960181D01*
X76250000Y14960181D02*
X76250000Y15960181D01*
X57726190Y13350181D02*
X57726190Y14350181D01*
X57726190Y14350181D02*
X57964285Y14350181D01*
X57964285Y14350181D02*
X58107142Y14302562D01*
X58107142Y14302562D02*
X58202380Y14207324D01*
X58202380Y14207324D02*
X58249999Y14112086D01*
X58249999Y14112086D02*
X58297618Y13921610D01*
X58297618Y13921610D02*
X58297618Y13778753D01*
X58297618Y13778753D02*
X58249999Y13588277D01*
X58249999Y13588277D02*
X58202380Y13493039D01*
X58202380Y13493039D02*
X58107142Y13397800D01*
X58107142Y13397800D02*
X57964285Y13350181D01*
X57964285Y13350181D02*
X57726190Y13350181D01*
X58916666Y14350181D02*
X59107142Y14350181D01*
X59107142Y14350181D02*
X59202380Y14302562D01*
X59202380Y14302562D02*
X59297618Y14207324D01*
X59297618Y14207324D02*
X59345237Y14016848D01*
X59345237Y14016848D02*
X59345237Y13683515D01*
X59345237Y13683515D02*
X59297618Y13493039D01*
X59297618Y13493039D02*
X59202380Y13397800D01*
X59202380Y13397800D02*
X59107142Y13350181D01*
X59107142Y13350181D02*
X58916666Y13350181D01*
X58916666Y13350181D02*
X58821428Y13397800D01*
X58821428Y13397800D02*
X58726190Y13493039D01*
X58726190Y13493039D02*
X58678571Y13683515D01*
X58678571Y13683515D02*
X58678571Y14016848D01*
X58678571Y14016848D02*
X58726190Y14207324D01*
X58726190Y14207324D02*
X58821428Y14302562D01*
X58821428Y14302562D02*
X58916666Y14350181D01*
X60535714Y13350181D02*
X60535714Y14350181D01*
X60535714Y14350181D02*
X61107142Y13350181D01*
X61107142Y13350181D02*
X61107142Y14350181D01*
X61773809Y14350181D02*
X61964285Y14350181D01*
X61964285Y14350181D02*
X62059523Y14302562D01*
X62059523Y14302562D02*
X62154761Y14207324D01*
X62154761Y14207324D02*
X62202380Y14016848D01*
X62202380Y14016848D02*
X62202380Y13683515D01*
X62202380Y13683515D02*
X62154761Y13493039D01*
X62154761Y13493039D02*
X62059523Y13397800D01*
X62059523Y13397800D02*
X61964285Y13350181D01*
X61964285Y13350181D02*
X61773809Y13350181D01*
X61773809Y13350181D02*
X61678571Y13397800D01*
X61678571Y13397800D02*
X61583333Y13493039D01*
X61583333Y13493039D02*
X61535714Y13683515D01*
X61535714Y13683515D02*
X61535714Y14016848D01*
X61535714Y14016848D02*
X61583333Y14207324D01*
X61583333Y14207324D02*
X61678571Y14302562D01*
X61678571Y14302562D02*
X61773809Y14350181D01*
X62488095Y14350181D02*
X63059523Y14350181D01*
X62773809Y13350181D02*
X62773809Y14350181D01*
X64726190Y13350181D02*
X64392857Y13826372D01*
X64154762Y13350181D02*
X64154762Y14350181D01*
X64154762Y14350181D02*
X64535714Y14350181D01*
X64535714Y14350181D02*
X64630952Y14302562D01*
X64630952Y14302562D02*
X64678571Y14254943D01*
X64678571Y14254943D02*
X64726190Y14159705D01*
X64726190Y14159705D02*
X64726190Y14016848D01*
X64726190Y14016848D02*
X64678571Y13921610D01*
X64678571Y13921610D02*
X64630952Y13873991D01*
X64630952Y13873991D02*
X64535714Y13826372D01*
X64535714Y13826372D02*
X64154762Y13826372D01*
X65154762Y13873991D02*
X65488095Y13873991D01*
X65630952Y13350181D02*
X65154762Y13350181D01*
X65154762Y13350181D02*
X65154762Y14350181D01*
X65154762Y14350181D02*
X65630952Y14350181D01*
X65916667Y14350181D02*
X66250000Y13350181D01*
X66250000Y13350181D02*
X66583333Y14350181D01*
X66916667Y13873991D02*
X67250000Y13873991D01*
X67392857Y13350181D02*
X66916667Y13350181D01*
X66916667Y13350181D02*
X66916667Y14350181D01*
X66916667Y14350181D02*
X67392857Y14350181D01*
X68392857Y13350181D02*
X68059524Y13826372D01*
X67821429Y13350181D02*
X67821429Y14350181D01*
X67821429Y14350181D02*
X68202381Y14350181D01*
X68202381Y14350181D02*
X68297619Y14302562D01*
X68297619Y14302562D02*
X68345238Y14254943D01*
X68345238Y14254943D02*
X68392857Y14159705D01*
X68392857Y14159705D02*
X68392857Y14016848D01*
X68392857Y14016848D02*
X68345238Y13921610D01*
X68345238Y13921610D02*
X68297619Y13873991D01*
X68297619Y13873991D02*
X68202381Y13826372D01*
X68202381Y13826372D02*
X67821429Y13826372D01*
X68773810Y13397800D02*
X68916667Y13350181D01*
X68916667Y13350181D02*
X69154762Y13350181D01*
X69154762Y13350181D02*
X69250000Y13397800D01*
X69250000Y13397800D02*
X69297619Y13445420D01*
X69297619Y13445420D02*
X69345238Y13540658D01*
X69345238Y13540658D02*
X69345238Y13635896D01*
X69345238Y13635896D02*
X69297619Y13731134D01*
X69297619Y13731134D02*
X69250000Y13778753D01*
X69250000Y13778753D02*
X69154762Y13826372D01*
X69154762Y13826372D02*
X68964286Y13873991D01*
X68964286Y13873991D02*
X68869048Y13921610D01*
X68869048Y13921610D02*
X68821429Y13969229D01*
X68821429Y13969229D02*
X68773810Y14064467D01*
X68773810Y14064467D02*
X68773810Y14159705D01*
X68773810Y14159705D02*
X68821429Y14254943D01*
X68821429Y14254943D02*
X68869048Y14302562D01*
X68869048Y14302562D02*
X68964286Y14350181D01*
X68964286Y14350181D02*
X69202381Y14350181D01*
X69202381Y14350181D02*
X69345238Y14302562D01*
X69773810Y13873991D02*
X70107143Y13873991D01*
X70250000Y13350181D02*
X69773810Y13350181D01*
X69773810Y13350181D02*
X69773810Y14350181D01*
X69773810Y14350181D02*
X70250000Y14350181D01*
X71440477Y13350181D02*
X71440477Y14350181D01*
X71440477Y14350181D02*
X71821429Y14350181D01*
X71821429Y14350181D02*
X71916667Y14302562D01*
X71916667Y14302562D02*
X71964286Y14254943D01*
X71964286Y14254943D02*
X72011905Y14159705D01*
X72011905Y14159705D02*
X72011905Y14016848D01*
X72011905Y14016848D02*
X71964286Y13921610D01*
X71964286Y13921610D02*
X71916667Y13873991D01*
X71916667Y13873991D02*
X71821429Y13826372D01*
X71821429Y13826372D02*
X71440477Y13826372D01*
X72630953Y14350181D02*
X72821429Y14350181D01*
X72821429Y14350181D02*
X72916667Y14302562D01*
X72916667Y14302562D02*
X73011905Y14207324D01*
X73011905Y14207324D02*
X73059524Y14016848D01*
X73059524Y14016848D02*
X73059524Y13683515D01*
X73059524Y13683515D02*
X73011905Y13493039D01*
X73011905Y13493039D02*
X72916667Y13397800D01*
X72916667Y13397800D02*
X72821429Y13350181D01*
X72821429Y13350181D02*
X72630953Y13350181D01*
X72630953Y13350181D02*
X72535715Y13397800D01*
X72535715Y13397800D02*
X72440477Y13493039D01*
X72440477Y13493039D02*
X72392858Y13683515D01*
X72392858Y13683515D02*
X72392858Y14016848D01*
X72392858Y14016848D02*
X72440477Y14207324D01*
X72440477Y14207324D02*
X72535715Y14302562D01*
X72535715Y14302562D02*
X72630953Y14350181D01*
X73964286Y13350181D02*
X73488096Y13350181D01*
X73488096Y13350181D02*
X73488096Y14350181D01*
X74250001Y13635896D02*
X74726191Y13635896D01*
X74154763Y13350181D02*
X74488096Y14350181D01*
X74488096Y14350181D02*
X74821429Y13350181D01*
X75726191Y13350181D02*
X75392858Y13826372D01*
X75154763Y13350181D02*
X75154763Y14350181D01*
X75154763Y14350181D02*
X75535715Y14350181D01*
X75535715Y14350181D02*
X75630953Y14302562D01*
X75630953Y14302562D02*
X75678572Y14254943D01*
X75678572Y14254943D02*
X75726191Y14159705D01*
X75726191Y14159705D02*
X75726191Y14016848D01*
X75726191Y14016848D02*
X75678572Y13921610D01*
X75678572Y13921610D02*
X75630953Y13873991D01*
X75630953Y13873991D02*
X75535715Y13826372D01*
X75535715Y13826372D02*
X75154763Y13826372D01*
X76154763Y13350181D02*
X76154763Y14350181D01*
X76488096Y14350181D02*
X77059524Y14350181D01*
X76773810Y13350181D02*
X76773810Y14350181D01*
X77583334Y13826372D02*
X77583334Y13350181D01*
X77250001Y14350181D02*
X77583334Y13826372D01*
X77583334Y13826372D02*
X77916667Y14350181D01*
X57535713Y11740181D02*
X57535713Y12740181D01*
X57535713Y12740181D02*
X57773808Y12740181D01*
X57773808Y12740181D02*
X57916665Y12692562D01*
X57916665Y12692562D02*
X58011903Y12597324D01*
X58011903Y12597324D02*
X58059522Y12502086D01*
X58059522Y12502086D02*
X58107141Y12311610D01*
X58107141Y12311610D02*
X58107141Y12168753D01*
X58107141Y12168753D02*
X58059522Y11978277D01*
X58059522Y11978277D02*
X58011903Y11883039D01*
X58011903Y11883039D02*
X57916665Y11787800D01*
X57916665Y11787800D02*
X57773808Y11740181D01*
X57773808Y11740181D02*
X57535713Y11740181D01*
X58726189Y12740181D02*
X58916665Y12740181D01*
X58916665Y12740181D02*
X59011903Y12692562D01*
X59011903Y12692562D02*
X59107141Y12597324D01*
X59107141Y12597324D02*
X59154760Y12406848D01*
X59154760Y12406848D02*
X59154760Y12073515D01*
X59154760Y12073515D02*
X59107141Y11883039D01*
X59107141Y11883039D02*
X59011903Y11787800D01*
X59011903Y11787800D02*
X58916665Y11740181D01*
X58916665Y11740181D02*
X58726189Y11740181D01*
X58726189Y11740181D02*
X58630951Y11787800D01*
X58630951Y11787800D02*
X58535713Y11883039D01*
X58535713Y11883039D02*
X58488094Y12073515D01*
X58488094Y12073515D02*
X58488094Y12406848D01*
X58488094Y12406848D02*
X58535713Y12597324D01*
X58535713Y12597324D02*
X58630951Y12692562D01*
X58630951Y12692562D02*
X58726189Y12740181D01*
X60345237Y11740181D02*
X60345237Y12740181D01*
X60345237Y12740181D02*
X60916665Y11740181D01*
X60916665Y11740181D02*
X60916665Y12740181D01*
X61583332Y12740181D02*
X61773808Y12740181D01*
X61773808Y12740181D02*
X61869046Y12692562D01*
X61869046Y12692562D02*
X61964284Y12597324D01*
X61964284Y12597324D02*
X62011903Y12406848D01*
X62011903Y12406848D02*
X62011903Y12073515D01*
X62011903Y12073515D02*
X61964284Y11883039D01*
X61964284Y11883039D02*
X61869046Y11787800D01*
X61869046Y11787800D02*
X61773808Y11740181D01*
X61773808Y11740181D02*
X61583332Y11740181D01*
X61583332Y11740181D02*
X61488094Y11787800D01*
X61488094Y11787800D02*
X61392856Y11883039D01*
X61392856Y11883039D02*
X61345237Y12073515D01*
X61345237Y12073515D02*
X61345237Y12406848D01*
X61345237Y12406848D02*
X61392856Y12597324D01*
X61392856Y12597324D02*
X61488094Y12692562D01*
X61488094Y12692562D02*
X61583332Y12740181D01*
X62297618Y12740181D02*
X62869046Y12740181D01*
X62583332Y11740181D02*
X62583332Y12740181D01*
X64535713Y11835420D02*
X64488094Y11787800D01*
X64488094Y11787800D02*
X64345237Y11740181D01*
X64345237Y11740181D02*
X64249999Y11740181D01*
X64249999Y11740181D02*
X64107142Y11787800D01*
X64107142Y11787800D02*
X64011904Y11883039D01*
X64011904Y11883039D02*
X63964285Y11978277D01*
X63964285Y11978277D02*
X63916666Y12168753D01*
X63916666Y12168753D02*
X63916666Y12311610D01*
X63916666Y12311610D02*
X63964285Y12502086D01*
X63964285Y12502086D02*
X64011904Y12597324D01*
X64011904Y12597324D02*
X64107142Y12692562D01*
X64107142Y12692562D02*
X64249999Y12740181D01*
X64249999Y12740181D02*
X64345237Y12740181D01*
X64345237Y12740181D02*
X64488094Y12692562D01*
X64488094Y12692562D02*
X64535713Y12644943D01*
X65154761Y12740181D02*
X65345237Y12740181D01*
X65345237Y12740181D02*
X65440475Y12692562D01*
X65440475Y12692562D02*
X65535713Y12597324D01*
X65535713Y12597324D02*
X65583332Y12406848D01*
X65583332Y12406848D02*
X65583332Y12073515D01*
X65583332Y12073515D02*
X65535713Y11883039D01*
X65535713Y11883039D02*
X65440475Y11787800D01*
X65440475Y11787800D02*
X65345237Y11740181D01*
X65345237Y11740181D02*
X65154761Y11740181D01*
X65154761Y11740181D02*
X65059523Y11787800D01*
X65059523Y11787800D02*
X64964285Y11883039D01*
X64964285Y11883039D02*
X64916666Y12073515D01*
X64916666Y12073515D02*
X64916666Y12406848D01*
X64916666Y12406848D02*
X64964285Y12597324D01*
X64964285Y12597324D02*
X65059523Y12692562D01*
X65059523Y12692562D02*
X65154761Y12740181D01*
X66011904Y11740181D02*
X66011904Y12740181D01*
X66011904Y12740181D02*
X66583332Y11740181D01*
X66583332Y11740181D02*
X66583332Y12740181D01*
X67059523Y11740181D02*
X67059523Y12740181D01*
X67059523Y12740181D02*
X67630951Y11740181D01*
X67630951Y11740181D02*
X67630951Y12740181D01*
X68107142Y12263991D02*
X68440475Y12263991D01*
X68583332Y11740181D02*
X68107142Y11740181D01*
X68107142Y11740181D02*
X68107142Y12740181D01*
X68107142Y12740181D02*
X68583332Y12740181D01*
X69583332Y11835420D02*
X69535713Y11787800D01*
X69535713Y11787800D02*
X69392856Y11740181D01*
X69392856Y11740181D02*
X69297618Y11740181D01*
X69297618Y11740181D02*
X69154761Y11787800D01*
X69154761Y11787800D02*
X69059523Y11883039D01*
X69059523Y11883039D02*
X69011904Y11978277D01*
X69011904Y11978277D02*
X68964285Y12168753D01*
X68964285Y12168753D02*
X68964285Y12311610D01*
X68964285Y12311610D02*
X69011904Y12502086D01*
X69011904Y12502086D02*
X69059523Y12597324D01*
X69059523Y12597324D02*
X69154761Y12692562D01*
X69154761Y12692562D02*
X69297618Y12740181D01*
X69297618Y12740181D02*
X69392856Y12740181D01*
X69392856Y12740181D02*
X69535713Y12692562D01*
X69535713Y12692562D02*
X69583332Y12644943D01*
X69869047Y12740181D02*
X70440475Y12740181D01*
X70154761Y11740181D02*
X70154761Y12740181D01*
X72107142Y11740181D02*
X71773809Y12216372D01*
X71535714Y11740181D02*
X71535714Y12740181D01*
X71535714Y12740181D02*
X71916666Y12740181D01*
X71916666Y12740181D02*
X72011904Y12692562D01*
X72011904Y12692562D02*
X72059523Y12644943D01*
X72059523Y12644943D02*
X72107142Y12549705D01*
X72107142Y12549705D02*
X72107142Y12406848D01*
X72107142Y12406848D02*
X72059523Y12311610D01*
X72059523Y12311610D02*
X72011904Y12263991D01*
X72011904Y12263991D02*
X71916666Y12216372D01*
X71916666Y12216372D02*
X71535714Y12216372D01*
X72440476Y12740181D02*
X73107142Y11740181D01*
X73107142Y12740181D02*
X72440476Y11740181D01*
X74107143Y12406848D02*
X74488095Y12406848D01*
X74250000Y12740181D02*
X74250000Y11883039D01*
X74250000Y11883039D02*
X74297619Y11787800D01*
X74297619Y11787800D02*
X74392857Y11740181D01*
X74392857Y11740181D02*
X74488095Y11740181D01*
X74964286Y11740181D02*
X74869048Y11787800D01*
X74869048Y11787800D02*
X74821429Y11835420D01*
X74821429Y11835420D02*
X74773810Y11930658D01*
X74773810Y11930658D02*
X74773810Y12216372D01*
X74773810Y12216372D02*
X74821429Y12311610D01*
X74821429Y12311610D02*
X74869048Y12359229D01*
X74869048Y12359229D02*
X74964286Y12406848D01*
X74964286Y12406848D02*
X75107143Y12406848D01*
X75107143Y12406848D02*
X75202381Y12359229D01*
X75202381Y12359229D02*
X75250000Y12311610D01*
X75250000Y12311610D02*
X75297619Y12216372D01*
X75297619Y12216372D02*
X75297619Y11930658D01*
X75297619Y11930658D02*
X75250000Y11835420D01*
X75250000Y11835420D02*
X75202381Y11787800D01*
X75202381Y11787800D02*
X75107143Y11740181D01*
X75107143Y11740181D02*
X74964286Y11740181D01*
X77059524Y11740181D02*
X76726191Y12216372D01*
X76488096Y11740181D02*
X76488096Y12740181D01*
X76488096Y12740181D02*
X76869048Y12740181D01*
X76869048Y12740181D02*
X76964286Y12692562D01*
X76964286Y12692562D02*
X77011905Y12644943D01*
X77011905Y12644943D02*
X77059524Y12549705D01*
X77059524Y12549705D02*
X77059524Y12406848D01*
X77059524Y12406848D02*
X77011905Y12311610D01*
X77011905Y12311610D02*
X76964286Y12263991D01*
X76964286Y12263991D02*
X76869048Y12216372D01*
X76869048Y12216372D02*
X76488096Y12216372D01*
X77392858Y12740181D02*
X78059524Y11740181D01*
X78059524Y12740181D02*
X77392858Y11740181D01*
X57773808Y10130181D02*
X57773808Y11130181D01*
X57773808Y11130181D02*
X58011903Y11130181D01*
X58011903Y11130181D02*
X58154760Y11082562D01*
X58154760Y11082562D02*
X58249998Y10987324D01*
X58249998Y10987324D02*
X58297617Y10892086D01*
X58297617Y10892086D02*
X58345236Y10701610D01*
X58345236Y10701610D02*
X58345236Y10558753D01*
X58345236Y10558753D02*
X58297617Y10368277D01*
X58297617Y10368277D02*
X58249998Y10273039D01*
X58249998Y10273039D02*
X58154760Y10177800D01*
X58154760Y10177800D02*
X58011903Y10130181D01*
X58011903Y10130181D02*
X57773808Y10130181D01*
X58964284Y11130181D02*
X59154760Y11130181D01*
X59154760Y11130181D02*
X59249998Y11082562D01*
X59249998Y11082562D02*
X59345236Y10987324D01*
X59345236Y10987324D02*
X59392855Y10796848D01*
X59392855Y10796848D02*
X59392855Y10463515D01*
X59392855Y10463515D02*
X59345236Y10273039D01*
X59345236Y10273039D02*
X59249998Y10177800D01*
X59249998Y10177800D02*
X59154760Y10130181D01*
X59154760Y10130181D02*
X58964284Y10130181D01*
X58964284Y10130181D02*
X58869046Y10177800D01*
X58869046Y10177800D02*
X58773808Y10273039D01*
X58773808Y10273039D02*
X58726189Y10463515D01*
X58726189Y10463515D02*
X58726189Y10796848D01*
X58726189Y10796848D02*
X58773808Y10987324D01*
X58773808Y10987324D02*
X58869046Y11082562D01*
X58869046Y11082562D02*
X58964284Y11130181D01*
X60583332Y10130181D02*
X60583332Y11130181D01*
X60583332Y11130181D02*
X61154760Y10130181D01*
X61154760Y10130181D02*
X61154760Y11130181D01*
X61821427Y11130181D02*
X62011903Y11130181D01*
X62011903Y11130181D02*
X62107141Y11082562D01*
X62107141Y11082562D02*
X62202379Y10987324D01*
X62202379Y10987324D02*
X62249998Y10796848D01*
X62249998Y10796848D02*
X62249998Y10463515D01*
X62249998Y10463515D02*
X62202379Y10273039D01*
X62202379Y10273039D02*
X62107141Y10177800D01*
X62107141Y10177800D02*
X62011903Y10130181D01*
X62011903Y10130181D02*
X61821427Y10130181D01*
X61821427Y10130181D02*
X61726189Y10177800D01*
X61726189Y10177800D02*
X61630951Y10273039D01*
X61630951Y10273039D02*
X61583332Y10463515D01*
X61583332Y10463515D02*
X61583332Y10796848D01*
X61583332Y10796848D02*
X61630951Y10987324D01*
X61630951Y10987324D02*
X61726189Y11082562D01*
X61726189Y11082562D02*
X61821427Y11130181D01*
X62535713Y11130181D02*
X63107141Y11130181D01*
X62821427Y10130181D02*
X62821427Y11130181D01*
X64773808Y10225420D02*
X64726189Y10177800D01*
X64726189Y10177800D02*
X64583332Y10130181D01*
X64583332Y10130181D02*
X64488094Y10130181D01*
X64488094Y10130181D02*
X64345237Y10177800D01*
X64345237Y10177800D02*
X64249999Y10273039D01*
X64249999Y10273039D02*
X64202380Y10368277D01*
X64202380Y10368277D02*
X64154761Y10558753D01*
X64154761Y10558753D02*
X64154761Y10701610D01*
X64154761Y10701610D02*
X64202380Y10892086D01*
X64202380Y10892086D02*
X64249999Y10987324D01*
X64249999Y10987324D02*
X64345237Y11082562D01*
X64345237Y11082562D02*
X64488094Y11130181D01*
X64488094Y11130181D02*
X64583332Y11130181D01*
X64583332Y11130181D02*
X64726189Y11082562D01*
X64726189Y11082562D02*
X64773808Y11034943D01*
X65392856Y11130181D02*
X65583332Y11130181D01*
X65583332Y11130181D02*
X65678570Y11082562D01*
X65678570Y11082562D02*
X65773808Y10987324D01*
X65773808Y10987324D02*
X65821427Y10796848D01*
X65821427Y10796848D02*
X65821427Y10463515D01*
X65821427Y10463515D02*
X65773808Y10273039D01*
X65773808Y10273039D02*
X65678570Y10177800D01*
X65678570Y10177800D02*
X65583332Y10130181D01*
X65583332Y10130181D02*
X65392856Y10130181D01*
X65392856Y10130181D02*
X65297618Y10177800D01*
X65297618Y10177800D02*
X65202380Y10273039D01*
X65202380Y10273039D02*
X65154761Y10463515D01*
X65154761Y10463515D02*
X65154761Y10796848D01*
X65154761Y10796848D02*
X65202380Y10987324D01*
X65202380Y10987324D02*
X65297618Y11082562D01*
X65297618Y11082562D02*
X65392856Y11130181D01*
X66249999Y10130181D02*
X66249999Y11130181D01*
X66249999Y11130181D02*
X66821427Y10130181D01*
X66821427Y10130181D02*
X66821427Y11130181D01*
X67297618Y10130181D02*
X67297618Y11130181D01*
X67297618Y11130181D02*
X67869046Y10130181D01*
X67869046Y10130181D02*
X67869046Y11130181D01*
X68345237Y10653991D02*
X68678570Y10653991D01*
X68821427Y10130181D02*
X68345237Y10130181D01*
X68345237Y10130181D02*
X68345237Y11130181D01*
X68345237Y11130181D02*
X68821427Y11130181D01*
X69821427Y10225420D02*
X69773808Y10177800D01*
X69773808Y10177800D02*
X69630951Y10130181D01*
X69630951Y10130181D02*
X69535713Y10130181D01*
X69535713Y10130181D02*
X69392856Y10177800D01*
X69392856Y10177800D02*
X69297618Y10273039D01*
X69297618Y10273039D02*
X69249999Y10368277D01*
X69249999Y10368277D02*
X69202380Y10558753D01*
X69202380Y10558753D02*
X69202380Y10701610D01*
X69202380Y10701610D02*
X69249999Y10892086D01*
X69249999Y10892086D02*
X69297618Y10987324D01*
X69297618Y10987324D02*
X69392856Y11082562D01*
X69392856Y11082562D02*
X69535713Y11130181D01*
X69535713Y11130181D02*
X69630951Y11130181D01*
X69630951Y11130181D02*
X69773808Y11082562D01*
X69773808Y11082562D02*
X69821427Y11034943D01*
X70107142Y11130181D02*
X70678570Y11130181D01*
X70392856Y10130181D02*
X70392856Y11130181D01*
X71630952Y11130181D02*
X72202380Y11130181D01*
X71916666Y10130181D02*
X71916666Y11130181D01*
X72440476Y11130181D02*
X73107142Y10130181D01*
X73107142Y11130181D02*
X72440476Y10130181D01*
X74107143Y10796848D02*
X74488095Y10796848D01*
X74250000Y11130181D02*
X74250000Y10273039D01*
X74250000Y10273039D02*
X74297619Y10177800D01*
X74297619Y10177800D02*
X74392857Y10130181D01*
X74392857Y10130181D02*
X74488095Y10130181D01*
X74964286Y10130181D02*
X74869048Y10177800D01*
X74869048Y10177800D02*
X74821429Y10225420D01*
X74821429Y10225420D02*
X74773810Y10320658D01*
X74773810Y10320658D02*
X74773810Y10606372D01*
X74773810Y10606372D02*
X74821429Y10701610D01*
X74821429Y10701610D02*
X74869048Y10749229D01*
X74869048Y10749229D02*
X74964286Y10796848D01*
X74964286Y10796848D02*
X75107143Y10796848D01*
X75107143Y10796848D02*
X75202381Y10749229D01*
X75202381Y10749229D02*
X75250000Y10701610D01*
X75250000Y10701610D02*
X75297619Y10606372D01*
X75297619Y10606372D02*
X75297619Y10320658D01*
X75297619Y10320658D02*
X75250000Y10225420D01*
X75250000Y10225420D02*
X75202381Y10177800D01*
X75202381Y10177800D02*
X75107143Y10130181D01*
X75107143Y10130181D02*
X74964286Y10130181D01*
X76345239Y11130181D02*
X76916667Y11130181D01*
X76630953Y10130181D02*
X76630953Y11130181D01*
X77154763Y11130181D02*
X77821429Y10130181D01*
X77821429Y11130181D02*
X77154763Y10130181D01*
D11*
X24820238Y-10854933D02*
X25429762Y-10854933D01*
X25125000Y-11159695D02*
X25125000Y-10550171D01*
X60244048Y-1471266D02*
X61005953Y-1471266D01*
X60625000Y-1852219D02*
X60625000Y-1090314D01*
D13*
X37520237Y867805D02*
X37044047Y867805D01*
X37615475Y1153520D02*
X37282142Y153520D01*
X37282142Y153520D02*
X36948809Y1153520D01*
X36758332Y153520D02*
X36186904Y153520D01*
X36472618Y1153520D02*
X36472618Y153520D01*
X35996427Y153520D02*
X35424999Y153520D01*
X35710713Y1153520D02*
X35710713Y153520D01*
X35091665Y1153520D02*
X35091665Y153520D01*
X34615475Y1153520D02*
X34615475Y153520D01*
X34615475Y153520D02*
X34044047Y1153520D01*
X34044047Y1153520D02*
X34044047Y153520D01*
X33377380Y677329D02*
X33377380Y1153520D01*
X33710713Y153520D02*
X33377380Y677329D01*
X33377380Y677329D02*
X33044047Y153520D01*
X32186904Y1153520D02*
X32758332Y1153520D01*
X32472618Y1153520D02*
X32472618Y153520D01*
X32472618Y153520D02*
X32567856Y296377D01*
X32567856Y296377D02*
X32663094Y391615D01*
X32663094Y391615D02*
X32758332Y439234D01*
X31329761Y153520D02*
X31520237Y153520D01*
X31520237Y153520D02*
X31615475Y201139D01*
X31615475Y201139D02*
X31663094Y248758D01*
X31663094Y248758D02*
X31758332Y391615D01*
X31758332Y391615D02*
X31805951Y582091D01*
X31805951Y582091D02*
X31805951Y963043D01*
X31805951Y963043D02*
X31758332Y1058281D01*
X31758332Y1058281D02*
X31710713Y1105900D01*
X31710713Y1105900D02*
X31615475Y1153520D01*
X31615475Y1153520D02*
X31424999Y1153520D01*
X31424999Y1153520D02*
X31329761Y1105900D01*
X31329761Y1105900D02*
X31282142Y1058281D01*
X31282142Y1058281D02*
X31234523Y963043D01*
X31234523Y963043D02*
X31234523Y724948D01*
X31234523Y724948D02*
X31282142Y629710D01*
X31282142Y629710D02*
X31329761Y582091D01*
X31329761Y582091D02*
X31424999Y534472D01*
X31424999Y534472D02*
X31615475Y534472D01*
X31615475Y534472D02*
X31710713Y582091D01*
X31710713Y582091D02*
X31758332Y629710D01*
X31758332Y629710D02*
X31805951Y724948D01*
X30853570Y248758D02*
X30805951Y201139D01*
X30805951Y201139D02*
X30710713Y153520D01*
X30710713Y153520D02*
X30472618Y153520D01*
X30472618Y153520D02*
X30377380Y201139D01*
X30377380Y201139D02*
X30329761Y248758D01*
X30329761Y248758D02*
X30282142Y343996D01*
X30282142Y343996D02*
X30282142Y439234D01*
X30282142Y439234D02*
X30329761Y582091D01*
X30329761Y582091D02*
X30901189Y1153520D01*
X30901189Y1153520D02*
X30282142Y1153520D01*
X29424999Y486853D02*
X29424999Y1153520D01*
X29663094Y105900D02*
X29901189Y820186D01*
X29901189Y820186D02*
X29282142Y820186D01*
D10*
X36913095Y13588153D02*
X37674999Y13873867D01*
X37674999Y13873867D02*
X36913095Y14159581D01*
X35675000Y13588153D02*
X36436904Y13873867D01*
X36436904Y13873867D02*
X35675000Y14159581D01*
X35198809Y14254820D02*
X35198809Y13254820D01*
X34770238Y14254820D02*
X34770238Y13731010D01*
X34770238Y13731010D02*
X34817857Y13635772D01*
X34817857Y13635772D02*
X34913095Y13588153D01*
X34913095Y13588153D02*
X35055952Y13588153D01*
X35055952Y13588153D02*
X35151190Y13635772D01*
X35151190Y13635772D02*
X35198809Y13683391D01*
X33865476Y14254820D02*
X33865476Y13731010D01*
X33865476Y13731010D02*
X33913095Y13635772D01*
X33913095Y13635772D02*
X34008333Y13588153D01*
X34008333Y13588153D02*
X34198809Y13588153D01*
X34198809Y13588153D02*
X34294047Y13635772D01*
X33865476Y14207200D02*
X33960714Y14254820D01*
X33960714Y14254820D02*
X34198809Y14254820D01*
X34198809Y14254820D02*
X34294047Y14207200D01*
X34294047Y14207200D02*
X34341666Y14111962D01*
X34341666Y14111962D02*
X34341666Y14016724D01*
X34341666Y14016724D02*
X34294047Y13921486D01*
X34294047Y13921486D02*
X34198809Y13873867D01*
X34198809Y13873867D02*
X33960714Y13873867D01*
X33960714Y13873867D02*
X33865476Y13826248D01*
X33436904Y14207200D02*
X33341666Y14254820D01*
X33341666Y14254820D02*
X33151190Y14254820D01*
X33151190Y14254820D02*
X33055952Y14207200D01*
X33055952Y14207200D02*
X33008333Y14111962D01*
X33008333Y14111962D02*
X33008333Y14064343D01*
X33008333Y14064343D02*
X33055952Y13969105D01*
X33055952Y13969105D02*
X33151190Y13921486D01*
X33151190Y13921486D02*
X33294047Y13921486D01*
X33294047Y13921486D02*
X33389285Y13873867D01*
X33389285Y13873867D02*
X33436904Y13778629D01*
X33436904Y13778629D02*
X33436904Y13731010D01*
X33436904Y13731010D02*
X33389285Y13635772D01*
X33389285Y13635772D02*
X33294047Y13588153D01*
X33294047Y13588153D02*
X33151190Y13588153D01*
X33151190Y13588153D02*
X33055952Y13635772D01*
X32579761Y14254820D02*
X32579761Y13254820D01*
X32151190Y14254820D02*
X32151190Y13731010D01*
X32151190Y13731010D02*
X32198809Y13635772D01*
X32198809Y13635772D02*
X32294047Y13588153D01*
X32294047Y13588153D02*
X32436904Y13588153D01*
X32436904Y13588153D02*
X32532142Y13635772D01*
X32532142Y13635772D02*
X32579761Y13683391D01*
X31674999Y13588153D02*
X30913095Y13873867D01*
X30913095Y13873867D02*
X31674999Y14159581D01*
X30436904Y13588153D02*
X29675000Y13873867D01*
X29675000Y13873867D02*
X30436904Y14159581D01*
D11*
X13787219Y14972143D02*
X12787219Y15097143D01*
X13787219Y15543572D02*
X13215790Y15186429D01*
X12787219Y15668572D02*
X13358647Y15025715D01*
X30244048Y-13771266D02*
X31005953Y-13771266D01*
X30625000Y-14152219D02*
X30625000Y-13390314D01*
X35996266Y-14191904D02*
X35996266Y-13430000D01*
X33477219Y-14191904D02*
X32477219Y-14191904D01*
X32477219Y-14191904D02*
X32477219Y-13953809D01*
X32477219Y-13953809D02*
X32524838Y-13810952D01*
X32524838Y-13810952D02*
X32620076Y-13715714D01*
X32620076Y-13715714D02*
X32715314Y-13668095D01*
X32715314Y-13668095D02*
X32905790Y-13620476D01*
X32905790Y-13620476D02*
X33048647Y-13620476D01*
X33048647Y-13620476D02*
X33239123Y-13668095D01*
X33239123Y-13668095D02*
X33334361Y-13715714D01*
X33334361Y-13715714D02*
X33429600Y-13810952D01*
X33429600Y-13810952D02*
X33477219Y-13953809D01*
X33477219Y-13953809D02*
X33477219Y-14191904D01*
X88845238Y-13905076D02*
X89345238Y-9905076D01*
X89345238Y-9905076D02*
X90321428Y-12762219D01*
X90321428Y-12762219D02*
X92011905Y-9905076D01*
X92011905Y-9905076D02*
X91511905Y-13905076D01*
X93416667Y-13905076D02*
X93916667Y-9905076D01*
X95321429Y-13905076D02*
X95821429Y-9905076D01*
X95821429Y-9905076D02*
X97607143Y-13905076D01*
X97607143Y-13905076D02*
X98107143Y-9905076D01*
X100011905Y-9905076D02*
X99607143Y-13143171D01*
X99607143Y-13143171D02*
X99750000Y-13524123D01*
X99750000Y-13524123D02*
X99916667Y-13714600D01*
X99916667Y-13714600D02*
X100273810Y-13905076D01*
X100273810Y-13905076D02*
X101035714Y-13905076D01*
X101035714Y-13905076D02*
X101440476Y-13714600D01*
X101440476Y-13714600D02*
X101654762Y-13524123D01*
X101654762Y-13524123D02*
X101892857Y-13143171D01*
X101892857Y-13143171D02*
X102297619Y-9905076D01*
X103535714Y-13714600D02*
X104083333Y-13905076D01*
X104083333Y-13905076D02*
X105035714Y-13905076D01*
X105035714Y-13905076D02*
X105440476Y-13714600D01*
X105440476Y-13714600D02*
X105654762Y-13524123D01*
X105654762Y-13524123D02*
X105892857Y-13143171D01*
X105892857Y-13143171D02*
X105940476Y-12762219D01*
X105940476Y-12762219D02*
X105797619Y-12381266D01*
X105797619Y-12381266D02*
X105630952Y-12190790D01*
X105630952Y-12190790D02*
X105273810Y-12000314D01*
X105273810Y-12000314D02*
X104535714Y-11809838D01*
X104535714Y-11809838D02*
X104178571Y-11619361D01*
X104178571Y-11619361D02*
X104011905Y-11428885D01*
X104011905Y-11428885D02*
X103869048Y-11047933D01*
X103869048Y-11047933D02*
X103916667Y-10666980D01*
X103916667Y-10666980D02*
X104154762Y-10286028D01*
X104154762Y-10286028D02*
X104369048Y-10095552D01*
X104369048Y-10095552D02*
X104773810Y-9905076D01*
X104773810Y-9905076D02*
X105726190Y-9905076D01*
X105726190Y-9905076D02*
X106273810Y-10095552D01*
X110750000Y-12381266D02*
X113797619Y-12381266D01*
X-33550476Y-13905076D02*
X-33050476Y-9905076D01*
X-33050476Y-9905076D02*
X-31526667Y-9905076D01*
X-31526667Y-9905076D02*
X-31169524Y-10095552D01*
X-31169524Y-10095552D02*
X-31002857Y-10286028D01*
X-31002857Y-10286028D02*
X-30860000Y-10666980D01*
X-30860000Y-10666980D02*
X-30931428Y-11238409D01*
X-30931428Y-11238409D02*
X-31169524Y-11619361D01*
X-31169524Y-11619361D02*
X-31383809Y-11809838D01*
X-31383809Y-11809838D02*
X-31788571Y-12000314D01*
X-31788571Y-12000314D02*
X-33312381Y-12000314D01*
X-27645714Y-13905076D02*
X-29550476Y-13905076D01*
X-29550476Y-13905076D02*
X-29050476Y-9905076D01*
X-25812381Y-9905076D02*
X-26217143Y-13143171D01*
X-26217143Y-13143171D02*
X-26074286Y-13524123D01*
X-26074286Y-13524123D02*
X-25907619Y-13714600D01*
X-25907619Y-13714600D02*
X-25550476Y-13905076D01*
X-25550476Y-13905076D02*
X-24788572Y-13905076D01*
X-24788572Y-13905076D02*
X-24383810Y-13714600D01*
X-24383810Y-13714600D02*
X-24169524Y-13524123D01*
X-24169524Y-13524123D02*
X-23931429Y-13143171D01*
X-23931429Y-13143171D02*
X-23526667Y-9905076D01*
X-22288572Y-13714600D02*
X-21740953Y-13905076D01*
X-21740953Y-13905076D02*
X-20788572Y-13905076D01*
X-20788572Y-13905076D02*
X-20383810Y-13714600D01*
X-20383810Y-13714600D02*
X-20169524Y-13524123D01*
X-20169524Y-13524123D02*
X-19931429Y-13143171D01*
X-19931429Y-13143171D02*
X-19883810Y-12762219D01*
X-19883810Y-12762219D02*
X-20026667Y-12381266D01*
X-20026667Y-12381266D02*
X-20193334Y-12190790D01*
X-20193334Y-12190790D02*
X-20550476Y-12000314D01*
X-20550476Y-12000314D02*
X-21288572Y-11809838D01*
X-21288572Y-11809838D02*
X-21645715Y-11619361D01*
X-21645715Y-11619361D02*
X-21812381Y-11428885D01*
X-21812381Y-11428885D02*
X-21955238Y-11047933D01*
X-21955238Y-11047933D02*
X-21907619Y-10666980D01*
X-21907619Y-10666980D02*
X-21669524Y-10286028D01*
X-21669524Y-10286028D02*
X-21455238Y-10095552D01*
X-21455238Y-10095552D02*
X-21050476Y-9905076D01*
X-21050476Y-9905076D02*
X-20098096Y-9905076D01*
X-20098096Y-9905076D02*
X-19550476Y-10095552D01*
X-15074286Y-12381266D02*
X-12026667Y-12381266D01*
X-13740953Y-13905076D02*
X-13360000Y-10857457D01*
D10*
%TO.C,VCC*%
X54546667Y8480381D02*
X54880000Y7480381D01*
X54880000Y7480381D02*
X55213333Y8480381D01*
X56118095Y7575620D02*
X56070476Y7528000D01*
X56070476Y7528000D02*
X55927619Y7480381D01*
X55927619Y7480381D02*
X55832381Y7480381D01*
X55832381Y7480381D02*
X55689524Y7528000D01*
X55689524Y7528000D02*
X55594286Y7623239D01*
X55594286Y7623239D02*
X55546667Y7718477D01*
X55546667Y7718477D02*
X55499048Y7908953D01*
X55499048Y7908953D02*
X55499048Y8051810D01*
X55499048Y8051810D02*
X55546667Y8242286D01*
X55546667Y8242286D02*
X55594286Y8337524D01*
X55594286Y8337524D02*
X55689524Y8432762D01*
X55689524Y8432762D02*
X55832381Y8480381D01*
X55832381Y8480381D02*
X55927619Y8480381D01*
X55927619Y8480381D02*
X56070476Y8432762D01*
X56070476Y8432762D02*
X56118095Y8385143D01*
X57118095Y7575620D02*
X57070476Y7528000D01*
X57070476Y7528000D02*
X56927619Y7480381D01*
X56927619Y7480381D02*
X56832381Y7480381D01*
X56832381Y7480381D02*
X56689524Y7528000D01*
X56689524Y7528000D02*
X56594286Y7623239D01*
X56594286Y7623239D02*
X56546667Y7718477D01*
X56546667Y7718477D02*
X56499048Y7908953D01*
X56499048Y7908953D02*
X56499048Y8051810D01*
X56499048Y8051810D02*
X56546667Y8242286D01*
X56546667Y8242286D02*
X56594286Y8337524D01*
X56594286Y8337524D02*
X56689524Y8432762D01*
X56689524Y8432762D02*
X56832381Y8480381D01*
X56832381Y8480381D02*
X56927619Y8480381D01*
X56927619Y8480381D02*
X57070476Y8432762D01*
X57070476Y8432762D02*
X57118095Y8385143D01*
%TO.C,DUMP*%
X54226057Y-10807619D02*
X54226057Y-9807619D01*
X54226057Y-9807619D02*
X54464152Y-9807619D01*
X54464152Y-9807619D02*
X54607009Y-9855238D01*
X54607009Y-9855238D02*
X54702247Y-9950476D01*
X54702247Y-9950476D02*
X54749866Y-10045714D01*
X54749866Y-10045714D02*
X54797485Y-10236190D01*
X54797485Y-10236190D02*
X54797485Y-10379047D01*
X54797485Y-10379047D02*
X54749866Y-10569523D01*
X54749866Y-10569523D02*
X54702247Y-10664761D01*
X54702247Y-10664761D02*
X54607009Y-10760000D01*
X54607009Y-10760000D02*
X54464152Y-10807619D01*
X54464152Y-10807619D02*
X54226057Y-10807619D01*
X55226057Y-9807619D02*
X55226057Y-10617142D01*
X55226057Y-10617142D02*
X55273676Y-10712380D01*
X55273676Y-10712380D02*
X55321295Y-10760000D01*
X55321295Y-10760000D02*
X55416533Y-10807619D01*
X55416533Y-10807619D02*
X55607009Y-10807619D01*
X55607009Y-10807619D02*
X55702247Y-10760000D01*
X55702247Y-10760000D02*
X55749866Y-10712380D01*
X55749866Y-10712380D02*
X55797485Y-10617142D01*
X55797485Y-10617142D02*
X55797485Y-9807619D01*
X56273676Y-10807619D02*
X56273676Y-9807619D01*
X56273676Y-9807619D02*
X56607009Y-10521904D01*
X56607009Y-10521904D02*
X56940342Y-9807619D01*
X56940342Y-9807619D02*
X56940342Y-10807619D01*
X57416533Y-10807619D02*
X57416533Y-9807619D01*
X57416533Y-9807619D02*
X57797485Y-9807619D01*
X57797485Y-9807619D02*
X57892723Y-9855238D01*
X57892723Y-9855238D02*
X57940342Y-9902857D01*
X57940342Y-9902857D02*
X57987961Y-9998095D01*
X57987961Y-9998095D02*
X57987961Y-10140952D01*
X57987961Y-10140952D02*
X57940342Y-10236190D01*
X57940342Y-10236190D02*
X57892723Y-10283809D01*
X57892723Y-10283809D02*
X57797485Y-10331428D01*
X57797485Y-10331428D02*
X57416533Y-10331428D01*
%TO.C,EXTTEMP1*%
X39092619Y15098991D02*
X39425952Y15098991D01*
X39568809Y14575181D02*
X39092619Y14575181D01*
X39092619Y14575181D02*
X39092619Y15575181D01*
X39092619Y15575181D02*
X39568809Y15575181D01*
X39902143Y15575181D02*
X40568809Y14575181D01*
X40568809Y15575181D02*
X39902143Y14575181D01*
X40806905Y15575181D02*
X41378333Y15575181D01*
X41092619Y14575181D02*
X41092619Y15575181D01*
X41568810Y15575181D02*
X42140238Y15575181D01*
X41854524Y14575181D02*
X41854524Y15575181D01*
X42473572Y15098991D02*
X42806905Y15098991D01*
X42949762Y14575181D02*
X42473572Y14575181D01*
X42473572Y14575181D02*
X42473572Y15575181D01*
X42473572Y15575181D02*
X42949762Y15575181D01*
X43378334Y14575181D02*
X43378334Y15575181D01*
X43378334Y15575181D02*
X43711667Y14860896D01*
X43711667Y14860896D02*
X44045000Y15575181D01*
X44045000Y15575181D02*
X44045000Y14575181D01*
X44521191Y14575181D02*
X44521191Y15575181D01*
X44521191Y15575181D02*
X44902143Y15575181D01*
X44902143Y15575181D02*
X44997381Y15527562D01*
X44997381Y15527562D02*
X45045000Y15479943D01*
X45045000Y15479943D02*
X45092619Y15384705D01*
X45092619Y15384705D02*
X45092619Y15241848D01*
X45092619Y15241848D02*
X45045000Y15146610D01*
X45045000Y15146610D02*
X44997381Y15098991D01*
X44997381Y15098991D02*
X44902143Y15051372D01*
X44902143Y15051372D02*
X44521191Y15051372D01*
X46045000Y14575181D02*
X45473572Y14575181D01*
X45759286Y14575181D02*
X45759286Y15575181D01*
X45759286Y15575181D02*
X45664048Y15432324D01*
X45664048Y15432324D02*
X45568810Y15337086D01*
X45568810Y15337086D02*
X45473572Y15289467D01*
%TO.C,U1*%
X26004819Y10188096D02*
X26814342Y10188096D01*
X26814342Y10188096D02*
X26909580Y10235715D01*
X26909580Y10235715D02*
X26957200Y10283334D01*
X26957200Y10283334D02*
X27004819Y10378572D01*
X27004819Y10378572D02*
X27004819Y10569048D01*
X27004819Y10569048D02*
X26957200Y10664286D01*
X26957200Y10664286D02*
X26909580Y10711905D01*
X26909580Y10711905D02*
X26814342Y10759524D01*
X26814342Y10759524D02*
X26004819Y10759524D01*
X27004819Y11759524D02*
X27004819Y11188096D01*
X27004819Y11473810D02*
X26004819Y11473810D01*
X26004819Y11473810D02*
X26147676Y11378572D01*
X26147676Y11378572D02*
X26242914Y11283334D01*
X26242914Y11283334D02*
X26290533Y11188096D01*
%TO.C,R16*%
X20579819Y-12342857D02*
X20103628Y-12676190D01*
X20579819Y-12914285D02*
X19579819Y-12914285D01*
X19579819Y-12914285D02*
X19579819Y-12533333D01*
X19579819Y-12533333D02*
X19627438Y-12438095D01*
X19627438Y-12438095D02*
X19675057Y-12390476D01*
X19675057Y-12390476D02*
X19770295Y-12342857D01*
X19770295Y-12342857D02*
X19913152Y-12342857D01*
X19913152Y-12342857D02*
X20008390Y-12390476D01*
X20008390Y-12390476D02*
X20056009Y-12438095D01*
X20056009Y-12438095D02*
X20103628Y-12533333D01*
X20103628Y-12533333D02*
X20103628Y-12914285D01*
X20579819Y-11390476D02*
X20579819Y-11961904D01*
X20579819Y-11676190D02*
X19579819Y-11676190D01*
X19579819Y-11676190D02*
X19722676Y-11771428D01*
X19722676Y-11771428D02*
X19817914Y-11866666D01*
X19817914Y-11866666D02*
X19865533Y-11961904D01*
X19579819Y-10533333D02*
X19579819Y-10723809D01*
X19579819Y-10723809D02*
X19627438Y-10819047D01*
X19627438Y-10819047D02*
X19675057Y-10866666D01*
X19675057Y-10866666D02*
X19817914Y-10961904D01*
X19817914Y-10961904D02*
X20008390Y-11009523D01*
X20008390Y-11009523D02*
X20389342Y-11009523D01*
X20389342Y-11009523D02*
X20484580Y-10961904D01*
X20484580Y-10961904D02*
X20532200Y-10914285D01*
X20532200Y-10914285D02*
X20579819Y-10819047D01*
X20579819Y-10819047D02*
X20579819Y-10628571D01*
X20579819Y-10628571D02*
X20532200Y-10533333D01*
X20532200Y-10533333D02*
X20484580Y-10485714D01*
X20484580Y-10485714D02*
X20389342Y-10438095D01*
X20389342Y-10438095D02*
X20151247Y-10438095D01*
X20151247Y-10438095D02*
X20056009Y-10485714D01*
X20056009Y-10485714D02*
X20008390Y-10533333D01*
X20008390Y-10533333D02*
X19960771Y-10628571D01*
X19960771Y-10628571D02*
X19960771Y-10819047D01*
X19960771Y-10819047D02*
X20008390Y-10914285D01*
X20008390Y-10914285D02*
X20056009Y-10961904D01*
X20056009Y-10961904D02*
X20151247Y-11009523D01*
%TO.C,R27*%
X55259819Y-10294857D02*
X54783628Y-10628190D01*
X55259819Y-10866285D02*
X54259819Y-10866285D01*
X54259819Y-10866285D02*
X54259819Y-10485333D01*
X54259819Y-10485333D02*
X54307438Y-10390095D01*
X54307438Y-10390095D02*
X54355057Y-10342476D01*
X54355057Y-10342476D02*
X54450295Y-10294857D01*
X54450295Y-10294857D02*
X54593152Y-10294857D01*
X54593152Y-10294857D02*
X54688390Y-10342476D01*
X54688390Y-10342476D02*
X54736009Y-10390095D01*
X54736009Y-10390095D02*
X54783628Y-10485333D01*
X54783628Y-10485333D02*
X54783628Y-10866285D01*
X54355057Y-9913904D02*
X54307438Y-9866285D01*
X54307438Y-9866285D02*
X54259819Y-9771047D01*
X54259819Y-9771047D02*
X54259819Y-9532952D01*
X54259819Y-9532952D02*
X54307438Y-9437714D01*
X54307438Y-9437714D02*
X54355057Y-9390095D01*
X54355057Y-9390095D02*
X54450295Y-9342476D01*
X54450295Y-9342476D02*
X54545533Y-9342476D01*
X54545533Y-9342476D02*
X54688390Y-9390095D01*
X54688390Y-9390095D02*
X55259819Y-9961523D01*
X55259819Y-9961523D02*
X55259819Y-9342476D01*
X54259819Y-9009142D02*
X54259819Y-8342476D01*
X54259819Y-8342476D02*
X55259819Y-8771047D01*
%TO.C,R26*%
X51009819Y-4526191D02*
X50533628Y-4859524D01*
X51009819Y-5097619D02*
X50009819Y-5097619D01*
X50009819Y-5097619D02*
X50009819Y-4716667D01*
X50009819Y-4716667D02*
X50057438Y-4621429D01*
X50057438Y-4621429D02*
X50105057Y-4573810D01*
X50105057Y-4573810D02*
X50200295Y-4526191D01*
X50200295Y-4526191D02*
X50343152Y-4526191D01*
X50343152Y-4526191D02*
X50438390Y-4573810D01*
X50438390Y-4573810D02*
X50486009Y-4621429D01*
X50486009Y-4621429D02*
X50533628Y-4716667D01*
X50533628Y-4716667D02*
X50533628Y-5097619D01*
X50105057Y-4145238D02*
X50057438Y-4097619D01*
X50057438Y-4097619D02*
X50009819Y-4002381D01*
X50009819Y-4002381D02*
X50009819Y-3764286D01*
X50009819Y-3764286D02*
X50057438Y-3669048D01*
X50057438Y-3669048D02*
X50105057Y-3621429D01*
X50105057Y-3621429D02*
X50200295Y-3573810D01*
X50200295Y-3573810D02*
X50295533Y-3573810D01*
X50295533Y-3573810D02*
X50438390Y-3621429D01*
X50438390Y-3621429D02*
X51009819Y-4192857D01*
X51009819Y-4192857D02*
X51009819Y-3573810D01*
X50009819Y-2716667D02*
X50009819Y-2907143D01*
X50009819Y-2907143D02*
X50057438Y-3002381D01*
X50057438Y-3002381D02*
X50105057Y-3050000D01*
X50105057Y-3050000D02*
X50247914Y-3145238D01*
X50247914Y-3145238D02*
X50438390Y-3192857D01*
X50438390Y-3192857D02*
X50819342Y-3192857D01*
X50819342Y-3192857D02*
X50914580Y-3145238D01*
X50914580Y-3145238D02*
X50962200Y-3097619D01*
X50962200Y-3097619D02*
X51009819Y-3002381D01*
X51009819Y-3002381D02*
X51009819Y-2811905D01*
X51009819Y-2811905D02*
X50962200Y-2716667D01*
X50962200Y-2716667D02*
X50914580Y-2669048D01*
X50914580Y-2669048D02*
X50819342Y-2621429D01*
X50819342Y-2621429D02*
X50581247Y-2621429D01*
X50581247Y-2621429D02*
X50486009Y-2669048D01*
X50486009Y-2669048D02*
X50438390Y-2716667D01*
X50438390Y-2716667D02*
X50390771Y-2811905D01*
X50390771Y-2811905D02*
X50390771Y-3002381D01*
X50390771Y-3002381D02*
X50438390Y-3097619D01*
X50438390Y-3097619D02*
X50486009Y-3145238D01*
X50486009Y-3145238D02*
X50581247Y-3192857D01*
%TO.C,R28*%
X51009819Y-9278857D02*
X50533628Y-9612190D01*
X51009819Y-9850285D02*
X50009819Y-9850285D01*
X50009819Y-9850285D02*
X50009819Y-9469333D01*
X50009819Y-9469333D02*
X50057438Y-9374095D01*
X50057438Y-9374095D02*
X50105057Y-9326476D01*
X50105057Y-9326476D02*
X50200295Y-9278857D01*
X50200295Y-9278857D02*
X50343152Y-9278857D01*
X50343152Y-9278857D02*
X50438390Y-9326476D01*
X50438390Y-9326476D02*
X50486009Y-9374095D01*
X50486009Y-9374095D02*
X50533628Y-9469333D01*
X50533628Y-9469333D02*
X50533628Y-9850285D01*
X50105057Y-8897904D02*
X50057438Y-8850285D01*
X50057438Y-8850285D02*
X50009819Y-8755047D01*
X50009819Y-8755047D02*
X50009819Y-8516952D01*
X50009819Y-8516952D02*
X50057438Y-8421714D01*
X50057438Y-8421714D02*
X50105057Y-8374095D01*
X50105057Y-8374095D02*
X50200295Y-8326476D01*
X50200295Y-8326476D02*
X50295533Y-8326476D01*
X50295533Y-8326476D02*
X50438390Y-8374095D01*
X50438390Y-8374095D02*
X51009819Y-8945523D01*
X51009819Y-8945523D02*
X51009819Y-8326476D01*
X50438390Y-7755047D02*
X50390771Y-7850285D01*
X50390771Y-7850285D02*
X50343152Y-7897904D01*
X50343152Y-7897904D02*
X50247914Y-7945523D01*
X50247914Y-7945523D02*
X50200295Y-7945523D01*
X50200295Y-7945523D02*
X50105057Y-7897904D01*
X50105057Y-7897904D02*
X50057438Y-7850285D01*
X50057438Y-7850285D02*
X50009819Y-7755047D01*
X50009819Y-7755047D02*
X50009819Y-7564571D01*
X50009819Y-7564571D02*
X50057438Y-7469333D01*
X50057438Y-7469333D02*
X50105057Y-7421714D01*
X50105057Y-7421714D02*
X50200295Y-7374095D01*
X50200295Y-7374095D02*
X50247914Y-7374095D01*
X50247914Y-7374095D02*
X50343152Y-7421714D01*
X50343152Y-7421714D02*
X50390771Y-7469333D01*
X50390771Y-7469333D02*
X50438390Y-7564571D01*
X50438390Y-7564571D02*
X50438390Y-7755047D01*
X50438390Y-7755047D02*
X50486009Y-7850285D01*
X50486009Y-7850285D02*
X50533628Y-7897904D01*
X50533628Y-7897904D02*
X50628866Y-7945523D01*
X50628866Y-7945523D02*
X50819342Y-7945523D01*
X50819342Y-7945523D02*
X50914580Y-7897904D01*
X50914580Y-7897904D02*
X50962200Y-7850285D01*
X50962200Y-7850285D02*
X51009819Y-7755047D01*
X51009819Y-7755047D02*
X51009819Y-7564571D01*
X51009819Y-7564571D02*
X50962200Y-7469333D01*
X50962200Y-7469333D02*
X50914580Y-7421714D01*
X50914580Y-7421714D02*
X50819342Y-7374095D01*
X50819342Y-7374095D02*
X50628866Y-7374095D01*
X50628866Y-7374095D02*
X50533628Y-7421714D01*
X50533628Y-7421714D02*
X50486009Y-7469333D01*
X50486009Y-7469333D02*
X50438390Y-7564571D01*
%TO.C,R24*%
X51009819Y2582143D02*
X50533628Y2248810D01*
X51009819Y2010715D02*
X50009819Y2010715D01*
X50009819Y2010715D02*
X50009819Y2391667D01*
X50009819Y2391667D02*
X50057438Y2486905D01*
X50057438Y2486905D02*
X50105057Y2534524D01*
X50105057Y2534524D02*
X50200295Y2582143D01*
X50200295Y2582143D02*
X50343152Y2582143D01*
X50343152Y2582143D02*
X50438390Y2534524D01*
X50438390Y2534524D02*
X50486009Y2486905D01*
X50486009Y2486905D02*
X50533628Y2391667D01*
X50533628Y2391667D02*
X50533628Y2010715D01*
X50105057Y2963096D02*
X50057438Y3010715D01*
X50057438Y3010715D02*
X50009819Y3105953D01*
X50009819Y3105953D02*
X50009819Y3344048D01*
X50009819Y3344048D02*
X50057438Y3439286D01*
X50057438Y3439286D02*
X50105057Y3486905D01*
X50105057Y3486905D02*
X50200295Y3534524D01*
X50200295Y3534524D02*
X50295533Y3534524D01*
X50295533Y3534524D02*
X50438390Y3486905D01*
X50438390Y3486905D02*
X51009819Y2915477D01*
X51009819Y2915477D02*
X51009819Y3534524D01*
X50343152Y4391667D02*
X51009819Y4391667D01*
X49962200Y4153572D02*
X50676485Y3915477D01*
X50676485Y3915477D02*
X50676485Y4534524D01*
%TO.C,R25*%
X55259819Y-4501191D02*
X54783628Y-4834524D01*
X55259819Y-5072619D02*
X54259819Y-5072619D01*
X54259819Y-5072619D02*
X54259819Y-4691667D01*
X54259819Y-4691667D02*
X54307438Y-4596429D01*
X54307438Y-4596429D02*
X54355057Y-4548810D01*
X54355057Y-4548810D02*
X54450295Y-4501191D01*
X54450295Y-4501191D02*
X54593152Y-4501191D01*
X54593152Y-4501191D02*
X54688390Y-4548810D01*
X54688390Y-4548810D02*
X54736009Y-4596429D01*
X54736009Y-4596429D02*
X54783628Y-4691667D01*
X54783628Y-4691667D02*
X54783628Y-5072619D01*
X54355057Y-4120238D02*
X54307438Y-4072619D01*
X54307438Y-4072619D02*
X54259819Y-3977381D01*
X54259819Y-3977381D02*
X54259819Y-3739286D01*
X54259819Y-3739286D02*
X54307438Y-3644048D01*
X54307438Y-3644048D02*
X54355057Y-3596429D01*
X54355057Y-3596429D02*
X54450295Y-3548810D01*
X54450295Y-3548810D02*
X54545533Y-3548810D01*
X54545533Y-3548810D02*
X54688390Y-3596429D01*
X54688390Y-3596429D02*
X55259819Y-4167857D01*
X55259819Y-4167857D02*
X55259819Y-3548810D01*
X54259819Y-2644048D02*
X54259819Y-3120238D01*
X54259819Y-3120238D02*
X54736009Y-3167857D01*
X54736009Y-3167857D02*
X54688390Y-3120238D01*
X54688390Y-3120238D02*
X54640771Y-3025000D01*
X54640771Y-3025000D02*
X54640771Y-2786905D01*
X54640771Y-2786905D02*
X54688390Y-2691667D01*
X54688390Y-2691667D02*
X54736009Y-2644048D01*
X54736009Y-2644048D02*
X54831247Y-2596429D01*
X54831247Y-2596429D02*
X55069342Y-2596429D01*
X55069342Y-2596429D02*
X55164580Y-2644048D01*
X55164580Y-2644048D02*
X55212200Y-2691667D01*
X55212200Y-2691667D02*
X55259819Y-2786905D01*
X55259819Y-2786905D02*
X55259819Y-3025000D01*
X55259819Y-3025000D02*
X55212200Y-3120238D01*
X55212200Y-3120238D02*
X55164580Y-3167857D01*
%TO.C,R22*%
X55259819Y2151143D02*
X54783628Y1817810D01*
X55259819Y1579715D02*
X54259819Y1579715D01*
X54259819Y1579715D02*
X54259819Y1960667D01*
X54259819Y1960667D02*
X54307438Y2055905D01*
X54307438Y2055905D02*
X54355057Y2103524D01*
X54355057Y2103524D02*
X54450295Y2151143D01*
X54450295Y2151143D02*
X54593152Y2151143D01*
X54593152Y2151143D02*
X54688390Y2103524D01*
X54688390Y2103524D02*
X54736009Y2055905D01*
X54736009Y2055905D02*
X54783628Y1960667D01*
X54783628Y1960667D02*
X54783628Y1579715D01*
X54355057Y2532096D02*
X54307438Y2579715D01*
X54307438Y2579715D02*
X54259819Y2674953D01*
X54259819Y2674953D02*
X54259819Y2913048D01*
X54259819Y2913048D02*
X54307438Y3008286D01*
X54307438Y3008286D02*
X54355057Y3055905D01*
X54355057Y3055905D02*
X54450295Y3103524D01*
X54450295Y3103524D02*
X54545533Y3103524D01*
X54545533Y3103524D02*
X54688390Y3055905D01*
X54688390Y3055905D02*
X55259819Y2484477D01*
X55259819Y2484477D02*
X55259819Y3103524D01*
X54355057Y3484477D02*
X54307438Y3532096D01*
X54307438Y3532096D02*
X54259819Y3627334D01*
X54259819Y3627334D02*
X54259819Y3865429D01*
X54259819Y3865429D02*
X54307438Y3960667D01*
X54307438Y3960667D02*
X54355057Y4008286D01*
X54355057Y4008286D02*
X54450295Y4055905D01*
X54450295Y4055905D02*
X54545533Y4055905D01*
X54545533Y4055905D02*
X54688390Y4008286D01*
X54688390Y4008286D02*
X55259819Y3436858D01*
X55259819Y3436858D02*
X55259819Y4055905D01*
%TO.C,R19*%
X46354819Y-1892857D02*
X45878628Y-2226190D01*
X46354819Y-2464285D02*
X45354819Y-2464285D01*
X45354819Y-2464285D02*
X45354819Y-2083333D01*
X45354819Y-2083333D02*
X45402438Y-1988095D01*
X45402438Y-1988095D02*
X45450057Y-1940476D01*
X45450057Y-1940476D02*
X45545295Y-1892857D01*
X45545295Y-1892857D02*
X45688152Y-1892857D01*
X45688152Y-1892857D02*
X45783390Y-1940476D01*
X45783390Y-1940476D02*
X45831009Y-1988095D01*
X45831009Y-1988095D02*
X45878628Y-2083333D01*
X45878628Y-2083333D02*
X45878628Y-2464285D01*
X46354819Y-940476D02*
X46354819Y-1511904D01*
X46354819Y-1226190D02*
X45354819Y-1226190D01*
X45354819Y-1226190D02*
X45497676Y-1321428D01*
X45497676Y-1321428D02*
X45592914Y-1416666D01*
X45592914Y-1416666D02*
X45640533Y-1511904D01*
X46354819Y-464285D02*
X46354819Y-273809D01*
X46354819Y-273809D02*
X46307200Y-178571D01*
X46307200Y-178571D02*
X46259580Y-130952D01*
X46259580Y-130952D02*
X46116723Y-35714D01*
X46116723Y-35714D02*
X45926247Y11905D01*
X45926247Y11905D02*
X45545295Y11905D01*
X45545295Y11905D02*
X45450057Y-35714D01*
X45450057Y-35714D02*
X45402438Y-83333D01*
X45402438Y-83333D02*
X45354819Y-178571D01*
X45354819Y-178571D02*
X45354819Y-369047D01*
X45354819Y-369047D02*
X45402438Y-464285D01*
X45402438Y-464285D02*
X45450057Y-511904D01*
X45450057Y-511904D02*
X45545295Y-559523D01*
X45545295Y-559523D02*
X45783390Y-559523D01*
X45783390Y-559523D02*
X45878628Y-511904D01*
X45878628Y-511904D02*
X45926247Y-464285D01*
X45926247Y-464285D02*
X45973866Y-369047D01*
X45973866Y-369047D02*
X45973866Y-178571D01*
X45973866Y-178571D02*
X45926247Y-83333D01*
X45926247Y-83333D02*
X45878628Y-35714D01*
X45878628Y-35714D02*
X45783390Y11905D01*
D15*
%TO.C,Q1*%
X61058333Y-14285300D02*
X60991666Y-14251966D01*
X60991666Y-14251966D02*
X60925000Y-14185300D01*
X60925000Y-14185300D02*
X60825000Y-14085300D01*
X60825000Y-14085300D02*
X60758333Y-14051966D01*
X60758333Y-14051966D02*
X60691666Y-14051966D01*
X60725000Y-14218633D02*
X60658333Y-14185300D01*
X60658333Y-14185300D02*
X60591666Y-14118633D01*
X60591666Y-14118633D02*
X60558333Y-13985300D01*
X60558333Y-13985300D02*
X60558333Y-13751966D01*
X60558333Y-13751966D02*
X60591666Y-13618633D01*
X60591666Y-13618633D02*
X60658333Y-13551966D01*
X60658333Y-13551966D02*
X60725000Y-13518633D01*
X60725000Y-13518633D02*
X60858333Y-13518633D01*
X60858333Y-13518633D02*
X60925000Y-13551966D01*
X60925000Y-13551966D02*
X60991666Y-13618633D01*
X60991666Y-13618633D02*
X61025000Y-13751966D01*
X61025000Y-13751966D02*
X61025000Y-13985300D01*
X61025000Y-13985300D02*
X60991666Y-14118633D01*
X60991666Y-14118633D02*
X60925000Y-14185300D01*
X60925000Y-14185300D02*
X60858333Y-14218633D01*
X60858333Y-14218633D02*
X60725000Y-14218633D01*
X61691666Y-14218633D02*
X61291666Y-14218633D01*
X61491666Y-14218633D02*
X61491666Y-13518633D01*
X61491666Y-13518633D02*
X61424999Y-13618633D01*
X61424999Y-13618633D02*
X61358333Y-13685300D01*
X61358333Y-13685300D02*
X61291666Y-13718633D01*
D10*
%TO.C,D4*%
X25586905Y-9904819D02*
X25586905Y-8904819D01*
X25586905Y-8904819D02*
X25825000Y-8904819D01*
X25825000Y-8904819D02*
X25967857Y-8952438D01*
X25967857Y-8952438D02*
X26063095Y-9047676D01*
X26063095Y-9047676D02*
X26110714Y-9142914D01*
X26110714Y-9142914D02*
X26158333Y-9333390D01*
X26158333Y-9333390D02*
X26158333Y-9476247D01*
X26158333Y-9476247D02*
X26110714Y-9666723D01*
X26110714Y-9666723D02*
X26063095Y-9761961D01*
X26063095Y-9761961D02*
X25967857Y-9857200D01*
X25967857Y-9857200D02*
X25825000Y-9904819D01*
X25825000Y-9904819D02*
X25586905Y-9904819D01*
X27015476Y-9238152D02*
X27015476Y-9904819D01*
X26777381Y-8857200D02*
X26539286Y-9571485D01*
X26539286Y-9571485D02*
X27158333Y-9571485D01*
%TO.C,D3*%
X61044819Y-3838094D02*
X60044819Y-3838094D01*
X60044819Y-3838094D02*
X60044819Y-3599999D01*
X60044819Y-3599999D02*
X60092438Y-3457142D01*
X60092438Y-3457142D02*
X60187676Y-3361904D01*
X60187676Y-3361904D02*
X60282914Y-3314285D01*
X60282914Y-3314285D02*
X60473390Y-3266666D01*
X60473390Y-3266666D02*
X60616247Y-3266666D01*
X60616247Y-3266666D02*
X60806723Y-3314285D01*
X60806723Y-3314285D02*
X60901961Y-3361904D01*
X60901961Y-3361904D02*
X60997200Y-3457142D01*
X60997200Y-3457142D02*
X61044819Y-3599999D01*
X61044819Y-3599999D02*
X61044819Y-3838094D01*
X60044819Y-2933332D02*
X60044819Y-2314285D01*
X60044819Y-2314285D02*
X60425771Y-2647618D01*
X60425771Y-2647618D02*
X60425771Y-2504761D01*
X60425771Y-2504761D02*
X60473390Y-2409523D01*
X60473390Y-2409523D02*
X60521009Y-2361904D01*
X60521009Y-2361904D02*
X60616247Y-2314285D01*
X60616247Y-2314285D02*
X60854342Y-2314285D01*
X60854342Y-2314285D02*
X60949580Y-2361904D01*
X60949580Y-2361904D02*
X60997200Y-2409523D01*
X60997200Y-2409523D02*
X61044819Y-2504761D01*
X61044819Y-2504761D02*
X61044819Y-2790475D01*
X61044819Y-2790475D02*
X60997200Y-2885713D01*
X60997200Y-2885713D02*
X60949580Y-2933332D01*
%TO.C,R21*%
X28379819Y6657143D02*
X27903628Y6323810D01*
X28379819Y6085715D02*
X27379819Y6085715D01*
X27379819Y6085715D02*
X27379819Y6466667D01*
X27379819Y6466667D02*
X27427438Y6561905D01*
X27427438Y6561905D02*
X27475057Y6609524D01*
X27475057Y6609524D02*
X27570295Y6657143D01*
X27570295Y6657143D02*
X27713152Y6657143D01*
X27713152Y6657143D02*
X27808390Y6609524D01*
X27808390Y6609524D02*
X27856009Y6561905D01*
X27856009Y6561905D02*
X27903628Y6466667D01*
X27903628Y6466667D02*
X27903628Y6085715D01*
X27475057Y7038096D02*
X27427438Y7085715D01*
X27427438Y7085715D02*
X27379819Y7180953D01*
X27379819Y7180953D02*
X27379819Y7419048D01*
X27379819Y7419048D02*
X27427438Y7514286D01*
X27427438Y7514286D02*
X27475057Y7561905D01*
X27475057Y7561905D02*
X27570295Y7609524D01*
X27570295Y7609524D02*
X27665533Y7609524D01*
X27665533Y7609524D02*
X27808390Y7561905D01*
X27808390Y7561905D02*
X28379819Y6990477D01*
X28379819Y6990477D02*
X28379819Y7609524D01*
X28379819Y8561905D02*
X28379819Y7990477D01*
X28379819Y8276191D02*
X27379819Y8276191D01*
X27379819Y8276191D02*
X27522676Y8180953D01*
X27522676Y8180953D02*
X27617914Y8085715D01*
X27617914Y8085715D02*
X27665533Y7990477D01*
%TO.C,R17*%
X60999819Y-7242857D02*
X60523628Y-7576190D01*
X60999819Y-7814285D02*
X59999819Y-7814285D01*
X59999819Y-7814285D02*
X59999819Y-7433333D01*
X59999819Y-7433333D02*
X60047438Y-7338095D01*
X60047438Y-7338095D02*
X60095057Y-7290476D01*
X60095057Y-7290476D02*
X60190295Y-7242857D01*
X60190295Y-7242857D02*
X60333152Y-7242857D01*
X60333152Y-7242857D02*
X60428390Y-7290476D01*
X60428390Y-7290476D02*
X60476009Y-7338095D01*
X60476009Y-7338095D02*
X60523628Y-7433333D01*
X60523628Y-7433333D02*
X60523628Y-7814285D01*
X60999819Y-6290476D02*
X60999819Y-6861904D01*
X60999819Y-6576190D02*
X59999819Y-6576190D01*
X59999819Y-6576190D02*
X60142676Y-6671428D01*
X60142676Y-6671428D02*
X60237914Y-6766666D01*
X60237914Y-6766666D02*
X60285533Y-6861904D01*
X59999819Y-5957142D02*
X59999819Y-5290476D01*
X59999819Y-5290476D02*
X60999819Y-5719047D01*
%TO.C,R18*%
X22946428Y-9758557D02*
X22646428Y-9329985D01*
X22432142Y-9758557D02*
X22432142Y-8858557D01*
X22432142Y-8858557D02*
X22774999Y-8858557D01*
X22774999Y-8858557D02*
X22860714Y-8901414D01*
X22860714Y-8901414D02*
X22903571Y-8944271D01*
X22903571Y-8944271D02*
X22946428Y-9029985D01*
X22946428Y-9029985D02*
X22946428Y-9158557D01*
X22946428Y-9158557D02*
X22903571Y-9244271D01*
X22903571Y-9244271D02*
X22860714Y-9287128D01*
X22860714Y-9287128D02*
X22774999Y-9329985D01*
X22774999Y-9329985D02*
X22432142Y-9329985D01*
X23803571Y-9758557D02*
X23289285Y-9758557D01*
X23546428Y-9758557D02*
X23546428Y-8858557D01*
X23546428Y-8858557D02*
X23460714Y-8987128D01*
X23460714Y-8987128D02*
X23374999Y-9072842D01*
X23374999Y-9072842D02*
X23289285Y-9115700D01*
X24317857Y-9244271D02*
X24232142Y-9201414D01*
X24232142Y-9201414D02*
X24189285Y-9158557D01*
X24189285Y-9158557D02*
X24146428Y-9072842D01*
X24146428Y-9072842D02*
X24146428Y-9029985D01*
X24146428Y-9029985D02*
X24189285Y-8944271D01*
X24189285Y-8944271D02*
X24232142Y-8901414D01*
X24232142Y-8901414D02*
X24317857Y-8858557D01*
X24317857Y-8858557D02*
X24489285Y-8858557D01*
X24489285Y-8858557D02*
X24575000Y-8901414D01*
X24575000Y-8901414D02*
X24617857Y-8944271D01*
X24617857Y-8944271D02*
X24660714Y-9029985D01*
X24660714Y-9029985D02*
X24660714Y-9072842D01*
X24660714Y-9072842D02*
X24617857Y-9158557D01*
X24617857Y-9158557D02*
X24575000Y-9201414D01*
X24575000Y-9201414D02*
X24489285Y-9244271D01*
X24489285Y-9244271D02*
X24317857Y-9244271D01*
X24317857Y-9244271D02*
X24232142Y-9287128D01*
X24232142Y-9287128D02*
X24189285Y-9329985D01*
X24189285Y-9329985D02*
X24146428Y-9415700D01*
X24146428Y-9415700D02*
X24146428Y-9587128D01*
X24146428Y-9587128D02*
X24189285Y-9672842D01*
X24189285Y-9672842D02*
X24232142Y-9715700D01*
X24232142Y-9715700D02*
X24317857Y-9758557D01*
X24317857Y-9758557D02*
X24489285Y-9758557D01*
X24489285Y-9758557D02*
X24575000Y-9715700D01*
X24575000Y-9715700D02*
X24617857Y-9672842D01*
X24617857Y-9672842D02*
X24660714Y-9587128D01*
X24660714Y-9587128D02*
X24660714Y-9415700D01*
X24660714Y-9415700D02*
X24617857Y-9329985D01*
X24617857Y-9329985D02*
X24575000Y-9287128D01*
X24575000Y-9287128D02*
X24489285Y-9244271D01*
%TO.C,R5*%
X24679819Y1733334D02*
X24203628Y1400001D01*
X24679819Y1161906D02*
X23679819Y1161906D01*
X23679819Y1161906D02*
X23679819Y1542858D01*
X23679819Y1542858D02*
X23727438Y1638096D01*
X23727438Y1638096D02*
X23775057Y1685715D01*
X23775057Y1685715D02*
X23870295Y1733334D01*
X23870295Y1733334D02*
X24013152Y1733334D01*
X24013152Y1733334D02*
X24108390Y1685715D01*
X24108390Y1685715D02*
X24156009Y1638096D01*
X24156009Y1638096D02*
X24203628Y1542858D01*
X24203628Y1542858D02*
X24203628Y1161906D01*
X23679819Y2638096D02*
X23679819Y2161906D01*
X23679819Y2161906D02*
X24156009Y2114287D01*
X24156009Y2114287D02*
X24108390Y2161906D01*
X24108390Y2161906D02*
X24060771Y2257144D01*
X24060771Y2257144D02*
X24060771Y2495239D01*
X24060771Y2495239D02*
X24108390Y2590477D01*
X24108390Y2590477D02*
X24156009Y2638096D01*
X24156009Y2638096D02*
X24251247Y2685715D01*
X24251247Y2685715D02*
X24489342Y2685715D01*
X24489342Y2685715D02*
X24584580Y2638096D01*
X24584580Y2638096D02*
X24632200Y2590477D01*
X24632200Y2590477D02*
X24679819Y2495239D01*
X24679819Y2495239D02*
X24679819Y2257144D01*
X24679819Y2257144D02*
X24632200Y2161906D01*
X24632200Y2161906D02*
X24584580Y2114287D01*
%TO.C,R20*%
X36979819Y-7754857D02*
X36503628Y-8088190D01*
X36979819Y-8326285D02*
X35979819Y-8326285D01*
X35979819Y-8326285D02*
X35979819Y-7945333D01*
X35979819Y-7945333D02*
X36027438Y-7850095D01*
X36027438Y-7850095D02*
X36075057Y-7802476D01*
X36075057Y-7802476D02*
X36170295Y-7754857D01*
X36170295Y-7754857D02*
X36313152Y-7754857D01*
X36313152Y-7754857D02*
X36408390Y-7802476D01*
X36408390Y-7802476D02*
X36456009Y-7850095D01*
X36456009Y-7850095D02*
X36503628Y-7945333D01*
X36503628Y-7945333D02*
X36503628Y-8326285D01*
X36075057Y-7373904D02*
X36027438Y-7326285D01*
X36027438Y-7326285D02*
X35979819Y-7231047D01*
X35979819Y-7231047D02*
X35979819Y-6992952D01*
X35979819Y-6992952D02*
X36027438Y-6897714D01*
X36027438Y-6897714D02*
X36075057Y-6850095D01*
X36075057Y-6850095D02*
X36170295Y-6802476D01*
X36170295Y-6802476D02*
X36265533Y-6802476D01*
X36265533Y-6802476D02*
X36408390Y-6850095D01*
X36408390Y-6850095D02*
X36979819Y-7421523D01*
X36979819Y-7421523D02*
X36979819Y-6802476D01*
X35979819Y-6183428D02*
X35979819Y-6088190D01*
X35979819Y-6088190D02*
X36027438Y-5992952D01*
X36027438Y-5992952D02*
X36075057Y-5945333D01*
X36075057Y-5945333D02*
X36170295Y-5897714D01*
X36170295Y-5897714D02*
X36360771Y-5850095D01*
X36360771Y-5850095D02*
X36598866Y-5850095D01*
X36598866Y-5850095D02*
X36789342Y-5897714D01*
X36789342Y-5897714D02*
X36884580Y-5945333D01*
X36884580Y-5945333D02*
X36932200Y-5992952D01*
X36932200Y-5992952D02*
X36979819Y-6088190D01*
X36979819Y-6088190D02*
X36979819Y-6183428D01*
X36979819Y-6183428D02*
X36932200Y-6278666D01*
X36932200Y-6278666D02*
X36884580Y-6326285D01*
X36884580Y-6326285D02*
X36789342Y-6373904D01*
X36789342Y-6373904D02*
X36598866Y-6421523D01*
X36598866Y-6421523D02*
X36360771Y-6421523D01*
X36360771Y-6421523D02*
X36170295Y-6373904D01*
X36170295Y-6373904D02*
X36075057Y-6326285D01*
X36075057Y-6326285D02*
X36027438Y-6278666D01*
X36027438Y-6278666D02*
X35979819Y-6183428D01*
%TO.C,D1*%
X25933557Y-7214285D02*
X25033557Y-7214285D01*
X25033557Y-7214285D02*
X25033557Y-6999999D01*
X25033557Y-6999999D02*
X25076414Y-6871428D01*
X25076414Y-6871428D02*
X25162128Y-6785713D01*
X25162128Y-6785713D02*
X25247842Y-6742856D01*
X25247842Y-6742856D02*
X25419271Y-6699999D01*
X25419271Y-6699999D02*
X25547842Y-6699999D01*
X25547842Y-6699999D02*
X25719271Y-6742856D01*
X25719271Y-6742856D02*
X25804985Y-6785713D01*
X25804985Y-6785713D02*
X25890700Y-6871428D01*
X25890700Y-6871428D02*
X25933557Y-6999999D01*
X25933557Y-6999999D02*
X25933557Y-7214285D01*
X25933557Y-5842856D02*
X25933557Y-6357142D01*
X25933557Y-6099999D02*
X25033557Y-6099999D01*
X25033557Y-6099999D02*
X25162128Y-6185713D01*
X25162128Y-6185713D02*
X25247842Y-6271428D01*
X25247842Y-6271428D02*
X25290700Y-6357142D01*
%TO.C,C1*%
X26184580Y2483334D02*
X26232200Y2435715D01*
X26232200Y2435715D02*
X26279819Y2292858D01*
X26279819Y2292858D02*
X26279819Y2197620D01*
X26279819Y2197620D02*
X26232200Y2054763D01*
X26232200Y2054763D02*
X26136961Y1959525D01*
X26136961Y1959525D02*
X26041723Y1911906D01*
X26041723Y1911906D02*
X25851247Y1864287D01*
X25851247Y1864287D02*
X25708390Y1864287D01*
X25708390Y1864287D02*
X25517914Y1911906D01*
X25517914Y1911906D02*
X25422676Y1959525D01*
X25422676Y1959525D02*
X25327438Y2054763D01*
X25327438Y2054763D02*
X25279819Y2197620D01*
X25279819Y2197620D02*
X25279819Y2292858D01*
X25279819Y2292858D02*
X25327438Y2435715D01*
X25327438Y2435715D02*
X25375057Y2483334D01*
X26279819Y3435715D02*
X26279819Y2864287D01*
X26279819Y3150001D02*
X25279819Y3150001D01*
X25279819Y3150001D02*
X25422676Y3054763D01*
X25422676Y3054763D02*
X25517914Y2959525D01*
X25517914Y2959525D02*
X25565533Y2864287D01*
%TO.C,R14*%
X35579819Y6457143D02*
X35103628Y6123810D01*
X35579819Y5885715D02*
X34579819Y5885715D01*
X34579819Y5885715D02*
X34579819Y6266667D01*
X34579819Y6266667D02*
X34627438Y6361905D01*
X34627438Y6361905D02*
X34675057Y6409524D01*
X34675057Y6409524D02*
X34770295Y6457143D01*
X34770295Y6457143D02*
X34913152Y6457143D01*
X34913152Y6457143D02*
X35008390Y6409524D01*
X35008390Y6409524D02*
X35056009Y6361905D01*
X35056009Y6361905D02*
X35103628Y6266667D01*
X35103628Y6266667D02*
X35103628Y5885715D01*
X35579819Y7409524D02*
X35579819Y6838096D01*
X35579819Y7123810D02*
X34579819Y7123810D01*
X34579819Y7123810D02*
X34722676Y7028572D01*
X34722676Y7028572D02*
X34817914Y6933334D01*
X34817914Y6933334D02*
X34865533Y6838096D01*
X34913152Y8266667D02*
X35579819Y8266667D01*
X34532200Y8028572D02*
X35246485Y7790477D01*
X35246485Y7790477D02*
X35246485Y8409524D01*
%TO.C,R2*%
X32879819Y-7566666D02*
X32403628Y-7899999D01*
X32879819Y-8138094D02*
X31879819Y-8138094D01*
X31879819Y-8138094D02*
X31879819Y-7757142D01*
X31879819Y-7757142D02*
X31927438Y-7661904D01*
X31927438Y-7661904D02*
X31975057Y-7614285D01*
X31975057Y-7614285D02*
X32070295Y-7566666D01*
X32070295Y-7566666D02*
X32213152Y-7566666D01*
X32213152Y-7566666D02*
X32308390Y-7614285D01*
X32308390Y-7614285D02*
X32356009Y-7661904D01*
X32356009Y-7661904D02*
X32403628Y-7757142D01*
X32403628Y-7757142D02*
X32403628Y-8138094D01*
X31975057Y-7185713D02*
X31927438Y-7138094D01*
X31927438Y-7138094D02*
X31879819Y-7042856D01*
X31879819Y-7042856D02*
X31879819Y-6804761D01*
X31879819Y-6804761D02*
X31927438Y-6709523D01*
X31927438Y-6709523D02*
X31975057Y-6661904D01*
X31975057Y-6661904D02*
X32070295Y-6614285D01*
X32070295Y-6614285D02*
X32165533Y-6614285D01*
X32165533Y-6614285D02*
X32308390Y-6661904D01*
X32308390Y-6661904D02*
X32879819Y-7233332D01*
X32879819Y-7233332D02*
X32879819Y-6614285D01*
%TO.C,F1*%
X-2633334Y9718991D02*
X-2966667Y9718991D01*
X-2966667Y9195181D02*
X-2966667Y10195181D01*
X-2966667Y10195181D02*
X-2490477Y10195181D01*
X-1585715Y9195181D02*
X-2157143Y9195181D01*
X-1871429Y9195181D02*
X-1871429Y10195181D01*
X-1871429Y10195181D02*
X-1966667Y10052324D01*
X-1966667Y10052324D02*
X-2061905Y9957086D01*
X-2061905Y9957086D02*
X-2157143Y9909467D01*
%TO.C,R15*%
X65704819Y-8892857D02*
X65228628Y-9226190D01*
X65704819Y-9464285D02*
X64704819Y-9464285D01*
X64704819Y-9464285D02*
X64704819Y-9083333D01*
X64704819Y-9083333D02*
X64752438Y-8988095D01*
X64752438Y-8988095D02*
X64800057Y-8940476D01*
X64800057Y-8940476D02*
X64895295Y-8892857D01*
X64895295Y-8892857D02*
X65038152Y-8892857D01*
X65038152Y-8892857D02*
X65133390Y-8940476D01*
X65133390Y-8940476D02*
X65181009Y-8988095D01*
X65181009Y-8988095D02*
X65228628Y-9083333D01*
X65228628Y-9083333D02*
X65228628Y-9464285D01*
X65704819Y-7940476D02*
X65704819Y-8511904D01*
X65704819Y-8226190D02*
X64704819Y-8226190D01*
X64704819Y-8226190D02*
X64847676Y-8321428D01*
X64847676Y-8321428D02*
X64942914Y-8416666D01*
X64942914Y-8416666D02*
X64990533Y-8511904D01*
X64704819Y-7035714D02*
X64704819Y-7511904D01*
X64704819Y-7511904D02*
X65181009Y-7559523D01*
X65181009Y-7559523D02*
X65133390Y-7511904D01*
X65133390Y-7511904D02*
X65085771Y-7416666D01*
X65085771Y-7416666D02*
X65085771Y-7178571D01*
X65085771Y-7178571D02*
X65133390Y-7083333D01*
X65133390Y-7083333D02*
X65181009Y-7035714D01*
X65181009Y-7035714D02*
X65276247Y-6988095D01*
X65276247Y-6988095D02*
X65514342Y-6988095D01*
X65514342Y-6988095D02*
X65609580Y-7035714D01*
X65609580Y-7035714D02*
X65657200Y-7083333D01*
X65657200Y-7083333D02*
X65704819Y-7178571D01*
X65704819Y-7178571D02*
X65704819Y-7416666D01*
X65704819Y-7416666D02*
X65657200Y-7511904D01*
X65657200Y-7511904D02*
X65609580Y-7559523D01*
%TO.C,C2*%
X26184580Y-1466666D02*
X26232200Y-1514285D01*
X26232200Y-1514285D02*
X26279819Y-1657142D01*
X26279819Y-1657142D02*
X26279819Y-1752380D01*
X26279819Y-1752380D02*
X26232200Y-1895237D01*
X26232200Y-1895237D02*
X26136961Y-1990475D01*
X26136961Y-1990475D02*
X26041723Y-2038094D01*
X26041723Y-2038094D02*
X25851247Y-2085713D01*
X25851247Y-2085713D02*
X25708390Y-2085713D01*
X25708390Y-2085713D02*
X25517914Y-2038094D01*
X25517914Y-2038094D02*
X25422676Y-1990475D01*
X25422676Y-1990475D02*
X25327438Y-1895237D01*
X25327438Y-1895237D02*
X25279819Y-1752380D01*
X25279819Y-1752380D02*
X25279819Y-1657142D01*
X25279819Y-1657142D02*
X25327438Y-1514285D01*
X25327438Y-1514285D02*
X25375057Y-1466666D01*
X25375057Y-1085713D02*
X25327438Y-1038094D01*
X25327438Y-1038094D02*
X25279819Y-942856D01*
X25279819Y-942856D02*
X25279819Y-704761D01*
X25279819Y-704761D02*
X25327438Y-609523D01*
X25327438Y-609523D02*
X25375057Y-561904D01*
X25375057Y-561904D02*
X25470295Y-514285D01*
X25470295Y-514285D02*
X25565533Y-514285D01*
X25565533Y-514285D02*
X25708390Y-561904D01*
X25708390Y-561904D02*
X26279819Y-1133332D01*
X26279819Y-1133332D02*
X26279819Y-514285D01*
%TO.C,D2*%
X-895181Y2161906D02*
X-1895181Y2161906D01*
X-1895181Y2161906D02*
X-1895181Y2400001D01*
X-1895181Y2400001D02*
X-1847562Y2542858D01*
X-1847562Y2542858D02*
X-1752324Y2638096D01*
X-1752324Y2638096D02*
X-1657086Y2685715D01*
X-1657086Y2685715D02*
X-1466610Y2733334D01*
X-1466610Y2733334D02*
X-1323753Y2733334D01*
X-1323753Y2733334D02*
X-1133277Y2685715D01*
X-1133277Y2685715D02*
X-1038039Y2638096D01*
X-1038039Y2638096D02*
X-942800Y2542858D01*
X-942800Y2542858D02*
X-895181Y2400001D01*
X-895181Y2400001D02*
X-895181Y2161906D01*
X-1799943Y3114287D02*
X-1847562Y3161906D01*
X-1847562Y3161906D02*
X-1895181Y3257144D01*
X-1895181Y3257144D02*
X-1895181Y3495239D01*
X-1895181Y3495239D02*
X-1847562Y3590477D01*
X-1847562Y3590477D02*
X-1799943Y3638096D01*
X-1799943Y3638096D02*
X-1704705Y3685715D01*
X-1704705Y3685715D02*
X-1609467Y3685715D01*
X-1609467Y3685715D02*
X-1466610Y3638096D01*
X-1466610Y3638096D02*
X-895181Y3066668D01*
X-895181Y3066668D02*
X-895181Y3685715D01*
%TO.C,R10*%
X45709819Y-9278857D02*
X45233628Y-9612190D01*
X45709819Y-9850285D02*
X44709819Y-9850285D01*
X44709819Y-9850285D02*
X44709819Y-9469333D01*
X44709819Y-9469333D02*
X44757438Y-9374095D01*
X44757438Y-9374095D02*
X44805057Y-9326476D01*
X44805057Y-9326476D02*
X44900295Y-9278857D01*
X44900295Y-9278857D02*
X45043152Y-9278857D01*
X45043152Y-9278857D02*
X45138390Y-9326476D01*
X45138390Y-9326476D02*
X45186009Y-9374095D01*
X45186009Y-9374095D02*
X45233628Y-9469333D01*
X45233628Y-9469333D02*
X45233628Y-9850285D01*
X45709819Y-8326476D02*
X45709819Y-8897904D01*
X45709819Y-8612190D02*
X44709819Y-8612190D01*
X44709819Y-8612190D02*
X44852676Y-8707428D01*
X44852676Y-8707428D02*
X44947914Y-8802666D01*
X44947914Y-8802666D02*
X44995533Y-8897904D01*
X44709819Y-7707428D02*
X44709819Y-7612190D01*
X44709819Y-7612190D02*
X44757438Y-7516952D01*
X44757438Y-7516952D02*
X44805057Y-7469333D01*
X44805057Y-7469333D02*
X44900295Y-7421714D01*
X44900295Y-7421714D02*
X45090771Y-7374095D01*
X45090771Y-7374095D02*
X45328866Y-7374095D01*
X45328866Y-7374095D02*
X45519342Y-7421714D01*
X45519342Y-7421714D02*
X45614580Y-7469333D01*
X45614580Y-7469333D02*
X45662200Y-7516952D01*
X45662200Y-7516952D02*
X45709819Y-7612190D01*
X45709819Y-7612190D02*
X45709819Y-7707428D01*
X45709819Y-7707428D02*
X45662200Y-7802666D01*
X45662200Y-7802666D02*
X45614580Y-7850285D01*
X45614580Y-7850285D02*
X45519342Y-7897904D01*
X45519342Y-7897904D02*
X45328866Y-7945523D01*
X45328866Y-7945523D02*
X45090771Y-7945523D01*
X45090771Y-7945523D02*
X44900295Y-7897904D01*
X44900295Y-7897904D02*
X44805057Y-7850285D01*
X44805057Y-7850285D02*
X44757438Y-7802666D01*
X44757438Y-7802666D02*
X44709819Y-7707428D01*
%TO.C,R6*%
X45709819Y1865334D02*
X45233628Y1532001D01*
X45709819Y1293906D02*
X44709819Y1293906D01*
X44709819Y1293906D02*
X44709819Y1674858D01*
X44709819Y1674858D02*
X44757438Y1770096D01*
X44757438Y1770096D02*
X44805057Y1817715D01*
X44805057Y1817715D02*
X44900295Y1865334D01*
X44900295Y1865334D02*
X45043152Y1865334D01*
X45043152Y1865334D02*
X45138390Y1817715D01*
X45138390Y1817715D02*
X45186009Y1770096D01*
X45186009Y1770096D02*
X45233628Y1674858D01*
X45233628Y1674858D02*
X45233628Y1293906D01*
X44709819Y2722477D02*
X44709819Y2532001D01*
X44709819Y2532001D02*
X44757438Y2436763D01*
X44757438Y2436763D02*
X44805057Y2389144D01*
X44805057Y2389144D02*
X44947914Y2293906D01*
X44947914Y2293906D02*
X45138390Y2246287D01*
X45138390Y2246287D02*
X45519342Y2246287D01*
X45519342Y2246287D02*
X45614580Y2293906D01*
X45614580Y2293906D02*
X45662200Y2341525D01*
X45662200Y2341525D02*
X45709819Y2436763D01*
X45709819Y2436763D02*
X45709819Y2627239D01*
X45709819Y2627239D02*
X45662200Y2722477D01*
X45662200Y2722477D02*
X45614580Y2770096D01*
X45614580Y2770096D02*
X45519342Y2817715D01*
X45519342Y2817715D02*
X45281247Y2817715D01*
X45281247Y2817715D02*
X45186009Y2770096D01*
X45186009Y2770096D02*
X45138390Y2722477D01*
X45138390Y2722477D02*
X45090771Y2627239D01*
X45090771Y2627239D02*
X45090771Y2436763D01*
X45090771Y2436763D02*
X45138390Y2341525D01*
X45138390Y2341525D02*
X45186009Y2293906D01*
X45186009Y2293906D02*
X45281247Y2246287D01*
%TO.C,UPDI1*%
X37979819Y-13599999D02*
X38789342Y-13599999D01*
X38789342Y-13599999D02*
X38884580Y-13552380D01*
X38884580Y-13552380D02*
X38932200Y-13504761D01*
X38932200Y-13504761D02*
X38979819Y-13409523D01*
X38979819Y-13409523D02*
X38979819Y-13219047D01*
X38979819Y-13219047D02*
X38932200Y-13123809D01*
X38932200Y-13123809D02*
X38884580Y-13076190D01*
X38884580Y-13076190D02*
X38789342Y-13028571D01*
X38789342Y-13028571D02*
X37979819Y-13028571D01*
X38979819Y-12552380D02*
X37979819Y-12552380D01*
X37979819Y-12552380D02*
X37979819Y-12171428D01*
X37979819Y-12171428D02*
X38027438Y-12076190D01*
X38027438Y-12076190D02*
X38075057Y-12028571D01*
X38075057Y-12028571D02*
X38170295Y-11980952D01*
X38170295Y-11980952D02*
X38313152Y-11980952D01*
X38313152Y-11980952D02*
X38408390Y-12028571D01*
X38408390Y-12028571D02*
X38456009Y-12076190D01*
X38456009Y-12076190D02*
X38503628Y-12171428D01*
X38503628Y-12171428D02*
X38503628Y-12552380D01*
X38979819Y-11552380D02*
X37979819Y-11552380D01*
X37979819Y-11552380D02*
X37979819Y-11314285D01*
X37979819Y-11314285D02*
X38027438Y-11171428D01*
X38027438Y-11171428D02*
X38122676Y-11076190D01*
X38122676Y-11076190D02*
X38217914Y-11028571D01*
X38217914Y-11028571D02*
X38408390Y-10980952D01*
X38408390Y-10980952D02*
X38551247Y-10980952D01*
X38551247Y-10980952D02*
X38741723Y-11028571D01*
X38741723Y-11028571D02*
X38836961Y-11076190D01*
X38836961Y-11076190D02*
X38932200Y-11171428D01*
X38932200Y-11171428D02*
X38979819Y-11314285D01*
X38979819Y-11314285D02*
X38979819Y-11552380D01*
X38979819Y-10552380D02*
X37979819Y-10552380D01*
X38979819Y-9552381D02*
X38979819Y-10123809D01*
X38979819Y-9838095D02*
X37979819Y-9838095D01*
X37979819Y-9838095D02*
X38122676Y-9933333D01*
X38122676Y-9933333D02*
X38217914Y-10028571D01*
X38217914Y-10028571D02*
X38265533Y-10123809D01*
%TO.C,R1*%
X31779819Y7433334D02*
X31303628Y7100001D01*
X31779819Y6861906D02*
X30779819Y6861906D01*
X30779819Y6861906D02*
X30779819Y7242858D01*
X30779819Y7242858D02*
X30827438Y7338096D01*
X30827438Y7338096D02*
X30875057Y7385715D01*
X30875057Y7385715D02*
X30970295Y7433334D01*
X30970295Y7433334D02*
X31113152Y7433334D01*
X31113152Y7433334D02*
X31208390Y7385715D01*
X31208390Y7385715D02*
X31256009Y7338096D01*
X31256009Y7338096D02*
X31303628Y7242858D01*
X31303628Y7242858D02*
X31303628Y6861906D01*
X31779819Y8385715D02*
X31779819Y7814287D01*
X31779819Y8100001D02*
X30779819Y8100001D01*
X30779819Y8100001D02*
X30922676Y8004763D01*
X30922676Y8004763D02*
X31017914Y7909525D01*
X31017914Y7909525D02*
X31065533Y7814287D01*
%TO.C,U2*%
X38287295Y-2809523D02*
X38934914Y-2809523D01*
X38934914Y-2809523D02*
X39011104Y-2771428D01*
X39011104Y-2771428D02*
X39049200Y-2733333D01*
X39049200Y-2733333D02*
X39087295Y-2657142D01*
X39087295Y-2657142D02*
X39087295Y-2504761D01*
X39087295Y-2504761D02*
X39049200Y-2428571D01*
X39049200Y-2428571D02*
X39011104Y-2390476D01*
X39011104Y-2390476D02*
X38934914Y-2352380D01*
X38934914Y-2352380D02*
X38287295Y-2352380D01*
X38363485Y-2009524D02*
X38325390Y-1971428D01*
X38325390Y-1971428D02*
X38287295Y-1895238D01*
X38287295Y-1895238D02*
X38287295Y-1704762D01*
X38287295Y-1704762D02*
X38325390Y-1628571D01*
X38325390Y-1628571D02*
X38363485Y-1590476D01*
X38363485Y-1590476D02*
X38439676Y-1552381D01*
X38439676Y-1552381D02*
X38515866Y-1552381D01*
X38515866Y-1552381D02*
X38630152Y-1590476D01*
X38630152Y-1590476D02*
X39087295Y-2047619D01*
X39087295Y-2047619D02*
X39087295Y-1552381D01*
%TO.C,RX1*%
X16821819Y-6297857D02*
X16345628Y-6631190D01*
X16821819Y-6869285D02*
X15821819Y-6869285D01*
X15821819Y-6869285D02*
X15821819Y-6488333D01*
X15821819Y-6488333D02*
X15869438Y-6393095D01*
X15869438Y-6393095D02*
X15917057Y-6345476D01*
X15917057Y-6345476D02*
X16012295Y-6297857D01*
X16012295Y-6297857D02*
X16155152Y-6297857D01*
X16155152Y-6297857D02*
X16250390Y-6345476D01*
X16250390Y-6345476D02*
X16298009Y-6393095D01*
X16298009Y-6393095D02*
X16345628Y-6488333D01*
X16345628Y-6488333D02*
X16345628Y-6869285D01*
X15821819Y-5964523D02*
X16821819Y-5297857D01*
X15821819Y-5297857D02*
X16821819Y-5964523D01*
X16821819Y-4393095D02*
X16821819Y-4964523D01*
X16821819Y-4678809D02*
X15821819Y-4678809D01*
X15821819Y-4678809D02*
X15964676Y-4774047D01*
X15964676Y-4774047D02*
X16059914Y-4869285D01*
X16059914Y-4869285D02*
X16107533Y-4964523D01*
%TO.C,TX1*%
X8741819Y7718906D02*
X8741819Y8290334D01*
X9741819Y8004620D02*
X8741819Y8004620D01*
X8741819Y8528430D02*
X9741819Y9195096D01*
X8741819Y9195096D02*
X9741819Y8528430D01*
X9741819Y10099858D02*
X9741819Y9528430D01*
X9741819Y9814144D02*
X8741819Y9814144D01*
X8741819Y9814144D02*
X8884676Y9718906D01*
X8884676Y9718906D02*
X8979914Y9623668D01*
X8979914Y9623668D02*
X9027533Y9528430D01*
D16*
%TO.C,VCC*%
X57580000Y7237200D02*
X57580000Y3837200D01*
X57580000Y3837200D02*
X54180000Y3837200D01*
X54180000Y3837200D02*
X54180000Y7237200D01*
X54180000Y7237200D02*
X57580000Y7237200D01*
%TO.C,DUMP*%
X57783200Y-11050800D02*
X57783200Y-14450800D01*
X57783200Y-14450800D02*
X54383200Y-14450800D01*
X54383200Y-14450800D02*
X54383200Y-11050800D01*
X54383200Y-11050800D02*
X57783200Y-11050800D01*
%TO.C,EXTTEMP1*%
X43875000Y11430000D02*
X43875000Y8830000D01*
X41215000Y14030000D02*
X42545000Y14030000D01*
X41215000Y11430000D02*
X43875000Y11430000D01*
X41215000Y11430000D02*
X41215000Y8830000D01*
X41215000Y8830000D02*
X43875000Y8830000D01*
X41215000Y12700000D02*
X41215000Y14030000D01*
%TO.C,U1*%
X22840000Y5440000D02*
X23055000Y5440000D01*
X23055000Y5440000D02*
X23055000Y3750000D01*
X25660000Y5440000D02*
X25445000Y5440000D01*
X22840000Y7750000D02*
X22840000Y5440000D01*
X22840000Y7750000D02*
X22840000Y10060000D01*
X25660000Y7750000D02*
X25660000Y5440000D01*
X25660000Y7750000D02*
X25660000Y10060000D01*
X22840000Y10060000D02*
X23055000Y10060000D01*
X25660000Y10060000D02*
X25445000Y10060000D01*
%TO.C,R16*%
X20890000Y-11877064D02*
X20890000Y-11422936D01*
X22360000Y-11877064D02*
X22360000Y-11422936D01*
%TO.C,R27*%
X53885000Y-8972936D02*
X53885000Y-12027064D01*
X51165000Y-8972936D02*
X51165000Y-12027064D01*
%TO.C,R26*%
X49785000Y-2356270D02*
X49785000Y-5410398D01*
X47065000Y-2356270D02*
X47065000Y-5410398D01*
%TO.C,R28*%
X49785000Y-8997936D02*
X49785000Y-12052064D01*
X47065000Y-8997936D02*
X47065000Y-12052064D01*
%TO.C,R24*%
X49785000Y4752064D02*
X49785000Y1697936D01*
X47065000Y4752064D02*
X47065000Y1697936D01*
%TO.C,R25*%
X53885000Y-2331270D02*
X53885000Y-5385398D01*
X51165000Y-2331270D02*
X51165000Y-5385398D01*
%TO.C,R22*%
X53885000Y4777064D02*
X53885000Y1722936D01*
X51165000Y4777064D02*
X51165000Y1722936D01*
%TO.C,R19*%
X45090000Y-4627064D02*
X45090000Y-4172936D01*
X46560000Y-4627064D02*
X46560000Y-4172936D01*
%TO.C,Q1*%
X59965000Y-13105000D02*
X62125000Y-13105000D01*
X59965000Y-13105000D02*
X59965000Y-12175000D01*
X59965000Y-9945000D02*
X61425000Y-9945000D01*
X59965000Y-9945000D02*
X59965000Y-10875000D01*
%TO.C,D4*%
X25590000Y-13410000D02*
X27060000Y-13410000D01*
X27060000Y-13410000D02*
X27060000Y-11125000D01*
X25590000Y-11125000D02*
X25590000Y-13410000D01*
%TO.C,D3*%
X61280000Y-4785000D02*
X63200000Y-4785000D01*
X63200000Y-4785000D02*
X63200000Y-2100000D01*
X61280000Y-2100000D02*
X61280000Y-4785000D01*
%TO.C,R21*%
X28790000Y6672936D02*
X28790000Y7127064D01*
X30260000Y6672936D02*
X30260000Y7127064D01*
%TO.C,R17*%
X61460000Y-6827064D02*
X61460000Y-6372936D01*
X62930000Y-6827064D02*
X62930000Y-6372936D01*
%TO.C,R18*%
X22915000Y-11877064D02*
X22915000Y-11422936D01*
X24385000Y-11877064D02*
X24385000Y-11422936D01*
%TO.C,R5*%
X24960000Y-472936D02*
X24960000Y-927064D01*
X23490000Y-472936D02*
X23490000Y-927064D01*
%TO.C,R20*%
X35460000Y-6884936D02*
X35460000Y-7339064D01*
X33990000Y-6884936D02*
X33990000Y-7339064D01*
%TO.C,D1*%
X27025000Y-8140000D02*
X29185000Y-8140000D01*
X27025000Y-8140000D02*
X27025000Y-7210000D01*
X27025000Y-4980000D02*
X28485000Y-4980000D01*
X27025000Y-4980000D02*
X27025000Y-5910000D01*
%TO.C,C1*%
X26680000Y2378748D02*
X26680000Y2901252D01*
X28150000Y2378748D02*
X28150000Y2901252D01*
%TO.C,R14*%
X37460000Y6927064D02*
X37460000Y6472936D01*
X35990000Y6927064D02*
X35990000Y6472936D01*
%TO.C,R2*%
X31470000Y-6827064D02*
X31470000Y-6372936D01*
X30000000Y-6827064D02*
X30000000Y-6372936D01*
%TO.C,F1*%
X-1113748Y10540000D02*
X-3886252Y10540000D01*
X-1113748Y13960000D02*
X-3886252Y13960000D01*
%TO.C,R15*%
X63090000Y-11727064D02*
X63090000Y-11272936D01*
X64560000Y-11727064D02*
X64560000Y-11272936D01*
%TO.C,C2*%
X26670000Y-1541252D02*
X26670000Y-1018748D01*
X28140000Y-1541252D02*
X28140000Y-1018748D01*
%TO.C,D2*%
X3900000Y9050000D02*
X-400000Y9050000D01*
X3900000Y9050000D02*
X3900000Y3350000D01*
X-400000Y9050000D02*
X-400000Y3350000D01*
%TO.C,R10*%
X44335000Y-9022936D02*
X44335000Y-12077064D01*
X41615000Y-9022936D02*
X41615000Y-12077064D01*
%TO.C,R6*%
X44335000Y4727064D02*
X44335000Y1672936D01*
X41615000Y4727064D02*
X41615000Y1672936D01*
%TO.C,UPDI1*%
X31895000Y-12930000D02*
X37035000Y-12930000D01*
X31895000Y-12930000D02*
X31895000Y-10270000D01*
X37035000Y-12930000D02*
X37035000Y-10270000D01*
X29295000Y-11600000D02*
X29295000Y-10270000D01*
X29295000Y-10270000D02*
X30625000Y-10270000D01*
X31895000Y-10270000D02*
X37035000Y-10270000D01*
%TO.C,R1*%
X32130000Y6592936D02*
X32130000Y7047064D01*
X33600000Y6592936D02*
X33600000Y7047064D01*
%TO.C,U2*%
X29000000Y680000D02*
X29000000Y-2770000D01*
X29000000Y680000D02*
X29000000Y2630000D01*
X37870000Y680000D02*
X37870000Y-1270000D01*
X37870000Y680000D02*
X37870000Y2630000D01*
%TO.C,RX1*%
X15367000Y0D02*
X15367000Y-1270000D01*
X14097000Y0D02*
X15367000Y0D01*
X11937000Y-2312929D02*
X11937000Y-2710000D01*
X11177000Y-2312929D02*
X11177000Y-2710000D01*
X14477000Y-2380000D02*
X14477000Y-2710000D01*
X13717000Y-2380000D02*
X13717000Y-2710000D01*
X15427000Y-2710000D02*
X10227000Y-2710000D01*
X12827000Y-2710000D02*
X12827000Y-5370000D01*
X10227000Y-2710000D02*
X10227000Y-5370000D01*
X15427000Y-5370000D02*
X15427000Y-2710000D01*
X14477000Y-5370000D02*
X14477000Y-11370000D01*
X14417000Y-5370000D02*
X14417000Y-11370000D01*
X14297000Y-5370000D02*
X14297000Y-11370000D01*
X14177000Y-5370000D02*
X14177000Y-11370000D01*
X14057000Y-5370000D02*
X14057000Y-11370000D01*
X13937000Y-5370000D02*
X13937000Y-11370000D01*
X13817000Y-5370000D02*
X13817000Y-11370000D01*
X11937000Y-5370000D02*
X11937000Y-11370000D01*
X10227000Y-5370000D02*
X15427000Y-5370000D01*
X14477000Y-11370000D02*
X13717000Y-11370000D01*
X13717000Y-11370000D02*
X13717000Y-5370000D01*
X11937000Y-11370000D02*
X11177000Y-11370000D01*
X11177000Y-11370000D02*
X11177000Y-5370000D01*
%TO.C,TX1*%
X10287000Y3302000D02*
X10287000Y4572000D01*
X11557000Y3302000D02*
X10287000Y3302000D01*
X13717000Y5614929D02*
X13717000Y6012000D01*
X14477000Y5614929D02*
X14477000Y6012000D01*
X11177000Y5682000D02*
X11177000Y6012000D01*
X11937000Y5682000D02*
X11937000Y6012000D01*
X10227000Y6012000D02*
X15427000Y6012000D01*
X12827000Y6012000D02*
X12827000Y8672000D01*
X15427000Y6012000D02*
X15427000Y8672000D01*
X10227000Y8672000D02*
X10227000Y6012000D01*
X11177000Y8672000D02*
X11177000Y14672000D01*
X11237000Y8672000D02*
X11237000Y14672000D01*
X11357000Y8672000D02*
X11357000Y14672000D01*
X11477000Y8672000D02*
X11477000Y14672000D01*
X11597000Y8672000D02*
X11597000Y14672000D01*
X11717000Y8672000D02*
X11717000Y14672000D01*
X11837000Y8672000D02*
X11837000Y14672000D01*
X13717000Y8672000D02*
X13717000Y14672000D01*
X15427000Y8672000D02*
X10227000Y8672000D01*
X11177000Y14672000D02*
X11937000Y14672000D01*
X11937000Y14672000D02*
X11937000Y8672000D01*
X13717000Y14672000D02*
X14477000Y14672000D01*
X14477000Y14672000D02*
X14477000Y8672000D01*
%TO.C,R8*%
X44335000Y-2381270D02*
X44335000Y-5435398D01*
X41615000Y-2381270D02*
X41615000Y-5435398D01*
%TD*%
%LPC*%
D17*
X103746753Y2540000D02*
G75*
G03*
X103746753Y2540000I-5321753J0D01*
G01*
X-19443247Y2540000D02*
G75*
G03*
X-19443247Y2540000I-5321753J0D01*
G01*
D18*
%TO.C,VCC*%
X55880000Y5537200D03*
%TD*%
%TO.C,DUMP*%
X56083200Y-12750800D03*
%TD*%
D19*
%TO.C,EXTTEMP1*%
X42545000Y10160000D03*
D20*
X42545000Y12700000D03*
%TD*%
D21*
%TO.C,U1*%
X23615000Y4562500D03*
X24885000Y4562500D03*
X24885000Y10937500D03*
X23615000Y10937500D03*
%TD*%
D22*
%TO.C,R16*%
X21625000Y-12562500D03*
X21625000Y-10737500D03*
%TD*%
D23*
%TO.C,R27*%
X52525000Y-8187500D03*
X52525000Y-12812500D03*
%TD*%
%TO.C,R26*%
X48425000Y-1570834D03*
X48425000Y-6195834D03*
%TD*%
%TO.C,R28*%
X48425000Y-8212500D03*
X48425000Y-12837500D03*
%TD*%
%TO.C,R24*%
X48425000Y5537500D03*
X48425000Y912500D03*
%TD*%
%TO.C,R25*%
X52525000Y-1545834D03*
X52525000Y-6170834D03*
%TD*%
%TO.C,R22*%
X52525000Y5562500D03*
X52525000Y937500D03*
%TD*%
D22*
%TO.C,R19*%
X45825000Y-5312500D03*
X45825000Y-3487500D03*
%TD*%
D24*
%TO.C,Q1*%
X61725000Y-12475000D03*
X61725000Y-10575000D03*
X59725000Y-11525000D03*
%TD*%
D25*
%TO.C,D4*%
X26325000Y-12712500D03*
X26325000Y-11137500D03*
%TD*%
D26*
%TO.C,D3*%
X62240000Y-4037500D03*
X62240000Y-2162500D03*
%TD*%
D22*
%TO.C,R21*%
X29525000Y5987500D03*
X29525000Y7812500D03*
%TD*%
%TO.C,R17*%
X62195000Y-7512500D03*
X62195000Y-5687500D03*
%TD*%
%TO.C,R18*%
X23650000Y-12562500D03*
X23650000Y-10737500D03*
%TD*%
D27*
%TO.C,R5*%
X24225000Y212500D03*
X24225000Y-1612500D03*
%TD*%
%TO.C,R20*%
X34725000Y-6199500D03*
X34725000Y-8024500D03*
%TD*%
D24*
%TO.C,D1*%
X28785000Y-7510000D03*
X28785000Y-5610000D03*
X26785000Y-6560000D03*
%TD*%
D28*
%TO.C,C1*%
X27415000Y1690000D03*
X27415000Y3590000D03*
%TD*%
D27*
%TO.C,R14*%
X36725000Y7612500D03*
X36725000Y5787500D03*
%TD*%
D22*
%TO.C,R2*%
X30735000Y-5687500D03*
X30735000Y-7512500D03*
%TD*%
D29*
%TO.C,F1*%
X-362500Y12250000D03*
X-4637500Y12250000D03*
%TD*%
D22*
%TO.C,R15*%
X63825000Y-12412500D03*
X63825000Y-10587500D03*
%TD*%
D28*
%TO.C,C2*%
X27405000Y-2230000D03*
X27405000Y-330000D03*
%TD*%
D30*
%TO.C,D2*%
X1750000Y7650000D03*
X1750000Y3350000D03*
%TD*%
D23*
%TO.C,R10*%
X42975000Y-8237500D03*
X42975000Y-12862500D03*
%TD*%
%TO.C,R6*%
X42975000Y5512500D03*
X42975000Y887500D03*
%TD*%
D31*
%TO.C,UPDI1*%
X30625000Y-11600000D03*
D19*
X33165000Y-11600000D03*
X35705000Y-11600000D03*
%TD*%
D22*
%TO.C,R1*%
X32865000Y5907500D03*
X32865000Y7732500D03*
%TD*%
D32*
%TO.C,U2*%
X29625000Y-1795000D03*
X30895000Y-1795000D03*
X32165000Y-1795000D03*
X33435000Y-1795000D03*
X34705000Y-1795000D03*
X35975000Y-1795000D03*
X37245000Y-1795000D03*
X37245000Y3155000D03*
X35975000Y3155000D03*
X34705000Y3155000D03*
X33435000Y3155000D03*
X32165000Y3155000D03*
X30895000Y3155000D03*
X29625000Y3155000D03*
%TD*%
D33*
%TO.C,RX1*%
X14097000Y-1270000D03*
D19*
X11557000Y-1270000D03*
%TD*%
D31*
%TO.C,TX1*%
X11557000Y4572000D03*
D19*
X14097000Y4572000D03*
%TD*%
D23*
%TO.C,R8*%
X42975000Y-1595834D03*
X42975000Y-6220834D03*
%TD*%
%LPD*%
M02*
