M48
; DRILL file {KiCad 7.0.5-7.0.5~ubuntu20.04.1} date Thu 13 Jul 2023 10:08:42 PM CEST
; FORMAT={-:-/ absolute / inch / decimal}
; #@! TF.CreationDate,2023-07-13T22:08:42+02:00
; #@! TF.GenerationSoftware,Kicad,Pcbnew,7.0.5-7.0.5~ubuntu20.04.1
; #@! TF.FileFunction,Plated,1,2,PTH
FMAT,2
INCH
; #@! TA.AperFunction,Plated,PTH,ViaDrill
T1C0.0118
; #@! TA.AperFunction,Plated,PTH,ViaDrill
T2C0.0157
; #@! TA.AperFunction,Plated,PTH,ComponentDrill
T3C0.0394
; #@! TA.AperFunction,Plated,PTH,ComponentDrill
T4C0.0591
%
G90
G05
T1
X-1.3789Y0.4051
X-1.3789Y-0.2051
X-1.1821Y0.4051
X-1.1821Y-0.2051
X-0.9852Y0.4051
X-0.9852Y-0.2051
X-0.7884Y0.4051
X-0.7884Y-0.2051
X0.795Y-0.21
X3.4711Y0.4051
X3.4711Y-0.2051
X3.6679Y0.4051
X3.6679Y-0.2051
X3.8648Y0.4051
X3.8648Y-0.2051
X4.0616Y0.4051
X4.0616Y-0.2051
T2
X0.3346Y0.128
X0.595Y0.46
X0.6004Y-0.4134
X0.665Y0.46
X0.6693Y-0.4134
X0.735Y0.46
X0.7382Y-0.4134
X0.8931Y0.0402
X0.9537Y-0.1142
X0.9691Y-0.2504
X0.9852Y0.189
X1.0896Y0.4311
X1.1008Y-0.4047
X1.1008Y-0.451
X1.1033Y0.1969
X1.1427Y-0.0079
X1.1742Y0.0394
X1.1923Y0.5008
X1.21Y-0.2958
X1.2215Y-0.3465
X1.2451Y0.2087
X1.2663Y-0.0707
X1.2726Y-0.2323
X1.3Y0.054
X1.3002Y-0.1929
X1.3163Y-0.0707
X1.3356Y0.3661
X1.3474Y0.0551
X1.3711Y-0.18
X1.3789Y-0.0079
X1.4002Y0.5016
X1.4301Y-0.148
X1.447Y0.5028
X1.4656Y0.382
X1.5089Y0.189
X1.5089Y-0.4764
X1.5089Y-0.5197
X1.5285Y0.3031
X1.5679Y0.2835
X1.6506Y-0.1535
X1.6545Y-0.4094
X1.6585Y0.1299
X1.6959Y-0.1535
X1.6998Y-0.4094
X1.7037Y0.1299
X1.7411Y-0.1535
X1.7451Y-0.4094
X1.749Y0.1299
X1.7904Y-0.4094
X1.8041Y-0.1373
X1.8356Y-0.4094
X1.8809Y-0.4094
X1.8986Y-0.1535
X1.9262Y-0.4094
X1.9301Y0.1299
X1.9537Y0.2992
X1.9715Y-0.4094
X1.9754Y0.1299
X2.0167Y-0.1535
X2.0167Y-0.4094
X2.062Y-0.1535
X2.062Y-0.4094
X2.0797Y0.4449
X2.0797Y0.4045
X2.0797Y0.3642
X2.1073Y-0.1535
X2.1073Y-0.4094
X2.1112Y0.1299
X2.123Y0.4449
X2.123Y0.4045
X2.123Y0.3642
X2.3091Y-0.0886
X2.3091Y-0.1319
X2.3091Y-0.1752
X2.3091Y-0.2205
X2.3091Y-0.2638
X2.3091Y-0.3071
X2.5014Y-0.5354
X2.5268Y-0.2386
X2.5268Y-0.2839
X2.5268Y-0.3272
X2.6043Y0.0049
X2.6043Y-0.0337
X2.6043Y-0.0722
T3
X0.455Y0.18
X0.455Y-0.05
X0.555Y0.18
X0.555Y-0.05
X1.2057Y-0.4567
X1.3057Y-0.4567
X1.4057Y-0.4567
X1.675Y0.5
X1.675Y0.4
T4
X2.2Y0.218
X2.208Y-0.502
T0
M30
