%TF.GenerationSoftware,KiCad,Pcbnew,7.0.5-7.0.5~ubuntu20.04.1*%
%TF.CreationDate,2023-07-13T22:08:42+02:00*%
%TF.ProjectId,ModuleV450,4d6f6475-6c65-4563-9435-302e6b696361,rev?*%
%TF.SameCoordinates,Original*%
%TF.FileFunction,Legend,Bot*%
%TF.FilePolarity,Positive*%
%FSLAX46Y46*%
G04 Gerber Fmt 4.6, Leading zero omitted, Abs format (unit mm)*
G04 Created by KiCad (PCBNEW 7.0.5-7.0.5~ubuntu20.04.1) date 2023-07-13 22:08:42*
%MOMM*%
%LPD*%
G01*
G04 APERTURE LIST*
G04 Aperture macros list*
%AMRoundRect*
0 Rectangle with rounded corners*
0 $1 Rounding radius*
0 $2 $3 $4 $5 $6 $7 $8 $9 X,Y pos of 4 corners*
0 Add a 4 corners polygon primitive as box body*
4,1,4,$2,$3,$4,$5,$6,$7,$8,$9,$2,$3,0*
0 Add four circle primitives for the rounded corners*
1,1,$1+$1,$2,$3*
1,1,$1+$1,$4,$5*
1,1,$1+$1,$6,$7*
1,1,$1+$1,$8,$9*
0 Add four rect primitives between the rounded corners*
20,1,$1+$1,$2,$3,$4,$5,0*
20,1,$1+$1,$4,$5,$6,$7,0*
20,1,$1+$1,$6,$7,$8,$9,0*
20,1,$1+$1,$8,$9,$2,$3,0*%
G04 Aperture macros list end*
%ADD10C,0.300000*%
%ADD11C,0.200000*%
%ADD12C,0.010000*%
%ADD13C,10.643506*%
%ADD14RoundRect,0.200000X-1.500000X-1.500000X1.500000X-1.500000X1.500000X1.500000X-1.500000X1.500000X0*%
%ADD15O,2.100000X2.100000*%
%ADD16RoundRect,0.200000X-0.850000X-0.850000X0.850000X-0.850000X0.850000X0.850000X-0.850000X0.850000X0*%
%ADD17RoundRect,0.200000X0.850000X-0.850000X0.850000X0.850000X-0.850000X0.850000X-0.850000X-0.850000X0*%
%ADD18RoundRect,0.200000X-0.850000X0.850000X-0.850000X-0.850000X0.850000X-0.850000X0.850000X0.850000X0*%
G04 APERTURE END LIST*
D10*
X26084257Y11985714D02*
X26027114Y12099999D01*
X26027114Y12099999D02*
X26027114Y12328571D01*
X26027114Y12328571D02*
X26084257Y12442856D01*
X26084257Y12442856D02*
X26198542Y12557142D01*
X26198542Y12557142D02*
X26312828Y12614285D01*
X26312828Y12614285D02*
X26541400Y12614285D01*
X26541400Y12614285D02*
X26655685Y12557142D01*
X26655685Y12557142D02*
X26769971Y12442856D01*
X26769971Y12442856D02*
X26827114Y12328571D01*
X26827114Y12328571D02*
X26827114Y12099999D01*
X26827114Y12099999D02*
X26769971Y11985714D01*
X25627114Y12214285D02*
X25684257Y12499999D01*
X25684257Y12499999D02*
X25855685Y12785714D01*
X25855685Y12785714D02*
X26141400Y12957142D01*
X26141400Y12957142D02*
X26427114Y13014285D01*
X26427114Y13014285D02*
X26712828Y12957142D01*
X26712828Y12957142D02*
X26998542Y12785714D01*
X26998542Y12785714D02*
X27169971Y12499999D01*
X27169971Y12499999D02*
X27227114Y12214285D01*
X27227114Y12214285D02*
X27169971Y11928571D01*
X27169971Y11928571D02*
X26998542Y11642856D01*
X26998542Y11642856D02*
X26712828Y11471428D01*
X26712828Y11471428D02*
X26427114Y11414285D01*
X26427114Y11414285D02*
X26141400Y11471428D01*
X26141400Y11471428D02*
X25855685Y11642856D01*
X25855685Y11642856D02*
X25684257Y11928571D01*
X25684257Y11928571D02*
X25627114Y12214285D01*
X25912828Y10957142D02*
X25855685Y10899999D01*
X25855685Y10899999D02*
X25798542Y10785713D01*
X25798542Y10785713D02*
X25798542Y10499999D01*
X25798542Y10499999D02*
X25855685Y10385713D01*
X25855685Y10385713D02*
X25912828Y10328571D01*
X25912828Y10328571D02*
X26027114Y10271428D01*
X26027114Y10271428D02*
X26141400Y10271428D01*
X26141400Y10271428D02*
X26312828Y10328571D01*
X26312828Y10328571D02*
X26998542Y11014285D01*
X26998542Y11014285D02*
X26998542Y10271428D01*
X25798542Y9528571D02*
X25798542Y9414285D01*
X25798542Y9414285D02*
X25855685Y9299999D01*
X25855685Y9299999D02*
X25912828Y9242856D01*
X25912828Y9242856D02*
X26027114Y9185714D01*
X26027114Y9185714D02*
X26255685Y9128571D01*
X26255685Y9128571D02*
X26541400Y9128571D01*
X26541400Y9128571D02*
X26769971Y9185714D01*
X26769971Y9185714D02*
X26884257Y9242856D01*
X26884257Y9242856D02*
X26941400Y9299999D01*
X26941400Y9299999D02*
X26998542Y9414285D01*
X26998542Y9414285D02*
X26998542Y9528571D01*
X26998542Y9528571D02*
X26941400Y9642856D01*
X26941400Y9642856D02*
X26884257Y9699999D01*
X26884257Y9699999D02*
X26769971Y9757142D01*
X26769971Y9757142D02*
X26541400Y9814285D01*
X26541400Y9814285D02*
X26255685Y9814285D01*
X26255685Y9814285D02*
X26027114Y9757142D01*
X26027114Y9757142D02*
X25912828Y9699999D01*
X25912828Y9699999D02*
X25855685Y9642856D01*
X25855685Y9642856D02*
X25798542Y9528571D01*
X26998542Y7985714D02*
X26998542Y8671428D01*
X26998542Y8328571D02*
X25798542Y8328571D01*
X25798542Y8328571D02*
X25969971Y8442857D01*
X25969971Y8442857D02*
X26084257Y8557142D01*
X26084257Y8557142D02*
X26141400Y8671428D01*
X26998542Y7414285D02*
X26998542Y7185714D01*
X26998542Y7185714D02*
X26941400Y7071428D01*
X26941400Y7071428D02*
X26884257Y7014285D01*
X26884257Y7014285D02*
X26712828Y6900000D01*
X26712828Y6900000D02*
X26484257Y6842857D01*
X26484257Y6842857D02*
X26027114Y6842857D01*
X26027114Y6842857D02*
X25912828Y6900000D01*
X25912828Y6900000D02*
X25855685Y6957142D01*
X25855685Y6957142D02*
X25798542Y7071428D01*
X25798542Y7071428D02*
X25798542Y7300000D01*
X25798542Y7300000D02*
X25855685Y7414285D01*
X25855685Y7414285D02*
X25912828Y7471428D01*
X25912828Y7471428D02*
X26027114Y7528571D01*
X26027114Y7528571D02*
X26312828Y7528571D01*
X26312828Y7528571D02*
X26427114Y7471428D01*
X26427114Y7471428D02*
X26484257Y7414285D01*
X26484257Y7414285D02*
X26541400Y7300000D01*
X26541400Y7300000D02*
X26541400Y7071428D01*
X26541400Y7071428D02*
X26484257Y6957142D01*
X26484257Y6957142D02*
X26427114Y6900000D01*
X26427114Y6900000D02*
X26312828Y6842857D01*
X26541400Y6328571D02*
X26541400Y5414285D01*
X25912828Y4900000D02*
X25855685Y4842857D01*
X25855685Y4842857D02*
X25798542Y4728571D01*
X25798542Y4728571D02*
X25798542Y4442857D01*
X25798542Y4442857D02*
X25855685Y4328571D01*
X25855685Y4328571D02*
X25912828Y4271429D01*
X25912828Y4271429D02*
X26027114Y4214286D01*
X26027114Y4214286D02*
X26141400Y4214286D01*
X26141400Y4214286D02*
X26312828Y4271429D01*
X26312828Y4271429D02*
X26998542Y4957143D01*
X26998542Y4957143D02*
X26998542Y4214286D01*
X25798542Y3471429D02*
X25798542Y3357143D01*
X25798542Y3357143D02*
X25855685Y3242857D01*
X25855685Y3242857D02*
X25912828Y3185714D01*
X25912828Y3185714D02*
X26027114Y3128572D01*
X26027114Y3128572D02*
X26255685Y3071429D01*
X26255685Y3071429D02*
X26541400Y3071429D01*
X26541400Y3071429D02*
X26769971Y3128572D01*
X26769971Y3128572D02*
X26884257Y3185714D01*
X26884257Y3185714D02*
X26941400Y3242857D01*
X26941400Y3242857D02*
X26998542Y3357143D01*
X26998542Y3357143D02*
X26998542Y3471429D01*
X26998542Y3471429D02*
X26941400Y3585714D01*
X26941400Y3585714D02*
X26884257Y3642857D01*
X26884257Y3642857D02*
X26769971Y3700000D01*
X26769971Y3700000D02*
X26541400Y3757143D01*
X26541400Y3757143D02*
X26255685Y3757143D01*
X26255685Y3757143D02*
X26027114Y3700000D01*
X26027114Y3700000D02*
X25912828Y3642857D01*
X25912828Y3642857D02*
X25855685Y3585714D01*
X25855685Y3585714D02*
X25798542Y3471429D01*
X25912828Y2614286D02*
X25855685Y2557143D01*
X25855685Y2557143D02*
X25798542Y2442857D01*
X25798542Y2442857D02*
X25798542Y2157143D01*
X25798542Y2157143D02*
X25855685Y2042857D01*
X25855685Y2042857D02*
X25912828Y1985715D01*
X25912828Y1985715D02*
X26027114Y1928572D01*
X26027114Y1928572D02*
X26141400Y1928572D01*
X26141400Y1928572D02*
X26312828Y1985715D01*
X26312828Y1985715D02*
X26998542Y2671429D01*
X26998542Y2671429D02*
X26998542Y1928572D01*
X25912828Y1471429D02*
X25855685Y1414286D01*
X25855685Y1414286D02*
X25798542Y1300000D01*
X25798542Y1300000D02*
X25798542Y1014286D01*
X25798542Y1014286D02*
X25855685Y900000D01*
X25855685Y900000D02*
X25912828Y842858D01*
X25912828Y842858D02*
X26027114Y785715D01*
X26027114Y785715D02*
X26141400Y785715D01*
X26141400Y785715D02*
X26312828Y842858D01*
X26312828Y842858D02*
X26998542Y1528572D01*
X26998542Y1528572D02*
X26998542Y785715D01*
X28873400Y13585714D02*
X28930542Y13414285D01*
X28930542Y13414285D02*
X28930542Y13128571D01*
X28930542Y13128571D02*
X28873400Y13014285D01*
X28873400Y13014285D02*
X28816257Y12957143D01*
X28816257Y12957143D02*
X28701971Y12900000D01*
X28701971Y12900000D02*
X28587685Y12900000D01*
X28587685Y12900000D02*
X28473400Y12957143D01*
X28473400Y12957143D02*
X28416257Y13014285D01*
X28416257Y13014285D02*
X28359114Y13128571D01*
X28359114Y13128571D02*
X28301971Y13357143D01*
X28301971Y13357143D02*
X28244828Y13471428D01*
X28244828Y13471428D02*
X28187685Y13528571D01*
X28187685Y13528571D02*
X28073400Y13585714D01*
X28073400Y13585714D02*
X27959114Y13585714D01*
X27959114Y13585714D02*
X27844828Y13528571D01*
X27844828Y13528571D02*
X27787685Y13471428D01*
X27787685Y13471428D02*
X27730542Y13357143D01*
X27730542Y13357143D02*
X27730542Y13071428D01*
X27730542Y13071428D02*
X27787685Y12900000D01*
X28130542Y12557143D02*
X28130542Y12100000D01*
X27730542Y12385714D02*
X28759114Y12385714D01*
X28759114Y12385714D02*
X28873400Y12328571D01*
X28873400Y12328571D02*
X28930542Y12214286D01*
X28930542Y12214286D02*
X28930542Y12100000D01*
X28130542Y11185714D02*
X28930542Y11185714D01*
X28130542Y11700000D02*
X28759114Y11700000D01*
X28759114Y11700000D02*
X28873400Y11642857D01*
X28873400Y11642857D02*
X28930542Y11528572D01*
X28930542Y11528572D02*
X28930542Y11357143D01*
X28930542Y11357143D02*
X28873400Y11242857D01*
X28873400Y11242857D02*
X28816257Y11185714D01*
X28930542Y10100000D02*
X28301971Y10100000D01*
X28301971Y10100000D02*
X28187685Y10157143D01*
X28187685Y10157143D02*
X28130542Y10271429D01*
X28130542Y10271429D02*
X28130542Y10500000D01*
X28130542Y10500000D02*
X28187685Y10614286D01*
X28873400Y10100000D02*
X28930542Y10214286D01*
X28930542Y10214286D02*
X28930542Y10500000D01*
X28930542Y10500000D02*
X28873400Y10614286D01*
X28873400Y10614286D02*
X28759114Y10671429D01*
X28759114Y10671429D02*
X28644828Y10671429D01*
X28644828Y10671429D02*
X28530542Y10614286D01*
X28530542Y10614286D02*
X28473400Y10500000D01*
X28473400Y10500000D02*
X28473400Y10214286D01*
X28473400Y10214286D02*
X28416257Y10100000D01*
X28930542Y9528572D02*
X28130542Y9528572D01*
X28359114Y9528572D02*
X28244828Y9471429D01*
X28244828Y9471429D02*
X28187685Y9414286D01*
X28187685Y9414286D02*
X28130542Y9300001D01*
X28130542Y9300001D02*
X28130542Y9185715D01*
X28130542Y8957144D02*
X28130542Y8500001D01*
X27730542Y8785715D02*
X28759114Y8785715D01*
X28759114Y8785715D02*
X28873400Y8728572D01*
X28873400Y8728572D02*
X28930542Y8614287D01*
X28930542Y8614287D02*
X28930542Y8500001D01*
X28930542Y7185715D02*
X27730542Y7185715D01*
X27730542Y7185715D02*
X27730542Y6728572D01*
X27730542Y6728572D02*
X27787685Y6614287D01*
X27787685Y6614287D02*
X27844828Y6557144D01*
X27844828Y6557144D02*
X27959114Y6500001D01*
X27959114Y6500001D02*
X28130542Y6500001D01*
X28130542Y6500001D02*
X28244828Y6557144D01*
X28244828Y6557144D02*
X28301971Y6614287D01*
X28301971Y6614287D02*
X28359114Y6728572D01*
X28359114Y6728572D02*
X28359114Y7185715D01*
X28930542Y5985715D02*
X28130542Y5985715D01*
X27730542Y5985715D02*
X27787685Y6042858D01*
X27787685Y6042858D02*
X27844828Y5985715D01*
X27844828Y5985715D02*
X27787685Y5928572D01*
X27787685Y5928572D02*
X27730542Y5985715D01*
X27730542Y5985715D02*
X27844828Y5985715D01*
X28130542Y5585715D02*
X28130542Y5128572D01*
X27730542Y5414286D02*
X28759114Y5414286D01*
X28759114Y5414286D02*
X28873400Y5357143D01*
X28873400Y5357143D02*
X28930542Y5242858D01*
X28930542Y5242858D02*
X28930542Y5128572D01*
X28130542Y4900001D02*
X28130542Y4442858D01*
X27730542Y4728572D02*
X28759114Y4728572D01*
X28759114Y4728572D02*
X28873400Y4671429D01*
X28873400Y4671429D02*
X28930542Y4557144D01*
X28930542Y4557144D02*
X28930542Y4442858D01*
X28930542Y3528572D02*
X28301971Y3528572D01*
X28301971Y3528572D02*
X28187685Y3585715D01*
X28187685Y3585715D02*
X28130542Y3700001D01*
X28130542Y3700001D02*
X28130542Y3928572D01*
X28130542Y3928572D02*
X28187685Y4042858D01*
X28873400Y3528572D02*
X28930542Y3642858D01*
X28930542Y3642858D02*
X28930542Y3928572D01*
X28930542Y3928572D02*
X28873400Y4042858D01*
X28873400Y4042858D02*
X28759114Y4100001D01*
X28759114Y4100001D02*
X28644828Y4100001D01*
X28644828Y4100001D02*
X28530542Y4042858D01*
X28530542Y4042858D02*
X28473400Y3928572D01*
X28473400Y3928572D02*
X28473400Y3642858D01*
X28473400Y3642858D02*
X28416257Y3528572D01*
X28130542Y3071430D02*
X28930542Y2842858D01*
X28930542Y2842858D02*
X28359114Y2614287D01*
X28359114Y2614287D02*
X28930542Y2385716D01*
X28930542Y2385716D02*
X28130542Y2157144D01*
X28930542Y1185715D02*
X28301971Y1185715D01*
X28301971Y1185715D02*
X28187685Y1242858D01*
X28187685Y1242858D02*
X28130542Y1357144D01*
X28130542Y1357144D02*
X28130542Y1585715D01*
X28130542Y1585715D02*
X28187685Y1700001D01*
X28873400Y1185715D02*
X28930542Y1300001D01*
X28930542Y1300001D02*
X28930542Y1585715D01*
X28930542Y1585715D02*
X28873400Y1700001D01*
X28873400Y1700001D02*
X28759114Y1757144D01*
X28759114Y1757144D02*
X28644828Y1757144D01*
X28644828Y1757144D02*
X28530542Y1700001D01*
X28530542Y1700001D02*
X28473400Y1585715D01*
X28473400Y1585715D02*
X28473400Y1300001D01*
X28473400Y1300001D02*
X28416257Y1185715D01*
X28130542Y728573D02*
X28930542Y442859D01*
X28130542Y157144D02*
X28930542Y442859D01*
X28930542Y442859D02*
X29216257Y557144D01*
X29216257Y557144D02*
X29273400Y614287D01*
X29273400Y614287D02*
X29330542Y728573D01*
D11*
X30896266Y-5969673D02*
X30896266Y-6731578D01*
X31277219Y-6350625D02*
X30515314Y-6350625D01*
X30277219Y-7112530D02*
X30277219Y-7731577D01*
X30277219Y-7731577D02*
X30658171Y-7398244D01*
X30658171Y-7398244D02*
X30658171Y-7541101D01*
X30658171Y-7541101D02*
X30705790Y-7636339D01*
X30705790Y-7636339D02*
X30753409Y-7683958D01*
X30753409Y-7683958D02*
X30848647Y-7731577D01*
X30848647Y-7731577D02*
X31086742Y-7731577D01*
X31086742Y-7731577D02*
X31181980Y-7683958D01*
X31181980Y-7683958D02*
X31229600Y-7636339D01*
X31229600Y-7636339D02*
X31277219Y-7541101D01*
X31277219Y-7541101D02*
X31277219Y-7255387D01*
X31277219Y-7255387D02*
X31229600Y-7160149D01*
X31229600Y-7160149D02*
X31181980Y-7112530D01*
X31181980Y-8160149D02*
X31229600Y-8207768D01*
X31229600Y-8207768D02*
X31277219Y-8160149D01*
X31277219Y-8160149D02*
X31229600Y-8112530D01*
X31229600Y-8112530D02*
X31181980Y-8160149D01*
X31181980Y-8160149D02*
X31277219Y-8160149D01*
X30277219Y-8541101D02*
X30277219Y-9160148D01*
X30277219Y-9160148D02*
X30658171Y-8826815D01*
X30658171Y-8826815D02*
X30658171Y-8969672D01*
X30658171Y-8969672D02*
X30705790Y-9064910D01*
X30705790Y-9064910D02*
X30753409Y-9112529D01*
X30753409Y-9112529D02*
X30848647Y-9160148D01*
X30848647Y-9160148D02*
X31086742Y-9160148D01*
X31086742Y-9160148D02*
X31181980Y-9112529D01*
X31181980Y-9112529D02*
X31229600Y-9064910D01*
X31229600Y-9064910D02*
X31277219Y-8969672D01*
X31277219Y-8969672D02*
X31277219Y-8683958D01*
X31277219Y-8683958D02*
X31229600Y-8588720D01*
X31229600Y-8588720D02*
X31181980Y-8541101D01*
X30277219Y-9445863D02*
X31277219Y-9779196D01*
X31277219Y-9779196D02*
X30277219Y-10112529D01*
X35424838Y-7922053D02*
X35377219Y-7826815D01*
X35377219Y-7826815D02*
X35377219Y-7683958D01*
X35377219Y-7683958D02*
X35424838Y-7541101D01*
X35424838Y-7541101D02*
X35520076Y-7445863D01*
X35520076Y-7445863D02*
X35615314Y-7398244D01*
X35615314Y-7398244D02*
X35805790Y-7350625D01*
X35805790Y-7350625D02*
X35948647Y-7350625D01*
X35948647Y-7350625D02*
X36139123Y-7398244D01*
X36139123Y-7398244D02*
X36234361Y-7445863D01*
X36234361Y-7445863D02*
X36329600Y-7541101D01*
X36329600Y-7541101D02*
X36377219Y-7683958D01*
X36377219Y-7683958D02*
X36377219Y-7779196D01*
X36377219Y-7779196D02*
X36329600Y-7922053D01*
X36329600Y-7922053D02*
X36281980Y-7969672D01*
X36281980Y-7969672D02*
X35948647Y-7969672D01*
X35948647Y-7969672D02*
X35948647Y-7779196D01*
X36377219Y-8398244D02*
X35377219Y-8398244D01*
X35377219Y-8398244D02*
X36377219Y-8969672D01*
X36377219Y-8969672D02*
X35377219Y-8969672D01*
X36377219Y-9445863D02*
X35377219Y-9445863D01*
X35377219Y-9445863D02*
X35377219Y-9683958D01*
X35377219Y-9683958D02*
X35424838Y-9826815D01*
X35424838Y-9826815D02*
X35520076Y-9922053D01*
X35520076Y-9922053D02*
X35615314Y-9969672D01*
X35615314Y-9969672D02*
X35805790Y-10017291D01*
X35805790Y-10017291D02*
X35948647Y-10017291D01*
X35948647Y-10017291D02*
X36139123Y-9969672D01*
X36139123Y-9969672D02*
X36234361Y-9922053D01*
X36234361Y-9922053D02*
X36329600Y-9826815D01*
X36329600Y-9826815D02*
X36377219Y-9683958D01*
X36377219Y-9683958D02*
X36377219Y-9445863D01*
X32577219Y-2683958D02*
X33386742Y-2683958D01*
X33386742Y-2683958D02*
X33481980Y-2731577D01*
X33481980Y-2731577D02*
X33529600Y-2779196D01*
X33529600Y-2779196D02*
X33577219Y-2874434D01*
X33577219Y-2874434D02*
X33577219Y-3064910D01*
X33577219Y-3064910D02*
X33529600Y-3160148D01*
X33529600Y-3160148D02*
X33481980Y-3207767D01*
X33481980Y-3207767D02*
X33386742Y-3255386D01*
X33386742Y-3255386D02*
X32577219Y-3255386D01*
X33577219Y-3731577D02*
X32577219Y-3731577D01*
X32577219Y-3731577D02*
X32577219Y-4112529D01*
X32577219Y-4112529D02*
X32624838Y-4207767D01*
X32624838Y-4207767D02*
X32672457Y-4255386D01*
X32672457Y-4255386D02*
X32767695Y-4303005D01*
X32767695Y-4303005D02*
X32910552Y-4303005D01*
X32910552Y-4303005D02*
X33005790Y-4255386D01*
X33005790Y-4255386D02*
X33053409Y-4207767D01*
X33053409Y-4207767D02*
X33101028Y-4112529D01*
X33101028Y-4112529D02*
X33101028Y-3731577D01*
X33577219Y-4731577D02*
X32577219Y-4731577D01*
X32577219Y-4731577D02*
X32577219Y-4969672D01*
X32577219Y-4969672D02*
X32624838Y-5112529D01*
X32624838Y-5112529D02*
X32720076Y-5207767D01*
X32720076Y-5207767D02*
X32815314Y-5255386D01*
X32815314Y-5255386D02*
X33005790Y-5303005D01*
X33005790Y-5303005D02*
X33148647Y-5303005D01*
X33148647Y-5303005D02*
X33339123Y-5255386D01*
X33339123Y-5255386D02*
X33434361Y-5207767D01*
X33434361Y-5207767D02*
X33529600Y-5112529D01*
X33529600Y-5112529D02*
X33577219Y-4969672D01*
X33577219Y-4969672D02*
X33577219Y-4731577D01*
X33577219Y-5731577D02*
X32577219Y-5731577D01*
X33577219Y-6969672D02*
X32577219Y-6969672D01*
X32577219Y-6969672D02*
X32577219Y-7207767D01*
X32577219Y-7207767D02*
X32624838Y-7350624D01*
X32624838Y-7350624D02*
X32720076Y-7445862D01*
X32720076Y-7445862D02*
X32815314Y-7493481D01*
X32815314Y-7493481D02*
X33005790Y-7541100D01*
X33005790Y-7541100D02*
X33148647Y-7541100D01*
X33148647Y-7541100D02*
X33339123Y-7493481D01*
X33339123Y-7493481D02*
X33434361Y-7445862D01*
X33434361Y-7445862D02*
X33529600Y-7350624D01*
X33529600Y-7350624D02*
X33577219Y-7207767D01*
X33577219Y-7207767D02*
X33577219Y-6969672D01*
X33291504Y-7922053D02*
X33291504Y-8398243D01*
X33577219Y-7826815D02*
X32577219Y-8160148D01*
X32577219Y-8160148D02*
X33577219Y-8493481D01*
X32577219Y-8683958D02*
X32577219Y-9255386D01*
X33577219Y-8969672D02*
X32577219Y-8969672D01*
X33291504Y-9541101D02*
X33291504Y-10017291D01*
X33577219Y-9445863D02*
X32577219Y-9779196D01*
X32577219Y-9779196D02*
X33577219Y-10112529D01*
%TO.C,G\u002A\u002A\u002A*%
D12*
X35916995Y12698125D02*
X35934818Y12632555D01*
X35933761Y12548024D01*
X35910970Y12466053D01*
X35868348Y12398375D01*
X35837009Y12371061D01*
X35779888Y12336702D01*
X35718771Y12311920D01*
X35667000Y12303031D01*
X35646003Y12304633D01*
X35649013Y12309422D01*
X35680976Y12319547D01*
X35711151Y12329489D01*
X35785267Y12370072D01*
X35838311Y12429695D01*
X35872399Y12511389D01*
X35889649Y12618184D01*
X35891138Y12636581D01*
X35896185Y12687967D01*
X35901266Y12712691D01*
X35907747Y12714746D01*
X35916995Y12698125D01*
G36*
X35916995Y12698125D02*
G01*
X35934818Y12632555D01*
X35933761Y12548024D01*
X35910970Y12466053D01*
X35868348Y12398375D01*
X35837009Y12371061D01*
X35779888Y12336702D01*
X35718771Y12311920D01*
X35667000Y12303031D01*
X35646003Y12304633D01*
X35649013Y12309422D01*
X35680976Y12319547D01*
X35711151Y12329489D01*
X35785267Y12370072D01*
X35838311Y12429695D01*
X35872399Y12511389D01*
X35889649Y12618184D01*
X35891138Y12636581D01*
X35896185Y12687967D01*
X35901266Y12712691D01*
X35907747Y12714746D01*
X35916995Y12698125D01*
G37*
X28734120Y706559D02*
X28775140Y677201D01*
X28810616Y636894D01*
X28829706Y596186D01*
X28829833Y595394D01*
X28831191Y570230D01*
X28832505Y516835D01*
X28833743Y438425D01*
X28834873Y338220D01*
X28835865Y219438D01*
X28836687Y85297D01*
X28837306Y-60984D01*
X28837692Y-216187D01*
X28837767Y-405266D01*
X28837275Y-573639D01*
X28836162Y-713671D01*
X28834393Y-827102D01*
X28831931Y-915672D01*
X28828737Y-981123D01*
X28824776Y-1025193D01*
X28820010Y-1049625D01*
X28793113Y-1097230D01*
X28741597Y-1134244D01*
X28732881Y-1138304D01*
X28664105Y-1154795D01*
X28602287Y-1140311D01*
X28547491Y-1094864D01*
X28507375Y-1047188D01*
X28507375Y616750D01*
X28551031Y664092D01*
X28590057Y696988D01*
X28639748Y714035D01*
X28707616Y714969D01*
X28734120Y706559D01*
G36*
X28734120Y706559D02*
G01*
X28775140Y677201D01*
X28810616Y636894D01*
X28829706Y596186D01*
X28829833Y595394D01*
X28831191Y570230D01*
X28832505Y516835D01*
X28833743Y438425D01*
X28834873Y338220D01*
X28835865Y219438D01*
X28836687Y85297D01*
X28837306Y-60984D01*
X28837692Y-216187D01*
X28837767Y-405266D01*
X28837275Y-573639D01*
X28836162Y-713671D01*
X28834393Y-827102D01*
X28831931Y-915672D01*
X28828737Y-981123D01*
X28824776Y-1025193D01*
X28820010Y-1049625D01*
X28793113Y-1097230D01*
X28741597Y-1134244D01*
X28732881Y-1138304D01*
X28664105Y-1154795D01*
X28602287Y-1140311D01*
X28547491Y-1094864D01*
X28507375Y-1047188D01*
X28507375Y616750D01*
X28551031Y664092D01*
X28590057Y696988D01*
X28639748Y714035D01*
X28707616Y714969D01*
X28734120Y706559D01*
G37*
X35603500Y-4367500D02*
X30284367Y-4367500D01*
X30288839Y-4184738D01*
X30293312Y-4001976D01*
X30449889Y-3931489D01*
X30629571Y-3841685D01*
X30861324Y-3696417D01*
X31073146Y-3528021D01*
X31263577Y-3338373D01*
X31431162Y-3129352D01*
X31574441Y-2902834D01*
X31691956Y-2660694D01*
X31782250Y-2404812D01*
X31843865Y-2137062D01*
X31852897Y-2081804D01*
X31862533Y-2009956D01*
X31868434Y-1940437D01*
X31871031Y-1864742D01*
X31870755Y-1774368D01*
X31868038Y-1660812D01*
X31866721Y-1622508D01*
X31851388Y-1409439D01*
X31821738Y-1215910D01*
X31775708Y-1033452D01*
X31711236Y-853597D01*
X31626259Y-667875D01*
X31549637Y-527720D01*
X31404119Y-310691D01*
X31235092Y-108749D01*
X31045988Y74902D01*
X30840238Y237058D01*
X30621275Y374514D01*
X30392531Y484066D01*
X30285375Y527636D01*
X30285375Y950625D01*
X35603500Y950625D01*
X35603500Y-4367500D01*
G36*
X35603500Y-4367500D02*
G01*
X30284367Y-4367500D01*
X30288839Y-4184738D01*
X30293312Y-4001976D01*
X30449889Y-3931489D01*
X30629571Y-3841685D01*
X30861324Y-3696417D01*
X31073146Y-3528021D01*
X31263577Y-3338373D01*
X31431162Y-3129352D01*
X31574441Y-2902834D01*
X31691956Y-2660694D01*
X31782250Y-2404812D01*
X31843865Y-2137062D01*
X31852897Y-2081804D01*
X31862533Y-2009956D01*
X31868434Y-1940437D01*
X31871031Y-1864742D01*
X31870755Y-1774368D01*
X31868038Y-1660812D01*
X31866721Y-1622508D01*
X31851388Y-1409439D01*
X31821738Y-1215910D01*
X31775708Y-1033452D01*
X31711236Y-853597D01*
X31626259Y-667875D01*
X31549637Y-527720D01*
X31404119Y-310691D01*
X31235092Y-108749D01*
X31045988Y74902D01*
X30840238Y237058D01*
X30621275Y374514D01*
X30392531Y484066D01*
X30285375Y527636D01*
X30285375Y950625D01*
X35603500Y950625D01*
X35603500Y-4367500D01*
G37*
X35723137Y4677282D02*
X35709451Y4535559D01*
X35661231Y4256566D01*
X35585731Y3993549D01*
X35482643Y3745834D01*
X35351665Y3512748D01*
X35192491Y3293615D01*
X35004816Y3087762D01*
X34980661Y3064242D01*
X34771995Y2885549D01*
X34545904Y2733205D01*
X34303435Y2607762D01*
X34045636Y2509771D01*
X33773553Y2439784D01*
X33735751Y2432766D01*
X33572508Y2412168D01*
X33393708Y2402571D01*
X33210687Y2403974D01*
X33034780Y2416379D01*
X32877321Y2439784D01*
X32801980Y2456056D01*
X32560208Y2524626D01*
X32329434Y2614901D01*
X32115457Y2724383D01*
X31924075Y2850573D01*
X31872087Y2889592D01*
X32033981Y3043265D01*
X32138133Y3146037D01*
X32259865Y3280399D01*
X32364816Y3416081D01*
X32459924Y3561524D01*
X32512503Y3652957D01*
X32624651Y3888480D01*
X32709737Y4135856D01*
X32768615Y4397864D01*
X32802137Y4677282D01*
X32812870Y4824125D01*
X35733870Y4824125D01*
X35723137Y4677282D01*
G36*
X35723137Y4677282D02*
G01*
X35709451Y4535559D01*
X35661231Y4256566D01*
X35585731Y3993549D01*
X35482643Y3745834D01*
X35351665Y3512748D01*
X35192491Y3293615D01*
X35004816Y3087762D01*
X34980661Y3064242D01*
X34771995Y2885549D01*
X34545904Y2733205D01*
X34303435Y2607762D01*
X34045636Y2509771D01*
X33773553Y2439784D01*
X33735751Y2432766D01*
X33572508Y2412168D01*
X33393708Y2402571D01*
X33210687Y2403974D01*
X33034780Y2416379D01*
X32877321Y2439784D01*
X32801980Y2456056D01*
X32560208Y2524626D01*
X32329434Y2614901D01*
X32115457Y2724383D01*
X31924075Y2850573D01*
X31872087Y2889592D01*
X32033981Y3043265D01*
X32138133Y3146037D01*
X32259865Y3280399D01*
X32364816Y3416081D01*
X32459924Y3561524D01*
X32512503Y3652957D01*
X32624651Y3888480D01*
X32709737Y4135856D01*
X32768615Y4397864D01*
X32802137Y4677282D01*
X32812870Y4824125D01*
X35733870Y4824125D01*
X35723137Y4677282D01*
G37*
X30926371Y4669344D02*
X30932257Y4598491D01*
X30972844Y4329959D01*
X31040890Y4069660D01*
X31135004Y3820447D01*
X31253794Y3585175D01*
X31395869Y3366696D01*
X31559840Y3167863D01*
X31744314Y2991530D01*
X31788342Y2953216D01*
X31825198Y2916713D01*
X31841177Y2892469D01*
X31839133Y2877039D01*
X31822856Y2861828D01*
X31779444Y2829961D01*
X31718291Y2789995D01*
X31645642Y2745701D01*
X31567743Y2700851D01*
X31490838Y2659220D01*
X31421175Y2624578D01*
X31338528Y2587592D01*
X31115559Y2505044D01*
X30890387Y2448049D01*
X30655762Y2415038D01*
X30404437Y2404441D01*
X30335919Y2404906D01*
X30183647Y2410377D01*
X30048737Y2423238D01*
X29921241Y2445030D01*
X29791213Y2477294D01*
X29648706Y2521574D01*
X29488480Y2581223D01*
X29241707Y2699252D01*
X29013376Y2841774D01*
X28804784Y3007103D01*
X28617222Y3193553D01*
X28451987Y3399439D01*
X28310371Y3623075D01*
X28193668Y3862776D01*
X28103173Y4116855D01*
X28040180Y4383627D01*
X28005983Y4661407D01*
X27994836Y4824125D01*
X30915688Y4824125D01*
X30926371Y4669344D01*
G36*
X30926371Y4669344D02*
G01*
X30932257Y4598491D01*
X30972844Y4329959D01*
X31040890Y4069660D01*
X31135004Y3820447D01*
X31253794Y3585175D01*
X31395869Y3366696D01*
X31559840Y3167863D01*
X31744314Y2991530D01*
X31788342Y2953216D01*
X31825198Y2916713D01*
X31841177Y2892469D01*
X31839133Y2877039D01*
X31822856Y2861828D01*
X31779444Y2829961D01*
X31718291Y2789995D01*
X31645642Y2745701D01*
X31567743Y2700851D01*
X31490838Y2659220D01*
X31421175Y2624578D01*
X31338528Y2587592D01*
X31115559Y2505044D01*
X30890387Y2448049D01*
X30655762Y2415038D01*
X30404437Y2404441D01*
X30335919Y2404906D01*
X30183647Y2410377D01*
X30048737Y2423238D01*
X29921241Y2445030D01*
X29791213Y2477294D01*
X29648706Y2521574D01*
X29488480Y2581223D01*
X29241707Y2699252D01*
X29013376Y2841774D01*
X28804784Y3007103D01*
X28617222Y3193553D01*
X28451987Y3399439D01*
X28310371Y3623075D01*
X28193668Y3862776D01*
X28103173Y4116855D01*
X28040180Y4383627D01*
X28005983Y4661407D01*
X27994836Y4824125D01*
X30915688Y4824125D01*
X30926371Y4669344D01*
G37*
X35292689Y12832385D02*
X35295137Y12820550D01*
X35301916Y12775891D01*
X35309577Y12713606D01*
X35316886Y12643337D01*
X35320386Y12609893D01*
X35329207Y12544436D01*
X35338775Y12492689D01*
X35347557Y12463630D01*
X35348748Y12461467D01*
X35381718Y12419512D01*
X35429648Y12376405D01*
X35481296Y12341067D01*
X35525425Y12322422D01*
X35558132Y12314133D01*
X35571750Y12307204D01*
X35567746Y12306738D01*
X35537111Y12305857D01*
X35478266Y12305041D01*
X35393559Y12304298D01*
X35285343Y12303638D01*
X35155967Y12303070D01*
X35007782Y12302603D01*
X34843139Y12302249D01*
X34664389Y12302015D01*
X34473882Y12301911D01*
X34273968Y12301947D01*
X34116116Y12302053D01*
X33901501Y12302295D01*
X33715591Y12302665D01*
X33556547Y12303199D01*
X33422533Y12303931D01*
X33311713Y12304895D01*
X33222249Y12306125D01*
X33152305Y12307657D01*
X33100043Y12309524D01*
X33063628Y12311761D01*
X33041221Y12314402D01*
X33030987Y12317482D01*
X33031087Y12321036D01*
X33039687Y12325097D01*
X33054496Y12330816D01*
X33131007Y12379263D01*
X33188735Y12450543D01*
X33225228Y12540693D01*
X33238036Y12645750D01*
X33238668Y12666154D01*
X33244797Y12729661D01*
X33255315Y12792594D01*
X33272505Y12872750D01*
X35282558Y12872750D01*
X35292689Y12832385D01*
G36*
X35292689Y12832385D02*
G01*
X35295137Y12820550D01*
X35301916Y12775891D01*
X35309577Y12713606D01*
X35316886Y12643337D01*
X35320386Y12609893D01*
X35329207Y12544436D01*
X35338775Y12492689D01*
X35347557Y12463630D01*
X35348748Y12461467D01*
X35381718Y12419512D01*
X35429648Y12376405D01*
X35481296Y12341067D01*
X35525425Y12322422D01*
X35558132Y12314133D01*
X35571750Y12307204D01*
X35567746Y12306738D01*
X35537111Y12305857D01*
X35478266Y12305041D01*
X35393559Y12304298D01*
X35285343Y12303638D01*
X35155967Y12303070D01*
X35007782Y12302603D01*
X34843139Y12302249D01*
X34664389Y12302015D01*
X34473882Y12301911D01*
X34273968Y12301947D01*
X34116116Y12302053D01*
X33901501Y12302295D01*
X33715591Y12302665D01*
X33556547Y12303199D01*
X33422533Y12303931D01*
X33311713Y12304895D01*
X33222249Y12306125D01*
X33152305Y12307657D01*
X33100043Y12309524D01*
X33063628Y12311761D01*
X33041221Y12314402D01*
X33030987Y12317482D01*
X33031087Y12321036D01*
X33039687Y12325097D01*
X33054496Y12330816D01*
X33131007Y12379263D01*
X33188735Y12450543D01*
X33225228Y12540693D01*
X33238036Y12645750D01*
X33238668Y12666154D01*
X33244797Y12729661D01*
X33255315Y12792594D01*
X33272505Y12872750D01*
X35282558Y12872750D01*
X35292689Y12832385D01*
G37*
X28683540Y-2129148D02*
X28743516Y-2144256D01*
X28797799Y-2181615D01*
X28834063Y-2232856D01*
X28835440Y-2236335D01*
X28843715Y-2268320D01*
X28849728Y-2316369D01*
X28853721Y-2384398D01*
X28855939Y-2476321D01*
X28856625Y-2596052D01*
X28856625Y-2905250D01*
X29199341Y-2910093D01*
X29542057Y-2914937D01*
X29580341Y-2959478D01*
X29599581Y-2986796D01*
X29619384Y-3051102D01*
X29610221Y-3117904D01*
X29572333Y-3180593D01*
X29526041Y-3232437D01*
X29192472Y-3237287D01*
X28858904Y-3242137D01*
X28853795Y-3573622D01*
X28848687Y-3905107D01*
X28802061Y-3953741D01*
X28776483Y-3977600D01*
X28737930Y-3997379D01*
X28685746Y-4002375D01*
X28654203Y-4000954D01*
X28609900Y-3988051D01*
X28569653Y-3955971D01*
X28523250Y-3909567D01*
X28523250Y-3242157D01*
X28190990Y-3237297D01*
X28155661Y-3236767D01*
X28052191Y-3234905D01*
X27974571Y-3232644D01*
X27918221Y-3229523D01*
X27878563Y-3225077D01*
X27851019Y-3218844D01*
X27831010Y-3210362D01*
X27813959Y-3199166D01*
X27794539Y-3182122D01*
X27759011Y-3125344D01*
X27749331Y-3059892D01*
X27767629Y-2995144D01*
X27770276Y-2990439D01*
X27801075Y-2950698D01*
X27834928Y-2924742D01*
X27848254Y-2920944D01*
X27896115Y-2915018D01*
X27972038Y-2910640D01*
X28073645Y-2907929D01*
X28198559Y-2907000D01*
X28523250Y-2907000D01*
X28523250Y-2582309D01*
X28523672Y-2498214D01*
X28525710Y-2392475D01*
X28529293Y-2308645D01*
X28534268Y-2249997D01*
X28540477Y-2219808D01*
X28543348Y-2214113D01*
X28579185Y-2173198D01*
X28630050Y-2141718D01*
X28681268Y-2129125D01*
X28683540Y-2129148D01*
G36*
X28683540Y-2129148D02*
G01*
X28743516Y-2144256D01*
X28797799Y-2181615D01*
X28834063Y-2232856D01*
X28835440Y-2236335D01*
X28843715Y-2268320D01*
X28849728Y-2316369D01*
X28853721Y-2384398D01*
X28855939Y-2476321D01*
X28856625Y-2596052D01*
X28856625Y-2905250D01*
X29199341Y-2910093D01*
X29542057Y-2914937D01*
X29580341Y-2959478D01*
X29599581Y-2986796D01*
X29619384Y-3051102D01*
X29610221Y-3117904D01*
X29572333Y-3180593D01*
X29526041Y-3232437D01*
X29192472Y-3237287D01*
X28858904Y-3242137D01*
X28853795Y-3573622D01*
X28848687Y-3905107D01*
X28802061Y-3953741D01*
X28776483Y-3977600D01*
X28737930Y-3997379D01*
X28685746Y-4002375D01*
X28654203Y-4000954D01*
X28609900Y-3988051D01*
X28569653Y-3955971D01*
X28523250Y-3909567D01*
X28523250Y-3242157D01*
X28190990Y-3237297D01*
X28155661Y-3236767D01*
X28052191Y-3234905D01*
X27974571Y-3232644D01*
X27918221Y-3229523D01*
X27878563Y-3225077D01*
X27851019Y-3218844D01*
X27831010Y-3210362D01*
X27813959Y-3199166D01*
X27794539Y-3182122D01*
X27759011Y-3125344D01*
X27749331Y-3059892D01*
X27767629Y-2995144D01*
X27770276Y-2990439D01*
X27801075Y-2950698D01*
X27834928Y-2924742D01*
X27848254Y-2920944D01*
X27896115Y-2915018D01*
X27972038Y-2910640D01*
X28073645Y-2907929D01*
X28198559Y-2907000D01*
X28523250Y-2907000D01*
X28523250Y-2582309D01*
X28523672Y-2498214D01*
X28525710Y-2392475D01*
X28529293Y-2308645D01*
X28534268Y-2249997D01*
X28540477Y-2219808D01*
X28543348Y-2214113D01*
X28579185Y-2173198D01*
X28630050Y-2141718D01*
X28681268Y-2129125D01*
X28683540Y-2129148D01*
G37*
X34495913Y10984239D02*
X34678888Y10983789D01*
X34856185Y10983030D01*
X35024908Y10981963D01*
X35182160Y10980588D01*
X35325045Y10978904D01*
X35450664Y10976912D01*
X35556123Y10974612D01*
X35638523Y10972003D01*
X35694968Y10969086D01*
X35722562Y10965860D01*
X35787150Y10941618D01*
X35858237Y10890511D01*
X35906626Y10818509D01*
X35927958Y10757273D01*
X35935475Y10665243D01*
X35912807Y10578816D01*
X35860458Y10501452D01*
X35856168Y10496816D01*
X35842763Y10482172D01*
X35829787Y10469319D01*
X35815232Y10458140D01*
X35797084Y10448518D01*
X35773333Y10440337D01*
X35741968Y10433480D01*
X35700977Y10427831D01*
X35648349Y10423273D01*
X35582073Y10419690D01*
X35500137Y10416965D01*
X35400530Y10414982D01*
X35281241Y10413623D01*
X35140258Y10412773D01*
X34975571Y10412315D01*
X34785168Y10412132D01*
X34567037Y10412108D01*
X34319168Y10412125D01*
X34153060Y10412185D01*
X33890048Y10412569D01*
X33658214Y10413315D01*
X33457197Y10414427D01*
X33286634Y10415908D01*
X33146166Y10417764D01*
X33035430Y10419997D01*
X32954065Y10422614D01*
X32901709Y10425616D01*
X32878002Y10429010D01*
X32813727Y10465113D01*
X32753036Y10528462D01*
X32712932Y10607165D01*
X32698723Y10693397D01*
X32698748Y10695905D01*
X32714633Y10787978D01*
X32757595Y10866222D01*
X32824619Y10926796D01*
X32912687Y10965860D01*
X32936965Y10968839D01*
X32991203Y10971780D01*
X33071628Y10974414D01*
X33175344Y10976739D01*
X33299453Y10978756D01*
X33441060Y10980464D01*
X33597266Y10981864D01*
X33765176Y10982956D01*
X33941893Y10983739D01*
X34124519Y10984214D01*
X34310158Y10984381D01*
X34495913Y10984239D01*
G36*
X34495913Y10984239D02*
G01*
X34678888Y10983789D01*
X34856185Y10983030D01*
X35024908Y10981963D01*
X35182160Y10980588D01*
X35325045Y10978904D01*
X35450664Y10976912D01*
X35556123Y10974612D01*
X35638523Y10972003D01*
X35694968Y10969086D01*
X35722562Y10965860D01*
X35787150Y10941618D01*
X35858237Y10890511D01*
X35906626Y10818509D01*
X35927958Y10757273D01*
X35935475Y10665243D01*
X35912807Y10578816D01*
X35860458Y10501452D01*
X35856168Y10496816D01*
X35842763Y10482172D01*
X35829787Y10469319D01*
X35815232Y10458140D01*
X35797084Y10448518D01*
X35773333Y10440337D01*
X35741968Y10433480D01*
X35700977Y10427831D01*
X35648349Y10423273D01*
X35582073Y10419690D01*
X35500137Y10416965D01*
X35400530Y10414982D01*
X35281241Y10413623D01*
X35140258Y10412773D01*
X34975571Y10412315D01*
X34785168Y10412132D01*
X34567037Y10412108D01*
X34319168Y10412125D01*
X34153060Y10412185D01*
X33890048Y10412569D01*
X33658214Y10413315D01*
X33457197Y10414427D01*
X33286634Y10415908D01*
X33146166Y10417764D01*
X33035430Y10419997D01*
X32954065Y10422614D01*
X32901709Y10425616D01*
X32878002Y10429010D01*
X32813727Y10465113D01*
X32753036Y10528462D01*
X32712932Y10607165D01*
X32698723Y10693397D01*
X32698748Y10695905D01*
X32714633Y10787978D01*
X32757595Y10866222D01*
X32824619Y10926796D01*
X32912687Y10965860D01*
X32936965Y10968839D01*
X32991203Y10971780D01*
X33071628Y10974414D01*
X33175344Y10976739D01*
X33299453Y10978756D01*
X33441060Y10980464D01*
X33597266Y10981864D01*
X33765176Y10982956D01*
X33941893Y10983739D01*
X34124519Y10984214D01*
X34310158Y10984381D01*
X34495913Y10984239D01*
G37*
X30646664Y-5462123D02*
X30913423Y-5506879D01*
X31169924Y-5579953D01*
X31414292Y-5680034D01*
X31644654Y-5805810D01*
X31859137Y-5955969D01*
X32055867Y-6129197D01*
X32232971Y-6324182D01*
X32388574Y-6539613D01*
X32520804Y-6774177D01*
X32627786Y-7026562D01*
X32679126Y-7169437D01*
X34175483Y-7173487D01*
X35671841Y-7177537D01*
X35661346Y-7348112D01*
X35638656Y-7563944D01*
X35583679Y-7829771D01*
X35500808Y-8083536D01*
X35391441Y-8323639D01*
X35256974Y-8548479D01*
X35098804Y-8756456D01*
X34918328Y-8945969D01*
X34716942Y-9115419D01*
X34496045Y-9263204D01*
X34257032Y-9387724D01*
X34001302Y-9487379D01*
X33730250Y-9560568D01*
X33667891Y-9571906D01*
X33539912Y-9587032D01*
X33396016Y-9596070D01*
X33245599Y-9598927D01*
X33098058Y-9595506D01*
X32962788Y-9585714D01*
X32849187Y-9569454D01*
X32704941Y-9537619D01*
X32447057Y-9460196D01*
X32208448Y-9359376D01*
X31986147Y-9233599D01*
X31777190Y-9081304D01*
X31578609Y-8900931D01*
X31454662Y-8769772D01*
X31326873Y-8613705D01*
X31218241Y-8453367D01*
X31122834Y-8280687D01*
X31114085Y-8262934D01*
X31080655Y-8191151D01*
X31047272Y-8114241D01*
X31016625Y-8038979D01*
X30991404Y-7972136D01*
X30974299Y-7920487D01*
X30967999Y-7890803D01*
X30968346Y-7890308D01*
X30988507Y-7887144D01*
X31038549Y-7884315D01*
X31116843Y-7881848D01*
X31221763Y-7879769D01*
X31351681Y-7878105D01*
X31504968Y-7876884D01*
X31679998Y-7876131D01*
X31875144Y-7875875D01*
X32782288Y-7875875D01*
X32771117Y-7713673D01*
X32768828Y-7683196D01*
X32756346Y-7560784D01*
X32739280Y-7438591D01*
X32719243Y-7327129D01*
X32697850Y-7236906D01*
X32681007Y-7177375D01*
X30868130Y-7177375D01*
X30877710Y-7371843D01*
X30882299Y-7442475D01*
X30890860Y-7533048D01*
X30901325Y-7615266D01*
X30912367Y-7677437D01*
X30926037Y-7738326D01*
X30938541Y-7794575D01*
X30946768Y-7832218D01*
X30956093Y-7875875D01*
X29469298Y-7875875D01*
X29341094Y-7875864D01*
X29102525Y-7875764D01*
X28892971Y-7875537D01*
X28710596Y-7875153D01*
X28553566Y-7874584D01*
X28420045Y-7873800D01*
X28308197Y-7872773D01*
X28216189Y-7871473D01*
X28142184Y-7869873D01*
X28084348Y-7867942D01*
X28040845Y-7865652D01*
X28009841Y-7862975D01*
X27989500Y-7859881D01*
X27977987Y-7856341D01*
X27973467Y-7852326D01*
X27970421Y-7830793D01*
X27971040Y-7780516D01*
X27975970Y-7710586D01*
X27984453Y-7627486D01*
X27995734Y-7537696D01*
X28009054Y-7447696D01*
X28023658Y-7363968D01*
X28038788Y-7292994D01*
X28041829Y-7280589D01*
X28123183Y-7014947D01*
X28230751Y-6765321D01*
X28362826Y-6533063D01*
X28517700Y-6319522D01*
X28693667Y-6126049D01*
X28889020Y-5953992D01*
X29102054Y-5804702D01*
X29331061Y-5679529D01*
X29574334Y-5579822D01*
X29830167Y-5506932D01*
X30096854Y-5462208D01*
X30372687Y-5447000D01*
X30646664Y-5462123D01*
G36*
X30646664Y-5462123D02*
G01*
X30913423Y-5506879D01*
X31169924Y-5579953D01*
X31414292Y-5680034D01*
X31644654Y-5805810D01*
X31859137Y-5955969D01*
X32055867Y-6129197D01*
X32232971Y-6324182D01*
X32388574Y-6539613D01*
X32520804Y-6774177D01*
X32627786Y-7026562D01*
X32679126Y-7169437D01*
X34175483Y-7173487D01*
X35671841Y-7177537D01*
X35661346Y-7348112D01*
X35638656Y-7563944D01*
X35583679Y-7829771D01*
X35500808Y-8083536D01*
X35391441Y-8323639D01*
X35256974Y-8548479D01*
X35098804Y-8756456D01*
X34918328Y-8945969D01*
X34716942Y-9115419D01*
X34496045Y-9263204D01*
X34257032Y-9387724D01*
X34001302Y-9487379D01*
X33730250Y-9560568D01*
X33667891Y-9571906D01*
X33539912Y-9587032D01*
X33396016Y-9596070D01*
X33245599Y-9598927D01*
X33098058Y-9595506D01*
X32962788Y-9585714D01*
X32849187Y-9569454D01*
X32704941Y-9537619D01*
X32447057Y-9460196D01*
X32208448Y-9359376D01*
X31986147Y-9233599D01*
X31777190Y-9081304D01*
X31578609Y-8900931D01*
X31454662Y-8769772D01*
X31326873Y-8613705D01*
X31218241Y-8453367D01*
X31122834Y-8280687D01*
X31114085Y-8262934D01*
X31080655Y-8191151D01*
X31047272Y-8114241D01*
X31016625Y-8038979D01*
X30991404Y-7972136D01*
X30974299Y-7920487D01*
X30967999Y-7890803D01*
X30968346Y-7890308D01*
X30988507Y-7887144D01*
X31038549Y-7884315D01*
X31116843Y-7881848D01*
X31221763Y-7879769D01*
X31351681Y-7878105D01*
X31504968Y-7876884D01*
X31679998Y-7876131D01*
X31875144Y-7875875D01*
X32782288Y-7875875D01*
X32771117Y-7713673D01*
X32768828Y-7683196D01*
X32756346Y-7560784D01*
X32739280Y-7438591D01*
X32719243Y-7327129D01*
X32697850Y-7236906D01*
X32681007Y-7177375D01*
X30868130Y-7177375D01*
X30877710Y-7371843D01*
X30882299Y-7442475D01*
X30890860Y-7533048D01*
X30901325Y-7615266D01*
X30912367Y-7677437D01*
X30926037Y-7738326D01*
X30938541Y-7794575D01*
X30946768Y-7832218D01*
X30956093Y-7875875D01*
X29469298Y-7875875D01*
X29341094Y-7875864D01*
X29102525Y-7875764D01*
X28892971Y-7875537D01*
X28710596Y-7875153D01*
X28553566Y-7874584D01*
X28420045Y-7873800D01*
X28308197Y-7872773D01*
X28216189Y-7871473D01*
X28142184Y-7869873D01*
X28084348Y-7867942D01*
X28040845Y-7865652D01*
X28009841Y-7862975D01*
X27989500Y-7859881D01*
X27977987Y-7856341D01*
X27973467Y-7852326D01*
X27970421Y-7830793D01*
X27971040Y-7780516D01*
X27975970Y-7710586D01*
X27984453Y-7627486D01*
X27995734Y-7537696D01*
X28009054Y-7447696D01*
X28023658Y-7363968D01*
X28038788Y-7292994D01*
X28041829Y-7280589D01*
X28123183Y-7014947D01*
X28230751Y-6765321D01*
X28362826Y-6533063D01*
X28517700Y-6319522D01*
X28693667Y-6126049D01*
X28889020Y-5953992D01*
X29102054Y-5804702D01*
X29331061Y-5679529D01*
X29574334Y-5579822D01*
X29830167Y-5506932D01*
X30096854Y-5462208D01*
X30372687Y-5447000D01*
X30646664Y-5462123D01*
G37*
X34575926Y14176663D02*
X34787587Y14121116D01*
X34992312Y14035532D01*
X35081240Y13987432D01*
X35267959Y13861167D01*
X35433675Y13712156D01*
X35576843Y13542382D01*
X35695916Y13353828D01*
X35789349Y13148478D01*
X35855595Y12928313D01*
X35857415Y12920091D01*
X35867023Y12865398D01*
X35871780Y12818696D01*
X35871749Y12791135D01*
X35864875Y12782921D01*
X35845012Y12798247D01*
X35840031Y12802652D01*
X35799271Y12831082D01*
X35749715Y12851109D01*
X35685675Y12863931D01*
X35601465Y12870745D01*
X35491398Y12872750D01*
X35482036Y12872751D01*
X35400057Y12873036D01*
X35344034Y12874428D01*
X35308676Y12877794D01*
X35288696Y12884000D01*
X35278802Y12893913D01*
X35273705Y12908398D01*
X35270992Y12916880D01*
X35255368Y12955254D01*
X35230657Y13009625D01*
X35200835Y13071116D01*
X35172833Y13121745D01*
X35091356Y13236393D01*
X34990966Y13345414D01*
X34880025Y13440304D01*
X34766895Y13512555D01*
X34690061Y13549057D01*
X34518599Y13606518D01*
X34345065Y13633476D01*
X34172301Y13630366D01*
X34003152Y13597622D01*
X33840459Y13535678D01*
X33687067Y13444970D01*
X33545820Y13325932D01*
X33514552Y13294504D01*
X33459531Y13234781D01*
X33417301Y13179239D01*
X33379921Y13116721D01*
X33339445Y13036069D01*
X33261937Y12873951D01*
X32974295Y12873351D01*
X32686654Y12872750D01*
X32676814Y12813219D01*
X32672271Y12781429D01*
X32665871Y12688420D01*
X32668412Y12597573D01*
X32679319Y12518472D01*
X32698015Y12460705D01*
X32733948Y12407654D01*
X32800581Y12350143D01*
X32878789Y12316373D01*
X32875742Y12315177D01*
X32845628Y12313544D01*
X32787251Y12311960D01*
X32702639Y12310445D01*
X32593818Y12309015D01*
X32462817Y12307688D01*
X32311663Y12306481D01*
X32142385Y12305413D01*
X31957010Y12304501D01*
X31757566Y12303762D01*
X31546081Y12303214D01*
X31324582Y12302875D01*
X29720602Y12301250D01*
X29649898Y12336969D01*
X29646515Y12338705D01*
X29573673Y12392432D01*
X29524235Y12461646D01*
X29498386Y12540410D01*
X29496309Y12622786D01*
X29518189Y12702835D01*
X29564209Y12774621D01*
X29634553Y12832205D01*
X29640116Y12835393D01*
X29650486Y12840504D01*
X29663243Y12845008D01*
X29680346Y12848953D01*
X29703751Y12852392D01*
X29735416Y12855376D01*
X29777299Y12857956D01*
X29831356Y12860182D01*
X29899546Y12862107D01*
X29983826Y12863780D01*
X30086154Y12865253D01*
X30208486Y12866577D01*
X30352780Y12867803D01*
X30520994Y12868983D01*
X30715085Y12870166D01*
X30937011Y12871405D01*
X31188730Y12872750D01*
X32687397Y12880688D01*
X32721650Y13007688D01*
X32743746Y13083139D01*
X32824623Y13290791D01*
X32929304Y13478653D01*
X32959809Y13521987D01*
X33031044Y13609896D01*
X33115621Y13702216D01*
X33205881Y13791185D01*
X33294166Y13869046D01*
X33372817Y13928038D01*
X33511419Y14010345D01*
X33715831Y14102198D01*
X33927282Y14164942D01*
X34142978Y14198391D01*
X34360125Y14202360D01*
X34575926Y14176663D01*
G36*
X34575926Y14176663D02*
G01*
X34787587Y14121116D01*
X34992312Y14035532D01*
X35081240Y13987432D01*
X35267959Y13861167D01*
X35433675Y13712156D01*
X35576843Y13542382D01*
X35695916Y13353828D01*
X35789349Y13148478D01*
X35855595Y12928313D01*
X35857415Y12920091D01*
X35867023Y12865398D01*
X35871780Y12818696D01*
X35871749Y12791135D01*
X35864875Y12782921D01*
X35845012Y12798247D01*
X35840031Y12802652D01*
X35799271Y12831082D01*
X35749715Y12851109D01*
X35685675Y12863931D01*
X35601465Y12870745D01*
X35491398Y12872750D01*
X35482036Y12872751D01*
X35400057Y12873036D01*
X35344034Y12874428D01*
X35308676Y12877794D01*
X35288696Y12884000D01*
X35278802Y12893913D01*
X35273705Y12908398D01*
X35270992Y12916880D01*
X35255368Y12955254D01*
X35230657Y13009625D01*
X35200835Y13071116D01*
X35172833Y13121745D01*
X35091356Y13236393D01*
X34990966Y13345414D01*
X34880025Y13440304D01*
X34766895Y13512555D01*
X34690061Y13549057D01*
X34518599Y13606518D01*
X34345065Y13633476D01*
X34172301Y13630366D01*
X34003152Y13597622D01*
X33840459Y13535678D01*
X33687067Y13444970D01*
X33545820Y13325932D01*
X33514552Y13294504D01*
X33459531Y13234781D01*
X33417301Y13179239D01*
X33379921Y13116721D01*
X33339445Y13036069D01*
X33261937Y12873951D01*
X32974295Y12873351D01*
X32686654Y12872750D01*
X32676814Y12813219D01*
X32672271Y12781429D01*
X32665871Y12688420D01*
X32668412Y12597573D01*
X32679319Y12518472D01*
X32698015Y12460705D01*
X32733948Y12407654D01*
X32800581Y12350143D01*
X32878789Y12316373D01*
X32875742Y12315177D01*
X32845628Y12313544D01*
X32787251Y12311960D01*
X32702639Y12310445D01*
X32593818Y12309015D01*
X32462817Y12307688D01*
X32311663Y12306481D01*
X32142385Y12305413D01*
X31957010Y12304501D01*
X31757566Y12303762D01*
X31546081Y12303214D01*
X31324582Y12302875D01*
X29720602Y12301250D01*
X29649898Y12336969D01*
X29646515Y12338705D01*
X29573673Y12392432D01*
X29524235Y12461646D01*
X29498386Y12540410D01*
X29496309Y12622786D01*
X29518189Y12702835D01*
X29564209Y12774621D01*
X29634553Y12832205D01*
X29640116Y12835393D01*
X29650486Y12840504D01*
X29663243Y12845008D01*
X29680346Y12848953D01*
X29703751Y12852392D01*
X29735416Y12855376D01*
X29777299Y12857956D01*
X29831356Y12860182D01*
X29899546Y12862107D01*
X29983826Y12863780D01*
X30086154Y12865253D01*
X30208486Y12866577D01*
X30352780Y12867803D01*
X30520994Y12868983D01*
X30715085Y12870166D01*
X30937011Y12871405D01*
X31188730Y12872750D01*
X32687397Y12880688D01*
X32721650Y13007688D01*
X32743746Y13083139D01*
X32824623Y13290791D01*
X32929304Y13478653D01*
X32959809Y13521987D01*
X33031044Y13609896D01*
X33115621Y13702216D01*
X33205881Y13791185D01*
X33294166Y13869046D01*
X33372817Y13928038D01*
X33511419Y14010345D01*
X33715831Y14102198D01*
X33927282Y14164942D01*
X34142978Y14198391D01*
X34360125Y14202360D01*
X34575926Y14176663D01*
G37*
X33006181Y9347941D02*
X33043661Y9337727D01*
X33109542Y9316280D01*
X33203009Y9283897D01*
X33323247Y9240874D01*
X33469442Y9187507D01*
X33640778Y9124093D01*
X33836440Y9050929D01*
X34055614Y8968311D01*
X34297485Y8876535D01*
X34417073Y8830991D01*
X34600991Y8760799D01*
X34774781Y8694296D01*
X34936270Y8632320D01*
X35083285Y8575714D01*
X35213652Y8525318D01*
X35325198Y8481972D01*
X35415750Y8446519D01*
X35483133Y8419798D01*
X35525176Y8402651D01*
X35539703Y8395918D01*
X35528076Y8389357D01*
X35490518Y8372614D01*
X35430787Y8347459D01*
X35352776Y8315505D01*
X35260380Y8278364D01*
X35157490Y8237648D01*
X34774981Y8087397D01*
X34836021Y8061607D01*
X34836557Y8061381D01*
X34909031Y8031770D01*
X34994116Y7998584D01*
X35086535Y7963707D01*
X35181014Y7929025D01*
X35272277Y7896422D01*
X35355049Y7867784D01*
X35424054Y7844994D01*
X35474018Y7829938D01*
X35499664Y7824500D01*
X35514956Y7825413D01*
X35577318Y7840958D01*
X35642685Y7870826D01*
X35696072Y7908602D01*
X35708890Y7921508D01*
X35754446Y7991651D01*
X35776385Y8072210D01*
X35775527Y8156095D01*
X35752690Y8236215D01*
X35708691Y8305479D01*
X35644350Y8356797D01*
X35631712Y8363839D01*
X35600230Y8384054D01*
X35587625Y8396713D01*
X35588881Y8397646D01*
X35611515Y8408024D01*
X35660817Y8428840D01*
X35734554Y8459195D01*
X35830491Y8498192D01*
X35946397Y8544932D01*
X36080037Y8598516D01*
X36229178Y8658045D01*
X36391588Y8722620D01*
X36565031Y8791344D01*
X36747276Y8863317D01*
X36896451Y8922120D01*
X37090154Y8998388D01*
X37257829Y9064230D01*
X37401547Y9120394D01*
X37523380Y9167629D01*
X37625398Y9206682D01*
X37709673Y9238301D01*
X37778275Y9263233D01*
X37833275Y9282228D01*
X37876745Y9296031D01*
X37910755Y9305392D01*
X37937377Y9311058D01*
X37958681Y9313777D01*
X37976738Y9314296D01*
X37993620Y9313364D01*
X38036222Y9307076D01*
X38118964Y9274135D01*
X38182784Y9215810D01*
X38226664Y9132887D01*
X38241011Y9079034D01*
X38242598Y8987051D01*
X38214039Y8902643D01*
X38156004Y8828700D01*
X38142515Y8821394D01*
X38100614Y8802567D01*
X38032503Y8773547D01*
X37940039Y8735066D01*
X37825079Y8687857D01*
X37689478Y8632655D01*
X37535093Y8570190D01*
X37363779Y8501198D01*
X37177394Y8426409D01*
X36977793Y8346558D01*
X36766832Y8262378D01*
X36546368Y8174601D01*
X36318258Y8083961D01*
X36084356Y7991190D01*
X35846519Y7897022D01*
X35606605Y7802189D01*
X35366468Y7707425D01*
X35127965Y7613462D01*
X34892952Y7521034D01*
X34663286Y7430873D01*
X34440822Y7343713D01*
X34227417Y7260287D01*
X34024927Y7181326D01*
X33835208Y7107566D01*
X33660117Y7039738D01*
X33501510Y6978576D01*
X33361242Y6924812D01*
X33241171Y6879179D01*
X33143152Y6842412D01*
X33069041Y6815241D01*
X33020696Y6798402D01*
X32999971Y6792625D01*
X32989567Y6793005D01*
X32925123Y6806243D01*
X32857624Y6833624D01*
X32803870Y6868637D01*
X32783380Y6891408D01*
X32749450Y6949249D01*
X32724496Y7016548D01*
X32714598Y7078981D01*
X32722378Y7131232D01*
X32747645Y7198318D01*
X32784147Y7260063D01*
X32825375Y7303288D01*
X32841328Y7310969D01*
X32884412Y7329490D01*
X32951251Y7357350D01*
X33038805Y7393330D01*
X33144033Y7436214D01*
X33263893Y7484786D01*
X33395345Y7537827D01*
X33535347Y7594121D01*
X33680858Y7652451D01*
X33828838Y7711599D01*
X33976246Y7770348D01*
X34120039Y7827482D01*
X34257178Y7881784D01*
X34384621Y7932036D01*
X34499327Y7977020D01*
X34598256Y8015521D01*
X34678366Y8046321D01*
X34736615Y8068203D01*
X34752975Y8076276D01*
X34759027Y8086889D01*
X34757471Y8087719D01*
X34733770Y8097575D01*
X34683616Y8117477D01*
X34609518Y8146457D01*
X34513988Y8183543D01*
X34399537Y8227764D01*
X34268676Y8278150D01*
X34123915Y8333730D01*
X33967766Y8393533D01*
X33802739Y8456589D01*
X33716023Y8489688D01*
X33528062Y8561539D01*
X33366741Y8623565D01*
X33229924Y8676818D01*
X33115477Y8722352D01*
X33021264Y8761218D01*
X32945151Y8794470D01*
X32885002Y8823159D01*
X32838683Y8848340D01*
X32804057Y8871063D01*
X32778990Y8892383D01*
X32761348Y8913350D01*
X32748994Y8935020D01*
X32739793Y8958443D01*
X32731612Y8984672D01*
X32720351Y9049377D01*
X32729729Y9141055D01*
X32767304Y9225100D01*
X32797283Y9259482D01*
X32859160Y9304256D01*
X32930865Y9336345D01*
X32999394Y9348816D01*
X33006181Y9347941D01*
G36*
X33006181Y9347941D02*
G01*
X33043661Y9337727D01*
X33109542Y9316280D01*
X33203009Y9283897D01*
X33323247Y9240874D01*
X33469442Y9187507D01*
X33640778Y9124093D01*
X33836440Y9050929D01*
X34055614Y8968311D01*
X34297485Y8876535D01*
X34417073Y8830991D01*
X34600991Y8760799D01*
X34774781Y8694296D01*
X34936270Y8632320D01*
X35083285Y8575714D01*
X35213652Y8525318D01*
X35325198Y8481972D01*
X35415750Y8446519D01*
X35483133Y8419798D01*
X35525176Y8402651D01*
X35539703Y8395918D01*
X35528076Y8389357D01*
X35490518Y8372614D01*
X35430787Y8347459D01*
X35352776Y8315505D01*
X35260380Y8278364D01*
X35157490Y8237648D01*
X34774981Y8087397D01*
X34836021Y8061607D01*
X34836557Y8061381D01*
X34909031Y8031770D01*
X34994116Y7998584D01*
X35086535Y7963707D01*
X35181014Y7929025D01*
X35272277Y7896422D01*
X35355049Y7867784D01*
X35424054Y7844994D01*
X35474018Y7829938D01*
X35499664Y7824500D01*
X35514956Y7825413D01*
X35577318Y7840958D01*
X35642685Y7870826D01*
X35696072Y7908602D01*
X35708890Y7921508D01*
X35754446Y7991651D01*
X35776385Y8072210D01*
X35775527Y8156095D01*
X35752690Y8236215D01*
X35708691Y8305479D01*
X35644350Y8356797D01*
X35631712Y8363839D01*
X35600230Y8384054D01*
X35587625Y8396713D01*
X35588881Y8397646D01*
X35611515Y8408024D01*
X35660817Y8428840D01*
X35734554Y8459195D01*
X35830491Y8498192D01*
X35946397Y8544932D01*
X36080037Y8598516D01*
X36229178Y8658045D01*
X36391588Y8722620D01*
X36565031Y8791344D01*
X36747276Y8863317D01*
X36896451Y8922120D01*
X37090154Y8998388D01*
X37257829Y9064230D01*
X37401547Y9120394D01*
X37523380Y9167629D01*
X37625398Y9206682D01*
X37709673Y9238301D01*
X37778275Y9263233D01*
X37833275Y9282228D01*
X37876745Y9296031D01*
X37910755Y9305392D01*
X37937377Y9311058D01*
X37958681Y9313777D01*
X37976738Y9314296D01*
X37993620Y9313364D01*
X38036222Y9307076D01*
X38118964Y9274135D01*
X38182784Y9215810D01*
X38226664Y9132887D01*
X38241011Y9079034D01*
X38242598Y8987051D01*
X38214039Y8902643D01*
X38156004Y8828700D01*
X38142515Y8821394D01*
X38100614Y8802567D01*
X38032503Y8773547D01*
X37940039Y8735066D01*
X37825079Y8687857D01*
X37689478Y8632655D01*
X37535093Y8570190D01*
X37363779Y8501198D01*
X37177394Y8426409D01*
X36977793Y8346558D01*
X36766832Y8262378D01*
X36546368Y8174601D01*
X36318258Y8083961D01*
X36084356Y7991190D01*
X35846519Y7897022D01*
X35606605Y7802189D01*
X35366468Y7707425D01*
X35127965Y7613462D01*
X34892952Y7521034D01*
X34663286Y7430873D01*
X34440822Y7343713D01*
X34227417Y7260287D01*
X34024927Y7181326D01*
X33835208Y7107566D01*
X33660117Y7039738D01*
X33501510Y6978576D01*
X33361242Y6924812D01*
X33241171Y6879179D01*
X33143152Y6842412D01*
X33069041Y6815241D01*
X33020696Y6798402D01*
X32999971Y6792625D01*
X32989567Y6793005D01*
X32925123Y6806243D01*
X32857624Y6833624D01*
X32803870Y6868637D01*
X32783380Y6891408D01*
X32749450Y6949249D01*
X32724496Y7016548D01*
X32714598Y7078981D01*
X32722378Y7131232D01*
X32747645Y7198318D01*
X32784147Y7260063D01*
X32825375Y7303288D01*
X32841328Y7310969D01*
X32884412Y7329490D01*
X32951251Y7357350D01*
X33038805Y7393330D01*
X33144033Y7436214D01*
X33263893Y7484786D01*
X33395345Y7537827D01*
X33535347Y7594121D01*
X33680858Y7652451D01*
X33828838Y7711599D01*
X33976246Y7770348D01*
X34120039Y7827482D01*
X34257178Y7881784D01*
X34384621Y7932036D01*
X34499327Y7977020D01*
X34598256Y8015521D01*
X34678366Y8046321D01*
X34736615Y8068203D01*
X34752975Y8076276D01*
X34759027Y8086889D01*
X34757471Y8087719D01*
X34733770Y8097575D01*
X34683616Y8117477D01*
X34609518Y8146457D01*
X34513988Y8183543D01*
X34399537Y8227764D01*
X34268676Y8278150D01*
X34123915Y8333730D01*
X33967766Y8393533D01*
X33802739Y8456589D01*
X33716023Y8489688D01*
X33528062Y8561539D01*
X33366741Y8623565D01*
X33229924Y8676818D01*
X33115477Y8722352D01*
X33021264Y8761218D01*
X32945151Y8794470D01*
X32885002Y8823159D01*
X32838683Y8848340D01*
X32804057Y8871063D01*
X32778990Y8892383D01*
X32761348Y8913350D01*
X32748994Y8935020D01*
X32739793Y8958443D01*
X32731612Y8984672D01*
X32720351Y9049377D01*
X32729729Y9141055D01*
X32767304Y9225100D01*
X32797283Y9259482D01*
X32859160Y9304256D01*
X32930865Y9336345D01*
X32999394Y9348816D01*
X33006181Y9347941D01*
G37*
%TD*%
%LPC*%
D13*
X103746753Y2540000D02*
G75*
G03*
X103746753Y2540000I-5321753J0D01*
G01*
X-19443247Y2540000D02*
G75*
G03*
X-19443247Y2540000I-5321753J0D01*
G01*
D14*
%TO.C,VCC*%
X55880000Y5537200D03*
%TD*%
%TO.C,DUMP*%
X56083200Y-12750800D03*
%TD*%
D15*
%TO.C,EXTTEMP1*%
X42545000Y10160000D03*
D16*
X42545000Y12700000D03*
%TD*%
D17*
%TO.C,UPDI1*%
X30625000Y-11600000D03*
D15*
X33165000Y-11600000D03*
X35705000Y-11600000D03*
%TD*%
D18*
%TO.C,RX1*%
X14097000Y-1270000D03*
D15*
X11557000Y-1270000D03*
%TD*%
D17*
%TO.C,TX1*%
X11557000Y4572000D03*
D15*
X14097000Y4572000D03*
%TD*%
%LPD*%
M02*
