%TF.GenerationSoftware,KiCad,Pcbnew,7.0.5-7.0.5~ubuntu20.04.1*%
%TF.CreationDate,2023-07-13T22:08:42+02:00*%
%TF.ProjectId,ModuleV450,4d6f6475-6c65-4563-9435-302e6b696361,rev?*%
%TF.SameCoordinates,Original*%
%TF.FileFunction,Paste,Top*%
%TF.FilePolarity,Positive*%
%FSLAX46Y46*%
G04 Gerber Fmt 4.6, Leading zero omitted, Abs format (unit mm)*
G04 Created by KiCad (PCBNEW 7.0.5-7.0.5~ubuntu20.04.1) date 2023-07-13 22:08:42*
%MOMM*%
%LPD*%
G01*
G04 APERTURE LIST*
G04 Aperture macros list*
%AMRoundRect*
0 Rectangle with rounded corners*
0 $1 Rounding radius*
0 $2 $3 $4 $5 $6 $7 $8 $9 X,Y pos of 4 corners*
0 Add a 4 corners polygon primitive as box body*
4,1,4,$2,$3,$4,$5,$6,$7,$8,$9,$2,$3,0*
0 Add four circle primitives for the rounded corners*
1,1,$1+$1,$2,$3*
1,1,$1+$1,$4,$5*
1,1,$1+$1,$6,$7*
1,1,$1+$1,$8,$9*
0 Add four rect primitives between the rounded corners*
20,1,$1+$1,$2,$3,$4,$5,0*
20,1,$1+$1,$4,$5,$6,$7,0*
20,1,$1+$1,$6,$7,$8,$9,0*
20,1,$1+$1,$8,$9,$2,$3,0*%
G04 Aperture macros list end*
%ADD10RoundRect,0.150000X0.150000X-0.662500X0.150000X0.662500X-0.150000X0.662500X-0.150000X-0.662500X0*%
%ADD11RoundRect,0.250000X0.450000X-0.262500X0.450000X0.262500X-0.450000X0.262500X-0.450000X-0.262500X0*%
%ADD12RoundRect,0.250000X-1.075000X0.362500X-1.075000X-0.362500X1.075000X-0.362500X1.075000X0.362500X0*%
%ADD13R,0.900000X0.800000*%
%ADD14RoundRect,0.218750X0.256250X-0.218750X0.256250X0.218750X-0.256250X0.218750X-0.256250X-0.218750X0*%
%ADD15RoundRect,0.243750X0.456250X-0.243750X0.456250X0.243750X-0.456250X0.243750X-0.456250X-0.243750X0*%
%ADD16RoundRect,0.250000X-0.450000X0.262500X-0.450000X-0.262500X0.450000X-0.262500X0.450000X0.262500X0*%
%ADD17RoundRect,0.250000X0.475000X-0.250000X0.475000X0.250000X-0.475000X0.250000X-0.475000X-0.250000X0*%
%ADD18RoundRect,0.250000X0.312500X1.450000X-0.312500X1.450000X-0.312500X-1.450000X0.312500X-1.450000X0*%
%ADD19R,2.300000X2.500000*%
%ADD20RoundRect,0.150000X0.150000X-0.825000X0.150000X0.825000X-0.150000X0.825000X-0.150000X-0.825000X0*%
G04 APERTURE END LIST*
D10*
%TO.C,U1*%
X23615000Y4562500D03*
X24885000Y4562500D03*
X24885000Y10937500D03*
X23615000Y10937500D03*
%TD*%
D11*
%TO.C,R16*%
X21625000Y-12562500D03*
X21625000Y-10737500D03*
%TD*%
D12*
%TO.C,R27*%
X52525000Y-8187500D03*
X52525000Y-12812500D03*
%TD*%
%TO.C,R26*%
X48425000Y-1570834D03*
X48425000Y-6195834D03*
%TD*%
%TO.C,R28*%
X48425000Y-8212500D03*
X48425000Y-12837500D03*
%TD*%
%TO.C,R24*%
X48425000Y5537500D03*
X48425000Y912500D03*
%TD*%
%TO.C,R25*%
X52525000Y-1545834D03*
X52525000Y-6170834D03*
%TD*%
%TO.C,R22*%
X52525000Y5562500D03*
X52525000Y937500D03*
%TD*%
D11*
%TO.C,R19*%
X45825000Y-5312500D03*
X45825000Y-3487500D03*
%TD*%
D13*
%TO.C,Q1*%
X61725000Y-12475000D03*
X61725000Y-10575000D03*
X59725000Y-11525000D03*
%TD*%
D14*
%TO.C,D4*%
X26325000Y-12712500D03*
X26325000Y-11137500D03*
%TD*%
D15*
%TO.C,D3*%
X62240000Y-4037500D03*
X62240000Y-2162500D03*
%TD*%
D11*
%TO.C,R21*%
X29525000Y5987500D03*
X29525000Y7812500D03*
%TD*%
%TO.C,R17*%
X62195000Y-7512500D03*
X62195000Y-5687500D03*
%TD*%
%TO.C,R18*%
X23650000Y-12562500D03*
X23650000Y-10737500D03*
%TD*%
D16*
%TO.C,R5*%
X24225000Y212500D03*
X24225000Y-1612500D03*
%TD*%
%TO.C,R20*%
X34725000Y-6199500D03*
X34725000Y-8024500D03*
%TD*%
D13*
%TO.C,D1*%
X28785000Y-7510000D03*
X28785000Y-5610000D03*
X26785000Y-6560000D03*
%TD*%
D17*
%TO.C,C1*%
X27415000Y1690000D03*
X27415000Y3590000D03*
%TD*%
D16*
%TO.C,R14*%
X36725000Y7612500D03*
X36725000Y5787500D03*
%TD*%
D11*
%TO.C,R2*%
X30735000Y-5687500D03*
X30735000Y-7512500D03*
%TD*%
D18*
%TO.C,F1*%
X-362500Y12250000D03*
X-4637500Y12250000D03*
%TD*%
D11*
%TO.C,R15*%
X63825000Y-12412500D03*
X63825000Y-10587500D03*
%TD*%
D17*
%TO.C,C2*%
X27405000Y-2230000D03*
X27405000Y-330000D03*
%TD*%
D19*
%TO.C,D2*%
X1750000Y7650000D03*
X1750000Y3350000D03*
%TD*%
D12*
%TO.C,R10*%
X42975000Y-8237500D03*
X42975000Y-12862500D03*
%TD*%
%TO.C,R6*%
X42975000Y5512500D03*
X42975000Y887500D03*
%TD*%
D11*
%TO.C,R1*%
X32865000Y5907500D03*
X32865000Y7732500D03*
%TD*%
D20*
%TO.C,U2*%
X29625000Y-1795000D03*
X30895000Y-1795000D03*
X32165000Y-1795000D03*
X33435000Y-1795000D03*
X34705000Y-1795000D03*
X35975000Y-1795000D03*
X37245000Y-1795000D03*
X37245000Y3155000D03*
X35975000Y3155000D03*
X34705000Y3155000D03*
X33435000Y3155000D03*
X32165000Y3155000D03*
X30895000Y3155000D03*
X29625000Y3155000D03*
%TD*%
D12*
%TO.C,R8*%
X42975000Y-1595834D03*
X42975000Y-6220834D03*
%TD*%
M02*
