%TF.GenerationSoftware,KiCad,Pcbnew,7.0.5-7.0.5~ubuntu20.04.1*%
%TF.CreationDate,2023-07-13T22:08:42+02:00*%
%TF.ProjectId,ModuleV450,4d6f6475-6c65-4563-9435-302e6b696361,rev?*%
%TF.SameCoordinates,Original*%
%TF.FileFunction,Copper,L2,Bot*%
%TF.FilePolarity,Positive*%
%FSLAX46Y46*%
G04 Gerber Fmt 4.6, Leading zero omitted, Abs format (unit mm)*
G04 Created by KiCad (PCBNEW 7.0.5-7.0.5~ubuntu20.04.1) date 2023-07-13 22:08:42*
%MOMM*%
%LPD*%
G01*
G04 APERTURE LIST*
%TA.AperFunction,ComponentPad*%
%ADD10R,3.000000X3.000000*%
%TD*%
%TA.AperFunction,ComponentPad*%
%ADD11O,1.700000X1.700000*%
%TD*%
%TA.AperFunction,ComponentPad*%
%ADD12R,1.700000X1.700000*%
%TD*%
%TA.AperFunction,ViaPad*%
%ADD13C,0.800000*%
%TD*%
%TA.AperFunction,ViaPad*%
%ADD14C,0.600000*%
%TD*%
%TA.AperFunction,Conductor*%
%ADD15C,0.250000*%
%TD*%
%TA.AperFunction,Conductor*%
%ADD16C,0.300000*%
%TD*%
%TA.AperFunction,Conductor*%
%ADD17C,0.150000*%
%TD*%
G04 APERTURE END LIST*
D10*
%TO.P,VCC,1*%
%TO.N,VCC*%
X55880000Y5537200D03*
%TD*%
%TO.P,DUMP,1*%
%TO.N,Net-(Q1-D)*%
X56083200Y-12750800D03*
%TD*%
D11*
%TO.P,EXTTEMP1,2,Pin_2*%
%TO.N,ENABLE*%
X42545000Y10160000D03*
D12*
%TO.P,EXTTEMP1,1,Pin_1*%
%TO.N,PA3*%
X42545000Y12700000D03*
%TD*%
%TO.P,UPDI1,1,Pin_1*%
%TO.N,VCC*%
X30625000Y-11600000D03*
D11*
%TO.P,UPDI1,2,Pin_2*%
%TO.N,RESET*%
X33165000Y-11600000D03*
%TO.P,UPDI1,3,Pin_3*%
%TO.N,GND*%
X35705000Y-11600000D03*
%TD*%
D12*
%TO.P,RX1,1,Pin_1*%
%TO.N,RXD0*%
X14097000Y-1270000D03*
D11*
%TO.P,RX1,2,Pin_2*%
%TO.N,VCC*%
X11557000Y-1270000D03*
%TD*%
D12*
%TO.P,TX1,1,Pin_1*%
%TO.N,Net-(TX1-Pin_1)*%
X11557000Y4572000D03*
D11*
%TO.P,TX1,2,Pin_2*%
%TO.N,Net-(TX1-Pin_2)*%
X14097000Y4572000D03*
%TD*%
D13*
%TO.N,GND*%
X18750000Y-10500000D03*
X39825000Y7200000D03*
X8500000Y3250000D03*
X53925000Y10275000D03*
X53925000Y9250000D03*
X53925000Y11300000D03*
X58650000Y-7800000D03*
X58650000Y-6700000D03*
X58650000Y-5600000D03*
X58650000Y-2250000D03*
X58650000Y-4450000D03*
X58650000Y-3350000D03*
X66150000Y-855000D03*
X66150000Y125000D03*
X66150000Y-1835000D03*
X17000000Y-10500000D03*
X27960000Y-11455000D03*
X27960000Y-10280000D03*
X36325000Y-3760000D03*
X38825000Y7700000D03*
X22685000Y1020000D03*
X27675000Y10950000D03*
X30285000Y12720000D03*
X64180000Y-8310000D03*
X64180000Y-7210000D03*
X64180000Y-6060000D03*
X42025000Y-10400000D03*
X43175000Y-10400000D03*
X44325000Y-10400000D03*
X45475000Y-10400000D03*
X46625000Y-10400000D03*
X47775000Y-10400000D03*
X48925000Y-10400000D03*
X50075000Y-10400000D03*
X51225000Y-10400000D03*
X52375000Y-10400000D03*
X53525000Y-10400000D03*
X44425000Y3300000D03*
X42125000Y3300000D03*
X43275000Y3300000D03*
X50175000Y3300000D03*
X49025000Y3300000D03*
X53625000Y3300000D03*
X52375000Y-3900000D03*
X51225000Y-3900000D03*
X53525000Y-3900000D03*
X41925000Y-3900000D03*
X44225000Y-3900000D03*
X43075000Y-3900000D03*
X49625000Y7600000D03*
X36755000Y12770000D03*
X35565000Y12740000D03*
X28025000Y5000000D03*
X52825000Y10275000D03*
X52825000Y9250000D03*
X52825000Y11300000D03*
X25025000Y4800000D03*
X18669000Y11684000D03*
D14*
X88165000Y10290000D03*
D13*
X38325000Y-13200000D03*
D14*
X103165000Y-5210000D03*
D13*
X33925000Y9300000D03*
D14*
X88165000Y-5210000D03*
D13*
X38325000Y-12100000D03*
X24615000Y-6360000D03*
X15250000Y-10500000D03*
D14*
X98165000Y10290000D03*
X98165000Y-5210000D03*
D13*
X38325000Y4800000D03*
X15113000Y11684000D03*
D14*
X93165000Y10290000D03*
X93165000Y-5210000D03*
D13*
X16891000Y11684000D03*
D14*
X103165000Y10290000D03*
D13*
X31025000Y-8800000D03*
%TO.N,VCC*%
X29025000Y-200000D03*
D14*
X20193000Y-5334000D03*
D13*
X31625000Y5300000D03*
%TO.N,ENABLE*%
X48225000Y-3900000D03*
%TO.N,TXD0*%
X29825000Y1000000D03*
X24225000Y-2900008D03*
D14*
%TO.N,unconnected-(F1-Pad2)*%
X-30025000Y10290000D03*
X-20025000Y10290000D03*
X-30025000Y-5210000D03*
X-25025000Y10290000D03*
X-20025000Y-5210000D03*
X-25025000Y-5210000D03*
X-35025000Y-5210000D03*
X-35025000Y10290000D03*
D13*
%TO.N,VREF*%
X32165000Y-1795000D03*
X32325000Y-5900002D03*
%TO.N,PA6*%
X33025000Y-4900000D03*
X33435000Y-1795000D03*
%TO.N,RESET*%
X34225000Y1400000D03*
%TO.N,PA7*%
X45825000Y-3487486D03*
X35025000Y-200002D03*
X34825000Y-4572000D03*
%TO.N,REF_EN*%
X30735000Y-7512500D03*
X33020000Y1371600D03*
%TO.N,Net-(Q1-G)*%
X63535000Y-13600000D03*
X37225000Y9702800D03*
%TD*%
D15*
%TO.N,ENABLE*%
X42725000Y8400000D02*
X42725000Y9980000D01*
X42725000Y9980000D02*
X42405000Y10300000D01*
%TO.N,VCC*%
X29025000Y-710000D02*
X29025000Y-200000D01*
X31625000Y1234317D02*
X31625000Y5300000D01*
X29025002Y-199998D02*
X29625000Y-199998D01*
X24435000Y-5300000D02*
X29025000Y-710000D01*
X30190685Y-199998D02*
X31625000Y1234317D01*
X29625000Y-199998D02*
X30190685Y-199998D01*
X20255000Y-5300000D02*
X20227000Y-5300000D01*
X30625000Y-11600000D02*
X29235000Y-11600000D01*
X29025000Y-200000D02*
X29025002Y-199998D01*
X29044989Y-199998D02*
X29625000Y-199998D01*
X29235000Y-11600000D02*
X29044989Y-11409989D01*
X20255000Y-5300000D02*
X24435000Y-5300000D01*
X29044989Y-11409989D02*
X29044989Y-199998D01*
D16*
%TO.N,ENABLE*%
X42725000Y8400000D02*
X48225000Y2900000D01*
X48225000Y2900000D02*
X48225000Y-3900000D01*
D15*
%TO.N,TXD0*%
X24225000Y-2900008D02*
X28125008Y1000000D01*
X28125008Y1000000D02*
X29825000Y1000000D01*
%TO.N,VREF*%
X32165000Y-5740002D02*
X32325000Y-5900002D01*
X32165000Y-1795000D02*
X32165000Y-5740002D01*
D16*
%TO.N,PA6*%
X33435000Y-1795000D02*
X33435000Y-4490000D01*
X33435000Y-4490000D02*
X33025000Y-4900000D01*
D15*
%TO.N,RESET*%
X34125000Y1300000D02*
X34225000Y1400000D01*
X33165000Y-11600000D02*
X34125000Y-10640000D01*
D17*
X34125000Y-10640000D02*
X34125000Y1300000D01*
D16*
%TO.N,PA7*%
X45425001Y-3087487D02*
X45425001Y3360989D01*
X39861001Y8924989D02*
X35549989Y8924989D01*
X45425001Y3360989D02*
X39861001Y8924989D01*
X45825000Y-3487486D02*
X45425001Y-3087487D01*
D15*
X35025000Y-200002D02*
X35025000Y-4075010D01*
X35025000Y8400000D02*
X35025000Y-200002D01*
X35025000Y-4075010D02*
X34825000Y-4275010D01*
D16*
X35549989Y8924989D02*
X35025000Y8400000D01*
D15*
%TO.N,REF_EN*%
X30735000Y-7512500D02*
X30735000Y-990000D01*
X30735000Y-990000D02*
X33025000Y1300000D01*
D16*
%TO.N,Net-(Q1-G)*%
X47224998Y-4136002D02*
X47224998Y2268098D01*
X47224998Y2268098D02*
X39868097Y9624999D01*
X58775600Y-11074400D02*
X54914800Y-7213600D01*
X54914800Y-7213600D02*
X50302596Y-7213600D01*
X50302596Y-7213600D02*
X47224998Y-4136002D01*
X39868097Y9624999D02*
X37225000Y9624999D01*
X58775600Y-12903200D02*
X58775600Y-11074400D01*
X59472400Y-13600000D02*
X58775600Y-12903200D01*
X63535000Y-13600000D02*
X59472400Y-13600000D01*
%TD*%
%TA.AperFunction,Conductor*%
%TO.N,GND*%
G36*
X109798039Y13950315D02*
G01*
X109843794Y13897511D01*
X109855000Y13846000D01*
X109855000Y-8766000D01*
X109835315Y-8833039D01*
X109782511Y-8878794D01*
X109731000Y-8890000D01*
X87119000Y-8890000D01*
X87051961Y-8870315D01*
X87006206Y-8817511D01*
X86995000Y-8766000D01*
X86995000Y2540000D01*
X93903583Y2540000D01*
X93922871Y2122816D01*
X93922871Y2122810D01*
X93922872Y2122807D01*
X93980568Y1709195D01*
X93980570Y1709187D01*
X94076184Y1302659D01*
X94208908Y906665D01*
X94208909Y906661D01*
X94377584Y524650D01*
X94377589Y524640D01*
X94377593Y524631D01*
X94377597Y524623D01*
X94377598Y524622D01*
X94580809Y159789D01*
X94580813Y159782D01*
X94580814Y159781D01*
X94816831Y-184762D01*
X94816833Y-184764D01*
X94816840Y-184774D01*
X95082416Y-504593D01*
X95083633Y-506059D01*
X95378941Y-801367D01*
X95425376Y-839926D01*
X95700225Y-1068159D01*
X95700231Y-1068163D01*
X95700238Y-1068169D01*
X96044781Y-1304186D01*
X96409631Y-1507407D01*
X96409648Y-1507414D01*
X96409649Y-1507415D01*
X96791660Y-1676090D01*
X96791664Y-1676091D01*
X96791666Y-1676091D01*
X96791676Y-1676096D01*
X97187656Y-1808815D01*
X97594192Y-1904431D01*
X98007816Y-1962129D01*
X98425000Y-1981417D01*
X98842184Y-1962129D01*
X99255808Y-1904431D01*
X99662344Y-1808815D01*
X100058324Y-1676096D01*
X100058335Y-1676090D01*
X100058339Y-1676090D01*
X100293458Y-1572274D01*
X100440369Y-1507407D01*
X100805219Y-1304186D01*
X101149762Y-1068169D01*
X101471059Y-801367D01*
X101766367Y-506059D01*
X102033169Y-184762D01*
X102269186Y159781D01*
X102472407Y524631D01*
X102586136Y782203D01*
X102641090Y906661D01*
X102641091Y906665D01*
X102641096Y906676D01*
X102773815Y1302656D01*
X102869431Y1709192D01*
X102927129Y2122816D01*
X102946417Y2540000D01*
X102927129Y2957184D01*
X102869431Y3370808D01*
X102773815Y3777344D01*
X102641096Y4173324D01*
X102641091Y4173336D01*
X102641090Y4173340D01*
X102472415Y4555351D01*
X102472414Y4555352D01*
X102472407Y4555369D01*
X102269186Y4920219D01*
X102033169Y5264762D01*
X102033163Y5264769D01*
X102033159Y5264775D01*
X101766376Y5586048D01*
X101766367Y5586059D01*
X101471059Y5881367D01*
X101468457Y5883528D01*
X101149774Y6148160D01*
X101149764Y6148167D01*
X101149762Y6148169D01*
X100805219Y6384186D01*
X100805218Y6384187D01*
X100805211Y6384191D01*
X100440378Y6587402D01*
X100440377Y6587403D01*
X100440369Y6587407D01*
X100440360Y6587411D01*
X100440350Y6587416D01*
X100058339Y6756091D01*
X100058335Y6756092D01*
X100058326Y6756095D01*
X100058324Y6756096D01*
X99662344Y6888815D01*
X99662343Y6888816D01*
X99662341Y6888816D01*
X99255813Y6984430D01*
X99255805Y6984432D01*
X98842193Y7042128D01*
X98842190Y7042129D01*
X98842184Y7042129D01*
X98425000Y7061417D01*
X98007816Y7042129D01*
X98007810Y7042129D01*
X98007806Y7042128D01*
X97594194Y6984432D01*
X97594186Y6984430D01*
X97187658Y6888816D01*
X96791664Y6756092D01*
X96791660Y6756091D01*
X96409649Y6587416D01*
X96409621Y6587402D01*
X96044788Y6384191D01*
X96044781Y6384187D01*
X95700235Y6148167D01*
X95700225Y6148160D01*
X95378952Y5881377D01*
X95378932Y5881359D01*
X95083641Y5586068D01*
X95083623Y5586048D01*
X94816840Y5264775D01*
X94816833Y5264765D01*
X94580813Y4920219D01*
X94580809Y4920212D01*
X94377598Y4555379D01*
X94377584Y4555351D01*
X94208909Y4173340D01*
X94208908Y4173336D01*
X94076184Y3777342D01*
X93980570Y3370814D01*
X93980568Y3370806D01*
X93922872Y2957194D01*
X93922871Y2957184D01*
X93903583Y2540000D01*
X86995000Y2540000D01*
X86995000Y13846000D01*
X87014685Y13913039D01*
X87067489Y13958794D01*
X87119000Y13970000D01*
X109731000Y13970000D01*
X109798039Y13950315D01*
G37*
%TD.AperFunction*%
%TD*%
%TA.AperFunction,Conductor*%
%TO.N,unconnected-(F1-Pad2)*%
G36*
X-13391961Y13950315D02*
G01*
X-13346206Y13897511D01*
X-13335000Y13846000D01*
X-13335000Y-8766000D01*
X-13354685Y-8833039D01*
X-13407489Y-8878794D01*
X-13459000Y-8890000D01*
X-36071000Y-8890000D01*
X-36138039Y-8870315D01*
X-36183794Y-8817511D01*
X-36195000Y-8766000D01*
X-36195000Y2540000D01*
X-29286417Y2540000D01*
X-29267129Y2122816D01*
X-29267129Y2122810D01*
X-29267128Y2122807D01*
X-29209432Y1709195D01*
X-29209430Y1709187D01*
X-29113816Y1302659D01*
X-28981092Y906665D01*
X-28981091Y906661D01*
X-28812416Y524650D01*
X-28812411Y524640D01*
X-28812407Y524631D01*
X-28812403Y524623D01*
X-28812402Y524622D01*
X-28609191Y159789D01*
X-28609187Y159782D01*
X-28609186Y159781D01*
X-28373169Y-184762D01*
X-28373167Y-184764D01*
X-28373160Y-184774D01*
X-28107584Y-504593D01*
X-28106367Y-506059D01*
X-27811059Y-801367D01*
X-27764624Y-839926D01*
X-27489775Y-1068159D01*
X-27489769Y-1068163D01*
X-27489762Y-1068169D01*
X-27145219Y-1304186D01*
X-26780369Y-1507407D01*
X-26780352Y-1507414D01*
X-26780351Y-1507415D01*
X-26398340Y-1676090D01*
X-26398336Y-1676091D01*
X-26398334Y-1676091D01*
X-26398324Y-1676096D01*
X-26002344Y-1808815D01*
X-25595808Y-1904431D01*
X-25182184Y-1962129D01*
X-24765000Y-1981417D01*
X-24347816Y-1962129D01*
X-23934192Y-1904431D01*
X-23527656Y-1808815D01*
X-23131676Y-1676096D01*
X-23131665Y-1676090D01*
X-23131661Y-1676090D01*
X-22896542Y-1572273D01*
X-22749631Y-1507407D01*
X-22384781Y-1304186D01*
X-22040238Y-1068169D01*
X-21718941Y-801367D01*
X-21423633Y-506059D01*
X-21156831Y-184762D01*
X-20920814Y159781D01*
X-20717593Y524631D01*
X-20603864Y782203D01*
X-20548910Y906661D01*
X-20548909Y906665D01*
X-20548904Y906676D01*
X-20416185Y1302656D01*
X-20320569Y1709192D01*
X-20262871Y2122816D01*
X-20243583Y2540000D01*
X-20262871Y2957184D01*
X-20320569Y3370808D01*
X-20416185Y3777344D01*
X-20548904Y4173324D01*
X-20548909Y4173336D01*
X-20548910Y4173340D01*
X-20717585Y4555351D01*
X-20717586Y4555352D01*
X-20717593Y4555369D01*
X-20920814Y4920219D01*
X-21156831Y5264762D01*
X-21156837Y5264769D01*
X-21156841Y5264775D01*
X-21423624Y5586048D01*
X-21423633Y5586059D01*
X-21718941Y5881367D01*
X-21721543Y5883528D01*
X-22040226Y6148160D01*
X-22040236Y6148167D01*
X-22040238Y6148169D01*
X-22384781Y6384186D01*
X-22384782Y6384187D01*
X-22384789Y6384191D01*
X-22749622Y6587402D01*
X-22749623Y6587403D01*
X-22749631Y6587407D01*
X-22749640Y6587411D01*
X-22749650Y6587416D01*
X-23131661Y6756091D01*
X-23131665Y6756092D01*
X-23131674Y6756095D01*
X-23131676Y6756096D01*
X-23527656Y6888815D01*
X-23527657Y6888816D01*
X-23527659Y6888816D01*
X-23934187Y6984430D01*
X-23934195Y6984432D01*
X-24347807Y7042128D01*
X-24347810Y7042129D01*
X-24347816Y7042129D01*
X-24765000Y7061417D01*
X-24765001Y7061417D01*
X-24798035Y7059890D01*
X-25182184Y7042129D01*
X-25182190Y7042129D01*
X-25182194Y7042128D01*
X-25595806Y6984432D01*
X-25595814Y6984430D01*
X-26002342Y6888816D01*
X-26398336Y6756092D01*
X-26398340Y6756091D01*
X-26780351Y6587416D01*
X-26780379Y6587402D01*
X-27145212Y6384191D01*
X-27145219Y6384187D01*
X-27489765Y6148167D01*
X-27489775Y6148160D01*
X-27811048Y5881377D01*
X-27811068Y5881359D01*
X-28106359Y5586068D01*
X-28106377Y5586048D01*
X-28373160Y5264775D01*
X-28373167Y5264765D01*
X-28609187Y4920219D01*
X-28609191Y4920212D01*
X-28812402Y4555379D01*
X-28812416Y4555351D01*
X-28981091Y4173340D01*
X-28981092Y4173336D01*
X-29113816Y3777342D01*
X-29209430Y3370814D01*
X-29209432Y3370806D01*
X-29267128Y2957194D01*
X-29267129Y2957184D01*
X-29286417Y2540000D01*
X-36195000Y2540000D01*
X-36195000Y13846000D01*
X-36175315Y13913039D01*
X-36122511Y13958794D01*
X-36071000Y13970000D01*
X-13459000Y13970000D01*
X-13391961Y13950315D01*
G37*
%TD.AperFunction*%
%TD*%
%TA.AperFunction,Conductor*%
%TO.N,GND*%
G36*
X37084999Y16522500D02*
G01*
X64447837Y16501570D01*
X64515943Y16481516D01*
X64536871Y16464631D01*
X65500000Y15500766D01*
X66463130Y14536898D01*
X66497131Y14474574D01*
X66500000Y14447838D01*
X66500000Y-11527810D01*
X66479998Y-11595931D01*
X66463095Y-11616905D01*
X64633129Y-13446870D01*
X64570817Y-13480896D01*
X64500001Y-13475831D01*
X64443166Y-13433284D01*
X64424201Y-13396712D01*
X64422275Y-13390785D01*
X64369527Y-13228444D01*
X64274040Y-13063056D01*
X64274038Y-13063054D01*
X64274034Y-13063048D01*
X64146255Y-12921135D01*
X63991752Y-12808882D01*
X63817288Y-12731206D01*
X63630487Y-12691500D01*
X63439513Y-12691500D01*
X63252711Y-12731206D01*
X63078247Y-12808882D01*
X62951614Y-12900887D01*
X62934197Y-12913542D01*
X62928837Y-12917436D01*
X62861969Y-12941294D01*
X62854776Y-12941500D01*
X59797350Y-12941500D01*
X59729229Y-12921498D01*
X59708255Y-12904595D01*
X59471005Y-12667345D01*
X59436979Y-12605033D01*
X59434100Y-12578250D01*
X59434100Y-11161014D01*
X59435892Y-11144779D01*
X59435643Y-11144756D01*
X59436387Y-11136870D01*
X59436389Y-11136863D01*
X59434131Y-11065022D01*
X59434100Y-11063043D01*
X59434100Y-11032971D01*
X59434100Y-11032968D01*
X59433169Y-11025609D01*
X59432706Y-11019722D01*
X59431162Y-10970569D01*
X59425179Y-10949976D01*
X59421171Y-10930618D01*
X59418482Y-10909339D01*
X59418482Y-10909336D01*
X59400377Y-10863608D01*
X59398463Y-10858019D01*
X59384745Y-10810800D01*
X59373824Y-10792335D01*
X59365131Y-10774589D01*
X59357235Y-10754644D01*
X59328336Y-10714870D01*
X59325082Y-10709917D01*
X59300053Y-10667593D01*
X59300052Y-10667591D01*
X59284888Y-10652427D01*
X59272047Y-10637393D01*
X59259441Y-10620043D01*
X59259436Y-10620038D01*
X59231700Y-10597094D01*
X59221550Y-10588697D01*
X59217177Y-10584717D01*
X55441675Y-6809214D01*
X55431464Y-6796469D01*
X55431271Y-6796630D01*
X55426217Y-6790521D01*
X55373820Y-6741317D01*
X55372430Y-6739970D01*
X55351133Y-6718673D01*
X55351131Y-6718671D01*
X55351125Y-6718666D01*
X55345282Y-6714134D01*
X55340767Y-6710278D01*
X55338139Y-6707810D01*
X55304933Y-6676628D01*
X55304930Y-6676626D01*
X55304925Y-6676623D01*
X55286138Y-6666294D01*
X55269618Y-6655443D01*
X55252667Y-6642295D01*
X55207539Y-6622766D01*
X55202221Y-6620161D01*
X55175035Y-6605216D01*
X55159138Y-6596476D01*
X55159135Y-6596475D01*
X55138368Y-6591143D01*
X55119665Y-6584740D01*
X55106090Y-6578866D01*
X55099976Y-6576220D01*
X55099974Y-6576219D01*
X55099975Y-6576219D01*
X55051419Y-6568529D01*
X55045604Y-6567325D01*
X54997988Y-6555100D01*
X54976541Y-6555100D01*
X54956832Y-6553549D01*
X54935648Y-6550194D01*
X54935647Y-6550194D01*
X54886706Y-6554820D01*
X54880773Y-6555100D01*
X50627546Y-6555100D01*
X50559425Y-6535098D01*
X50538451Y-6518195D01*
X48803225Y-4782969D01*
X48769199Y-4720657D01*
X48774264Y-4649842D01*
X48816811Y-4593006D01*
X48818202Y-4591980D01*
X48836253Y-4578866D01*
X48836255Y-4578864D01*
X48964034Y-4436951D01*
X48964035Y-4436949D01*
X48964040Y-4436944D01*
X49059527Y-4271556D01*
X49118542Y-4089928D01*
X49138504Y-3900000D01*
X49118542Y-3710072D01*
X49059527Y-3528444D01*
X48964040Y-3363056D01*
X48964038Y-3363054D01*
X48964034Y-3363048D01*
X48915864Y-3309550D01*
X48885146Y-3245543D01*
X48883500Y-3225240D01*
X48883500Y2813385D01*
X48885292Y2829620D01*
X48885043Y2829643D01*
X48885789Y2837536D01*
X48883531Y2909392D01*
X48883500Y2911371D01*
X48883500Y2941430D01*
X48883500Y2941432D01*
X48882570Y2948783D01*
X48882107Y2954669D01*
X48880563Y3003831D01*
X48874579Y3024427D01*
X48870569Y3043788D01*
X48867882Y3065064D01*
X48849780Y3110782D01*
X48847862Y3116386D01*
X48834145Y3163600D01*
X48823224Y3182065D01*
X48814531Y3199811D01*
X48806635Y3219756D01*
X48777736Y3259530D01*
X48774482Y3264483D01*
X48749453Y3306807D01*
X48749452Y3306809D01*
X48734288Y3321973D01*
X48721447Y3337007D01*
X48708841Y3354357D01*
X48708836Y3354362D01*
X48687718Y3371831D01*
X48670950Y3385703D01*
X48666577Y3389683D01*
X48067709Y3988551D01*
X53871500Y3988551D01*
X53878009Y3928004D01*
X53878011Y3927996D01*
X53929110Y3790998D01*
X53929112Y3790993D01*
X54016738Y3673939D01*
X54133792Y3586313D01*
X54133794Y3586312D01*
X54133796Y3586311D01*
X54192875Y3564276D01*
X54270795Y3535212D01*
X54270803Y3535210D01*
X54331350Y3528701D01*
X54331355Y3528701D01*
X54331362Y3528700D01*
X54331368Y3528700D01*
X57428632Y3528700D01*
X57428638Y3528700D01*
X57428645Y3528701D01*
X57428649Y3528701D01*
X57489196Y3535210D01*
X57489199Y3535211D01*
X57489201Y3535211D01*
X57626204Y3586311D01*
X57661595Y3612804D01*
X57743261Y3673939D01*
X57830887Y3790993D01*
X57830887Y3790994D01*
X57830889Y3790996D01*
X57881989Y3927999D01*
X57888500Y3988562D01*
X57888500Y7085838D01*
X57888499Y7085850D01*
X57881990Y7146397D01*
X57881988Y7146405D01*
X57830889Y7283403D01*
X57830887Y7283408D01*
X57743261Y7400462D01*
X57626207Y7488088D01*
X57626202Y7488090D01*
X57489204Y7539189D01*
X57489196Y7539191D01*
X57428649Y7545700D01*
X57428638Y7545700D01*
X54331362Y7545700D01*
X54331350Y7545700D01*
X54270803Y7539191D01*
X54270795Y7539189D01*
X54133797Y7488090D01*
X54133792Y7488088D01*
X54016738Y7400462D01*
X53929112Y7283408D01*
X53929110Y7283403D01*
X53878011Y7146405D01*
X53878009Y7146397D01*
X53871500Y7085850D01*
X53871500Y3988551D01*
X48067709Y3988551D01*
X43395405Y8660855D01*
X43361379Y8723167D01*
X43358500Y8749950D01*
X43358500Y9010082D01*
X43378502Y9078203D01*
X43407110Y9109514D01*
X43465918Y9155287D01*
X43468240Y9157094D01*
X43620722Y9322732D01*
X43743860Y9511209D01*
X43834296Y9717384D01*
X43889564Y9935632D01*
X43908156Y10160000D01*
X43889564Y10384368D01*
X43834296Y10602616D01*
X43743860Y10808791D01*
X43737140Y10819076D01*
X43620724Y10997266D01*
X43620719Y10997271D01*
X43477524Y11152821D01*
X43446103Y11216486D01*
X43454090Y11287032D01*
X43498948Y11342061D01*
X43526183Y11356211D01*
X43641204Y11399111D01*
X43758261Y11486739D01*
X43845889Y11603796D01*
X43896989Y11740799D01*
X43903500Y11801362D01*
X43903500Y13598638D01*
X43903499Y13598650D01*
X43896990Y13659197D01*
X43896988Y13659205D01*
X43845889Y13796203D01*
X43845887Y13796208D01*
X43758261Y13913262D01*
X43641207Y14000888D01*
X43641202Y14000890D01*
X43504204Y14051989D01*
X43504196Y14051991D01*
X43443649Y14058500D01*
X43443638Y14058500D01*
X41646362Y14058500D01*
X41646350Y14058500D01*
X41585803Y14051991D01*
X41585795Y14051989D01*
X41448797Y14000890D01*
X41448792Y14000888D01*
X41331738Y13913262D01*
X41244112Y13796208D01*
X41244110Y13796203D01*
X41193011Y13659205D01*
X41193009Y13659197D01*
X41186500Y13598650D01*
X41186500Y11801351D01*
X41193009Y11740804D01*
X41193011Y11740796D01*
X41244110Y11603798D01*
X41244112Y11603793D01*
X41331738Y11486739D01*
X41448791Y11399114D01*
X41448792Y11399114D01*
X41448796Y11399111D01*
X41563810Y11356213D01*
X41620642Y11313668D01*
X41645453Y11247148D01*
X41630362Y11177774D01*
X41612475Y11152821D01*
X41469280Y10997271D01*
X41469275Y10997266D01*
X41346141Y10808794D01*
X41255703Y10602614D01*
X41255702Y10602613D01*
X41200437Y10384376D01*
X41200436Y10384370D01*
X41200436Y10384368D01*
X41181844Y10160000D01*
X41192667Y10029384D01*
X41200437Y9935625D01*
X41255702Y9717388D01*
X41255703Y9717387D01*
X41255704Y9717384D01*
X41336084Y9534134D01*
X41346141Y9511207D01*
X41469275Y9322735D01*
X41469280Y9322730D01*
X41601708Y9178876D01*
X41608212Y9165697D01*
X41624081Y9155287D01*
X41680372Y9111474D01*
X41799424Y9018811D01*
X41997426Y8911658D01*
X42006406Y8908575D01*
X42064342Y8867543D01*
X42090898Y8801701D01*
X42091500Y8789401D01*
X42091500Y8637046D01*
X42071498Y8568925D01*
X42017842Y8522432D01*
X41947568Y8512328D01*
X41882988Y8541822D01*
X41876405Y8547950D01*
X41674405Y8749950D01*
X41457593Y8966763D01*
X41447878Y8984554D01*
X41444104Y8985540D01*
X41419912Y9004443D01*
X41101625Y9322730D01*
X40394972Y10029384D01*
X40384761Y10042130D01*
X40384568Y10041969D01*
X40379514Y10048078D01*
X40327117Y10097282D01*
X40325727Y10098629D01*
X40304430Y10119926D01*
X40304428Y10119928D01*
X40304422Y10119933D01*
X40298579Y10124465D01*
X40294064Y10128321D01*
X40291436Y10130789D01*
X40258230Y10161971D01*
X40258227Y10161973D01*
X40258222Y10161976D01*
X40239435Y10172305D01*
X40222915Y10183156D01*
X40205964Y10196304D01*
X40160836Y10215833D01*
X40155518Y10218438D01*
X40128332Y10233383D01*
X40112435Y10242123D01*
X40112432Y10242124D01*
X40091665Y10247456D01*
X40072962Y10253859D01*
X40062800Y10258256D01*
X40053273Y10262379D01*
X40053271Y10262380D01*
X40053272Y10262380D01*
X40004716Y10270070D01*
X39998901Y10271274D01*
X39951285Y10283499D01*
X39929838Y10283499D01*
X39910129Y10285050D01*
X39888945Y10288405D01*
X39888944Y10288405D01*
X39840003Y10283779D01*
X39834070Y10283499D01*
X37980742Y10283499D01*
X37912621Y10303501D01*
X37887106Y10325189D01*
X37836255Y10381665D01*
X37681752Y10493918D01*
X37507288Y10571594D01*
X37320487Y10611300D01*
X37129513Y10611300D01*
X36942711Y10571594D01*
X36768247Y10493918D01*
X36613744Y10381665D01*
X36485965Y10239752D01*
X36485958Y10239742D01*
X36390476Y10074362D01*
X36390473Y10074355D01*
X36331457Y9892728D01*
X36310815Y9696319D01*
X36283802Y9630662D01*
X36225581Y9590032D01*
X36185505Y9583489D01*
X35636603Y9583489D01*
X35620368Y9585282D01*
X35620345Y9585032D01*
X35612452Y9585779D01*
X35540599Y9583520D01*
X35538620Y9583489D01*
X35508557Y9583489D01*
X35508552Y9583489D01*
X35508543Y9583488D01*
X35501216Y9582563D01*
X35495302Y9582097D01*
X35446159Y9580553D01*
X35431346Y9576249D01*
X35425557Y9574568D01*
X35406204Y9570560D01*
X35384933Y9567873D01*
X35384927Y9567872D01*
X35384925Y9567871D01*
X35376173Y9564407D01*
X35339205Y9549771D01*
X35333590Y9547849D01*
X35286394Y9534136D01*
X35286388Y9534134D01*
X35267926Y9523216D01*
X35250180Y9514523D01*
X35230237Y9506627D01*
X35230234Y9506625D01*
X35190459Y9477727D01*
X35185497Y9474468D01*
X35143183Y9449443D01*
X35128011Y9434272D01*
X35112985Y9421439D01*
X35095633Y9408832D01*
X35095632Y9408831D01*
X35064293Y9370950D01*
X35060298Y9366560D01*
X34530071Y8836331D01*
X34530067Y8836326D01*
X34453695Y8737867D01*
X34453692Y8737862D01*
X34387619Y8585176D01*
X34361594Y8420849D01*
X34361593Y8420848D01*
X34377250Y8255212D01*
X34384051Y8236323D01*
X34391500Y8193643D01*
X34391500Y2434500D01*
X34371498Y2366379D01*
X34317842Y2319886D01*
X34265500Y2308500D01*
X34129513Y2308500D01*
X33942711Y2268794D01*
X33768248Y2191118D01*
X33677015Y2124834D01*
X33610147Y2100976D01*
X33540996Y2117057D01*
X33528894Y2124835D01*
X33476756Y2162716D01*
X33302288Y2240394D01*
X33115487Y2280100D01*
X32924513Y2280100D01*
X32737711Y2240394D01*
X32563246Y2162717D01*
X32563243Y2162716D01*
X32458560Y2086659D01*
X32391693Y2062800D01*
X32322541Y2078881D01*
X32273061Y2129795D01*
X32258500Y2188595D01*
X32258500Y4597476D01*
X32278502Y4665597D01*
X32290858Y4681780D01*
X32364040Y4763056D01*
X32459527Y4928444D01*
X32518542Y5110072D01*
X32538504Y5300000D01*
X32518542Y5489928D01*
X32459527Y5671556D01*
X32364040Y5836944D01*
X32364038Y5836946D01*
X32364034Y5836952D01*
X32236255Y5978865D01*
X32081752Y6091118D01*
X31907288Y6168794D01*
X31720487Y6208500D01*
X31529513Y6208500D01*
X31342711Y6168794D01*
X31168247Y6091118D01*
X31013744Y5978865D01*
X30885965Y5836952D01*
X30885958Y5836942D01*
X30790476Y5671562D01*
X30790473Y5671555D01*
X30731457Y5489928D01*
X30711496Y5300000D01*
X30731457Y5110073D01*
X30761526Y5017530D01*
X30790473Y4928444D01*
X30790476Y4928439D01*
X30885958Y4763059D01*
X30885965Y4763049D01*
X30959135Y4681786D01*
X30989853Y4617779D01*
X30991499Y4597476D01*
X30991500Y1548912D01*
X30971498Y1480791D01*
X30954599Y1459822D01*
X30877430Y1382652D01*
X30851334Y1356556D01*
X30789022Y1322531D01*
X30718206Y1327597D01*
X30661370Y1370144D01*
X30653125Y1382644D01*
X30564040Y1536944D01*
X30564038Y1536946D01*
X30564034Y1536952D01*
X30436255Y1678865D01*
X30281752Y1791118D01*
X30107288Y1868794D01*
X29920487Y1908500D01*
X29729513Y1908500D01*
X29542711Y1868794D01*
X29368247Y1791118D01*
X29213747Y1678867D01*
X29210437Y1675190D01*
X29149991Y1637950D01*
X29116800Y1633500D01*
X28208861Y1633500D01*
X28193019Y1635250D01*
X28192992Y1634956D01*
X28185099Y1635702D01*
X28116032Y1633531D01*
X28114053Y1633500D01*
X28085152Y1633500D01*
X28085148Y1633500D01*
X28085138Y1633499D01*
X28078187Y1632621D01*
X28072275Y1632156D01*
X28025120Y1630674D01*
X28025118Y1630673D01*
X28005663Y1625022D01*
X27986310Y1621014D01*
X27966218Y1618476D01*
X27966210Y1618474D01*
X27922344Y1601107D01*
X27916729Y1599184D01*
X27871415Y1586018D01*
X27871410Y1586016D01*
X27853971Y1575703D01*
X27836226Y1567010D01*
X27817388Y1559551D01*
X27802746Y1548912D01*
X27779220Y1531820D01*
X27774269Y1528567D01*
X27733648Y1504545D01*
X27719315Y1490213D01*
X27704289Y1477380D01*
X27687903Y1465474D01*
X27687902Y1465474D01*
X27657826Y1429120D01*
X27653830Y1424729D01*
X25962009Y-267094D01*
X24274500Y-1954603D01*
X24212188Y-1988628D01*
X24185405Y-1991508D01*
X24129513Y-1991508D01*
X23942711Y-2031214D01*
X23768247Y-2108890D01*
X23613744Y-2221143D01*
X23485965Y-2363056D01*
X23485958Y-2363066D01*
X23390476Y-2528446D01*
X23390473Y-2528453D01*
X23331457Y-2710080D01*
X23311496Y-2900007D01*
X23331457Y-3089935D01*
X23348432Y-3142177D01*
X23390473Y-3271564D01*
X23390476Y-3271569D01*
X23485958Y-3436949D01*
X23485965Y-3436959D01*
X23613744Y-3578872D01*
X23613747Y-3578874D01*
X23768248Y-3691126D01*
X23942712Y-3768802D01*
X24129513Y-3808508D01*
X24320487Y-3808508D01*
X24507288Y-3768802D01*
X24681752Y-3691126D01*
X24836253Y-3578874D01*
X24866215Y-3545598D01*
X24964034Y-3436959D01*
X24964035Y-3436957D01*
X24964040Y-3436952D01*
X25059527Y-3271564D01*
X25118542Y-3089936D01*
X25135907Y-2924711D01*
X25162920Y-2859056D01*
X25172113Y-2848797D01*
X27897068Y-123842D01*
X27959378Y-89818D01*
X28030193Y-94883D01*
X28087029Y-137430D01*
X28111471Y-199768D01*
X28131457Y-389927D01*
X28185512Y-556287D01*
X28187540Y-627255D01*
X28154774Y-684319D01*
X24209500Y-4629595D01*
X24147188Y-4663620D01*
X24120405Y-4666500D01*
X20686626Y-4666500D01*
X20619590Y-4647187D01*
X20546017Y-4600958D01*
X20546015Y-4600957D01*
X20374050Y-4540784D01*
X20374049Y-4540783D01*
X20374047Y-4540783D01*
X20193000Y-4520384D01*
X20011953Y-4540783D01*
X20011950Y-4540783D01*
X20011949Y-4540784D01*
X19839984Y-4600957D01*
X19839981Y-4600958D01*
X19685720Y-4697887D01*
X19685718Y-4697888D01*
X19556888Y-4826718D01*
X19556887Y-4826720D01*
X19459958Y-4980981D01*
X19459957Y-4980984D01*
X19459957Y-4980985D01*
X19399783Y-5152953D01*
X19379384Y-5334000D01*
X19399783Y-5515047D01*
X19399783Y-5515049D01*
X19399784Y-5515050D01*
X19459957Y-5687015D01*
X19459958Y-5687018D01*
X19556887Y-5841279D01*
X19556888Y-5841281D01*
X19685718Y-5970111D01*
X19685720Y-5970112D01*
X19839981Y-6067041D01*
X19839982Y-6067041D01*
X19839985Y-6067043D01*
X20011953Y-6127217D01*
X20193000Y-6147616D01*
X20374047Y-6127217D01*
X20546015Y-6067043D01*
X20700281Y-5970111D01*
X20700283Y-5970108D01*
X20705809Y-5965703D01*
X20706655Y-5966764D01*
X20762300Y-5936379D01*
X20789083Y-5933500D01*
X24351147Y-5933500D01*
X24366988Y-5935249D01*
X24367016Y-5934956D01*
X24374901Y-5935700D01*
X24374909Y-5935702D01*
X24436208Y-5933775D01*
X24443976Y-5933531D01*
X24445955Y-5933500D01*
X24474851Y-5933500D01*
X24474856Y-5933500D01*
X24481818Y-5932619D01*
X24487719Y-5932154D01*
X24534889Y-5930673D01*
X24554347Y-5925019D01*
X24573694Y-5921013D01*
X24593797Y-5918474D01*
X24637679Y-5901099D01*
X24643274Y-5899183D01*
X24671816Y-5890891D01*
X24688591Y-5886019D01*
X24688595Y-5886017D01*
X24706026Y-5875708D01*
X24723780Y-5867009D01*
X24742617Y-5859552D01*
X24780786Y-5831818D01*
X24785744Y-5828562D01*
X24826362Y-5804542D01*
X24840685Y-5790218D01*
X24855724Y-5777374D01*
X24872107Y-5765472D01*
X24902193Y-5729103D01*
X24906161Y-5724741D01*
X28196396Y-2434507D01*
X28258706Y-2400483D01*
X28329522Y-2405548D01*
X28386357Y-2448095D01*
X28411168Y-2514615D01*
X28411489Y-2523604D01*
X28411489Y-11326135D01*
X28409740Y-11341977D01*
X28410033Y-11342005D01*
X28409286Y-11349898D01*
X28411457Y-11418963D01*
X28411488Y-11420940D01*
X28411488Y-11449838D01*
X28411490Y-11449861D01*
X28412367Y-11456809D01*
X28412833Y-11462721D01*
X28414315Y-11509877D01*
X28414316Y-11509882D01*
X28419966Y-11529328D01*
X28423975Y-11548686D01*
X28426514Y-11568782D01*
X28426515Y-11568788D01*
X28443882Y-11612651D01*
X28445805Y-11618268D01*
X28458971Y-11663582D01*
X28469283Y-11681020D01*
X28477977Y-11698768D01*
X28485433Y-11717598D01*
X28485439Y-11717609D01*
X28513166Y-11755772D01*
X28516426Y-11760735D01*
X28540449Y-11801354D01*
X28554768Y-11815673D01*
X28567606Y-11830703D01*
X28577145Y-11843832D01*
X28579517Y-11847096D01*
X28607783Y-11870480D01*
X28615875Y-11877174D01*
X28620256Y-11881160D01*
X28689096Y-11950000D01*
X28727753Y-11988657D01*
X28737720Y-12001097D01*
X28737947Y-12000910D01*
X28742999Y-12007017D01*
X28743000Y-12007018D01*
X28780730Y-12042449D01*
X28793388Y-12054335D01*
X28794777Y-12055681D01*
X28815221Y-12076125D01*
X28815231Y-12076135D01*
X28820762Y-12080425D01*
X28825279Y-12084282D01*
X28859679Y-12116586D01*
X28859681Y-12116587D01*
X28859682Y-12116588D01*
X28877429Y-12126344D01*
X28893949Y-12137196D01*
X28909959Y-12149614D01*
X28953270Y-12168355D01*
X28958591Y-12170962D01*
X28999940Y-12193695D01*
X28999948Y-12193697D01*
X29019558Y-12198732D01*
X29038267Y-12205137D01*
X29056855Y-12213181D01*
X29103477Y-12220564D01*
X29109262Y-12221763D01*
X29131031Y-12227353D01*
X29154960Y-12233498D01*
X29154964Y-12233498D01*
X29154970Y-12233500D01*
X29154976Y-12233500D01*
X29156282Y-12233665D01*
X29157244Y-12234084D01*
X29162651Y-12235473D01*
X29162427Y-12236344D01*
X29221361Y-12262042D01*
X29260767Y-12321099D01*
X29266500Y-12358673D01*
X29266500Y-12498649D01*
X29273009Y-12559196D01*
X29273011Y-12559204D01*
X29324110Y-12696202D01*
X29324112Y-12696207D01*
X29411738Y-12813261D01*
X29528792Y-12900887D01*
X29528794Y-12900888D01*
X29528796Y-12900889D01*
X29573160Y-12917436D01*
X29665795Y-12951988D01*
X29665803Y-12951990D01*
X29726350Y-12958499D01*
X29726355Y-12958499D01*
X29726362Y-12958500D01*
X29726368Y-12958500D01*
X31523632Y-12958500D01*
X31523638Y-12958500D01*
X31523645Y-12958499D01*
X31523649Y-12958499D01*
X31584196Y-12951990D01*
X31584199Y-12951989D01*
X31584201Y-12951989D01*
X31721204Y-12900889D01*
X31791399Y-12848342D01*
X31838261Y-12813261D01*
X31925886Y-12696208D01*
X31925885Y-12696208D01*
X31925889Y-12696204D01*
X31969999Y-12577939D01*
X32012545Y-12521107D01*
X32079066Y-12496296D01*
X32148440Y-12511388D01*
X32180753Y-12536635D01*
X32241418Y-12602534D01*
X32241762Y-12602908D01*
X32277135Y-12630440D01*
X32419424Y-12741189D01*
X32617426Y-12848342D01*
X32617427Y-12848342D01*
X32617428Y-12848343D01*
X32729227Y-12886723D01*
X32830365Y-12921444D01*
X33052431Y-12958500D01*
X33052435Y-12958500D01*
X33277565Y-12958500D01*
X33277569Y-12958500D01*
X33499635Y-12921444D01*
X33712574Y-12848342D01*
X33910576Y-12741189D01*
X34088240Y-12602906D01*
X34240722Y-12437268D01*
X34329816Y-12300898D01*
X34383819Y-12254810D01*
X34454167Y-12245235D01*
X34518524Y-12275212D01*
X34540782Y-12300898D01*
X34629674Y-12436958D01*
X34782097Y-12602534D01*
X34959698Y-12740767D01*
X34959699Y-12740768D01*
X35157628Y-12847882D01*
X35157630Y-12847883D01*
X35354999Y-12915638D01*
X35355000Y-12915638D01*
X35355000Y-11958318D01*
X35431900Y-12024952D01*
X35562685Y-12084680D01*
X35669237Y-12100000D01*
X35740763Y-12100000D01*
X35847315Y-12084680D01*
X35978100Y-12024952D01*
X36055000Y-11958318D01*
X36055000Y-12915638D01*
X36252369Y-12847883D01*
X36252371Y-12847882D01*
X36450300Y-12740768D01*
X36450301Y-12740767D01*
X36627902Y-12602534D01*
X36780325Y-12436958D01*
X36903419Y-12248548D01*
X36993820Y-12042456D01*
X36993823Y-12042449D01*
X37017234Y-11950000D01*
X36064600Y-11950000D01*
X36086761Y-11930798D01*
X36164493Y-11809844D01*
X36205000Y-11671889D01*
X36205000Y-11528111D01*
X36164493Y-11390156D01*
X36086761Y-11269202D01*
X36064600Y-11250000D01*
X37017234Y-11250000D01*
X37017234Y-11249999D01*
X36993823Y-11157550D01*
X36993820Y-11157543D01*
X36903419Y-10951451D01*
X36780325Y-10763041D01*
X36627902Y-10597465D01*
X36450301Y-10459232D01*
X36450300Y-10459231D01*
X36252371Y-10352117D01*
X36252369Y-10352116D01*
X36055000Y-10284360D01*
X36055000Y-11241681D01*
X35978100Y-11175048D01*
X35847315Y-11115320D01*
X35740763Y-11100000D01*
X35669237Y-11100000D01*
X35562685Y-11115320D01*
X35431900Y-11175048D01*
X35355000Y-11241681D01*
X35355000Y-10284360D01*
X35157630Y-10352116D01*
X35157628Y-10352117D01*
X34959699Y-10459231D01*
X34959699Y-10459232D01*
X34919889Y-10490217D01*
X34853846Y-10516272D01*
X34784201Y-10502486D01*
X34733065Y-10453235D01*
X34723949Y-10433469D01*
X34715947Y-10411241D01*
X34708500Y-10368565D01*
X34708500Y-5606500D01*
X34728502Y-5538379D01*
X34782158Y-5491886D01*
X34834500Y-5480500D01*
X34920487Y-5480500D01*
X35107288Y-5440794D01*
X35281752Y-5363118D01*
X35436253Y-5250866D01*
X35564040Y-5108944D01*
X35659527Y-4943556D01*
X35718542Y-4761928D01*
X35738504Y-4572000D01*
X35718542Y-4382072D01*
X35663359Y-4212240D01*
X35658705Y-4162968D01*
X35658500Y-4162968D01*
X35658500Y-4160802D01*
X35658188Y-4157500D01*
X35658498Y-4155047D01*
X35658500Y-4155040D01*
X35658500Y-4134784D01*
X35660051Y-4115073D01*
X35663220Y-4095067D01*
X35660629Y-4067661D01*
X35658780Y-4048090D01*
X35658500Y-4042158D01*
X35658500Y-902526D01*
X35678502Y-834405D01*
X35690858Y-818222D01*
X35764040Y-736946D01*
X35859527Y-571558D01*
X35918542Y-389930D01*
X35938504Y-200002D01*
X35918542Y-10074D01*
X35859527Y171554D01*
X35764040Y336942D01*
X35690862Y418216D01*
X35660146Y482221D01*
X35658500Y502512D01*
X35658500Y8050051D01*
X35678502Y8118171D01*
X35695405Y8139145D01*
X35785844Y8229584D01*
X35848156Y8263610D01*
X35874939Y8266489D01*
X39536051Y8266489D01*
X39604172Y8246487D01*
X39625146Y8229584D01*
X44729596Y3125135D01*
X44763622Y3062823D01*
X44766501Y3036040D01*
X44766501Y-3000876D01*
X44764709Y-3017107D01*
X44764959Y-3017131D01*
X44764212Y-3025023D01*
X44766470Y-3096845D01*
X44766501Y-3098824D01*
X44766501Y-3128917D01*
X44767428Y-3136263D01*
X44767894Y-3142177D01*
X44769438Y-3191316D01*
X44769439Y-3191319D01*
X44775422Y-3211916D01*
X44779429Y-3231267D01*
X44782118Y-3252547D01*
X44782118Y-3252549D01*
X44800217Y-3298265D01*
X44802140Y-3303881D01*
X44815854Y-3351084D01*
X44815854Y-3351085D01*
X44826772Y-3369545D01*
X44835469Y-3387298D01*
X44843365Y-3407242D01*
X44843369Y-3407247D01*
X44872261Y-3447013D01*
X44875523Y-3451978D01*
X44900748Y-3494633D01*
X44917603Y-3545598D01*
X44931458Y-3677414D01*
X44990473Y-3859042D01*
X44990476Y-3859047D01*
X45085958Y-4024427D01*
X45085965Y-4024437D01*
X45213744Y-4166350D01*
X45213747Y-4166352D01*
X45368248Y-4278604D01*
X45542712Y-4356280D01*
X45729513Y-4395986D01*
X45920487Y-4395986D01*
X46107288Y-4356280D01*
X46281752Y-4278604D01*
X46381901Y-4205840D01*
X46448769Y-4181983D01*
X46517920Y-4198063D01*
X46567400Y-4248977D01*
X46580968Y-4291984D01*
X46582114Y-4301060D01*
X46582115Y-4301064D01*
X46600214Y-4346780D01*
X46602137Y-4352396D01*
X46615851Y-4399599D01*
X46615851Y-4399600D01*
X46626769Y-4418060D01*
X46635466Y-4435813D01*
X46643362Y-4455757D01*
X46643365Y-4455762D01*
X46661350Y-4480515D01*
X46672263Y-4495534D01*
X46675519Y-4500492D01*
X46700545Y-4542809D01*
X46715712Y-4557976D01*
X46728550Y-4573007D01*
X46741156Y-4590358D01*
X46779037Y-4621696D01*
X46783418Y-4625682D01*
X48284951Y-6127215D01*
X49775721Y-7617985D01*
X49785934Y-7630731D01*
X49786127Y-7630572D01*
X49791179Y-7636679D01*
X49843574Y-7685881D01*
X49844963Y-7687227D01*
X49866263Y-7708527D01*
X49866271Y-7708533D01*
X49872113Y-7713065D01*
X49876629Y-7716922D01*
X49912463Y-7750572D01*
X49931265Y-7760908D01*
X49947771Y-7771751D01*
X49964728Y-7784904D01*
X50009850Y-7804429D01*
X50015176Y-7807039D01*
X50058255Y-7830723D01*
X50058259Y-7830724D01*
X50079028Y-7836056D01*
X50097730Y-7842459D01*
X50117420Y-7850980D01*
X50165991Y-7858672D01*
X50171785Y-7859871D01*
X50219408Y-7872100D01*
X50240855Y-7872100D01*
X50260563Y-7873650D01*
X50281748Y-7877006D01*
X50319476Y-7873439D01*
X50330690Y-7872380D01*
X50336623Y-7872100D01*
X54589850Y-7872100D01*
X54657971Y-7892102D01*
X54678945Y-7909005D01*
X57297145Y-10527205D01*
X57331171Y-10589517D01*
X57326106Y-10660332D01*
X57283559Y-10717168D01*
X57217039Y-10741979D01*
X57208050Y-10742300D01*
X54534550Y-10742300D01*
X54474003Y-10748809D01*
X54473995Y-10748811D01*
X54336997Y-10799910D01*
X54336992Y-10799912D01*
X54219938Y-10887538D01*
X54132312Y-11004592D01*
X54132310Y-11004597D01*
X54081211Y-11141595D01*
X54081209Y-11141603D01*
X54074700Y-11202150D01*
X54074700Y-13454000D01*
X54054698Y-13522121D01*
X54001042Y-13568614D01*
X53948700Y-13580000D01*
X40321769Y-13580000D01*
X40253648Y-13559998D01*
X40207155Y-13506342D01*
X40197051Y-13436068D01*
X40226545Y-13371488D01*
X40253629Y-13348014D01*
X40257892Y-13345274D01*
X40273670Y-13336658D01*
X40298373Y-13325377D01*
X40318896Y-13307592D01*
X40333269Y-13296832D01*
X40356128Y-13282143D01*
X40373911Y-13261619D01*
X40386622Y-13248909D01*
X40407143Y-13231128D01*
X40421832Y-13208269D01*
X40432597Y-13193891D01*
X40450377Y-13173373D01*
X40461659Y-13148668D01*
X40470270Y-13132899D01*
X40484953Y-13110053D01*
X40492603Y-13083997D01*
X40498882Y-13067160D01*
X40510165Y-13042457D01*
X40514030Y-13015567D01*
X40517848Y-12998017D01*
X40525500Y-12971961D01*
X40525500Y-12828039D01*
X40525500Y235799D01*
X40525500Y5920554D01*
X40527422Y5935706D01*
X40526634Y5935792D01*
X40527617Y5944746D01*
X40527619Y5944753D01*
X40525534Y6007284D01*
X40525500Y6009381D01*
X40525500Y6035796D01*
X40525500Y6035799D01*
X40524797Y6040684D01*
X40524193Y6047526D01*
X40522825Y6088595D01*
X40517604Y6104405D01*
X40512534Y6125975D01*
X40510165Y6142457D01*
X40493094Y6179834D01*
X40490586Y6186230D01*
X40477700Y6225260D01*
X40468232Y6238965D01*
X40457293Y6258228D01*
X40450377Y6273373D01*
X40450376Y6273374D01*
X40450376Y6273375D01*
X40423476Y6304418D01*
X40419256Y6309863D01*
X40404589Y6331095D01*
X40395901Y6343673D01*
X40395898Y6343676D01*
X40382959Y6354154D01*
X40367026Y6369565D01*
X40365655Y6371147D01*
X40356128Y6382143D01*
X40356127Y6382144D01*
X40321561Y6404358D01*
X40315971Y6408399D01*
X40284052Y6434247D01*
X40284044Y6434251D01*
X40268689Y6440654D01*
X40249064Y6450949D01*
X40235054Y6459953D01*
X40235051Y6459954D01*
X40195634Y6471528D01*
X40189132Y6473830D01*
X40151212Y6489643D01*
X40151213Y6489643D01*
X40134657Y6491463D01*
X40112935Y6495810D01*
X40101327Y6499218D01*
X40096961Y6500500D01*
X40096960Y6500500D01*
X40055885Y6500500D01*
X40049001Y6500877D01*
X40044103Y6501416D01*
X40018505Y6500562D01*
X40017703Y6500535D01*
X40015607Y6500500D01*
X39953038Y6500500D01*
X39944122Y6499218D01*
X39944009Y6500000D01*
X39928924Y6497576D01*
X39474868Y6482441D01*
X39417697Y6480535D01*
X39415600Y6480500D01*
X39353039Y6480500D01*
X39330321Y6473830D01*
X39313617Y6468926D01*
X39306906Y6467349D01*
X39266461Y6460151D01*
X39266459Y6460150D01*
X39251549Y6452732D01*
X39230920Y6444643D01*
X39214946Y6439953D01*
X39180383Y6417742D01*
X39174388Y6414338D01*
X39137606Y6396035D01*
X39137605Y6396033D01*
X39125391Y6384716D01*
X39107881Y6371147D01*
X39093873Y6362144D01*
X39093871Y6362143D01*
X39066968Y6331095D01*
X39062173Y6326138D01*
X39032038Y6298214D01*
X39023504Y6283909D01*
X39010528Y6265960D01*
X38999624Y6253376D01*
X38999622Y6253373D01*
X38999623Y6253373D01*
X38986784Y6225260D01*
X38982558Y6216007D01*
X38979354Y6209900D01*
X38958305Y6174616D01*
X38958304Y6174613D01*
X38954147Y6158488D01*
X38946751Y6137605D01*
X38939837Y6122465D01*
X38939835Y6122461D01*
X38938758Y6114967D01*
X38933988Y6081792D01*
X38932636Y6075037D01*
X38922380Y6035251D01*
X38922380Y6035245D01*
X38924464Y5972703D01*
X38924499Y5970605D01*
X38924500Y-12828039D01*
X38924499Y-12971958D01*
X38932150Y-12998016D01*
X38935968Y-13015570D01*
X38939835Y-13042457D01*
X38949242Y-13063056D01*
X38951115Y-13067156D01*
X38957397Y-13083999D01*
X38965048Y-13110056D01*
X38965049Y-13110059D01*
X38979727Y-13132899D01*
X38988338Y-13148668D01*
X38999619Y-13173366D01*
X38999624Y-13173374D01*
X39017402Y-13193891D01*
X39028173Y-13208279D01*
X39042857Y-13231128D01*
X39058845Y-13244982D01*
X39063379Y-13248911D01*
X39076088Y-13261620D01*
X39093872Y-13282143D01*
X39116716Y-13296824D01*
X39131106Y-13307595D01*
X39151627Y-13325377D01*
X39176332Y-13336659D01*
X39192106Y-13345274D01*
X39196001Y-13347777D01*
X39196363Y-13348010D01*
X39242850Y-13401671D01*
X39252945Y-13471946D01*
X39223445Y-13536523D01*
X39163714Y-13574900D01*
X39128230Y-13580000D01*
X9772129Y-13580000D01*
X9704008Y-13559998D01*
X9683108Y-13543169D01*
X8287238Y-12149614D01*
X7753572Y-11616833D01*
X7719496Y-11554550D01*
X7716594Y-11527874D01*
X7716594Y-11527810D01*
X7699568Y-1269999D01*
X10193844Y-1269999D01*
X10212437Y-1494375D01*
X10267702Y-1712612D01*
X10267703Y-1712613D01*
X10358141Y-1918793D01*
X10481275Y-2107265D01*
X10481279Y-2107270D01*
X10633762Y-2272908D01*
X10688331Y-2315381D01*
X10811424Y-2411189D01*
X11009426Y-2518342D01*
X11009427Y-2518342D01*
X11009428Y-2518343D01*
X11038875Y-2528452D01*
X11222365Y-2591444D01*
X11444431Y-2628500D01*
X11444435Y-2628500D01*
X11669565Y-2628500D01*
X11669569Y-2628500D01*
X11891635Y-2591444D01*
X12104574Y-2518342D01*
X12302576Y-2411189D01*
X12480240Y-2272906D01*
X12541245Y-2206637D01*
X12602096Y-2170067D01*
X12673061Y-2172200D01*
X12731606Y-2212362D01*
X12752000Y-2247941D01*
X12796111Y-2366204D01*
X12796112Y-2366207D01*
X12883738Y-2483261D01*
X13000792Y-2570887D01*
X13000794Y-2570888D01*
X13000796Y-2570889D01*
X13055900Y-2591442D01*
X13137795Y-2621988D01*
X13137803Y-2621990D01*
X13198350Y-2628499D01*
X13198355Y-2628499D01*
X13198362Y-2628500D01*
X13198368Y-2628500D01*
X14995632Y-2628500D01*
X14995638Y-2628500D01*
X14995645Y-2628499D01*
X14995649Y-2628499D01*
X15056196Y-2621990D01*
X15056199Y-2621989D01*
X15056201Y-2621989D01*
X15193204Y-2570889D01*
X15263399Y-2518342D01*
X15310261Y-2483261D01*
X15397887Y-2366207D01*
X15397887Y-2366206D01*
X15397889Y-2366204D01*
X15448989Y-2229201D01*
X15449856Y-2221143D01*
X15455499Y-2168649D01*
X15455500Y-2168632D01*
X15455500Y-371367D01*
X15455499Y-371350D01*
X15448990Y-310803D01*
X15448988Y-310795D01*
X15407663Y-200001D01*
X15397889Y-173796D01*
X15397888Y-173794D01*
X15397887Y-173792D01*
X15310261Y-56738D01*
X15193207Y30888D01*
X15193202Y30890D01*
X15056204Y81989D01*
X15056196Y81991D01*
X14995649Y88500D01*
X14995638Y88500D01*
X13198362Y88500D01*
X13198350Y88500D01*
X13137803Y81991D01*
X13137795Y81989D01*
X13000797Y30890D01*
X13000792Y30888D01*
X12883738Y-56738D01*
X12796112Y-173792D01*
X12796111Y-173795D01*
X12752000Y-292058D01*
X12709453Y-348893D01*
X12642932Y-373703D01*
X12573558Y-358611D01*
X12541246Y-333363D01*
X12480240Y-267094D01*
X12480239Y-267093D01*
X12480237Y-267091D01*
X12394039Y-200000D01*
X12302576Y-128811D01*
X12104574Y-21658D01*
X12104572Y-21657D01*
X12104571Y-21656D01*
X11891639Y51443D01*
X11891630Y51445D01*
X11847476Y58813D01*
X11669569Y88500D01*
X11444431Y88500D01*
X11296210Y63767D01*
X11222369Y51445D01*
X11222360Y51443D01*
X11009428Y-21656D01*
X11009426Y-21658D01*
X10811426Y-128810D01*
X10811424Y-128811D01*
X10633762Y-267091D01*
X10481279Y-432729D01*
X10481275Y-432734D01*
X10358141Y-621206D01*
X10267703Y-827386D01*
X10267702Y-827387D01*
X10212437Y-1045624D01*
X10193844Y-1269999D01*
X7699568Y-1269999D01*
X7691363Y3673351D01*
X10198500Y3673351D01*
X10205009Y3612804D01*
X10205011Y3612796D01*
X10256110Y3475798D01*
X10256112Y3475793D01*
X10343738Y3358739D01*
X10460792Y3271113D01*
X10460794Y3271112D01*
X10460796Y3271111D01*
X10491851Y3259528D01*
X10597795Y3220012D01*
X10597803Y3220010D01*
X10658350Y3213501D01*
X10658355Y3213501D01*
X10658362Y3213500D01*
X10658368Y3213500D01*
X12455632Y3213500D01*
X12455638Y3213500D01*
X12455645Y3213501D01*
X12455649Y3213501D01*
X12516196Y3220010D01*
X12516199Y3220011D01*
X12516201Y3220011D01*
X12653204Y3271111D01*
X12723399Y3323658D01*
X12770261Y3358739D01*
X12857886Y3475792D01*
X12857885Y3475792D01*
X12857889Y3475796D01*
X12901999Y3594061D01*
X12944545Y3650893D01*
X13011066Y3675704D01*
X13080440Y3660612D01*
X13112753Y3635365D01*
X13173760Y3569094D01*
X13173762Y3569092D01*
X13217291Y3535212D01*
X13351424Y3430811D01*
X13549426Y3323658D01*
X13549427Y3323658D01*
X13549428Y3323657D01*
X13598505Y3306809D01*
X13762365Y3250556D01*
X13984431Y3213500D01*
X13984435Y3213500D01*
X14209565Y3213500D01*
X14209569Y3213500D01*
X14431635Y3250556D01*
X14644574Y3323658D01*
X14842576Y3430811D01*
X15020240Y3569094D01*
X15172722Y3734732D01*
X15295860Y3923209D01*
X15386296Y4129384D01*
X15441564Y4347632D01*
X15460156Y4572000D01*
X15441564Y4796368D01*
X15386296Y5014616D01*
X15295860Y5220791D01*
X15278500Y5247363D01*
X15172724Y5409266D01*
X15172720Y5409271D01*
X15020237Y5574909D01*
X14900367Y5668208D01*
X14842576Y5713189D01*
X14644574Y5820342D01*
X14644572Y5820343D01*
X14644571Y5820344D01*
X14431639Y5893443D01*
X14431630Y5893445D01*
X14387476Y5900813D01*
X14209569Y5930500D01*
X13984431Y5930500D01*
X13836211Y5905767D01*
X13762369Y5893445D01*
X13762360Y5893443D01*
X13549428Y5820344D01*
X13549426Y5820342D01*
X13351426Y5713190D01*
X13351424Y5713189D01*
X13173762Y5574909D01*
X13112754Y5508637D01*
X13051901Y5472067D01*
X12980936Y5474202D01*
X12922391Y5514364D01*
X12901999Y5549943D01*
X12857889Y5668203D01*
X12857887Y5668208D01*
X12770261Y5785262D01*
X12653207Y5872888D01*
X12653202Y5872890D01*
X12516204Y5923989D01*
X12516196Y5923991D01*
X12455649Y5930500D01*
X12455638Y5930500D01*
X10658362Y5930500D01*
X10658350Y5930500D01*
X10597803Y5923991D01*
X10597795Y5923989D01*
X10460797Y5872890D01*
X10460792Y5872888D01*
X10343738Y5785262D01*
X10256112Y5668208D01*
X10256110Y5668203D01*
X10205011Y5531205D01*
X10205009Y5531197D01*
X10198500Y5470650D01*
X10198500Y3673351D01*
X7691363Y3673351D01*
X7673405Y14492726D01*
X7693294Y14560877D01*
X7710266Y14581984D01*
X9633050Y16506489D01*
X9695345Y16540540D01*
X9722269Y16543431D01*
X37084999Y16522500D01*
G37*
%TD.AperFunction*%
%TA.AperFunction,Conductor*%
G36*
X33498916Y-5764105D02*
G01*
X33536729Y-5824194D01*
X33541500Y-5858539D01*
X33541500Y-10136774D01*
X33521498Y-10204895D01*
X33467842Y-10251388D01*
X33397568Y-10261492D01*
X33394769Y-10261057D01*
X33277569Y-10241500D01*
X33052431Y-10241500D01*
X32932625Y-10261492D01*
X32830369Y-10278555D01*
X32830360Y-10278557D01*
X32617428Y-10351656D01*
X32617426Y-10351658D01*
X32419426Y-10458810D01*
X32419424Y-10458811D01*
X32241762Y-10597091D01*
X32180754Y-10663363D01*
X32119901Y-10699933D01*
X32048936Y-10697798D01*
X31990391Y-10657636D01*
X31969999Y-10622057D01*
X31925889Y-10503797D01*
X31925887Y-10503792D01*
X31838261Y-10386738D01*
X31721207Y-10299112D01*
X31721202Y-10299110D01*
X31584204Y-10248011D01*
X31584196Y-10248009D01*
X31523649Y-10241500D01*
X31523638Y-10241500D01*
X29804489Y-10241500D01*
X29736368Y-10221498D01*
X29689875Y-10167842D01*
X29678489Y-10115500D01*
X29678489Y-7969806D01*
X29698491Y-7901685D01*
X29752147Y-7855192D01*
X29822421Y-7845088D01*
X29887001Y-7874582D01*
X29913607Y-7906804D01*
X29949981Y-7969806D01*
X29995958Y-8049441D01*
X29995965Y-8049451D01*
X30123744Y-8191364D01*
X30123747Y-8191366D01*
X30278248Y-8303618D01*
X30452712Y-8381294D01*
X30639513Y-8421000D01*
X30830487Y-8421000D01*
X31017288Y-8381294D01*
X31191752Y-8303618D01*
X31346253Y-8191366D01*
X31474040Y-8049444D01*
X31569527Y-7884056D01*
X31628542Y-7702428D01*
X31648504Y-7512500D01*
X31628542Y-7322572D01*
X31569527Y-7140944D01*
X31474040Y-6975556D01*
X31400863Y-6894284D01*
X31370146Y-6830276D01*
X31368500Y-6809974D01*
X31368500Y-6523673D01*
X31388502Y-6455552D01*
X31442158Y-6409059D01*
X31512432Y-6398955D01*
X31577012Y-6428449D01*
X31588130Y-6439356D01*
X31713747Y-6578868D01*
X31868248Y-6691120D01*
X32042712Y-6768796D01*
X32229513Y-6808502D01*
X32420487Y-6808502D01*
X32607288Y-6768796D01*
X32781752Y-6691120D01*
X32936253Y-6578868D01*
X32945981Y-6568064D01*
X33064034Y-6436953D01*
X33064035Y-6436951D01*
X33064040Y-6436946D01*
X33159527Y-6271558D01*
X33218542Y-6089930D01*
X33238504Y-5900002D01*
X33237974Y-5894961D01*
X33250743Y-5825124D01*
X33299242Y-5773275D01*
X33312027Y-5766683D01*
X33364252Y-5743431D01*
X33434619Y-5733998D01*
X33498916Y-5764105D01*
G37*
%TD.AperFunction*%
%TD*%
M02*
